<svg xmlns="http://www.w3.org/2000/svg" xmlns:xlink="http://www.w3.org/1999/xlink" width="250.15" height="195.733" viewBox="0 0 250.15 195.733">
  <defs>
    <linearGradient id="linear-gradient" y1="0.5" x2="1" y2="0.5" gradientUnits="objectBoundingBox">
      <stop offset="0" stop-color="gray" stop-opacity="0.251"/>
      <stop offset="0.54" stop-color="gray" stop-opacity="0.122"/>
      <stop offset="1" stop-color="gray" stop-opacity="0.102"/>
    </linearGradient>
  </defs>
  <g id="undraw_empty_xct9" transform="translate(0.004 -0.003)">
    <ellipse id="Ellipse_1069" data-name="Ellipse 1069" cx="43.635" cy="8.266" rx="43.635" ry="8.266" transform="translate(44.11 175.413)" fill="#846be2" opacity="0.1"/>
    <path id="Path_1421" data-name="Path 1421" d="M240.566,82.636c-16.037-.555-31.31-5.734-45.895-11.4S165.64,59.3,149.988,56.3c-10.068-1.93-21.582-2.205-29.692,3.187-7.808,5.2-10.33,14.161-11.686,22.479-1.021,6.259-1.621,12.848,1.175,18.708,1.943,4.069,5.387,7.488,7.771,11.386,8.293,13.559,2.431,30.279-6.554,43.519-4.212,6.21-9.106,12.142-12.36,18.745s-4.757,14.2-1.91,20.95c2.82,6.69,9.542,11.705,16.825,15.236,14.79,7.173,32.212,9.225,49.213,10.39,37.621,2.572,75.441,1.459,113.161.342,13.96-.411,27.98-.83,41.712-2.988,7.627-1.2,15.5-3.1,21.037-7.7,7.027-5.83,8.769-15.7,4.059-23.012-7.9-12.265-29.734-15.311-35.262-28.471-3.038-7.245.082-15.313,4.5-22.031,9.475-14.414,25.356-27.058,26.191-43.531.575-11.314-7.059-22.645-18.864-28-12.372-5.612-29.531-4.906-38.655,4.383C271.244,79.449,254.727,83.129,240.566,82.636Z" transform="translate(-95.23 -55.03)" fill="#846be2" opacity="0.1"/>
    <path id="Path_1422" data-name="Path 1422" d="M395.463,216.963l-7.59-5.117h0l3.828-5.7-20.046-1.6-7.2,5.57-9.017-5.055-7.52.9-.089-1.982a55.95,55.95,0,0,0-.622-6.17c.032-.619.055-1.331.052-2.1,0-3.258-.441-7.577-2.379-10.457l.446-4.009-3.618-4.274a27.35,27.35,0,0,1,1.982-3.335c.124-.178.248-.352.382-.52a9,9,0,0,0,8.4-8.92,5.708,5.708,0,0,0-.025-.652,2.358,2.358,0,0,0-.027-.263c.458.248.922.5,1.385.743.087.124.186.248.295.394h0l.022.027.139.171.045.052c.05.059.1.116.154.176l.035.04c.131.146.27.295.419.441a.446.446,0,0,1,.05.047l.186.173.052.047c.159.141.327.278.5.406l.055.04.213.146.069.045c.082.05.166.1.248.149l.03.017c.1.052.2.1.295.149l.05.02.248.1.077.027c.087.03.171.057.26.082l.055.015c.109.027.218.05.33.067h.012a2.7,2.7,0,0,0,.317.032h.072a2.723,2.723,0,0,0,.285,0h.062a2.935,2.935,0,0,0,.354-.042,3.91,3.91,0,0,0,1.561-.56A1.363,1.363,0,0,0,360.6,166a1.168,1.168,0,0,0-.05-1.36h0c-.193-.461-1.447-.785-1.447-.785s-3.965-1.655-3.965-2.973-.991-8.157-11.222-9.721c0,0-6.656-.374-8.526,3.189l-.04.416c-.55.344-1.006,1.036-1.549,1.239a2.53,2.53,0,0,0-.671.248V156.2h0a.639.639,0,0,0-.151.2,1.982,1.982,0,0,0-.206.743,2.8,2.8,0,0,1-.325.9,2,2,0,0,1-.149.228h0l-.042.067a1.809,1.809,0,0,0,.842-.136,4.2,4.2,0,0,1-.248.991.823.823,0,0,0,.763-.456v-.02l.032-.045a2.091,2.091,0,0,0,.154-.359l-.027.03c.05-.161.094-.325.149-.483a.758.758,0,0,1,.121-.248.6.6,0,0,1,.513-.171l-.1,2.148h.045a2.93,2.93,0,0,1-.218.451c-.352.57-.991.959-1.227,1.583a2.329,2.329,0,0,0-.114.937c0,.186.022.374.037.56V163.1a2.09,2.09,0,0,1-.223,1.365c-.183.273-.478.478-.58.788a.768.768,0,0,0-.037.268,3,3,0,0,0,.168.8.035.035,0,0,0,0-.015,1.209,1.209,0,0,1,.042.585c-.111.5-.714.909-.684,1.383a.532.532,0,0,0,.027.183,1,1,0,0,0,.56.5,2.181,2.181,0,0,0,1.259.278,1.656,1.656,0,0,0,.471-.161c-.173.4-.352.793-.533,1.167-.027.059-.057.119-.087.178,0,0-1.531-1.023-2.4,1.063a4.629,4.629,0,0,0-.538,1.4,3.327,3.327,0,0,1-.183.575,3.7,3.7,0,0,1-1.655,1.487c-1.774.813-8.94,9.75-9.066,12.065a13.5,13.5,0,0,1-.456,2.671,15.9,15.9,0,0,0-.426,6.316,12.081,12.081,0,0,0,.439,2.014,45.135,45.135,0,0,1,1.269,6.626l.823,7.488a21.312,21.312,0,0,0,.134,3.095c-.84.959-4.212,4.956-2.924,6.044.991.857,2.726.716,3.7.54a31.485,31.485,0,0,0-2.282,7.981c-.248,3.585.424,8.336,1.487,10.159s4.606,6.5,4.606,6.5-.166,6.418,1.1,8.749,1.777,7.168,1.777,7.168,1.182,4.083.59,5.585,1.1,2.75-.676,3.749-4.044,23.5-4.044,23.5-.914,14.751,0,15.5a.929.929,0,0,0,.156.092v4.956s-.634,1.041,1.945,1.251c1.767.141,6.774.461,9.745.647l2.3.144s5.451,1.085,7.86,0,6.678-1.061,6.044-3.927a8.156,8.156,0,0,0-.337-1.147c-.7-1.779-1.878-1.982-4.056-2.478-.126-.027-.248-.052-.359-.072-2.295-.4-3.048.669-4.334-.721-1.117-1.2-4.676-2.547-5.887-2.973.03-.089.067-.176.1-.268a1.814,1.814,0,0,1-.919-.449l3.283.208,1.955.121s4.634.924,6.69,0,5.674-.9,5.134-3.335a6.979,6.979,0,0,0-.285-.976c-.592-1.511-1.6-1.677-3.449-2.1-.107-.022-.206-.045-.3-.062-1.95-.339-2.589.567-3.682-.612-.937-1.006-3.893-2.133-4.956-2.517,0-.55-.743-1.333-1.212-2.119-.55-.917.466-4.126.466-4.126l.58-13.314a2.572,2.572,0,0,1,.694-.2s2.622-2.5,2.029-5.169a17.134,17.134,0,0,1-.188-2.436,12.514,12.514,0,0,0,2.386-2.711c.55-1.187,0-6.938,0-6.938V237.477l4.386.444,3.979.409,1.212.124,3.979.4,9.146.924,8.241-1.561,3.566-.674,7.332-1.388v-17.94ZM335.1,157.516l-.51-.055C334.758,157.469,334.936,157.5,335.1,157.516Z" transform="translate(-262.871 -127.326)" fill="url(#linear-gradient)"/>
    <path id="Path_1423" data-name="Path 1423" d="M500.218,436.527c-2.478,3.546-11.386,1.668-11.386,1.668l-6.9-6.46L481,430.86l1.559-3.31s.5.136,1.346.379C488.367,429.225,502.31,433.546,500.218,436.527Z" transform="translate(-385.415 -335.242)" fill="#efb7b9"/>
    <path id="Path_1424" data-name="Path 1424" d="M483.9,427.929a14.537,14.537,0,0,1-1.97,3.806L481,430.86l1.559-3.31S483.059,427.686,483.9,427.929Z" transform="translate(-385.415 -335.242)" opacity="0.1"/>
    <path id="Path_1425" data-name="Path 1425" d="M378.747,278.1s-6.363,2.822-6.051,9.753a114.267,114.267,0,0,0,1.457,13.321s-1.3,10.429,4.116,13.118,10.429,4.9,10.429,4.9,8.474.912,9.527,1.288,4.344-5.382,3.737-6.279-8.385-2.778-9.376-4.274a8.274,8.274,0,0,0-3.283-2.421s-2.366-1.432-2.527-2.726a5.884,5.884,0,0,1,.622-2.825c.159-.567.56-6.046.56-6.046S390.628,276.412,378.747,278.1Z" transform="translate(-303.939 -222.749)" fill="#dce6f2"/>
    <path id="Path_1426" data-name="Path 1426" d="M389.99,370.39s-8.73,1.462-7.885,4.517A18.507,18.507,0,0,1,389.99,370.39Z" transform="translate(-310.981 -292.246)" opacity="0.1"/>
    <path id="Path_1427" data-name="Path 1427" d="M402.281,375.38s-4.8,3.918-3.86,4.118S402.281,375.38,402.281,375.38Z" transform="translate(-323.206 -295.999)" opacity="0.1"/>
    <path id="Path_1428" data-name="Path 1428" d="M421.4,380.89s-1.286,2.634-.5,2.456S421.4,380.89,421.4,380.89Z" transform="translate(-340.014 -300.144)" opacity="0.1"/>
    <path id="Path_1429" data-name="Path 1429" d="M403.716,316.558l-.53-.151a1.515,1.515,0,0,0,.069-1.083c-.607-.9-8.38-2.775-9.369-4.274a8.23,8.23,0,0,0-3.283-2.421s-2.366-1.432-2.527-2.726a5.883,5.883,0,0,1,.622-2.825c.159-.567.56-6.048.56-6.048s2.664-19.5-9.218-17.806c0,0-6.363,2.825-6.053,9.755a113.949,113.949,0,0,0,1.459,13.321s-1.3,10.429,4.116,13.118,10.429,4.9,10.429,4.9,8.472.909,9.527,1.288c.4.144,1.12-.6,1.826-1.616l.4.374,6.9,6.457s8.908,1.881,11.386-1.665C422.129,322.173,408.189,317.851,403.716,316.558Z" transform="translate(-304.91 -223.591)" opacity="0.1"/>
    <path id="Path_1430" data-name="Path 1430" d="M377.842,169.114a2.106,2.106,0,0,0-.686.265c-.248.206-.248.558-.31.865a2.845,2.845,0,0,1-.5,1.184,1.782,1.782,0,0,0,.825-.136,4.247,4.247,0,0,1-.248.991.8.8,0,0,0,.743-.453,4.775,4.775,0,0,0,.31-.87.715.715,0,0,1,.119-.248c.228-.27.652-.149,1-.114a1.648,1.648,0,0,0,1.507-.724c.374-.567.4-2.019-.5-2.173C379.182,167.548,378.6,168.831,377.842,169.114Z" transform="translate(-306.696 -139.771)" fill="#965d7b"/>
    <g id="Group_2948" data-name="Group 2948" transform="translate(69.692 29.544)" opacity="0.1">
      <path id="Path_1431" data-name="Path 1431" d="M378.312,174.619c.022-.121.037-.248.064-.369h0a1.453,1.453,0,0,0-.31.865,2.724,2.724,0,0,1-.146.523A2.84,2.84,0,0,0,378.312,174.619Z" transform="translate(-377.568 -174.25)"/>
      <path id="Path_1432" data-name="Path 1432" d="M377.323,180.991a4.12,4.12,0,0,0,.248-.991,1.774,1.774,0,0,1-.785.136,2.867,2.867,0,0,1-.285.5,1.765,1.765,0,0,0,.823-.134,4.122,4.122,0,0,1-.248.991.805.805,0,0,0,.743-.453,1.85,1.85,0,0,0,.149-.354A.743.743,0,0,1,377.323,180.991Z" transform="translate(-376.5 -178.575)"/>
      <path id="Path_1433" data-name="Path 1433" d="M385,175.357c-.352-.035-.778-.156-1.006.114a.766.766,0,0,0-.119.248c-.022.064-.042.131-.059.2.235-.186.617-.087.937-.055a1.655,1.655,0,0,0,1.507-.724,1.373,1.373,0,0,0,.166-.389,1.65,1.65,0,0,1-1.425.607Z" transform="translate(-382.006 -174.626)"/>
    </g>
    <path id="Path_1434" data-name="Path 1434" d="M313.351,201l3.779,4.544-.493,4.587-4.567-7.149Z" transform="translate(-234.747 -151.193)" fill="#dce6f2"/>
    <path id="Path_1435" data-name="Path 1435" d="M317.127,205.544l-.463,4.314-.03.273-4.121-6.452-.444-.7.129-.2,1.15-1.782.255.307Z" transform="translate(-234.747 -151.193)" opacity="0.1"/>
    <path id="Path_1436" data-name="Path 1436" d="M388.112,210.928a7.576,7.576,0,0,0-3.563,3.154,26.925,26.925,0,0,0-1.923,3.305c-.349.7-.657,1.37-.912,1.955l-.178.416c-.431,1.018-.671,1.7-.671,1.7s-9.788-7.359-8.239-7.855c.52-.166,1.2-1.281,1.881-2.686l.084-.178c.429-.9.85-1.908,1.224-2.854.766-1.945,1.333-3.635,1.333-3.635S392.015,209.813,388.112,210.928Z" transform="translate(-303.769 -167.273)" fill="#efb7b9"/>
    <path id="Path_1437" data-name="Path 1437" d="M459.26,202.58s2.26,4.088,5.3,3.531,1.787-2.2,1.787-2.2Z" transform="translate(-369.062 -166.017)" fill="#444053"/>
    <path id="Path_1438" data-name="Path 1438" d="M386.333,744.439c-2,.914-6.529,0-6.529,0l-1.908-.119c-2.478-.159-6.626-.426-8.093-.545-2.141-.176-1.616-1.053-1.616-1.053v-5.3l10.387-2.632s4.106,1.4,5.231,2.632c1.068,1.169,1.692.27,3.6.607.094.017.193.037.3.062,1.809.414,2.79.577,3.37,2.076a6.964,6.964,0,0,1,.28.966C391.885,743.547,388.332,743.529,386.333,744.439Z" transform="translate(-300.513 -566.353)" fill="#a36468"/>
    <path id="Path_1439" data-name="Path 1439" d="M391.07,750a7.758,7.758,0,0,1-1.17.6c-1.363.622-2.659,1.38-4.036,1.967a9.441,9.441,0,0,1-4.354.895,6.492,6.492,0,0,0-2.324-.025,5.368,5.368,0,0,0-1.291.716c-2.478-.159-6.626-.426-8.093-.545-2.141-.176-1.616-1.053-1.616-1.053v-.62c.077,0,.164-.022.263-.03a4.676,4.676,0,0,1,1.512.225c1.075.292,2.146.58,3.221.867a2.545,2.545,0,0,1,1.239-1.581,3.948,3.948,0,0,1,2-.458c1.668.022,3.246.813,4.911.892a2.705,2.705,0,0,0,1.36-.228c.228-.114.429-.28.652-.406a4.758,4.758,0,0,1,1.122-.379,24.731,24.731,0,0,0,3.209-1.036c.3-.116.644-.327.6-.644-.052-.421-.714-.471-.887-.857a.5.5,0,0,1,.02-.439c.094.017.193.037.3.062C389.509,748.336,390.49,748.5,391.07,750Z" transform="translate(-300.513 -576.184)" opacity="0.1"/>
    <path id="Path_1440" data-name="Path 1440" d="M368.042,786.056c-2.354,1.075-7.681,0-7.681,0l-2.242-.131c-2.9-.186-7.8-.5-9.522-.642-2.52-.208-1.9-1.239-1.9-1.239V777.8l12.223-3.1s4.832,1.653,6.155,3.1c1.256,1.375,1.982.317,4.235.714.112.02.228.045.349.072,2.128.5,3.283.681,3.965,2.446a7.959,7.959,0,0,1,.33,1.137C374.567,785.005,370.4,784.983,368.042,786.056Z" transform="translate(-284.339 -596.374)" fill="#a36468"/>
    <path id="Path_1441" data-name="Path 1441" d="M373.618,792.635a9.231,9.231,0,0,1-1.375.706c-1.6.731-3.13,1.623-4.75,2.314a11.137,11.137,0,0,1-5.124,1.053,7.478,7.478,0,0,0-2.726-.03,6.321,6.321,0,0,0-1.524.852c-2.9-.186-7.8-.5-9.522-.642-2.52-.208-1.9-1.239-1.9-1.239v-.728a3.069,3.069,0,0,1,.31-.035,5.438,5.438,0,0,1,1.779.265l3.789,1.021a3,3,0,0,1,1.469-1.861,4.623,4.623,0,0,1,2.351-.54c1.962.027,3.818.956,5.778,1.051a3.2,3.2,0,0,0,1.6-.265c.27-.136.5-.332.768-.478a5.393,5.393,0,0,1,1.321-.446,29.647,29.647,0,0,0,3.756-1.219c.349-.139.758-.386.711-.758-.062-.5-.84-.555-1.046-1.011a.6.6,0,0,1,.025-.515c.112.02.228.045.349.072C371.782,790.678,372.936,790.871,373.618,792.635Z" transform="translate(-284.339 -607.98)" opacity="0.1"/>
    <path id="Path_1442" data-name="Path 1442" d="M386.9,647.54l-.662,15.568s-.991,3.179-.453,4.089,1.445,1.816,1.115,2.354-4.294,6.351-5.575,4.121-2.545-11.894-2.545-11.894l1.182-11.936Z" transform="translate(-308.523 -500.722)" fill="#444053"/>
    <path id="Path_1443" data-name="Path 1443" d="M411.847,491l1.839,2.458v21.379s.538,5.7,0,6.876-3.263,3.531-3.263,3.531l-2.292-11.77.5-12.451Z" transform="translate(-330.601 -382.97)" fill="#444053"/>
    <path id="Path_1444" data-name="Path 1444" d="M386.9,647.54l-.662,15.568s-.991,3.179-.453,4.089,1.445,1.816,1.115,2.354-4.294,6.351-5.575,4.121-2.545-11.894-2.545-11.894l1.182-11.936Z" transform="translate(-308.523 -500.722)" opacity="0.1"/>
    <path id="Path_1445" data-name="Path 1445" d="M411.847,491l1.839,2.458v21.379s.538,5.7,0,6.876-3.263,3.531-3.263,3.531l-2.292-11.77.5-12.451Z" transform="translate(-330.601 -382.97)" opacity="0.1"/>
    <path id="Path_1446" data-name="Path 1446" d="M352.658,436.147v11.564l-2.064,9s-.662,21.723-.084,24.365-1.982,5.122-1.982,5.122-1.487.166-1.487,1.321-2.478,4.46-2.478,4.46l.082,6.442s1.075,12.06-.577,14.372.577,2.644.577,2.644c-2.064,6.772-11.975,5.2-12.87,4.46s0-15.363,0-15.363,2.215-22.3,3.95-23.292.084-2.23.662-3.717-.577-5.533-.577-5.533-.5-4.792-1.734-7.1S333,456.218,333,456.218s-3.469-4.626-4.5-6.442-1.695-6.524-1.447-10.077a31.662,31.662,0,0,1,2.23-7.909c.384-.964.662-1.588.662-1.588l.235.062,13.534,3.543Z" transform="translate(-269.574 -337.236)" fill="#444053"/>
    <path id="Path_1447" data-name="Path 1447" d="M398.29,210.875a7.576,7.576,0,0,0-3.563,3.154h-.278a8.851,8.851,0,0,1-7.681-4.443,8.717,8.717,0,0,1-.778-1.772c.766-1.945,1.333-3.635,1.333-3.635S402.193,209.76,398.29,210.875Z" transform="translate(-313.947 -167.22)" opacity="0.1"/>
    <path id="Path_1448" data-name="Path 1448" d="M402.1,179.288a8.858,8.858,0,1,1-16.572-4.341,8.655,8.655,0,0,1,.937-1.353A8.964,8.964,0,0,1,388.5,171.8a8.858,8.858,0,0,1,13.586,6.834C402.089,178.857,402.1,179.072,402.1,179.288Z" transform="translate(-312.736 -141.828)" fill="#efb7b9"/>
    <path id="Path_1449" data-name="Path 1449" d="M385.686,245.639l-.03.273-4.121-6.442c-.431,1.018-.671,1.7-.671,1.7s-9.788-7.369-8.239-7.865c.52-.166,1.2-1.281,1.881-2.686l.084-.178c.719,2.141,4.894,6.42,6.631,8.135.2.2.367.362.5.481l.265.248.139.139C382.753,240.094,385.419,242.968,385.686,245.639Z" transform="translate(-303.769 -186.973)" opacity="0.1"/>
    <path id="Path_1450" data-name="Path 1450" d="M349.672,267.28l-.451,14.513-.079,2.584s-5.342-.5-10.328-1.041a67.262,67.262,0,0,1-8.38-1.189,15.772,15.772,0,0,0-3.593-.79c-.971-.131-1.734-.2-1.734-.2s-.285.084-.724.164c-.956.173-2.636.315-3.615-.535-1.251-1.088,2.037-5.04,2.857-5.989l.181-.206-.31-2.862-.805-7.421a45.279,45.279,0,0,0-1.239-6.566,12.107,12.107,0,0,1-.429-1.995,15.977,15.977,0,0,1,.416-6.259,13.648,13.648,0,0,0,.446-2.649c.124-2.292,7.124-11.15,8.858-11.956a3.677,3.677,0,0,0,1.774-1.769,3.38,3.38,0,0,0,.27-.771c.743-3.221,2.624-1.943,2.624-1.943.453,2.52,7.473,9.19,7.473,9.19l.139.139c.7.714,3.8,4.064,3.578,6.923a8.392,8.392,0,0,0,.468,3.132,52.963,52.963,0,0,1,2.441,13.876Z" transform="translate(-264.674 -186.755)" fill="#dce6f2"/>
    <path id="Path_1451" data-name="Path 1451" d="M388.252,310.45s-1.734,4.212-3.035,4.894S388.871,316.781,388.252,310.45Z" transform="translate(-313.2 -247.158)" opacity="0.1"/>
    <path id="Path_1452" data-name="Path 1452" d="M391.345,342.2s-3.965.5-3.965,1.239S391.345,342.2,391.345,342.2Z" transform="translate(-314.992 -271.041)" opacity="0.1"/>
    <path id="Path_1453" data-name="Path 1453" d="M397.165,361.7s-5.761,12.265-7.372,12.637S397.165,361.7,397.165,361.7Z" transform="translate(-316.662 -285.709)" opacity="0.1"/>
    <path id="Path_1454" data-name="Path 1454" d="M378.516,241.679l-4.765,2.072L368,235.063a3.38,3.38,0,0,0,.27-.771c.743-3.221,2.624-1.943,2.624-1.943.453,2.52,7.473,9.19,7.473,9.19Z" transform="translate(-300.415 -188.222)" opacity="0.1"/>
    <path id="Path_1455" data-name="Path 1455" d="M379.516,239.679l-4.765,2.071L369,233.063a3.379,3.379,0,0,0,.27-.771c.743-3.221,2.624-1.943,2.624-1.943.453,2.52,7.473,9.19,7.473,9.19Z" transform="translate(-301.167 -186.717)" fill="#dce6f2"/>
    <path id="Path_1456" data-name="Path 1456" d="M356.957,330.776s-5.342-.5-10.328-1.041l8.945,2.342V334.8c-.392.354-.731.538-.951.444-1.031-.434-9.443-1.8-9.443-1.8s-4.886-2.478-10.159-5.451a4.08,4.08,0,0,1-.372-.233,5.859,5.859,0,0,1-1.561-1.564,11.1,11.1,0,0,1-1.655-5,21.612,21.612,0,0,1-.129-3.068,25.15,25.15,0,0,1,.317-3.467,113.988,113.988,0,0,1-.743-13.38c.062-6.938,6.566-9.416,6.566-9.416,11.956-1.053,8.249,18.274,8.249,18.274s-.691,5.451-.88,6.009a5.883,5.883,0,0,0-.773,2.788c.092,1.3,2.376,2.857,2.376,2.857a8.343,8.343,0,0,1,3.149,2.594c.669,1.142,5.015,2.691,7.471,3.8Z" transform="translate(-272.49 -233.154)" opacity="0.1"/>
    <path id="Path_1457" data-name="Path 1457" d="M401.154,170.287a2.805,2.805,0,0,1-.248,1.184,7.333,7.333,0,0,1-.441.882,4.063,4.063,0,0,1-1.085,1.348,5.552,5.552,0,0,1-1.982.689,2.869,2.869,0,0,0-1.792,1.016,3.554,3.554,0,0,0-.419,1.214,2.612,2.612,0,0,1-.5,1.175.974.974,0,0,1-1.16.278,1.172,1.172,0,0,1-.449-.577,8.281,8.281,0,0,1-.468-2.029,4.317,4.317,0,0,0-.7-1.945,1.742,1.742,0,0,0-1.829-.7,1.762,1.762,0,0,0-.991.961,5.512,5.512,0,0,0-.374,1.368q-.461,2.522-1.088,5.015a.461.461,0,0,1-.082.188.357.357,0,0,1-.248.1c-.555.074-1.088-.315-1.648-.273a.947.947,0,0,0-.171.027,8.853,8.853,0,0,1,.894-10.11l.045-.012a2.671,2.671,0,0,0,.991-.624,10.46,10.46,0,0,0,.991-1.147l.2-.248a11.3,11.3,0,0,1,1.933-1.836,1.982,1.982,0,0,1,.659-.357,1.953,1.953,0,0,1,.624-.02,15.749,15.749,0,0,0,2.579.1,16.551,16.551,0,0,1,1.811-.183,5.576,5.576,0,0,1,3.9,2.366A3.665,3.665,0,0,1,401.154,170.287Z" transform="translate(-312.682 -138.328)" opacity="0.1"/>
    <path id="Path_1458" data-name="Path 1458" d="M376.569,170.953c-.344.565-.966.949-1.2,1.568-.342.9.235,2.019-.295,2.822-.176.27-.466.471-.565.781-.168.523.292,1.08.173,1.618s-.828.991-.639,1.516a.991.991,0,0,0,.545.5,2.131,2.131,0,0,0,1.239.275c.676-.111,1.179-.776,1.866-.825.557-.04,1.09.347,1.645.275a.372.372,0,0,0,.248-.107.429.429,0,0,0,.082-.188q.624-2.49,1.09-5.015a5.4,5.4,0,0,1,.372-1.368,1.777,1.777,0,0,1,.991-.961,1.748,1.748,0,0,1,1.829.7,4.291,4.291,0,0,1,.7,1.945,8.392,8.392,0,0,0,.466,2.029,1.184,1.184,0,0,0,.451.58.97.97,0,0,0,1.157-.278,2.584,2.584,0,0,0,.5-1.177,3.538,3.538,0,0,1,.419-1.212,2.875,2.875,0,0,1,1.791-1.016,5.607,5.607,0,0,0,1.982-.691,4.078,4.078,0,0,0,1.085-1.345,3.961,3.961,0,0,0,.679-2.069,3.8,3.8,0,0,0-1.016-2.143,5.569,5.569,0,0,0-3.9-2.364,15.42,15.42,0,0,0-1.811.183,15.5,15.5,0,0,1-2.579-.1,2.027,2.027,0,0,0-.624.022,1.868,1.868,0,0,0-.657.357,11.308,11.308,0,0,0-1.935,1.834,14.2,14.2,0,0,1-1.194,1.388,2.688,2.688,0,0,1-.991.627c-.248.069-.5.02-.731.1C377.005,169.439,376.908,170.393,376.569,170.953Z" transform="translate(-304.937 -137.598)" fill="#965d7b"/>
    <path id="Path_1459" data-name="Path 1459" d="M464.555,206.108c-1.982.364-3.625-1.239-4.534-2.408a9.719,9.719,0,0,1-.761-1.12l6.8,1.284.275.052S467.591,205.553,464.555,206.108Z" transform="translate(-369.062 -166.017)" opacity="0.1"/>
    <g id="Group_2949" data-name="Group 2949" transform="translate(69.063 31.464)" opacity="0.1">
      <path id="Path_1460" data-name="Path 1460" d="M376.079,211.281a2.065,2.065,0,0,0-.144-.952c0,.025-.022.05-.03.074a1.844,1.844,0,0,0,.129,1.021A.744.744,0,0,0,376.079,211.281Z" transform="translate(-375.396 -203.31)"/>
      <path id="Path_1461" data-name="Path 1461" d="M379.054,197.8a5.505,5.505,0,0,0,.02,1.028A5.521,5.521,0,0,0,379.054,197.8Z" transform="translate(-377.781 -193.885)"/>
      <path id="Path_1462" data-name="Path 1462" d="M392.445,183.6a4.063,4.063,0,0,1-1.085,1.348,5.535,5.535,0,0,1-1.982.689,2.862,2.862,0,0,0-1.792,1.016,3.572,3.572,0,0,0-.419,1.214,2.594,2.594,0,0,1-.5,1.177.967.967,0,0,1-1.157.278,1.184,1.184,0,0,1-.451-.58,8.252,8.252,0,0,1-.466-2.029,4.281,4.281,0,0,0-.7-1.945,1.742,1.742,0,0,0-1.829-.7,1.769,1.769,0,0,0-.991.961,5.4,5.4,0,0,0-.372,1.368q-.463,2.525-1.09,5.015a.428.428,0,0,1-.082.188.372.372,0,0,1-.248.107c-.555.072-1.088-.315-1.645-.275-.686.05-1.189.714-1.866.823a2.094,2.094,0,0,1-1.239-.275,1.325,1.325,0,0,1-.453-.322.669.669,0,0,0-.092.577.966.966,0,0,0,.545.5,2.094,2.094,0,0,0,1.239.275c.676-.109,1.179-.773,1.866-.823.558-.04,1.09.347,1.645.275a.372.372,0,0,0,.248-.107.428.428,0,0,0,.082-.188q.624-2.478,1.09-5.015a5.4,5.4,0,0,1,.372-1.368,1.769,1.769,0,0,1,.991-.961,1.743,1.743,0,0,1,1.829.7,4.291,4.291,0,0,1,.7,1.945,8.393,8.393,0,0,0,.466,2.029,1.185,1.185,0,0,0,.451.58.971.971,0,0,0,1.157-.278,2.594,2.594,0,0,0,.5-1.177,3.572,3.572,0,0,1,.419-1.214,2.886,2.886,0,0,1,1.792-1.016,5.652,5.652,0,0,0,1.982-.689,4.063,4.063,0,0,0,1.085-1.348,3.945,3.945,0,0,0,.679-2.067,2.674,2.674,0,0,0-.03-.282A4.869,4.869,0,0,1,392.445,183.6Z" transform="translate(-373.964 -182)"/>
    </g>
    <path id="Path_1463" data-name="Path 1463" d="M404.422,174.97a8.754,8.754,0,0,1,1.1,3.68c-2.208-1.239-4.284-2.6-5.332-3.073-1.826-.825-8.655-.7-11.222-.624a8.652,8.652,0,0,1,.937-1.353,8.965,8.965,0,0,1,2.044-1.789,8.863,8.863,0,0,1,12.483,3.154Z" transform="translate(-316.189 -141.834)" opacity="0.1"/>
    <path id="Path_1464" data-name="Path 1464" d="M465.175,205.058c-1.192.367-3.137-.342-5.154-1.358a9.719,9.719,0,0,1-.761-1.12l6.8,1.284C466.515,204.171,466.629,204.609,465.175,205.058Z" transform="translate(-369.062 -166.017)" opacity="0.1"/>
    <path id="Path_1465" data-name="Path 1465" d="M394.263,154.046s-6.5-.372-8.333,3.159l-.295,3.13-.5-.055-.1,2.128s9.941-.434,12.2.587,9.292,6.165,12.109,5.3-.248-1.673-.248-1.673-3.878-1.643-3.878-2.931S404.266,155.595,394.263,154.046Z" transform="translate(-313.232 -129.5)" fill="#444053"/>
    <path id="Path_1466" data-name="Path 1466" d="M371.63,622.28s4.15,4.027,5.947,3.717C377.577,626,372.5,625.563,371.63,622.28Z" transform="translate(-303.145 -481.721)" opacity="0.1"/>
    <path id="Path_1467" data-name="Path 1467" d="M368.13,629.81s.372,2.071,1.363,1.868S368.13,629.81,368.13,629.81Z" transform="translate(-300.512 -487.385)" opacity="0.1"/>
    <path id="Path_1468" data-name="Path 1468" d="M379.166,769.53s-5.892,4.584-4.9,4.708S379.166,769.53,379.166,769.53Z" transform="translate(-305.044 -592.485)" opacity="0.1"/>
    <path id="Path_1469" data-name="Path 1469" d="M330.96,337.9l19.08-3.1v18.064l-18.128-.949Z" transform="translate(-248.956 -251.839)" fill="#846be2"/>
    <path id="Path_1470" data-name="Path 1470" d="M330.96,337.9l19.08-3.1v18.064l-18.128-.949Z" transform="translate(-248.956 -251.839)" opacity="0.05"/>
    <path id="Path_1471" data-name="Path 1471" d="M407.96,334.8l22.881,1.712-1.266,15.72-21.614.632Z" transform="translate(-306.876 -251.839)" fill="#846be2"/>
    <path id="Path_1472" data-name="Path 1472" d="M407.96,334.8l22.881,1.712-1.266,15.72-21.614.632Z" transform="translate(-306.876 -251.839)" opacity="0.1"/>
    <path id="Path_1473" data-name="Path 1473" d="M414.995,312.55l-7.035,5.513,22.881,1.712,3.739-5.642Z" transform="translate(-306.876 -235.102)" fill="#846be2"/>
    <path id="Path_1474" data-name="Path 1474" d="M303.08,316.681l17.177-2.091,8.811,5.008-19.079,3.1Z" transform="translate(-227.984 -236.637)" fill="#846be2"/>
    <path id="Path_1475" data-name="Path 1475" d="M354.222,348.916v24.7l-8.938-.917-3.888-.4-1.184-.124-3.885-.4-5.367-.55v-23.9l19.077,1.3Z" transform="translate(-248.956 -261.264)" fill="#846be2"/>
    <path id="Path_1476" data-name="Path 1476" d="M443.538,341.71v24.085l-7.164,1.375-3.484.669-8.051,1.546v-24.7Z" transform="translate(-319.574 -257.037)" fill="#846be2"/>
    <path id="Path_1477" data-name="Path 1477" d="M443.538,341.71v24.085l-7.164,1.375-3.484.669-8.051,1.546v-24.7Z" transform="translate(-319.574 -257.037)" opacity="0.05"/>
    <path id="Path_1478" data-name="Path 1478" d="M303.08,352.529l6.908-5.2,23.262,1.586-3.424,5.768Z" transform="translate(-227.984 -261.264)" fill="#846be2"/>
    <path id="Path_1479" data-name="Path 1479" d="M303.08,352.529l6.908-5.2,23.262,1.586-3.424,5.768Z" transform="translate(-227.984 -261.264)" fill="#fff" opacity="0.1"/>
    <path id="Path_1480" data-name="Path 1480" d="M443.538,341.71l-18.7,2.978,6.086,5.451,20.029-3.36Z" transform="translate(-319.574 -257.037)" fill="#846be2"/>
    <path id="Path_1481" data-name="Path 1481" d="M443.538,341.71l-18.7,2.978,6.086,5.451,20.029-3.36Z" transform="translate(-319.574 -257.037)" fill="#fff" opacity="0.1"/>
    <path id="Path_1482" data-name="Path 1482" d="M460.814,428.37l-3.484.669v-5.147l3.263-.823Z" transform="translate(-344.013 -318.237)" fill="#fff" opacity="0.1"/>
    <path id="Path_1483" data-name="Path 1483" d="M376.968,435.96v3.4l-3.888-.4V435.96Z" transform="translate(-280.639 -327.933)" fill="#fff" opacity="0.1"/>
    <path id="Path_1484" data-name="Path 1484" d="M356.505,440.29V442.1l-3.885-.4V440.29Z" transform="translate(-265.249 -331.19)" fill="#fff" opacity="0.1"/>
    <path id="Path_1485" data-name="Path 1485" d="M453.3,453.611c-2.664,3.407-11.46,1.053-11.46,1.053l-6.537-6.819-.887-.924,1.735-3.221s.5.164,1.323.451C441.859,445.682,455.546,450.745,453.3,453.611Z" transform="translate(-350.377 -347.391)" opacity="0.1"/>
    <path id="Path_1486" data-name="Path 1486" d="M452.3,451.611c-2.664,3.407-11.46,1.053-11.46,1.053l-6.537-6.819-.887-.924,1.734-3.221s.5.164,1.323.451C440.859,443.682,454.546,448.745,452.3,451.611Z" transform="translate(-349.624 -345.886)" fill="#efb7b9"/>
    <path id="Path_1487" data-name="Path 1487" d="M436.438,442.151a14.649,14.649,0,0,1-2.171,3.694l-.887-.924,1.735-3.221S435.613,441.864,436.438,442.151Z" transform="translate(-349.594 -345.886)" opacity="0.1"/>
    <path id="Path_1488" data-name="Path 1488" d="M338.444,287.871s-6.5,2.478-6.566,9.416a114,114,0,0,0,.743,13.38s-1.858,10.345,3.407,13.318,10.159,5.451,10.159,5.451,8.412,1.363,9.446,1.8,4.624-5.142,4.066-6.071-8.217-3.221-9.126-4.77a8.252,8.252,0,0,0-3.149-2.592s-2.285-1.559-2.376-2.859a5.854,5.854,0,0,1,.773-2.788c.191-.557.882-6.009.882-6.009S350.4,286.806,338.444,287.871Z" transform="translate(-273.243 -230.142)" fill="#dce6f2"/>
    <path id="Path_1489" data-name="Path 1489" d="M345.631,380.7s-8.8.991-8.115,4.088A18.505,18.505,0,0,1,345.631,380.7Z" transform="translate(-277.456 -300.001)" opacity="0.1"/>
    <path id="Path_1490" data-name="Path 1490" d="M357.665,385.7s-4.993,3.655-4.076,3.9S357.665,385.7,357.665,385.7Z" transform="translate(-289.49 -303.762)" opacity="0.1"/>
    <path id="Path_1491" data-name="Path 1491" d="M376.751,391.7s-1.425,2.562-.619,2.428S376.751,391.7,376.751,391.7Z" transform="translate(-306.346 -308.275)" opacity="0.1"/>
    <path id="Path_1492" data-name="Path 1492" d="M723.484,167.383s-9.416-.567-8.316,6.039a1.611,1.611,0,0,0,.838,1.7s.017-.5.966-.325a4.339,4.339,0,0,0,1.023.05,2.123,2.123,0,0,0,1.254-.518h0s2.649-1.093,3.68-5.424c0,0,.763-.947.743-1.189l-1.591.681a2.851,2.851,0,0,1,.114,2.1s-.05-2.059-.357-2.012c-.062,0-.825.4-.825.4s.934,2,.228,3.452c0,0,.268-2.463-.52-3.308l-1.12.654a4.943,4.943,0,0,1,.352,3.749s.191-2.584-.587-3.59l-1.016.79s1.028,2.037.4,3.434c0,0-.082-3.008-.622-3.236a6.129,6.129,0,0,0-1.021,1.105s.7,1.487.265,2.257c0,0-.268-2-.5-2.014a6.67,6.67,0,0,0-.976,2.23,4.822,4.822,0,0,1,.761-2.364,2.654,2.654,0,0,0-1.353.7s.136-.939,1.571-1.021a6.776,6.776,0,0,1,.927-1.07,5.81,5.81,0,0,0-2.292.265,2.6,2.6,0,0,1,2.555-.5l.991-.818a8.55,8.55,0,0,0-2.676.027s.917-.783,2.946-.213l1.09-.652a9.79,9.79,0,0,0-2.555-.221,3.92,3.92,0,0,1,2.874.045l.781-.349s-1.175-.23-1.516-.268-.362-.131-.362-.131a4.054,4.054,0,0,1,2.2.248A9.722,9.722,0,0,0,723.484,167.383Z" transform="translate(-561.492 -139.532)" fill="#846be2"/>
    <path id="Path_1493" data-name="Path 1493" d="M838.944,300.723s-9.416-.567-8.316,6.039a1.611,1.611,0,0,0,.837,1.7s.017-.5.969-.325a4.338,4.338,0,0,0,1.023.05,2.121,2.121,0,0,0,1.239-.515h0s2.651-1.1,3.682-5.427c0,0,.761-.944.731-1.187l-1.591.679a2.859,2.859,0,0,1,.116,2.1s-.052-2.059-.357-2.012c-.062,0-.828.4-.828.4s.937,2,.23,3.452c0,0,.268-2.463-.523-3.308l-1.108.647a4.943,4.943,0,0,1,.352,3.749s.191-2.584-.587-3.59l-1.013.793s1.026,2.034.4,3.432c0,0-.082-3.008-.622-3.236a6.214,6.214,0,0,0-1.023,1.105s.7,1.487.268,2.257c0,0-.268-2-.5-2.014a6.669,6.669,0,0,0-.976,2.23,4.836,4.836,0,0,1,.763-2.364,2.666,2.666,0,0,0-1.355.7s.139-.939,1.573-1.021a6.187,6.187,0,0,1,.927-1.07,5.81,5.81,0,0,0-2.292.265,2.574,2.574,0,0,1,2.552-.483l.991-.818a8.552,8.552,0,0,0-2.676.027s.917-.783,2.946-.213l1.09-.652a9.93,9.93,0,0,0-2.557-.221,3.928,3.928,0,0,1,2.877.045l.781-.349s-1.175-.23-1.519-.268-.362-.131-.362-.131a4.061,4.061,0,0,1,2.205.248A10,10,0,0,0,838.944,300.723Z" transform="translate(-648.343 -239.832)" fill="#846be2" opacity="0.1"/>
    <path id="Path_1494" data-name="Path 1494" d="M614.1,248.817s2.168-9.19-4.532-9.223a1.61,1.61,0,0,0-1.814.535s.478.1.154,1.008a4.407,4.407,0,0,0-.223.991,2.128,2.128,0,0,0,.295,1.321h0s.627,2.8,4.708,4.554c0,0,.8.912,1.046.922l-.4-1.682a2.847,2.847,0,0,1-2.091-.248s2.039.3,2.042,0c0-.062-.248-.882-.248-.882s-2.129.58-3.442-.364c0,0,2.381.684,3.35.052l-.446-1.219a4.945,4.945,0,0,1-3.756-.292s2.515.629,3.64.035l-.607-1.135s-2.18.664-3.452-.191c0,0,2.973.431,3.3-.059a6.156,6.156,0,0,0-.914-1.2s-1.576.441-2.27-.121c0,0,2.02.077,2.067-.136a6.681,6.681,0,0,0-2.039-1.345,4.857,4.857,0,0,1,2.2,1.155,2.673,2.673,0,0,0-.461-1.454s.9.3.743,1.734a6.174,6.174,0,0,1,.894,1.1,5.826,5.826,0,0,0,.129-2.3,2.576,2.576,0,0,1,.042,2.6l.634,1.127a8.225,8.225,0,0,0,.429-2.641s.617,1.036-.292,2.939l.458,1.187a9.921,9.921,0,0,0,.652-2.478,3.917,3.917,0,0,1-.535,2.827l.213.828s.426-1.118.52-1.45.191-.335.191-.335a4.059,4.059,0,0,1-.617,2.131A9.847,9.847,0,0,0,614.1,248.817Z" transform="translate(-480.701 -193.792)" fill="#846be2" opacity="0.1"/>
    <path id="Path_1495" data-name="Path 1495" d="M517.869,282.5s-7.562-5.657-10.266.471a1.613,1.613,0,0,0-.233,1.878s.282-.4.991.263a4.337,4.337,0,0,0,.828.6,2.126,2.126,0,0,0,1.331.248h0s2.815.543,6.056-2.508c0,0,1.157-.372,1.266-.59l-1.707-.3a2.863,2.863,0,0,1-1.058,1.819s1.088-1.749.805-1.876c-.057-.027-.909-.124-.909-.124s-.317,2.185-1.7,3.011c0,0,1.578-1.91,1.383-3.05l-1.3-.069a4.943,4.943,0,0,1-1.767,3.328s1.578-2.054,1.487-3.323l-1.284.1s-.26,2.262-1.551,3.085c0,0,1.583-2.557,1.259-3.043a6.228,6.228,0,0,0-1.462.359s-.225,1.621-1.018,2.032c0,0,.88-1.821.7-1.948a6.66,6.66,0,0,0-2.047,1.331,4.839,4.839,0,0,1,1.938-1.556,2.669,2.669,0,0,0-1.516-.159s.629-.709,1.873.012a6.256,6.256,0,0,1,1.363-.384,5.8,5.8,0,0,0-2.062-1.038,2.58,2.58,0,0,1,2.4.991l1.286-.131a8.487,8.487,0,0,0-2.25-1.447s1.2-.151,2.577,1.44l1.269.057a9.89,9.89,0,0,0-2.012-1.591,3.918,3.918,0,0,1,2.376,1.618l.845.136s-.855-.837-1.122-1.056-.23-.31-.23-.31a4.071,4.071,0,0,1,1.707,1.417A10.017,10.017,0,0,0,517.869,282.5Z" transform="translate(-405.09 -224.346)" fill="#846be2" opacity="0.1"/>
    <path id="Path_1496" data-name="Path 1496" d="M619.479,70.391s-7.562-5.659-10.266.471a1.613,1.613,0,0,0-.233,1.878s.283-.4.991.263a4.409,4.409,0,0,0,.83.6,2.124,2.124,0,0,0,1.331.248h0s2.815.543,6.056-2.51c0,0,1.157-.369,1.264-.59l-1.707-.295a2.85,2.85,0,0,1-1.058,1.819s1.09-1.749.808-1.876c-.057-.027-.909-.124-.909-.124s-.327,2.19-1.715,3.011c0,0,1.576-1.91,1.383-3.05l-1.3-.069a4.946,4.946,0,0,1-1.767,3.325s1.578-2.054,1.487-3.323l-1.281.1s-.263,2.265-1.554,3.087c0,0,1.586-2.557,1.261-3.043a6.229,6.229,0,0,0-1.462.359s-.226,1.621-1.018,2.032c0,0,.88-1.821.7-1.95a6.686,6.686,0,0,0-2.047,1.333,4.817,4.817,0,0,1,1.938-1.556,2.651,2.651,0,0,0-1.519-.159s.632-.709,1.876.012a6.12,6.12,0,0,1,1.363-.384,5.83,5.83,0,0,0-2.062-1.041,2.584,2.584,0,0,1,2.4.991l1.286-.131a8.5,8.5,0,0,0-2.25-1.45s1.2-.149,2.579,1.442l1.269.055a9.79,9.79,0,0,0-2.015-1.588,3.919,3.919,0,0,1,2.379,1.618l.842.136s-.857-.828-1.125-1.041-.23-.307-.23-.307a4.064,4.064,0,0,1,1.707,1.417A10.7,10.7,0,0,0,619.479,70.391Z" transform="translate(-481.523 -64.791)" fill="#846be2" opacity="0.1"/>
    <path id="Path_1497" data-name="Path 1497" d="M738.321,87.576s-3.023-8.948-8.725-5.431a1.629,1.629,0,0,0-1.256,1.415s.458-.168.662.773a4.453,4.453,0,0,0,.339.969,2.145,2.145,0,0,0,.951.964h0s2.012,2.044,6.413,1.368c0,0,1.162.352,1.375.23l-1.239-1.217a2.85,2.85,0,0,1-1.9.9s1.891-.823,1.734-1.088c-.032-.052-.679-.615-.679-.615s-1.5,1.618-3.112,1.511c0,0,2.381-.679,2.867-1.735l-1.026-.79a4.937,4.937,0,0,1-3.343,1.735s2.478-.8,3.1-1.9l-1.115-.642s-1.487,1.717-3.028,1.663c0,0,2.755-1.207,2.763-1.791a6.2,6.2,0,0,0-1.407-.533s-1.105,1.207-1.982,1.1c0,0,1.754-1,1.68-1.209a6.649,6.649,0,0,0-2.441-.062A4.83,4.83,0,0,1,731.432,83a2.673,2.673,0,0,0-1.162-.991s.922-.225,1.539,1.073a6.24,6.24,0,0,1,1.338.456,5.824,5.824,0,0,0-1.108-2.024,2.58,2.58,0,0,1,1.41,2.185l1.135.619a8.366,8.366,0,0,0-1.033-2.478s1.073.555,1.306,2.649l1.016.766a9.853,9.853,0,0,0-.758-2.453,3.923,3.923,0,0,1,1.041,2.684l.617.59s-.228-1.175-.322-1.507-.017-.354-.017-.354a4.086,4.086,0,0,1,.6,2.136A9.875,9.875,0,0,0,738.321,87.576Z" transform="translate(-571.467 -74.808)" fill="#846be2" opacity="0.1"/>
    <path id="Path_1498" data-name="Path 1498" d="M662.707,108.149s-9.391-1.046-8.615,5.617a1.608,1.608,0,0,0,.743,1.735s.042-.5.991-.273a4.558,4.558,0,0,0,1.021.1,2.131,2.131,0,0,0,1.276-.453h0s2.7-.959,3.965-5.233c0,0,.808-.9.79-1.15l-1.623.6a2.764,2.764,0,0,1,0,2.1s.052-2.059-.248-2.027c-.062,0-.845.357-.845.357s.833,2.044.054,3.469c0,0,.392-2.448-.354-3.33l-1.152.595a4.925,4.925,0,0,1,.161,3.764s.322-2.572-.4-3.615l-1.053.743s.922,2.084.225,3.449c0,0,.072-3.008-.456-3.263a6.445,6.445,0,0,0-1.078,1.051s.627,1.511.154,2.267c0,0-.166-2.014-.384-2.034a6.662,6.662,0,0,0-1.09,2.185,4.823,4.823,0,0,1,.882-2.324,2.666,2.666,0,0,0-1.388.632s.183-.929,1.62-.939c0,0,.781-.969.991-1.021a5.826,5.826,0,0,0-2.3.149,2.571,2.571,0,0,1,2.574-.354l1.043-.766a8.036,8.036,0,0,0-2.684-.134s.956-.743,2.954-.062l1.122-.6a9.866,9.866,0,0,0-2.542-.349,3.892,3.892,0,0,1,2.869.191l.8-.31s-1.162-.29-1.5-.344-.354-.149-.354-.149a4.076,4.076,0,0,1,2.19.357A10.135,10.135,0,0,0,662.707,108.149Z" transform="translate(-515.583 -94.939)" fill="#846be2" opacity="0.1"/>
    <path id="Path_1499" data-name="Path 1499" d="M994.322,402.319s-9.386-1.046-8.611,5.61a1.608,1.608,0,0,0,.743,1.734s.042-.5.991-.275a4.287,4.287,0,0,0,1.021.1,2.114,2.114,0,0,0,1.276-.453h0s2.7-.959,3.952-5.231c0,0,.808-.907.79-1.15l-1.623.6a2.77,2.77,0,0,1,0,2.106s.052-2.062-.248-2.027c-.062,0-.845.354-.845.354s.833,2.044.055,3.469c0,0,.391-2.446-.354-3.33l-1.152.6a4.933,4.933,0,0,1,.164,3.764s.32-2.572-.406-3.618l-1.053.743s.922,2.084.226,3.447c0,0,.072-3.008-.456-3.261a6.542,6.542,0,0,0-1.078,1.051s.629,1.512.154,2.267c0,0-.166-2.014-.384-2.034a6.663,6.663,0,0,0-1.09,2.185,4.823,4.823,0,0,1,.882-2.324,2.644,2.644,0,0,0-1.388.632s.183-.932,1.621-.942c0,0,.783-.969.991-1.018a5.806,5.806,0,0,0-2.3.146,2.578,2.578,0,0,1,2.577-.352l1.041-.766a8.281,8.281,0,0,0-2.674-.109s.956-.743,2.954-.064l1.122-.595a9.867,9.867,0,0,0-2.542-.349,3.892,3.892,0,0,1,2.869.191l.8-.312s-1.162-.29-1.5-.342-.354-.149-.354-.149a4.061,4.061,0,0,1,2.19.354A9.7,9.7,0,0,0,994.322,402.319Z" transform="translate(-765.032 -316.218)" fill="#846be2" opacity="0.1"/>
    <path id="Path_1500" data-name="Path 1500" d="M1052.232,437.7s-9.386-1.043-8.61,5.61a1.613,1.613,0,0,0,.743,1.735s.042-.5.991-.273a4.375,4.375,0,0,0,1.018.1,2.142,2.142,0,0,0,1.271-.451h0s2.7-.959,3.95-5.233c0,0,.81-.9.79-1.15l-1.623.6a2.77,2.77,0,0,1,0,2.106s.052-2.059-.248-2.027c-.062,0-.845.354-.845.354s.833,2.044.055,3.469c0,0,.391-2.446-.354-3.328l-1.152.595a4.933,4.933,0,0,1,.163,3.764s.32-2.572-.406-3.615l-1.053.743s.922,2.084.228,3.449c0,0,.069-3.011-.458-3.263a6.545,6.545,0,0,0-1.078,1.051s.629,1.512.154,2.267c0,0-.166-2.015-.384-2.034a6.626,6.626,0,0,0-1.088,2.185,4.835,4.835,0,0,1,.88-2.324,2.666,2.666,0,0,0-1.388.632s.186-.932,1.623-.939c0,0,.781-.969.991-1.021a5.826,5.826,0,0,0-2.3.149,2.574,2.574,0,0,1,2.577-.354l1.041-.766a8.28,8.28,0,0,0-2.674-.109s.956-.743,2.954-.062l1.122-.6a9.866,9.866,0,0,0-2.542-.349,3.892,3.892,0,0,1,2.869.191l.8-.31s-1.162-.29-1.5-.344-.357-.149-.357-.149a4.075,4.075,0,0,1,2.19.357A9.806,9.806,0,0,0,1052.232,437.7Z" transform="translate(-808.593 -342.832)" fill="#846be2" opacity="0.1"/>
    <path id="Path_1501" data-name="Path 1501" d="M917.419,132.644s-7.562-5.657-10.266.471a1.613,1.613,0,0,0-.233,1.878s.282-.4.991.263a4.339,4.339,0,0,0,.828.6,2.129,2.129,0,0,0,1.331.248h0s2.815.543,6.058-2.508c0,0,1.155-.372,1.264-.59l-1.7-.307a2.862,2.862,0,0,1-1.058,1.819s1.088-1.749.805-1.876c-.057-.027-.907-.124-.907-.124s-.32,2.185-1.707,3.011c0,0,1.578-1.91,1.383-3.05l-1.3-.069a4.943,4.943,0,0,1-1.767,3.328s1.581-2.054,1.487-3.323l-1.284.1s-.248,2.262-1.551,3.085c0,0,1.586-2.557,1.259-3.043a6.23,6.23,0,0,0-1.462.359s-.223,1.621-1.016,2.032c0,0,.877-1.821.7-1.948a6.661,6.661,0,0,0-2.047,1.331,4.841,4.841,0,0,1,1.938-1.556,2.668,2.668,0,0,0-1.516-.159s.632-.709,1.876.012a6.228,6.228,0,0,1,1.36-.384,5.8,5.8,0,0,0-2.062-1.038,2.58,2.58,0,0,1,2.4.991l1.286-.131a8.443,8.443,0,0,0-2.25-1.447s1.2-.151,2.577,1.44l1.271.057a9.935,9.935,0,0,0-2.015-1.591,3.911,3.911,0,0,1,2.376,1.618l.845.136s-.855-.838-1.122-1.056-.228-.29-.228-.29a4.073,4.073,0,0,1,1.7,1.417A9.953,9.953,0,0,0,917.419,132.644Z" transform="translate(-705.637 -111.619)" fill="#846be2" opacity="0.1"/>
    <path id="Path_1502" data-name="Path 1502" d="M943.8,284.885s-2.607-9.076-8.469-5.818a1.61,1.61,0,0,0-1.321,1.355s.466-.146.627.8a4.392,4.392,0,0,0,.3.991,2.128,2.128,0,0,0,.907,1.011h0s1.918,2.131,6.343,1.655c0,0,1.145.4,1.363.292l-1.172-1.274a2.849,2.849,0,0,1-1.94.813s1.923-.743,1.774-1.008c-.03-.055-.649-.647-.649-.647s-1.571,1.551-3.177,1.37c0,0,2.411-.57,2.941-1.6l-.991-.838a4.951,4.951,0,0,1-3.417,1.586s2.5-.686,3.186-1.754l-1.085-.691s-1.573,1.648-3.1,1.524c0,0,2.807-1.083,2.842-1.665a6.186,6.186,0,0,0-1.385-.595s-1.157,1.155-2.037,1.006c0,0,1.8-.924,1.734-1.132a6.691,6.691,0,0,0-2.436-.173,4.834,4.834,0,0,1,2.478-.072A2.658,2.658,0,0,0,936,278.987s.932-.186,1.487,1.14a6.184,6.184,0,0,1,1.316.515,5.8,5.8,0,0,0-1.016-2.072,2.574,2.574,0,0,1,1.311,2.245l1.105.671a8.241,8.241,0,0,0-.922-2.513s1.046.6,1.187,2.7l.991.81a9.831,9.831,0,0,0-.647-2.478,3.916,3.916,0,0,1,.919,2.726l.59.619s-.173-1.184-.248-1.521,0-.384,0-.384a4.06,4.06,0,0,1,.508,2.161A9.834,9.834,0,0,0,943.8,284.885Z" transform="translate(-726.175 -223.02)" fill="#846be2" opacity="0.1"/>
    <path id="Path_1503" data-name="Path 1503" d="M706.7,372.89s-5.062-7.974-9.763-3.2a1.6,1.6,0,0,0-.887,1.673s.409-.273.83.595a4.244,4.244,0,0,0,.56.857,2.117,2.117,0,0,0,1.152.714h0s2.441,1.507,6.554-.2c0,0,1.212.064,1.39-.1l-1.487-.892a2.849,2.849,0,0,1-1.635,1.326s1.64-1.239,1.42-1.467c-.042-.045-.805-.436-.805-.436s-1.073,1.928-2.664,2.208c0,0,2.153-1.227,2.376-2.361l-1.187-.523a4.935,4.935,0,0,1-2.832,2.478s2.205-1.36,2.565-2.579l-1.239-.357s-1.046,2.024-2.545,2.334c0,0,2.389-1.829,2.257-2.4a6.152,6.152,0,0,0-1.487-.181s-.785,1.435-1.672,1.539c0,0,1.467-1.393,1.345-1.576a6.677,6.677,0,0,0-2.386.52,4.822,4.822,0,0,1,2.364-.768,2.658,2.658,0,0,0-1.36-.686s.84-.439,1.734.676a6.12,6.12,0,0,1,1.41.124,5.7,5.7,0,0,0-1.559-1.7s1.165.1,1.888,1.787l1.251.332a8.283,8.283,0,0,0-1.591-2.151s1.172.282,1.9,2.262l1.17.5a9.879,9.879,0,0,0-1.321-2.2,3.9,3.9,0,0,1,1.648,2.356l.743.429s-.5-1.088-.672-1.388-.107-.369-.107-.369a4.064,4.064,0,0,1,1.093,1.93A10.072,10.072,0,0,0,706.7,372.89Z" transform="translate(-547.164 -290.573)" fill="#846be2" opacity="0.1"/>
    <path id="Path_1504" data-name="Path 1504" d="M841.145,207.862s-4.814-8.125-9.664-3.5a1.611,1.611,0,0,0-.937,1.645s.414-.263.81.617a4.282,4.282,0,0,0,.533.877,2.1,2.1,0,0,0,1.13.743h0s2.391,1.581,6.556,0c0,0,1.209.1,1.393-.059l-1.455-.937a2.849,2.849,0,0,1-1.675,1.274s1.677-1.2,1.467-1.422c-.045-.047-.793-.463-.793-.463s-1.132,1.9-2.726,2.126c0,0,2.19-1.16,2.446-2.285l-1.17-.55a4.942,4.942,0,0,1-2.909,2.394s2.247-1.291,2.644-2.5l-1.224-.4s-1.11,1.982-2.617,2.255c0,0,2.443-1.754,2.329-2.327a6.119,6.119,0,0,0-1.487-.228s-.83,1.41-1.72,1.487c0,0,1.509-1.343,1.4-1.531a6.67,6.67,0,0,0-2.4.446,4.836,4.836,0,0,1,2.386-.694,2.664,2.664,0,0,0-1.341-.729s.855-.414,1.734.729a6.277,6.277,0,0,1,1.4.168,5.928,5.928,0,0,0-1.5-1.749s1.16.134,1.831,1.844l1.239.372a8.238,8.238,0,0,0-1.524-2.2s1.165.32,1.829,2.319l1.152.538a9.956,9.956,0,0,0-1.239-2.23,3.92,3.92,0,0,1,1.576,2.406l.726.451s-.466-1.1-.629-1.407-.094-.372-.094-.372a4.071,4.071,0,0,1,1.033,1.962A9.6,9.6,0,0,0,841.145,207.862Z" transform="translate(-648.336 -166.286)" fill="#846be2"/>
    <path id="Path_1505" data-name="Path 1505" d="M726.211,266.75s.248-9.441-6.311-8.11a1.615,1.615,0,0,0-1.67.895s.5,0,.357.954a4.347,4.347,0,0,0-.015,1.026,2.118,2.118,0,0,0,.557,1.239h0s1.182,2.612,5.545,3.5c0,0,.969.731,1.212.691l-.743-1.566a2.86,2.86,0,0,1-2.1.186s2.057-.121,2-.424c0-.062-.426-.815-.426-.815s-1.967,1-3.442.344c0,0,2.478.186,3.288-.629l-.691-1.1a4.95,4.95,0,0,1-3.737.476s2.589.1,3.571-.706l-.825-.991s-2,1.1-3.417.515c0,0,3-.181,3.221-.728a6.425,6.425,0,0,0-1.14-.991s-1.452.743-2.245.342c0,0,1.982-.332,1.995-.553a6.65,6.65,0,0,0-2.27-.9,4.824,4.824,0,0,1,2.391.684,2.664,2.664,0,0,0-.743-1.331s.944.107,1.073,1.536a6.16,6.16,0,0,1,1.1.892,5.8,5.8,0,0,0-.342-2.282,2.571,2.571,0,0,1,.57,2.535l.85.976a8.3,8.3,0,0,0-.117-2.674s.813.89.312,2.936l.686,1.068a9.879,9.879,0,0,0,.136-2.562,3.932,3.932,0,0,1,.05,2.877l.377.768s.191-1.182.216-1.526.119-.367.119-.367a4.069,4.069,0,0,1-.171,2.213A9.447,9.447,0,0,0,726.211,266.75Z" transform="translate(-563.863 -208.089)" fill="#846be2"/>
    <ellipse id="Ellipse_1070" data-name="Ellipse 1070" cx="6.673" cy="1.127" rx="6.673" ry="1.127" transform="translate(166.519 176.364)" fill="#846be2" opacity="0.1"/>
    <ellipse id="Ellipse_1071" data-name="Ellipse 1071" cx="6.673" cy="1.127" rx="6.673" ry="1.127" transform="translate(142.194 193.481)" fill="#846be2" opacity="0.1"/>
    <ellipse id="Ellipse_1072" data-name="Ellipse 1072" cx="6.673" cy="1.127" rx="6.673" ry="1.127" transform="translate(16.403 184.712)" fill="#846be2" opacity="0.1"/>
    <ellipse id="Ellipse_1073" data-name="Ellipse 1073" cx="6.673" cy="1.127" rx="6.673" ry="1.127" transform="translate(192.806 192.354)" fill="#846be2" opacity="0.1"/>
    <ellipse id="Ellipse_1074" data-name="Ellipse 1074" cx="9.963" cy="1.685" rx="9.963" ry="1.685" transform="translate(196.464 177.491)" fill="#846be2"/>
    <path id="Path_1506" data-name="Path 1506" d="M917.021,753.069a2.877,2.877,0,0,0,.949-1.432,1.273,1.273,0,0,0-.662-1.459,1.871,1.871,0,0,0-1.757.615,2.353,2.353,0,0,1-1.7.825,2.6,2.6,0,0,0,.8-2.431,1.019,1.019,0,0,0-.223-.5c-.34-.362-.952-.206-1.358.079-1.288.907-1.648,2.656-1.655,4.232a7.957,7.957,0,0,1-.022-1.734,1.78,1.78,0,0,0-.657-1.541,1.96,1.96,0,0,0-.991-.248,2.07,2.07,0,0,0-1.62.461,1.6,1.6,0,0,0,.062,1.982,6.409,6.409,0,0,0,1.678,1.343,3.749,3.749,0,0,1,1.2,1.142,1.17,1.17,0,0,1,.087.2h3.632A10.018,10.018,0,0,0,917.021,753.069Z" transform="translate(-706.463 -576.65)" fill="#846be2"/>
    <path id="Path_1507" data-name="Path 1507" d="M170.29,777.628s3.8-.116,4.956-.934,5.855-1.791,6.14-.481,5.719,6.514,1.422,6.549-9.983-.669-11.128-1.368S170.29,777.628,170.29,777.628Z" transform="translate(-151.694 -597.029)" fill="#a8a8a8"/>
    <path id="Path_1508" data-name="Path 1508" d="M182.88,788.533c-4.3.035-9.983-.669-11.128-1.368-.872-.53-1.219-2.436-1.336-3.315h-.126s.248,3.07,1.385,3.766,6.831,1.4,11.128,1.368c1.239,0,1.668-.451,1.645-1.105C184.275,788.278,183.8,788.526,182.88,788.533Z" transform="translate(-151.694 -603.256)" opacity="0.2"/>
  </g>
</svg>
