<svg id="undraw_chasing_love_3v98" xmlns="http://www.w3.org/2000/svg" width="250.676" height="188.725" viewBox="0 0 250.676 188.725">
  <path id="Path_2037" data-name="Path 2037" d="M874.6,137.1c-1.874,5.549-4.748,10.6-10.6,10.6s-10.275-4.757-10.6-10.6c-.422-7.472,4.613-10.636,10.6-10.6C871.078,126.533,876.829,130.516,874.6,137.1Z" transform="translate(-660.684 -118.124)" fill="#2f2e41"/>
  <rect id="Rectangle_1022" data-name="Rectangle 1022" width="20.931" height="26.512" transform="translate(192.71 18.14)" fill="#2f2e41"/>
  <path id="Path_2038" data-name="Path 2038" d="M337.651,372.758H263.337l-19.018,89.528H356.668Z" transform="translate(-179.377 -273.676)" fill="#f2f2f2"/>
  <path id="Path_2039" data-name="Path 2039" d="M567.646,420.176c0,1.617-10.436,3.007-25.3,3.595-4.117.162-8.572.266-13.242.292q-1.339.01-2.7.01c-22.775,0-41.238-1.744-41.238-3.9s18.463-3.9,41.238-3.9S567.646,418.023,567.646,420.176Z" transform="translate(-390.355 -330.88)" fill="#3f3d56"/>
  <rect id="Rectangle_1023" data-name="Rectangle 1023" width="101.578" height="0.649" transform="translate(73.379 188.587) rotate(-77.993)" fill="#3f3d56"/>
  <rect id="Rectangle_1024" data-name="Rectangle 1024" width="0.65" height="101.578" transform="translate(176.975 89.364) rotate(-11.992)" fill="#3f3d56"/>
  <rect id="Rectangle_1025" data-name="Rectangle 1025" width="250.676" height="0.649" transform="translate(0 188.007)" fill="#2f2e41"/>
  <path id="Path_2040" data-name="Path 2040" d="M584.187,393.919l-1.333-.437c-4.759-1.6-7.886-2.629-9-5.14a3.907,3.907,0,0,1,2-5.236,4.25,4.25,0,0,1,3.571.076,4.25,4.25,0,0,1,2.34-2.7,3.907,3.907,0,0,1,5.224,2.031c1.114,2.51-.225,5.516-2.229,10.122Z" transform="translate(-455.198 -304.34)" fill="#ff6584"/>
  <path id="Path_2041" data-name="Path 2041" d="M663.706,433.107c-4.117.162-8.572.266-13.242.292a4,4,0,0,1,1.711-1.429,4.2,4.2,0,0,0,5.91-2.62,3.908,3.908,0,0,1,5.225,2.033,4.693,4.693,0,0,1,.4,1.724Z" transform="translate(-511.712 -340.218)" fill="#ff6584"/>
  <path id="Path_2042" data-name="Path 2042" d="M606.552,258.541l-.549-.414c-1.951-1.5-3.237-2.472-3.355-3.813a1.914,1.914,0,0,1,1.759-2.109,2.059,2.059,0,0,0,3.156-.276,1.914,1.914,0,0,1,2.1,1.772c.117,1.341-.981,2.521-2.642,4.337Z" transform="translate(-476.599 -210.209)" fill="#ff6584"/>
  <path id="Path_2043" data-name="Path 2043" d="M638.314,175.472l-.549-.414c-1.951-1.5-3.237-2.472-3.355-3.813a1.914,1.914,0,0,1,1.759-2.109,2.059,2.059,0,0,0,3.156-.276,1.914,1.914,0,0,1,2.1,1.772c.117,1.341-.981,2.521-2.642,4.337Z" transform="translate(-499.918 -149.221)" fill="#ff6584"/>
  <path id="Path_2044" data-name="Path 2044" d="M654.129,314.968l-.2-1.156c-.693-4.143-1.17-6.853.242-8.665a3.268,3.268,0,0,1,4.651-.59,3.554,3.554,0,0,1,1.352,2.664,3.554,3.554,0,0,1,2.913.662,3.268,3.268,0,0,1,.562,4.654c-1.412,1.811-4.157,2.009-8.344,2.347Z" transform="translate(-513.761 -248.331)" fill="#ff6584"/>
  <path id="Path_2045" data-name="Path 2045" d="M245.144,603.189l-.577-.3c7.495-14.49,3.487-33.307-1.195-46.541a142.643,142.643,0,0,0-12.1-25.546l.549-.347a143.37,143.37,0,0,1,12.168,25.677C248.709,569.488,252.745,588.493,245.144,603.189Z" transform="translate(-203.942 -414.708)" fill="#2f2e41"/>
  <rect id="Rectangle_1026" data-name="Rectangle 1026" width="23.438" height="0.649" transform="translate(42.546 138.919) rotate(-79.645)" fill="#2f2e41"/>
  <rect id="Rectangle_1027" data-name="Rectangle 1027" width="0.65" height="31.936" transform="matrix(0.732, -0.681, 0.681, 0.732, 18.271, 135.95)" fill="#2f2e41"/>
  <rect id="Rectangle_1028" data-name="Rectangle 1028" width="18.836" height="0.65" transform="matrix(0.586, -0.81, 0.81, 0.586, 46.822, 176.454)" fill="#2f2e41"/>
  <circle id="Ellipse_1214" data-name="Ellipse 1214" cx="3.247" cy="3.247" r="3.247" transform="translate(45.459 103.258)" fill="#846be2"/>
  <circle id="Ellipse_1215" data-name="Ellipse 1215" cx="3.247" cy="3.247" r="3.247" transform="translate(10.066 128.26)" fill="#3f3d56"/>
  <circle id="Ellipse_1216" data-name="Ellipse 1216" cx="3.247" cy="3.247" r="3.247" transform="translate(24.353 131.507)" fill="#3f3d56"/>
  <circle id="Ellipse_1217" data-name="Ellipse 1217" cx="3.247" cy="3.247" r="3.247" transform="translate(17.859 144.171)" fill="#846be2"/>
  <circle id="Ellipse_1218" data-name="Ellipse 1218" cx="3.247" cy="3.247" r="3.247" transform="translate(58.448 152.289)" fill="#3f3d56"/>
  <circle id="Ellipse_1219" data-name="Ellipse 1219" cx="3.247" cy="3.247" r="3.247" transform="translate(47.732 155.861)" fill="#3f3d56"/>
  <circle id="Ellipse_1220" data-name="Ellipse 1220" cx="3.247" cy="3.247" r="3.247" transform="translate(55.201 166.251)" fill="#3f3d56"/>
  <circle id="Ellipse_1221" data-name="Ellipse 1221" cx="3.247" cy="3.247" r="3.247" transform="translate(21.106 107.154)" fill="#3f3d56"/>
  <path id="Path_2046" data-name="Path 2046" d="M930.147,237.552h1.78a15.848,15.848,0,0,1,2.374,13.055c-1.978,7.517-.4,8.9-.4,8.9s2.575,8.14-.194,20.4,2.568,15.6,2.568,15.6l-4.945-9.89-2.769-26.111Z" transform="translate(-715.892 -199.661)" fill="#846be2"/>
  <path id="Path_2047" data-name="Path 2047" d="M930.147,237.59h1.78a15.848,15.848,0,0,1,2.374,13.055c-1.978,7.517-.4,8.9-.4,8.9s2.575,8.14-.194,20.4,2.568,15.6,2.568,15.6l-4.945-9.89-2.769-26.111Z" transform="translate(-715.892 -199.688)" opacity="0.1"/>
  <path id="Path_2048" data-name="Path 2048" d="M881.026,201.37s-1.582,6.33-.791,6.33,3.561,3.363,3.561,3.363l1.78,6.528-1.385,4.747-4.747-.989-5.934-6.528-1.78-1.78-1.582-5.736s1.978-2.374.593-4.352S881.026,201.37,881.026,201.37Z" transform="translate(-673.002 -173.072)" fill="#fbbebe"/>
  <path id="Path_2049" data-name="Path 2049" d="M881.026,201.37s-1.582,6.33-.791,6.33,3.561,3.363,3.561,3.363l1.78,6.528-1.385,4.747-4.747-.989-5.934-6.528-1.78-1.78-1.582-5.736s1.978-2.374.593-4.352S881.026,201.37,881.026,201.37Z" transform="translate(-673.002 -173.072)" opacity="0.1"/>
  <path id="Path_2050" data-name="Path 2050" d="M694.519,227.432l-4.352-7.121s-4.7-10.394-8.06-6.635,5.093,11.383,5.093,11.383l4.352,5.736Z" transform="translate(-534.364 -181.529)" fill="#fbbebe"/>
  <path id="Path_2051" data-name="Path 2051" d="M880.536,486.96,877.371,510.1s.4,1.78-3.561,8.308-14.638,20.77-14.638,20.77l-3.165-5.934s3.758-18.792,10.286-22.748l-.791-28.484Z" transform="translate(-662.621 -379.143)" fill="#fbbebe"/>
  <path id="Path_2052" data-name="Path 2052" d="M880.536,486.96,877.371,510.1s.4,1.78-3.561,8.308-14.638,20.77-14.638,20.77l-3.165-5.934s3.758-18.792,10.286-22.748l-.791-28.484Z" transform="translate(-662.621 -379.143)" opacity="0.1"/>
  <path id="Path_2053" data-name="Path 2053" d="M828.143,665.827l4.352,8.308s-3.561,10.088-2.176,11.077,3.165,9.89-.593,8.9S823,689.168,823,688.575s2.176-8.9.989-10.879a9.6,9.6,0,0,0-1.978-2.572l-2.967,4.945-.989-.593L823,671.168a5.214,5.214,0,0,1,2.967-2.572Z" transform="translate(-634.756 -514.096)" fill="#2f2e41"/>
  <path id="Path_2054" data-name="Path 2054" d="M828.143,665.827l4.352,8.308s-3.561,10.088-2.176,11.077,3.165,9.89-.593,8.9S823,689.168,823,688.575s2.176-8.9.989-10.879a9.6,9.6,0,0,0-1.978-2.572l-2.967,4.945-.989-.593L823,671.168a5.214,5.214,0,0,1,2.967-2.572Z" transform="translate(-634.756 -514.096)" opacity="0.1"/>
  <path id="Path_2055" data-name="Path 2055" d="M848.611,483.676s1.536,21.878-1.826,27.614v28.484l-4.55.593s-7.715-15.429-4.352-30.265-4.945-28.089-4.945-28.089Z" transform="translate(-645.683 -379.143)" fill="#fbbebe"/>
  <circle id="Ellipse_1222" data-name="Ellipse 1222" cx="8.308" cy="8.308" r="8.308" transform="translate(193.486 16.528)" fill="#fbbebe"/>
  <path id="Path_2056" data-name="Path 2056" d="M767.323,232.968l-8.308-10.484-4.747-3.165-1.978,2.572-5.539,1.582s-3.561.791-7.319,5.143-10.484,6.923-10.484,6.923l-5.539-.989s-6.528-2.967-6.528-3.758-5.736,5.341-4.352,7.715a41.732,41.732,0,0,0,5.934,6.923c1.582,1.582,2.176,6.132,11.868,4.747s13.253-6.132,13.253-6.132,1.78,9.1,6.923,10.879,21.957,2.967,21.957,2.967l3.561-11.869s3.956-5.143-1.385-12.66a49.61,49.61,0,0,0-.677-7,4.626,4.626,0,0,0-.906-2.3c-1.385-1.187-8.7-3.165-8.7-3.165s1.187,3.956,1.78,4.154S768.114,231.979,767.323,232.968Z" transform="translate(-557.122 -186.274)" fill="#846be2"/>
  <path id="Path_2057" data-name="Path 2057" d="M809.868,387.212c9.962-.692,15.761.94,18.349,2.184a6.557,6.557,0,0,1,1.349.819c.19.16.281.285.281.36,0,.593,13.649,1.78,18.594.593s-3.363-26.7-5.539-28.88-1-10.14-1-10.14-4.338-.938-5.525-.542-7.319-.593-9.495-1.78-4.945-.4-6.726-.791a1.119,1.119,0,0,0-1.4.5,3.421,3.421,0,0,1-1.353,1.367c-4.2,2.419-7.57,19.146-10.108,28.393C804.527,389.388,809.868,387.212,809.868,387.212Z" transform="translate(-626.273 -281.472)" fill="#2f2e41"/>
  <path id="Path_2058" data-name="Path 2058" d="M869.276,692.617l.791,4.352s4.154,5.934,2.967,10.879c0,0,.989,6.528,4.55,8.308s.593,5.934-2.769,5.736-6.528.2-6.923-.791-2.769-10.682-2.769-10.682l-.649,11.342-1.978.2.649-13.123s-1.582-2.967.593-7.912l-.549-7.591S868.683,694.6,869.276,692.617Z" transform="translate(-667.383 -533.766)" fill="#2f2e41"/>
  <path id="Path_2059" data-name="Path 2059" d="M888.2,467.391a6.558,6.558,0,0,1,1.349.819c.1-1.869.71-13.174-.016-12.992Z" transform="translate(-686.257 -359.468)" opacity="0.1"/>
  <path id="Path_2060" data-name="Path 2060" d="M845.757,143.187s-.092-.512-3.69.837-5.755,11.307-3.956,17.155a5.358,5.358,0,0,1-.827,5.244,8.664,8.664,0,0,0,3.072,13.455q.223.1.455.192l2.249,1.349a10.286,10.286,0,0,1-1.432-8.6,24.741,24.741,0,0,0,.446-12.666c-.165-.707-.352-1.435-.564-2.178-1.8-6.3-.924-5.57,5.373-11.867a40.028,40.028,0,0,0,6.747,4.048c3.149,1.349,5.847,2.7,3.6,7.2s-7.647,8.546-4.048,14.394,4.048,3.6,3.6,5.847h0l-.45,2.249,2.7-2.7-1.8,3.6s5.847,0,7.647-4.5l.9.9s3.6-6.3-3.149-12.145c0,0-2.249-1.349.9-5.847s.73-14.169-3.318-15.968S845.757,143.187,845.757,143.187Z" transform="translate(-647.402 -129.791)" fill="#2f2e41"/>
  <circle id="Ellipse_1223" data-name="Ellipse 1223" cx="4.186" cy="4.186" r="4.186" transform="translate(199.129 2.233)" fill="#2f2e41"/>
  <path id="Path_2061" data-name="Path 2061" d="M872.149,99.186a4.186,4.186,0,0,1,3.767-4.165c-.137-.014-.277-.021-.418-.021a4.186,4.186,0,1,0,0,8.372c.141,0,.281-.007.419-.021A4.186,4.186,0,0,1,872.149,99.186Z" transform="translate(-673.857 -95)" fill="#2f2e41"/>
  <path id="Path_2062" data-name="Path 2062" d="M678.626,209.677l-.549-.414c-1.951-1.5-3.237-2.472-3.355-3.813a1.914,1.914,0,0,1,1.759-2.109,2.059,2.059,0,0,0,3.156-.276,1.914,1.914,0,0,1,2.1,1.772c.117,1.341-.981,2.521-2.642,4.337Z" transform="translate(-529.515 -174.333)" fill="#ff6584"/>
  <circle id="Ellipse_1224" data-name="Ellipse 1224" cx="4.791" cy="4.791" r="4.791" transform="translate(234.882 126.514)" fill="#f1f1f1"/>
  <circle id="Ellipse_1225" data-name="Ellipse 1225" cx="4.791" cy="4.791" r="4.791" transform="translate(101.751 23.581)" fill="#f1f1f1"/>
  <circle id="Ellipse_1226" data-name="Ellipse 1226" cx="4.791" cy="4.791" r="4.791" transform="translate(55.318 77.808)" fill="#f1f1f1"/>
</svg>
