<svg xmlns="http://www.w3.org/2000/svg" xmlns:xlink="http://www.w3.org/1999/xlink" width="250.36" height="186.453" viewBox="0 0 250.36 186.453">
  <defs>
    <linearGradient id="linear-gradient" x1="0.5" y1="1" x2="0.5" gradientUnits="objectBoundingBox">
      <stop offset="0" stop-color="gray" stop-opacity="0.251"/>
      <stop offset="0.54" stop-color="gray" stop-opacity="0.122"/>
      <stop offset="1" stop-color="gray" stop-opacity="0.102"/>
    </linearGradient>
    <linearGradient id="linear-gradient-2" x1="0.5" y1="1" x2="0.5" y2="0" xlink:href="#linear-gradient"/>
    <linearGradient id="linear-gradient-3" x1="0.5" y1="1" x2="0.5" y2="0" xlink:href="#linear-gradient"/>
  </defs>
  <g id="undraw_children_4rtb" transform="translate(0.015 0.006)">
    <ellipse id="Ellipse_1139" data-name="Ellipse 1139" cx="107.793" cy="6.578" rx="107.793" ry="6.578" transform="matrix(0.998, -0.055, 0.055, 0.998, 6.217, 173.312)" fill="#846be2" opacity="0.1"/>
    <path id="Path_1853" data-name="Path 1853" d="M67.34,437.14c3.963,16.277,12.348,30.345,25.6,37.162,27.543,14.174,89.661,6.864,136.022-1.528a107.178,107.178,0,0,0,60.368-33.17Z" transform="translate(-64.649 -342.825)" fill="#846be2" opacity="0.1"/>
    <path id="Path_1854" data-name="Path 1854" d="M332.46,36.411H307.02a2.114,2.114,0,1,1,0-4.227h4.4a2.114,2.114,0,1,1,0-4.227h-3.14a2.114,2.114,0,1,1,0-4.227h13.277a36.08,36.08,0,0,0-10.369-2.743c-36.186-4.472-49.111-1.515-53.671,1.528a51.851,51.851,0,0,1-18.606,7.84c-22.339,4.429-64.11,9.758-101.969-1.706-18.815-5.7-32.8,3.931-41.188,20.024H336.878A36.51,36.51,0,0,0,333.889,35.9,2.254,2.254,0,0,1,332.46,36.411Z" transform="translate(-86.655 -18.71)" fill="#846be2" opacity="0.1"/>
    <path id="Path_1855" data-name="Path 1855" d="M210.487,295.124l-.331-.02-3.462-.2-33.172-1.864-3.584-.2-52.824-2.966-14.805-.836-2.342-.131-2.081-.117-42-2.36a103.434,103.434,0,0,0,.987,28.4l35.343,1.242,2.8.1.5.016,16.778.584.9.029,1.934.068,16.906.6,2.317.083,8.074.284h.153l1.188.043,4.046.142h0l3.55.124,6.762.237h.142l.6.023.64.023h.14l10.779.379,3.021.108h.126l1.454.05h0l.271.011h.108l1.278.045,3.9.137h0l1.465.052,1.882.065H184l2.583.092,7.47.264,2.056.07h.225l9.959.349,5.784.2,7.2.255,1.154.041,1.864.065,6.776.237,51.113,1.8A100.656,100.656,0,0,0,295.7,299.9Zm-96.1,15.779a2.24,2.24,0,0,1-1.465-.541h0a2.137,2.137,0,0,1-.464-.561,2.053,2.053,0,0,1-.268-1.01,2.015,2.015,0,0,1,.363-1.154h0a2.34,2.34,0,0,1,.243-.291,2.229,2.229,0,0,1,1.591-.658h4.4a2.117,2.117,0,1,1,0-4.229h-3.14q-.1.005-.205,0a2.11,2.11,0,1,1,.205-4.215h25.436a2.114,2.114,0,1,1,0,4.224h3.14a2.117,2.117,0,1,1,0,4.229h-4.4a2.114,2.114,0,1,1,0,4.224Z" transform="translate(-55.35 -226.087)" fill="#846be2" opacity="0.1"/>
    <path id="Path_1856" data-name="Path 1856" d="M307.585,152.32l-175.454,4.1-19.284.451-49.089,1.147a90.145,90.145,0,0,0-5.838,24.21H303.313a97.025,97.025,0,0,0,3.541-15.43A70.259,70.259,0,0,0,307.585,152.32ZM107.417,171h-4.4a2.162,2.162,0,0,1,2.2,2.112v.128a2.1,2.1,0,0,1-.976,1.63,2.254,2.254,0,0,1-1.217.356H77.59a2.114,2.114,0,1,1,0-4.227h4.4a2.114,2.114,0,1,1,0-4.227h-3.14a2.114,2.114,0,1,1,0-4.227h25.436a2.114,2.114,0,1,1,0,4.227h3.14a2.227,2.227,0,0,1,1.044.257,2.1,2.1,0,0,1,1.154,1.855,2.164,2.164,0,0,1-2.2,2.114Z" transform="translate(-57.352 -122.207)" fill="#846be2" opacity="0.1"/>
    <g id="Group_2960" data-name="Group 2960" transform="translate(131.518 81.913)" opacity="0.1">
      <path id="Path_1857" data-name="Path 1857" d="M645.86,462.34s6.436-15.245,18.452-20.9a25.508,25.508,0,0,0,11.771-10.984,41.111,41.111,0,0,0,2.944-7.125" transform="translate(-644.28 -414.041)" fill="none" stroke="#535461" stroke-miterlimit="10" stroke-width="2"/>
      <path id="Path_1858" data-name="Path 1858" d="M799.936,387.8c-1.251,1.515-7.736,3.724-7.736,3.724s.782-6.571,2.029-8.083a3.746,3.746,0,0,1,5.121-.561,3.411,3.411,0,0,1,.586,4.921Z" transform="translate(-757.633 -382.12)" fill="#846be2"/>
      <path id="Path_1859" data-name="Path 1859" d="M787.1,437.069c-1.907.615-8.6-.917-8.6-.917s4.371-5.106,6.278-5.723a3.678,3.678,0,0,1,4.614,2.2,3.471,3.471,0,0,1-2.292,4.436Z" transform="translate(-747.021 -419.397)" fill="#846be2"/>
      <path id="Path_1860" data-name="Path 1860" d="M739.283,499.688c-1.97-.392-6.943-4.959-6.943-4.959s6.46-2.292,8.426-1.891a3.505,3.505,0,0,1,2.824,4.141A3.642,3.642,0,0,1,739.283,499.688Z" transform="translate(-711.266 -467.844)" fill="#846be2"/>
      <path id="Path_1861" data-name="Path 1861" d="M685,538.138c-2.011-.068-7.716-3.764-7.716-3.764s5.96-3.3,7.971-3.237a3.506,3.506,0,1,1-.255,7Z" transform="translate(-668.617 -497.545)" fill="#846be2"/>
      <path id="Path_1862" data-name="Path 1862" d="M750.766,423.873c.257,1.918,4.614,7.035,4.614,7.035s2.87-6.012,2.613-7.93a3.62,3.62,0,0,0-4.08-3.027A3.53,3.53,0,0,0,750.766,423.873Z" transform="translate(-725.515 -411.401)" fill="#846be2"/>
      <path id="Path_1863" data-name="Path 1863" d="M689.968,466.507c.843,1.756,6.594,5.385,6.594,5.385s.868-6.562.025-8.318a3.708,3.708,0,0,0-4.833-1.7,3.449,3.449,0,0,0-1.785,4.637Z" transform="translate(-678.194 -443.638)" fill="#846be2"/>
      <path id="Path_1864" data-name="Path 1864" d="M638.967,520.895c.521,1.869,5.552,6.379,5.552,6.379s2.008-6.325,1.485-8.194a3.666,3.666,0,0,0-4.463-2.48,3.489,3.489,0,0,0-2.574,4.294Z" transform="translate(-638.85 -486.194)" fill="#846be2"/>
      <path id="Path_1865" data-name="Path 1865" d="M799.936,387.8c-1.251,1.515-7.736,3.724-7.736,3.724s.782-6.571,2.029-8.083a3.746,3.746,0,0,1,5.121-.561,3.411,3.411,0,0,1,.586,4.921Z" transform="translate(-757.633 -382.12)" opacity="0.25"/>
      <path id="Path_1866" data-name="Path 1866" d="M787.1,437.069c-1.907.615-8.6-.917-8.6-.917s4.371-5.106,6.278-5.723a3.678,3.678,0,0,1,4.614,2.2,3.471,3.471,0,0,1-2.292,4.436Z" transform="translate(-747.021 -419.397)" opacity="0.25"/>
      <path id="Path_1867" data-name="Path 1867" d="M739.283,499.688c-1.97-.392-6.943-4.959-6.943-4.959s6.46-2.292,8.426-1.891a3.505,3.505,0,0,1,2.824,4.141A3.642,3.642,0,0,1,739.283,499.688Z" transform="translate(-711.266 -467.844)" opacity="0.25"/>
      <path id="Path_1868" data-name="Path 1868" d="M685,538.138c-2.011-.068-7.716-3.764-7.716-3.764s5.96-3.3,7.971-3.237a3.506,3.506,0,1,1-.255,7Z" transform="translate(-668.617 -497.545)" opacity="0.25"/>
      <path id="Path_1869" data-name="Path 1869" d="M750.766,423.873c.257,1.918,4.614,7.035,4.614,7.035s2.87-6.012,2.613-7.93a3.62,3.62,0,0,0-4.08-3.027A3.53,3.53,0,0,0,750.766,423.873Z" transform="translate(-725.515 -411.401)" opacity="0.25"/>
      <path id="Path_1870" data-name="Path 1870" d="M689.968,466.507c.843,1.756,6.594,5.385,6.594,5.385s.868-6.562.025-8.318a3.708,3.708,0,0,0-4.833-1.7,3.449,3.449,0,0,0-1.785,4.637Z" transform="translate(-678.194 -443.638)" opacity="0.25"/>
      <path id="Path_1871" data-name="Path 1871" d="M638.967,520.895c.521,1.869,5.552,6.379,5.552,6.379s2.008-6.325,1.485-8.194a3.666,3.666,0,0,0-4.463-2.48,3.489,3.489,0,0,0-2.574,4.294Z" transform="translate(-638.85 -486.194)" opacity="0.25"/>
    </g>
    <g id="Group_2961" data-name="Group 2961" transform="translate(131.215 49.291)" opacity="0.1">
      <path id="Path_1872" data-name="Path 1872" d="M667.23,331.19s.811-16.435,10.2-25.6a24.589,24.589,0,0,0,7.315-14.115,40.448,40.448,0,0,0,.325-7.664" transform="translate(-660.53 -273.348)" fill="none" stroke="#535461" stroke-miterlimit="10" stroke-width="2"/>
      <path id="Path_1873" data-name="Path 1873" d="M748.226,242.043c-.661,1.826-6.016,5.978-6.016,5.978s-1.524-6.429-.87-8.266a3.669,3.669,0,0,1,4.637-2.159,3.471,3.471,0,0,1,2.25,4.447Z" transform="translate(-717.809 -237.399)" fill="#846be2"/>
      <path id="Path_1874" data-name="Path 1874" d="M752.518,289.833c-1.578,1.19-8.428,1.878-8.428,1.878s2.36-6.212,3.947-7.4a3.742,3.742,0,0,1,5.115.609,3.41,3.41,0,0,1-.633,4.914Z" transform="translate(-720.065 -273.161)" fill="#846be2"/>
      <path id="Path_1875" data-name="Path 1875" d="M724.294,363.745c-1.995.257-8.264-2.48-8.264-2.48s5.3-4.217,7.294-4.472a3.621,3.621,0,0,1,4.1,3A3.544,3.544,0,0,1,724.294,363.745Z" transform="translate(-698.33 -329.856)" fill="#846be2"/>
      <path id="Path_1876" data-name="Path 1876" d="M687.887,417.284c-1.921.577-8.577-1.093-8.577-1.093s4.483-5.015,6.4-5.593a3.673,3.673,0,0,1,4.565,2.3,3.481,3.481,0,0,1-2.392,4.389Z" transform="translate(-669.887 -371.432)" fill="#846be2"/>
      <path id="Path_1877" data-name="Path 1877" d="M710.141,293.108c.9,1.727,6.78,5.164,6.78,5.164s.633-6.584-.27-8.313a3.713,3.713,0,0,0-4.891-1.553,3.437,3.437,0,0,0-1.618,4.7Z" transform="translate(-693.471 -276.614)" fill="#846be2"/>
      <path id="Path_1878" data-name="Path 1878" d="M667.466,352.727c1.4,1.389,8.077,2.978,8.077,2.978s-1.445-6.465-2.845-7.853a3.749,3.749,0,0,0-5.153-.077,3.406,3.406,0,0,0-.079,4.952Z" transform="translate(-659.916 -322.129)" fill="#846be2"/>
      <path id="Path_1879" data-name="Path 1879" d="M638.136,420.328c1.127,1.6,7.439,4.249,7.439,4.249s-.291-6.607-1.418-8.205a3.74,3.74,0,0,0-5.065-.9,3.42,3.42,0,0,0-.956,4.858Z" transform="translate(-637.509 -374.853)" fill="#846be2"/>
    </g>
    <ellipse id="Ellipse_1140" data-name="Ellipse 1140" cx="4.069" cy="0.559" rx="4.069" ry="0.559" transform="translate(86.212 154.433)" fill="#846be2" opacity="0.1"/>
    <ellipse id="Ellipse_1141" data-name="Ellipse 1141" cx="4.069" cy="0.559" rx="4.069" ry="0.559" transform="translate(70.627 156.014)" fill="#846be2" opacity="0.1"/>
    <ellipse id="Ellipse_1142" data-name="Ellipse 1142" cx="4.069" cy="0.559" rx="4.069" ry="0.559" transform="translate(52.269 153.874)" fill="#846be2" opacity="0.1"/>
    <ellipse id="Ellipse_1143" data-name="Ellipse 1143" cx="2.892" cy="0.397" rx="2.892" ry="0.397" transform="translate(78.04 160.675)" fill="#846be2" opacity="0.1"/>
    <ellipse id="Ellipse_1144" data-name="Ellipse 1144" cx="2.892" cy="0.397" rx="2.892" ry="0.397" transform="translate(61.865 160.278)" fill="#846be2" opacity="0.1"/>
    <path id="Path_1880" data-name="Path 1880" d="M326.827,606.615s5.705-18.709-.9-26.2c-4.937-5.6-10.54-4.934-13.049-4.24a4.628,4.628,0,0,0-2.993,2.48c-.877,1.893-.719,4.959,5.473,8.552,10.369,6,11.016,14.239,11.016,14.239Z" transform="translate(-252.22 -450.169)" fill="#846be2"/>
    <path id="Path_1881" data-name="Path 1881" d="M328.49,589.51s16.82,5.259,13.049,27.785" transform="translate(-266.932 -460.848)" fill="none" stroke="#565987" stroke-miterlimit="10" stroke-width="1"/>
    <path id="Path_1882" data-name="Path 1882" d="M366.15,597.87s-2.315,1.562-1.578,3.906" transform="translate(-294.768 -467.324)" fill="none" stroke="#565987" stroke-miterlimit="10" stroke-width="1"/>
    <path id="Path_1883" data-name="Path 1883" d="M336,600.961a2.917,2.917,0,0,1,3.138-.645" transform="translate(-272.749 -469.033)" fill="none" stroke="#565987" stroke-miterlimit="10" stroke-width="1"/>
    <path id="Path_1884" data-name="Path 1884" d="M365.47,634.529s2.48-1.262,3.129.318" transform="translate(-295.576 -495.35)" fill="none" stroke="#565987" stroke-miterlimit="10" stroke-width="1"/>
    <path id="Path_1885" data-name="Path 1885" d="M386.23,647.808s-1.866-.149-1.9.744" transform="translate(-310.185 -505.998)" fill="none" stroke="#565987" stroke-miterlimit="10" stroke-width="1"/>
    <path id="Path_1886" data-name="Path 1886" d="M352.759,667.713s-6.681-13.595-8.518-13.3c-.87.142-1.274,1-1.454,1.862a5.475,5.475,0,0,0,.363,3.309A14.689,14.689,0,0,0,352.759,667.713Z" transform="translate(-277.921 -511.118)" fill="#846be2"/>
    <path id="Path_1887" data-name="Path 1887" d="M349.83,665.89s7.026,10.169,8.379,10.619" transform="translate(-283.462 -520.011)" fill="none" stroke="#565987" stroke-miterlimit="10" stroke-width="1"/>
    <line id="Line_1" data-name="Line 1" x2="1.637" transform="translate(65.724 147.466)" fill="none" stroke="#565987" stroke-miterlimit="10" stroke-width="1"/>
    <line id="Line_2" data-name="Line 2" x2="2.567" y2="0.11" transform="translate(67.685 151.187)" fill="none" stroke="#565987" stroke-miterlimit="10" stroke-width="1"/>
    <line id="Line_3" data-name="Line 3" x1="0.28" y2="1.337" transform="translate(68.967 148.21)" fill="none" stroke="#565987" stroke-miterlimit="10" stroke-width="1"/>
    <line id="Line_4" data-name="Line 4" x1="0.05" y2="1.215" transform="translate(71.927 152.278)" fill="none" stroke="#565987" stroke-miterlimit="10" stroke-width="1"/>
    <path id="Path_1888" data-name="Path 1888" d="M386.52,667.713s6.684-13.595,8.521-13.3c.87.142,1.274,1,1.454,1.862a5.475,5.475,0,0,1-.363,3.309A14.646,14.646,0,0,1,386.52,667.713Z" transform="translate(-311.881 -511.118)" fill="#846be2"/>
    <path id="Path_1889" data-name="Path 1889" d="M395.361,665.89s-7.008,10.169-8.361,10.619" transform="translate(-312.253 -520.011)" fill="none" stroke="#565987" stroke-miterlimit="10" stroke-width="1"/>
    <line id="Line_5" data-name="Line 5" x1="1.637" transform="translate(82.116 147.466)" fill="none" stroke="#565987" stroke-miterlimit="10" stroke-width="1"/>
    <line id="Line_6" data-name="Line 6" x1="2.565" y2="0.11" transform="translate(79.226 151.187)" fill="none" stroke="#565987" stroke-miterlimit="10" stroke-width="1"/>
    <line id="Line_7" data-name="Line 7" x2="0.277" y2="1.337" transform="translate(80.231 148.21)" fill="none" stroke="#565987" stroke-miterlimit="10" stroke-width="1"/>
    <line id="Line_8" data-name="Line 8" x2="0.05" y2="1.215" transform="translate(77.502 152.278)" fill="none" stroke="#565987" stroke-miterlimit="10" stroke-width="1"/>
    <path id="Path_1890" data-name="Path 1890" d="M334.253,721.2a1.168,1.168,0,0,1-.381-.575.507.507,0,0,1,.266-.584c.243-.095.5.074.7.246s.424.365.676.329a1.044,1.044,0,0,1-.322-.974.412.412,0,0,1,.09-.2c.135-.146.381-.083.543.032a2.021,2.021,0,0,1,.663,1.693,3.125,3.125,0,0,0,0-.7.714.714,0,0,1,.264-.618.779.779,0,0,1,.4-.095.827.827,0,0,1,.649.185.647.647,0,0,1-.025.8,2.525,2.525,0,0,1-.676.539,1.479,1.479,0,0,0-.48.451.329.329,0,0,0-.036.081h-1.454a4.123,4.123,0,0,1-.879-.613Z" transform="translate(-271.088 -561.429)" fill="#846be2"/>
    <path id="Path_1891" data-name="Path 1891" d="M447.223,696.91a1.168,1.168,0,0,1-.381-.575.507.507,0,0,1,.266-.584c.243-.095.5.074.7.246s.424.365.676.329a1.039,1.039,0,0,1-.322-.974.412.412,0,0,1,.09-.2c.135-.147.381-.083.543.031a2.021,2.021,0,0,1,.663,1.693,3.121,3.121,0,0,0,0-.7.717.717,0,0,1,.261-.618.787.787,0,0,1,.4-.095.83.83,0,0,1,.649.185.645.645,0,0,1-.027.8,2.479,2.479,0,0,1-.676.539,1.449,1.449,0,0,0-.478.451.331.331,0,0,0-.036.081H448.1A4.055,4.055,0,0,1,447.223,696.91Z" transform="translate(-358.593 -542.614)" fill="#846be2"/>
    <path id="Path_1892" data-name="Path 1892" d="M409.573,721.2a1.168,1.168,0,0,1-.381-.575.507.507,0,0,1,.266-.584c.243-.095.5.074.7.246s.424.365.676.329a1.039,1.039,0,0,1-.322-.974.412.412,0,0,1,.09-.2c.135-.146.381-.083.543.032a2.021,2.021,0,0,1,.663,1.693,3.127,3.127,0,0,0,0-.7.717.717,0,0,1,.261-.618.786.786,0,0,1,.4-.095.83.83,0,0,1,.649.185.645.645,0,0,1-.027.8,2.479,2.479,0,0,1-.676.539,1.449,1.449,0,0,0-.478.451.33.33,0,0,0-.036.081h-1.454A4.058,4.058,0,0,1,409.573,721.2Z" transform="translate(-329.43 -561.429)" fill="#846be2"/>
    <path id="Path_1893" data-name="Path 1893" d="M299.952,678.42s-.546.712.252,1.787,1.454,1.986,1.188,2.655c0,0-1.2-2-2.182-2.029S298.877,679.621,299.952,678.42Z" transform="translate(-243.878 -529.717)" fill="#846be2"/>
    <path id="Path_1894" data-name="Path 1894" d="M299.952,678.42a.841.841,0,0,0-.11.225c-.956,1.127-1.463,2.168-.546,2.193.854.025,1.88,1.553,2.126,1.941a.242.242,0,0,1-.029.086c-.011.027-1.2-2-2.182-2.029S298.877,679.621,299.952,678.42Z" transform="translate(-243.878 -529.717)" opacity="0.1"/>
    <path id="Path_1895" data-name="Path 1895" d="M299.67,681.9c0,.25.027.451.061.451s.063-.2.063-.451-.034-.133-.07-.133S299.67,681.643,299.67,681.9Z" transform="translate(-244.608 -532.284)" fill="#ffd037"/>
    <path id="Path_1896" data-name="Path 1896" d="M297.66,683.189c.225.119.412.191.431.16s-.149-.151-.37-.27-.133-.034-.151,0S297.441,683.068,297.66,683.189Z" transform="translate(-242.947 -533.278)" fill="#ffd037"/>
    <path id="Path_1897" data-name="Path 1897" d="M311.784,678.42s.543.712-.252,1.787-1.454,1.986-1.188,2.655c0,0,1.2-2,2.18-2.029S312.859,679.621,311.784,678.42Z" transform="translate(-252.83 -529.717)" fill="#846be2"/>
    <path id="Path_1898" data-name="Path 1898" d="M311.89,678.42a.934.934,0,0,1,.11.225c.953,1.127,1.463,2.168.546,2.193-.854.025-1.88,1.553-2.126,1.941a.242.242,0,0,0,.029.086c.011.027,1.2-2,2.18-2.029S312.965,679.621,311.89,678.42Z" transform="translate(-252.935 -529.717)" opacity="0.1"/>
    <path id="Path_1899" data-name="Path 1899" d="M321,681.9c0,.25-.027.451-.063.451s-.063-.2-.063-.451.036-.133.07-.133S321,681.643,321,681.9Z" transform="translate(-261.03 -532.284)" fill="#ffd037"/>
    <path id="Path_1900" data-name="Path 1900" d="M321.525,683.189c-.225.119-.413.191-.428.16s.149-.151.37-.27.133-.034.149,0S321.75,683.068,321.525,683.189Z" transform="translate(-261.204 -533.278)" fill="#ffd037"/>
    <path id="Path_1901" data-name="Path 1901" d="M301.173,694.892a5.6,5.6,0,0,1-1.984-.374c-.46-.327-2.344-.717-2.457-.192s-2.292,2.608-.57,2.622a14.564,14.564,0,0,0,4.456-.548C301.076,696.121,301.173,694.892,301.173,694.892Z" transform="translate(-241.38 -541.838)" fill="#a8a8a8"/>
    <path id="Path_1902" data-name="Path 1902" d="M296.126,699.555a14.559,14.559,0,0,0,4.456-.548c.349-.212.489-.976.536-1.328h.05s-.1,1.229-.555,1.508a14.57,14.57,0,0,1-4.456.548c-.5,0-.676-.18-.66-.451C295.567,699.461,295.756,699.555,296.126,699.555Z" transform="translate(-241.375 -544.635)" opacity="0.2"/>
    <rect id="Rectangle_1012" data-name="Rectangle 1012" width="3.983" height="8.902" rx="1.992" transform="matrix(0.3, 0.954, -0.954, 0.3, 45.116, 125.132)" fill="#846be2"/>
    <path id="Path_1903" data-name="Path 1903" d="M567.284,240.353s-.7-5.345-4.452-5.457.588,6.629,1.03,7.238c.259.354.052,1.339-.162,2.1a15.579,15.579,0,0,0-.385,1.661,3.88,3.88,0,0,1-.848,1.923,9.617,9.617,0,0,0-1.51,2.529,3.56,3.56,0,0,1-1.508-.225,11.6,11.6,0,0,0-3.09-1.062c-.025.032-.095.045-.192.043a3.107,3.107,0,0,1-.451-.056c-.02-.126-.043-.252-.074-.383,0,0-.318-.138-.676-.331v-.023h0c.083-.212.138-.44.225-.647v-.018h0a1,1,0,0,1,.286-.406c.345-.277.843-.183,1.26-.32a1.45,1.45,0,0,0,.138-.054l.05-.029.077-.043.054-.038.061-.045.054-.047a.538.538,0,0,1,.052-.05l.047-.056.047-.054.043-.061c.013-.02.029-.038.041-.059s.027-.043.038-.065l.036-.065.034-.068.029-.07a.7.7,0,0,0,.029-.072.249.249,0,0,1,.025-.072c.009-.025.014-.05.023-.074s0-.047.018-.074a.749.749,0,0,0,.018-.077l.013-.074a.2.2,0,0,1,.011-.081c.011-.027,0-.047,0-.07v-.088q0-.032,0-.063v-.275a2.25,2.25,0,0,0-.043-.275,2.589,2.589,0,0,1-.167-1.339.382.382,0,0,1,.018-.045.712.712,0,0,1,.068-.128.926.926,0,0,1,.374-.309c.131-.068.275-.119.41-.176a3.156,3.156,0,0,0,1.3-.9h0a2.084,2.084,0,0,0,.451-1.019,1.629,1.629,0,0,0,0-.512v-.047h0a4.772,4.772,0,0,1-.2-.9,1.148,1.148,0,0,1,.052-.354q.027-.081.061-.162l.018-.038c.025-.052.052-.1.079-.153a.162.162,0,0,0,.016-.027l.088-.14.02-.029c.032-.05.068-.1.1-.149.083-.119.171-.237.252-.358h0c.038-.056.074-.115.108-.174h0c.034-.061.065-.12.095-.18v-.029a2.037,2.037,0,0,0,.074-.194l.02-.065c.02-.074.038-.147.052-.225a.421.421,0,0,1,0-.054c0-.068.018-.135.023-.2a.336.336,0,0,1,0-.05v-.239a.552.552,0,0,0,0-.059,1.215,1.215,0,0,0-.016-.239,6.134,6.134,0,0,0-.149-.841c-.1-.4-.268-.866-.66-.974a1.614,1.614,0,0,0-.613.027,2.944,2.944,0,0,1-1.821-.462,14.628,14.628,0,0,1-1.544-1.154,1.356,1.356,0,0,0-1.177-.4,3.157,3.157,0,0,0-.417.212.471.471,0,0,1-.09.027,2.158,2.158,0,0,1-.433.036h-.041c-.124-.4-.257-.789-.406-1.177a5.973,5.973,0,0,0-1.67-2.624,6.728,6.728,0,0,0-1.542-.841c-1.652-.721-3.469-1.454-5.185-.938a7.725,7.725,0,0,0-2.094,1.127l-2.77,1.891-.207-.063c-.406-.117-.825-.187-1.068-.268L539,229.88a2.177,2.177,0,0,1-1.578-1.785,1.924,1.924,0,0,1,.038-.394,6.355,6.355,0,0,1,.255-.8c.056-.153.1-.309.151-.464l.045-.167c.027-.1.052-.2.077-.3l.047-.225c.018-.081.032-.16.047-.241s.031-.171.043-.257a.281.281,0,0,1,.018-.119c.034-.246.059-.491.072-.737h0a3.859,3.859,0,0,1,.014-.394v-.455h0a9.256,9.256,0,0,0-1.555-4.891,2.929,2.929,0,0,0-.3,1.2.451.451,0,0,1-.045.225.293.293,0,0,1-.422.018,4.135,4.135,0,0,1-.316-.365.775.775,0,0,0-.94-.113.852.852,0,0,0-.345.913,3.546,3.546,0,0,0-3.541.225,1.312,1.312,0,0,0-.611.775h0a.9.9,0,0,0,.106.629c.192.374.564.712.807,1.1a9.436,9.436,0,0,0-1.474,3.183l-.2.248a6.966,6.966,0,0,0-1.271,1.008,1.35,1.35,0,0,0-.424,1.127l-3.44,4.317s-3.681,5.02-4.057,6.156c-.077.225-1.578,1.97.7,4.091s2.723,2.349,3.054,3.07c.194.422,1.677,1.19,2.879,1.756l.419.2c-.1,1.249.485,2.7,2.241,4.382a3.016,3.016,0,0,1,.052.6,19.88,19.88,0,0,0,.663,3.922,1.883,1.883,0,0,1-.275,2.444c-1.213.967-1.486,1.524-.739,2.308l.023.023-.11,2.218h-.325s-2.93,2.044-3.539,3.239-1.709,4.382-1.709,4.382a16.656,16.656,0,0,1-.552,3.523c-.327.455,0,2.331,0,2.331s-.056,2.9.661,3.582.5,2.387.5,2.387a8.066,8.066,0,0,0,.126,1.1c-.769-.225-2.128-.374-2.362,1.4a18.939,18.939,0,0,0-.165,4.057,22.655,22.655,0,0,1-1.159,3.832c-.5.85-1.546,8.394,3.117,7.105a2,2,0,0,0,1.127-1.159,5.269,5.269,0,0,0,.485-.6c-.018,1.472.388,2.716,1.824,2.412,0,0,.825-.183,1.2-1.918a17.89,17.89,0,0,0,2.029-2.369l1.332-3.323h0l.1-.255,1.24-1.33a33.464,33.464,0,0,0,6.312,1.325,15.538,15.538,0,0,0,1.893.086,14.583,14.583,0,0,0,3.269-.309,17.975,17.975,0,0,0,8.467-.629c4.414-1.7,1.38-5.457.606-6.253s-3.212-3.156-3.408-3.341v-.014s.451-13.642-.5-14.039-4.082-3.753-4.082-3.753l.331-2.159s1.544.171,1.6-1.195,0-3.411,0-3.411l2.029-3.638s2.457-1.458,3.573-1.952c.059.038.122.079.192.117a10.629,10.629,0,0,0,4.716,1.285c1.215-.225,3.643.3,5.185.451s2.254-1.4,2.1-1.578.627-1.918.627-1.918,1.472-7.125,1.141-8.261A7.755,7.755,0,0,1,567.284,240.353Zm-39.637,45.719c.128.063.262.124.4.185a21.555,21.555,0,0,0,2.214.784l1.38.512s-2.078.05-3.115.1a3.061,3.061,0,0,1-1.339-.62A2.3,2.3,0,0,1,527.647,286.072Zm20.844-39.808c-.025-.068-.047-.14-.068-.212.189-.047.374-.1.559-.162-.124.142-.275.311-.451.494C548.518,246.342,548.5,246.3,548.491,246.263Zm-23.218-5.635s.985-2.428,1.742-4.091q.045.2.1.4c-.032,0-.027-.036.1.3v.018a4.989,4.989,0,0,0,2.074,2.48,4.6,4.6,0,0,0,.983.451c0-.011,0-.023,0-.034a.334.334,0,0,0,0-.065.237.237,0,0,0,0-.041.287.287,0,0,0,0-.063l-.014-.032a.336.336,0,0,0-.034-.063l-.02-.023a.159.159,0,0,0-.032-.036c.153.1.309.189.464.284.034.018.065.041.1.061.16.092.32.18.482.268l.117.068c.192.1.388.2.584.3l.029.014.243.113.383.174a.676.676,0,0,0,.4.079.64.64,0,0,0,.243-.131L533.3,241a7.135,7.135,0,0,1,1.594-.66,1.467,1.467,0,0,0,1.028-1.285,1.364,1.364,0,0,0-.591-.956c-.3-.225-.656-.392-.965-.618a1.882,1.882,0,0,1-.787-1.86,1.18,1.18,0,0,1,.05-.142l.013-.034q.027-.056.061-.115c0-.011.013-.025.023-.038a1.48,1.48,0,0,1,.257-.286,4.292,4.292,0,0,1,.4-.3l2.719-1.833c.205-.14.41-.277.622-.406h0a6.178,6.178,0,0,1,.561-.307c.056-.025.113-.052.171-.074l.113-.047c.1-.038.2-.074.309-.106.056-.014.133-.027.225-.041a14.734,14.734,0,0,1-1.161,2.613,2.027,2.027,0,0,0-.212.467.588.588,0,0,0-.025.14,1.392,1.392,0,0,0,.126.586,1.747,1.747,0,0,0,.584.992c.095.068.183.131.259.2a1.579,1.579,0,0,1-.029.2,8.754,8.754,0,0,0-.059,1.008,8.315,8.315,0,0,0,1.578,4.889l-.09.1a8.26,8.26,0,0,1-1.661,1.476c-.072.045-.144.088-.225.128a2.546,2.546,0,0,1-.264-.575.708.708,0,0,1-.9-.4c-.32-.627-1.314,0-1.314,0s-2.254-1.307-2.371-.739a.565.565,0,0,1-.129.239l-.133-.126s-.518.171-1.247.5a1.4,1.4,0,0,1-.812-.5c-.225-.293-.167.14-.025.92l-.018.011-.264-.1c-1.558-.573-5.263-2.06-5.437-3.314Zm25.454,5.671c-.1-.318-.593-.566-.96-.712a8.115,8.115,0,0,0,4.1-4.317c.034-.083.065-.169.1-.255.065-.016.131-.027.194-.047a.953.953,0,0,0,.645-.473,1.061,1.061,0,0,0,.065-.358c.018-.273.029-.546.036-.818v-.038a20.286,20.286,0,0,0-.5-4.975l.243.2h0c.095.079.189.158.282.239a1.931,1.931,0,0,1,.225.225l.036.036c.072.072.142.147.207.225a.254.254,0,0,1,.023.029,2.656,2.656,0,0,1,.165.225l.056.088a1.994,1.994,0,0,1,.122.225l.023.045a2.241,2.241,0,0,1,.09.243l.02.056c.02.072.036.144.052.225a.528.528,0,0,0,.023.1c.014.077.023.156.032.237v.086c0,.074.011.151.016.225s0,.1,0,.144a10.125,10.125,0,0,1-.924,4.4,17.2,17.2,0,0,1-2.4,3.8,5.049,5.049,0,0,0-.791,1.163,2.325,2.325,0,0,0-.088.25c-.388-.052-.987-.162-1.086-.487Z" transform="translate(-414.994 -173.585)" fill="url(#linear-gradient)"/>
    <path id="Path_1904" data-name="Path 1904" d="M684.108,301.731c.338,1.127-1.165,8.189-1.165,8.189s-.789,1.738-.638,1.9-.564,1.7-2.141,1.553-4.057-.676-5.3-.451a11.137,11.137,0,0,1-4.817-1.274c-.421-.225-.676-.462-.654-.642.1-.712,2.464-3.945,2.464-3.945a6.613,6.613,0,0,0,1.082.194c.1,0,.171-.011.2-.043a12.3,12.3,0,0,1,3.156,1.053,3.8,3.8,0,0,0,1.54.214,9.509,9.509,0,0,1,1.542-2.507,3.8,3.8,0,0,0,.868-1.907,14.8,14.8,0,0,1,.392-1.648c.225-.753.431-1.729.167-2.081-.451-.6-4.885-7.288-1.053-7.175s4.547,5.41,4.547,5.41A7.762,7.762,0,0,0,684.108,301.731Z" transform="translate(-530.991 -231.303)" fill="#fbbebe"/>
    <path id="Path_1905" data-name="Path 1905" d="M611.873,329.349l-3.156,1.352-3.663,1.127s-8.4-6.819-6.255-7.326a3.666,3.666,0,0,0,1.055-.451,8.329,8.329,0,0,0,1.7-1.463,14.937,14.937,0,0,0,1.474-1.909s8.284-.394,6.988,1.578c-.5.769-.334,2.017.063,3.255.023.074.047.149.072.225A20.846,20.846,0,0,0,611.873,329.349Z" transform="translate(-476.038 -252.591)" fill="#fbbebe"/>
    <path id="Path_1906" data-name="Path 1906" d="M549.971,526.127s-1.454-1.352-1.984.73a21.414,21.414,0,0,0-.627,3.415,24.586,24.586,0,0,1-1.226,3.129c-.424.674-2.054,6.943,1.059,6.312,0,0,1.145-.243,1.368-2.888s2.148-10.531,2.148-10.531Z" transform="translate(-434.893 -411.418)" fill="#3f3d56"/>
    <path id="Path_1907" data-name="Path 1907" d="M575.926,503.8a19.2,19.2,0,0,1-8.924.586c-.861-.124-1.389-.248-1.389-.248l-9.862-1.014-.2.207-1.267,1.319-1.465,3.546s-3.945,5.41-4.4,2.2a13.2,13.2,0,0,1-.083-2.119,58.485,58.485,0,0,1,.985-7.968l8.96-1.183,5.635-2.93.061-3.057.014-.751.038-1.884,7.664.733,1.353,3.043.013.014c.2.185,2.723,2.554,3.48,3.311S580.434,502.109,575.926,503.8Z" transform="translate(-437.217 -384.156)" fill="#fbbebe"/>
    <path id="Path_1908" data-name="Path 1908" d="M555.289,552.492s-4.024.169-4.283-.552l-1.247,2.973s3.663,1.409,4.17.872Z" transform="translate(-438.324 -431.747)" fill="#846be2"/>
    <path id="Path_1909" data-name="Path 1909" d="M526.57,512.587s-2.619-1.3-2.957,1.183a18.289,18.289,0,0,0-.169,4.03,21.988,21.988,0,0,1-1.183,3.8c-.507.845-1.578,8.322,3.183,7.044,0,0,1.747-.478,1.465-3.55s.866-12.454.866-12.454Z" transform="translate(-416.658 -401.002)" fill="#3f3d56"/>
    <path id="Path_1910" data-name="Path 1910" d="M545.283,487.75l8.171,7.213s4.734,2.536-.9,6.875a14.191,14.191,0,0,1-6.424.676,34.486,34.486,0,0,1-7.1-1.522s-2.93-.451-3.945,1.127-3.269,5.016-3.269,5.016-2.761,5.466-4.565-1.3l2.311-6.593a21.241,21.241,0,0,0,0-2.7c-.113-.507,1.521-2.761,2.367-2.029s1.972,1.747,2.93,1.691,3.381-.113,3.381-.113l-1.409-.507s-4.057-1.127-3.776-1.972,2.254-4.959,2.254-4.959Z" transform="translate(-420.888 -382.026)" opacity="0.1"/>
    <path id="Path_1911" data-name="Path 1911" d="M550.553,501.838a8.93,8.93,0,0,1-1.429.417,15.82,15.82,0,0,1-5,.259,35.182,35.182,0,0,1-6.454-1.314c-.415-.126-.647-.207-.647-.207s-2.93-.451-3.945,1.127c-.676,1.039-1.873,2.883-2.619,4.024l-.649.992s-2.761,5.466-4.565-1.3l2.311-6.593a21.241,21.241,0,0,0,0-2.7,3.268,3.268,0,0,1,1.391-1.963c.349-.225.7-.3.976-.065a11.093,11.093,0,0,0,1.8,1.373,2.159,2.159,0,0,0,1.127.318c.958-.056,3.381-.113,3.381-.113l-1.409-.507a22.08,22.08,0,0,1-2.254-.778c-.877-.37-1.643-.812-1.515-1.195.282-.845,2.254-4.959,2.254-4.959l9.975-.9,2.836,2.5,1.215,1.071,4.121,3.638S556.188,497.5,550.553,501.838Z" transform="translate(-419.339 -382.026)" fill="#fbbebe"/>
    <path id="Path_1912" data-name="Path 1912" d="M581.213,526.364s-2.141-2.874-7.213-2.085" transform="translate(-457.1 -410.215)" fill="none" stroke="#000" stroke-miterlimit="10" stroke-width="1" opacity="0.1"/>
    <path id="Path_1913" data-name="Path 1913" d="M528.884,536.63l-1.634,3.746s1.8,4.143,5.3,3.523l2.148-3.893S529.845,539.5,528.884,536.63Z" transform="translate(-420.888 -419.888)" opacity="0.1"/>
    <path id="Path_1914" data-name="Path 1914" d="M527.884,537.63l-1.634,3.746s1.8,4.143,5.3,3.523l2.148-3.893S528.845,540.5,527.884,537.63Z" transform="translate(-420.114 -420.663)" fill="#846be2"/>
    <path id="Path_1915" data-name="Path 1915" d="M670.675,359.151a4.031,4.031,0,0,0-.676.266c-.422-.225-.676-.462-.654-.642.1-.712,2.464-3.945,2.464-3.945a6.615,6.615,0,0,0,1.082.194A3.778,3.778,0,0,1,670.675,359.151Z" transform="translate(-530.952 -279.068)" opacity="0.1"/>
    <path id="Path_1916" data-name="Path 1916" d="M611.873,342.047l-3.156,1.353-3.663,1.127s-8.4-6.819-6.255-7.326a3.666,3.666,0,0,0,1.055-.451,17.824,17.824,0,0,0,4.242,3.381c2.493.9,4.758-.744,5.98-1.93A20.381,20.381,0,0,0,611.873,342.047Z" transform="translate(-476.038 -265.064)" opacity="0.1"/>
    <path id="Path_1917" data-name="Path 1917" d="M586.329,338.462a37.1,37.1,0,0,0-4.057,2.085l-2.085,3.607s.056,2.029,0,3.381-1.634,1.183-1.634,1.183l-.077.032c-.4.169-2.3.965-2.3.983s-3.882-.394-3.882-.394l-7.608-1.24s-2.423-.113-3.212-.9l-.023-.023c-.762-.778-.473-1.339.755-2.288a1.841,1.841,0,0,0,.282-2.423,19.18,19.18,0,0,1-.676-3.888c0-1.465-.733-1.409-.733-1.409s-.507,0,1.747-1.465-.282-8.284.507-7.326,2.254.451,2.367-.113,2.423.733,2.423.733,1.014-.62,1.352,0a.735.735,0,0,0,.9.394c.564,1.86,4.734,4.283,4.734,4.283,3.719,1.352,6.932-2.987,6.932-2.987s1.24.338,1.409.85,1.578.487,1.578.487,1.691.185,1.747.692,1.691,1.183,1.691,1.183A3.827,3.827,0,0,1,586.329,338.462Z" transform="translate(-447.057 -258.379)" fill="#fff"/>
    <path id="Path_1918" data-name="Path 1918" d="M580,411.5l-.077.482c-.4.169-2.3.965-2.3.983s-3.882-.395-3.882-.395l-7.608-1.24s-2.423-.113-3.212-.9l-.023-.023.023-.428,1.24-.225s12.172.676,13.863,1.465Z" transform="translate(-448.502 -321.609)" opacity="0.1"/>
    <path id="Path_1919" data-name="Path 1919" d="M575.084,492.159c0,.28-.014.437-.014.437s-2.367-3.663-5.466-1.86a3.975,3.975,0,0,1-2.374.588,3.758,3.758,0,0,1-1.229-.32,4.851,4.851,0,0,1-1.7-1.283s-5.41,1.127-7.27,2.649a2.335,2.335,0,0,1-3.381-.451s-.53,2.315-1.19,2.885c-.877-.37-1.643-.812-1.515-1.195.282-.845,2.254-4.959,2.254-4.959l9.975-.9,2.836,2.5.038-1.884,7.664.733,1.352,3.043Z" transform="translate(-439.236 -382.026)" opacity="0.1"/>
    <path id="Path_1920" data-name="Path 1920" d="M541.838,411.75s12.172.676,13.863,1.465l1.972.282-.338,2.141s3.212,3.325,4.17,3.719.507,13.919.507,13.919-2.367-3.663-5.466-1.86a4.105,4.105,0,0,1-5.3-1.014s-5.41,1.127-7.27,2.649a2.335,2.335,0,0,1-3.381-.451s-.62,2.7-1.352,2.987-.9,2.085-.9,2.085-2.029-.394-2.029-1.014a1.546,1.546,0,0,0-.451-1.3,4.471,4.471,0,0,1-.451-1.916s.225-1.691-.507-2.367-.676-3.55-.676-3.55-.34-1.86,0-2.311a15.677,15.677,0,0,0,.564-3.494s1.127-3.156,1.747-4.339,3.607-3.212,3.607-3.212h.331l.113-2.2Z" transform="translate(-426.178 -323.158)" fill="#846be2"/>
    <circle id="Ellipse_1145" data-name="Ellipse 1145" cx="0.356" cy="0.356" r="0.356" transform="translate(128.79 92.632)" fill="#3f3d56"/>
    <circle id="Ellipse_1146" data-name="Ellipse 1146" cx="0.356" cy="0.356" r="0.356" transform="translate(126.892 100.71)" fill="#3f3d56"/>
    <circle id="Ellipse_1147" data-name="Ellipse 1147" cx="0.356" cy="0.356" r="0.356" transform="translate(129.392 97.967)" fill="#3f3d56"/>
    <path id="Path_1921" data-name="Path 1921" d="M557.052,424h.451s-2.7,6.2-2.854,4.47S557.052,424,557.052,424Z" transform="translate(-442.106 -332.647)" opacity="0.1"/>
    <path id="Path_1922" data-name="Path 1922" d="M572.827,426s-3.081,4.734-1.578,5.41,2.854-5.185,2.854-5.185Z" transform="translate(-454.65 -334.196)" opacity="0.1"/>
    <path id="Path_1923" data-name="Path 1923" d="M597.83,438.12s1.165,7.186,2.48,8.577a1.451,1.451,0,0,1-.225,2.367s4.621.413,6.086.712,3.719-.338,2.818-.938-.149-6.988-.074-7.29S606.022,447.089,597.83,438.12Z" transform="translate(-475.559 -343.584)" opacity="0.1"/>
    <path id="Path_1924" data-name="Path 1924" d="M575.67,381.514c.262-.113,4.47-6.023,5.484-5.547S575.67,381.514,575.67,381.514Z" transform="translate(-458.394 -295.419)" opacity="0.1"/>
    <path id="Path_1925" data-name="Path 1925" d="M573.566,377.5s-1.691,2.592-1.2,3.043S573.566,377.5,573.566,377.5Z" transform="translate(-455.765 -296.628)" opacity="0.1"/>
    <path id="Path_1926" data-name="Path 1926" d="M588.07,334s1.713,3.42,1.224,4.057S588.07,334,588.07,334Z" transform="translate(-467.999 -262.934)" opacity="0.1"/>
    <path id="Path_1927" data-name="Path 1927" d="M670.28,354.83s-.338,1.993-.789,2.067S670.28,354.83,670.28,354.83Z" transform="translate(-530.99 -279.068)" opacity="0.1"/>
    <path id="Path_1928" data-name="Path 1928" d="M637.33,357.67s4.772,1.168,5.148,1.429S638.344,359.361,637.33,357.67Z" transform="translate(-506.155 -281.268)" opacity="0.1"/>
    <path id="Path_1929" data-name="Path 1929" d="M709.967,364.791s-.6-2.331-1.389-2.292S709.967,364.791,709.967,364.791Z" transform="translate(-561.209 -285.008)" opacity="0.1"/>
    <path id="Path_1930" data-name="Path 1930" d="M674.442,287.715c-.293.606-.931,1.091-.922,1.765a4.746,4.746,0,0,0,.225.931,1.88,1.88,0,0,1-.451,1.515,3.229,3.229,0,0,1-1.337.9,1.662,1.662,0,0,0-.8.48c-.3.426-.038.994.083,1.5a1.738,1.738,0,0,1-.922,2.083c-.426.135-.935.043-1.287.316s-.388.818-.606,1.224a.962.962,0,1,1-1.756-.063,1.154,1.154,0,0,1-1.287-.525,1.537,1.537,0,0,1,.011-1.352,5.063,5.063,0,0,1,.807-1.154,17,17,0,0,0,2.448-3.764,9.8,9.8,0,0,0,.944-4.364,3.339,3.339,0,0,0-.255-1.3,3.233,3.233,0,0,0-.888-1.077c-.187-.162-.385-.316-.579-.471-.135-.108-.271-.225-.4-.329-.176-.156-.875-.726-.818-1,.032-.158.5-.135.917-.14a2.238,2.238,0,0,0,.451-.036.452.452,0,0,0,.093-.027,3.547,3.547,0,0,1,.426-.21,1.414,1.414,0,0,1,1.2.4,14.92,14.92,0,0,0,1.578,1.143,3.083,3.083,0,0,0,1.86.451,1.684,1.684,0,0,1,.627-.027c.4.106.575.564.676.965A3.332,3.332,0,0,1,674.442,287.715Z" transform="translate(-527.765 -223.102)" fill="#3f3d56"/>
    <path id="Path_1931" data-name="Path 1931" d="M565.013,234.842a2.325,2.325,0,0,0-.257.045,4.149,4.149,0,0,0-.694.264,10.151,10.151,0,0,0-1.127.676l-2.777,1.817a2.288,2.288,0,0,0-.676.582,1.685,1.685,0,0,0,.654,2.169c.316.225.676.383.985.613a1.353,1.353,0,0,1,.6.947c.034.588-.507,1.05-1.05,1.274a7.455,7.455,0,0,0-1.628.656.937.937,0,0,1-.325.185.712.712,0,0,1-.41-.079,17.029,17.029,0,0,1-2.452-1.265.332.332,0,0,1,.1.354,4.9,4.9,0,0,1-2.8-7.134,14.239,14.239,0,0,0,.9-1.472,1.806,1.806,0,0,0,0-1.657c-.225-.336-.62-.561-.737-.947a1.308,1.308,0,0,1,.422-1.161c.651-.676,1.551-1.082,2.27-1.7a2.24,2.24,0,0,0,.854-2.5c-.325-.676-1.2-1.179-1.05-1.916a1.3,1.3,0,0,1,.624-.778,3.713,3.713,0,0,1,3.607-.225.832.832,0,0,1,.354-.9.809.809,0,0,1,.96.11,4.117,4.117,0,0,0,.32.363.309.309,0,0,0,.43-.018.423.423,0,0,0,.047-.225,2.833,2.833,0,0,1,.311-1.192,9.064,9.064,0,0,1,1.066,8.185,3.23,3.23,0,0,0-.3,1.183,2.2,2.2,0,0,0,1.618,1.77l.043.014c.25.081.676.151,1.091.266.546.151,1.071.381,1.127.811C567.245,234.66,565.725,234.745,565.013,234.842Z" transform="translate(-440.449 -175.971)" fill="#3f3d56"/>
    <path id="Path_1932" data-name="Path 1932" d="M527.978,249.7c-.413.451-2.554,5.523-2.554,5.523.178,1.242,3.963,2.718,5.565,3.289.433.156.708.243.708.243l1.54,1.352s-1.578,8.717-1.7,6.575-2.917-3.232-2.917-3.232-.73-.3-1.6-.7c-1.226-.561-2.741-1.323-2.93-1.74-.338-.715-.789-.94-3.12-3.043s-.789-3.832-.712-4.057c.374-1.127,4.132-6.1,4.132-6.1l5.439-6.634s1.5-6.161,5.275-3.758-4.3,8.153-4.3,8.153S528.391,249.253,527.978,249.7Z" transform="translate(-415.023 -187.693)" fill="#fbbebe"/>
    <path id="Path_1933" data-name="Path 1933" d="M558.436,334.516s-1.578,8.717-1.7,6.575-2.917-3.232-2.917-3.232-.73-.3-1.6-.7c.282-2,2.36-3.42,3.979-4.238.433.156.708.243.708.243Z" transform="translate(-440.222 -262.097)" opacity="0.1"/>
    <path id="Path_1934" data-name="Path 1934" d="M561.687,330.756l-1.652-1.506s-10.689,3.381-3.476,9.787H559.6l2.786-3.7Z" transform="translate(-441.654 -259.255)" fill="#fff"/>
    <path id="Path_1935" data-name="Path 1935" d="M620.705,325.488c.023.074.047.149.072.225a8.126,8.126,0,0,1-8.6-3.145,14.93,14.93,0,0,0,1.474-1.909s8.284-.394,6.988,1.578C620.144,323,620.315,324.25,620.705,325.488Z" transform="translate(-486.674 -252.575)" opacity="0.1"/>
    <path id="Path_1936" data-name="Path 1936" d="M621.72,279.385a8.083,8.083,0,1,1-2.367-5.747A8.115,8.115,0,0,1,621.72,279.385Z" transform="translate(-481.492 -214.344)" fill="#fbbebe"/>
    <path id="Path_1937" data-name="Path 1937" d="M621.976,279.33a8.084,8.084,0,0,1-.631,3.14,3.655,3.655,0,0,1-1.382.023.818.818,0,0,1-.489-.225.9.9,0,0,1-.165-.451q-.128-.751-.252-1.5a2.7,2.7,0,0,1-2.254-.309c-.676-.383-1.271-.917-1.93-1.353a3.121,3.121,0,0,0-2.218-.6,3.753,3.753,0,0,0-1.186.5,8.289,8.289,0,0,0-2.029,1.517,3.776,3.776,0,0,1-1.337,1.2,1.416,1.416,0,0,1-1.765-.9,7.956,7.956,0,0,1-.088-1.294,1,1,0,0,0-.431-.748,8.115,8.115,0,0,1,16.169,1Z" transform="translate(-481.748 -214.29)" opacity="0.1"/>
    <path id="Path_1938" data-name="Path 1938" d="M602.867,269.125a7.956,7.956,0,0,0,.088,1.294,1.416,1.416,0,0,0,1.765.9,3.819,3.819,0,0,0,1.337-1.2,8.29,8.29,0,0,1,2.029-1.517,3.75,3.75,0,0,1,1.186-.5,3.168,3.168,0,0,1,2.218.6c.66.426,1.244.962,1.93,1.352a2.679,2.679,0,0,0,2.254.309l.252,1.5a.9.9,0,0,0,.164.451.818.818,0,0,0,.489.225,3.65,3.65,0,0,0,1.679-.1.965.965,0,0,0,.658-.469,1.052,1.052,0,0,0,.068-.356,19.546,19.546,0,0,0-1.3-8.449,5.91,5.91,0,0,0-1.706-2.6,6.887,6.887,0,0,0-1.578-.834c-1.686-.715-3.544-1.443-5.3-.931a7.978,7.978,0,0,0-2.139,1.127l-3.156,2.094a1.971,1.971,0,0,0-.451.372,2.152,2.152,0,0,0-.34.744,14.421,14.421,0,0,1-1.294,2.9,1.441,1.441,0,0,0-.243.6,1.375,1.375,0,0,0,.131.579c.162.422.225.735.6.983A1.162,1.162,0,0,1,602.867,269.125Z" transform="translate(-478.378 -204.56)" fill="#3f3d56"/>
    <g id="Group_2962" data-name="Group 2962" transform="translate(112.263 48.453)" opacity="0.1">
      <path id="Path_1939" data-name="Path 1939" d="M561.4,303.174a7.564,7.564,0,0,0-1.628.656.938.938,0,0,1-.325.185.712.712,0,0,1-.41-.079,16.858,16.858,0,0,1-2.48-1.287.327.327,0,0,1,.135.376,4.972,4.972,0,0,1-3.129-2.892c-.18-.462.034.494,0,0-.05.719-.261,0,0,.676a4.972,4.972,0,0,0,3.12,2.892.327.327,0,0,0-.135-.376,16.856,16.856,0,0,0,2.48,1.287.713.713,0,0,0,.41.079.937.937,0,0,0,.325-.185,7.344,7.344,0,0,1,1.628-.656c.543-.221,1.084-.676,1.05-1.274a.95.95,0,0,0-.065-.286,1.752,1.752,0,0,1-.976.884Z" transform="translate(-553.432 -285.053)"/>
      <path id="Path_1940" data-name="Path 1940" d="M600.17,247.093a1.349,1.349,0,0,0,.041.286,5.822,5.822,0,0,1,.259-.793,8.792,8.792,0,0,0,.521-3.336,8.718,8.718,0,0,1-.521,2.66,3.231,3.231,0,0,0-.3,1.183Z" transform="translate(-589.635 -241.093)"/>
      <path id="Path_1941" data-name="Path 1941" d="M678.557,289.085a4.49,4.49,0,0,0-1.427-1.515c.063.268.119.539.171.811a4.018,4.018,0,0,1,1.256,1.38,3.264,3.264,0,0,1,.252,1.238v-.611A3.339,3.339,0,0,0,678.557,289.085Z" transform="translate(-649.247 -275.422)"/>
      <path id="Path_1942" data-name="Path 1942" d="M568.1,235.587c.068-.331.248-.187.1-.5-.246-.509-.8-.92-1-1.407a.847.847,0,0,0-.054.167c-.147.737.627,1.062.951,1.74C568.146,235.684,567.9,235.1,568.1,235.587Z" transform="translate(-564.042 -233.68)"/>
      <path id="Path_1943" data-name="Path 1943" d="M588.268,276.92a1.653,1.653,0,0,0-.225.041,6.515,6.515,0,0,0-1.821.933l-2.777,1.817a2.287,2.287,0,0,0-.676.582,1.228,1.228,0,0,0-.151,1.008,1.071,1.071,0,0,1,.151-.331,2.287,2.287,0,0,1,.676-.582l2.777-1.817a6.657,6.657,0,0,1,1.772-.917C588.09,277.409,588.182,277.163,588.268,276.92Z" transform="translate(-576.001 -267.173)"/>
      <path id="Path_1944" data-name="Path 1944" d="M693.619,317.11a2.06,2.06,0,0,1-.433.888,3.23,3.23,0,0,1-1.337.9,1.661,1.661,0,0,0-.8.48,1.044,1.044,0,0,0-.088.85.7.7,0,0,1,.088-.174,1.612,1.612,0,0,1,.8-.48,3.231,3.231,0,0,0,1.337-.9,1.88,1.88,0,0,0,.451-1.515A.1.1,0,0,0,693.619,317.11Z" transform="translate(-659.918 -298.304)"/>
      <path id="Path_1945" data-name="Path 1945" d="M702.932,300.046c-.293.606-.931,1.091-.922,1.765a1.3,1.3,0,0,0,.052.334,11.921,11.921,0,0,1,.87-1.422,2.48,2.48,0,0,0,.183-1.352A2.114,2.114,0,0,1,702.932,300.046Z" transform="translate(-668.518 -284.563)"/>
      <path id="Path_1946" data-name="Path 1946" d="M616.135,298.874a.818.818,0,0,0,.489.225,3.65,3.65,0,0,0,1.679-.1.965.965,0,0,0,.658-.469,1.051,1.051,0,0,0,.068-.356c.038-.555.05-1.109.038-1.664,0,.329-.016.658-.038.987a1.053,1.053,0,0,1-.068.356.965.965,0,0,1-.658.469,3.651,3.651,0,0,1-1.679.1.819.819,0,0,1-.489-.225.9.9,0,0,1-.165-.451q-.128-.751-.252-1.5a2.7,2.7,0,0,1-2.254-.309c-.676-.383-1.271-.917-1.93-1.353a3.121,3.121,0,0,0-2.218-.6,3.751,3.751,0,0,0-1.186.5A8.29,8.29,0,0,0,606.1,296a3.775,3.775,0,0,1-1.337,1.2,1.416,1.416,0,0,1-1.765-.9,7.949,7.949,0,0,1-.088-1.294,1.162,1.162,0,0,0-.676-.92c-.372-.243-.433-.561-.6-.983-.02-.054-.043-.113-.061-.169a.848.848,0,0,0-.07.266,1.375,1.375,0,0,0,.131.579c.162.422.225.735.6.983a1.193,1.193,0,0,1,.676.92,7.949,7.949,0,0,0,.088,1.294,1.416,1.416,0,0,0,1.765.9,3.818,3.818,0,0,0,1.337-1.2,8.288,8.288,0,0,1,2.029-1.517,3.751,3.751,0,0,1,1.186-.5,3.168,3.168,0,0,1,2.218.6c.661.426,1.244.963,1.93,1.353a2.68,2.68,0,0,0,2.254.309l.252,1.5A.9.9,0,0,0,616.135,298.874Z" transform="translate(-590.672 -279.574)"/>
      <path id="Path_1947" data-name="Path 1947" d="M670.312,338.725c-.426.135-.935.043-1.287.316s-.388.818-.606,1.224a1.4,1.4,0,0,1-1.835.55,1.418,1.418,0,0,1,.079-.613,1.154,1.154,0,0,1-1.287-.525,1.18,1.18,0,0,1-.115-.3,1.386,1.386,0,0,0,.115.972,1.154,1.154,0,0,0,1.287.525,1.418,1.418,0,0,0-.079.613,1.4,1.4,0,0,0,1.835-.55c.225-.406.241-.94.606-1.224s.861-.18,1.287-.316a1.7,1.7,0,0,0,.949-1.941A1.5,1.5,0,0,1,670.312,338.725Z" transform="translate(-640.021 -314.066)"/>
    </g>
    <path id="Path_1948" data-name="Path 1948" d="M605.719,271.476a8.1,8.1,0,0,1-.987,1.693,2.318,2.318,0,0,0-.257.045,4.15,4.15,0,0,0-.694.264,14.084,14.084,0,0,1,.85-2.268C604.878,271.291,605.3,271.361,605.719,271.476Z" transform="translate(-480.168 -214.298)" fill="#846be2"/>
    <path id="Path_1949" data-name="Path 1949" d="M676.5,285.717c-.187-.162-.385-.316-.579-.471-.113-.451-.225-.99-.3-1.47a2.236,2.236,0,0,0,.451-.036,6.209,6.209,0,0,1,.428,1.977Z" transform="translate(-535.814 -224.003)" fill="#846be2"/>
    <path id="Path_1950" data-name="Path 1950" d="M882.545,339.754c.07-.034.138-.068.205-.106-.138-.027-.275-.059-.41-.092-.1.027-.2.047-.3.07a11.106,11.106,0,0,1-4.959-2.991,7.821,7.821,0,0,1-2.317-5.32c.016-1.438.543-2.84.528-4.283s-.854-3.068-2.324-3.23a10.737,10.737,0,0,0-1.54.095,1.228,1.228,0,0,1-1.375-1.8c.392-1.1,1.274-1.993,1.652-3.1a3.724,3.724,0,0,0,.1-2.042,2.047,2.047,0,0,0-.956-1.4c-.87-.451-1.9.072-2.872.255a6.9,6.9,0,0,1-4.759-1.283,20.8,20.8,0,0,0-4.362-2.464,10.5,10.5,0,0,0-3.237-.419,2.838,2.838,0,0,0-1.907.494c-.025.023-.043.047-.068.07a1.741,1.741,0,0,1,.2-.394,1.4,1.4,0,0,0-.21.156c-1.035.913-.311,2.655-.92,3.877a2.027,2.027,0,0,1-.248.379,2.976,2.976,0,0,0,.4-.37c-.022.054-.043.108-.07.162a3.662,3.662,0,0,1-1.8,1.474,5.969,5.969,0,0,0-2.008,1.262c-.013.013-.023.027-.036.043a2.207,2.207,0,0,1,.361-.6,2.959,2.959,0,0,0-.408.381c-.566.656-.609,1.2-.356,1.621a1.946,1.946,0,0,0,1.373,1c-.032.142-.061.284-.086.428a7.137,7.137,0,0,0-.086,1.082,7.04,7.04,0,0,0,5.6,6.816,4.085,4.085,0,0,1-.036.451c-.108,1.023-.424,2.132-1.251,2.4-.773-.264-2.322.9-2.669,1.24s-1.578.036-2.705.074a2.27,2.27,0,0,1-1.508-.3,6.415,6.415,0,0,0-.041,1.839c.117,1.127-.811,1.165-.811,1.165a5.532,5.532,0,0,1-.225,2.441,2.738,2.738,0,0,0-.309,1.544s1.314-.113,1.2.338a.4.4,0,0,0,.077.3l-.013.431-.178,5.955-.347,3.55a.6.6,0,0,0-.388.356c-.313.712-.818,1.661-1.215,2.387-1.612.976-4.033,2.786-3.347,4.526,1.005,2.556,2.437,2.218,3.287,1.916s2.369-2.667,2.369-2.667.5-.94.888-.94a5,5,0,0,0,.615-.065v.065s-.811,3.194-.541,3.983a3.868,3.868,0,0,1,.038,1.8,10.853,10.853,0,0,0,.077,3.081c.3.753-.419,2.775-.419,2.775s.207.063.566.151c-.027.129-.059.27-.092.428-.473,2.238-1.323,7.349-.356,11.555,0,0,.541,2.254.618,2.858a4.4,4.4,0,0,1,.225,2.48c-.316,1.352.618,3.834.618,3.834a11.48,11.48,0,0,1,.194,3.456c-.271,1.089,2.822,13.3,2.822,13.3l.5-.072.113.435.5,1.939.054.212a1.668,1.668,0,0,0-.9.568s-1.352,3.081-3.054,3.945c-.451.225-1,.527-1.535.854-1.519.929-2.822,2.047-.609,2.076,2.425.032,6.411.16,7.84.207a3.413,3.413,0,0,0,1.612.243c3.981-.074,9.627-.489,9.745-.863.056-.183-.18-.57-.437-.92s-.57-.7-.57-.7l-.115-3.42s-.325-.293-.827-.7l-.018-.239-.253-3.3-.034-.451a1.3,1.3,0,0,0,.473-.205l.273-3.415a19.819,19.819,0,0,0-.464-11.309s-1.855-3.868-1.353-5.259l.079-2.969s.888-3.5,1.314-4.434A24.023,24.023,0,0,0,866.153,374a10.464,10.464,0,0,0,1.276-5.635l1.082-3.381,1.508-4.319s.426-2.631.582-3.156a24.192,24.192,0,0,0,0-3.381s1.307-10.414.214-14.483v-.156h.011v-.225c.018-.02,1.19-1.242.654-1.578a17,17,0,0,1-1.878-2.274c-.083-.1-.16-.185-.225-.264a7.732,7.732,0,0,0,1.86-2.065c.189-.309.422-.676.791-.692a1,1,0,0,1,.552.183c2.833,1.7,3.289,5.942,6.276,7.369a4.459,4.459,0,0,0,3.988-.115Zm-22.668,67.881-.025.225a1.221,1.221,0,0,0-.282.14,9.14,9.14,0,0,1-.62,2.141,1.866,1.866,0,0,0-.286.5l-.056-.1c-.018.041-.038.081-.056.124l-.1-.189-.029-.225-.645-4.984a22.834,22.834,0,0,1,.018-4.407c.271-1.5.225-6.762-1.508-8.866,0,0-.812-1.916-.077-3.156l.115-7.817.271-.264.038,7.213a7.273,7.273,0,0,0,1.74,4.134l.273,3.794a35.511,35.511,0,0,0,.926,6.424v3.532s.187.032.487.074l-.047.451Z" transform="translate(-664.272 -245.616)" fill="url(#linear-gradient-2)"/>
    <path id="Path_1951" data-name="Path 1951" d="M903.718,371.449l-1.616,3.607-.6.349-4.024,2.356s-5.072-.489-5.221-.564-.388-4.382.924-5.288a.866.866,0,0,1,.237-.119h0c.8-.271,1.111-1.38,1.217-2.4.016-.151.027-.3.034-.451a10.668,10.668,0,0,0,0-1.438s1.231-1.231,2.7-2.5c2.613-2.254,5.992-4.632,4.7-.577a13.555,13.555,0,0,0-.527,2.241c-.027.178-.045.352-.059.516a4.187,4.187,0,0,0,1.1,3.647c.068.063.138.117.205.169a2.478,2.478,0,0,0,.931.46Z" transform="translate(-703.528 -284.791)" fill="#cf6f80"/>
    <path id="Path_1952" data-name="Path 1952" d="M842.5,714.513l-.564.262-3.794-.863-.338-1.343-.489-1.939-.338-1.339h4.867l.627,4.988Z" transform="translate(-648.324 -549.411)" fill="#cf6f80"/>
    <path id="Path_1953" data-name="Path 1953" d="M900.132,744.4l-3.794-.863L896,742.182c1.438-.431,3.532.78,3.532.78-.137.478.942.866,1.127.931l.029.225Z" transform="translate(-706.517 -579.034)" opacity="0.1"/>
    <path id="Path_1954" data-name="Path 1954" d="M906.671,753.5l-2.721,2.667-.96.94-.521-.018c-.981-.55.291-1.887,1.141-2.628.167-.147.318-.268.433-.358a8.294,8.294,0,0,0,1.544-2.64Z" transform="translate(-711.253 -586.292)" opacity="0.1"/>
    <path id="Path_1955" data-name="Path 1955" d="M905.587,751.46l1.084,2.029-2.721,2.667-.96.949-.521-.018c-.981-.55.291-1.887,1.141-2.628.167-.147.318-.268.433-.358A8.294,8.294,0,0,0,905.587,751.46Z" transform="translate(-711.253 -586.292)" opacity="0.1"/>
    <path id="Path_1956" data-name="Path 1956" d="M927.327,741.354l-5-1.691.149-1.427c1.3-.451,3.568,1.188,4.779,2.182Z" transform="translate(-726.912 -575.99)" opacity="0.1"/>
    <path id="Path_1957" data-name="Path 1957" d="M877.8,747.27l-2.721,2.667-.96.94s-5.223-.187-8.131-.225c-2.15-.029-.886-1.147.591-2.076.518-.327,1.062-.629,1.492-.854,1.652-.863,2.966-3.945,2.966-3.945,1.24-1.578,4.359.225,4.359.225-.151.525,1.163.94,1.163.94Z" transform="translate(-682.379 -579.839)" fill="#3f3d56"/>
    <path id="Path_1958" data-name="Path 1958" d="M875.076,768.652l-.96.94s-5.223-.187-8.131-.225c-2.15-.029-.886-1.147.591-2.076a2.36,2.36,0,0,1,1.867,1.352Z" transform="translate(-682.379 -598.554)" opacity="0.1"/>
    <path id="Path_1959" data-name="Path 1959" d="M871.977,712.838l-5-1.691.149-1.427.129-1.247.174-1.684h4.1l.135,1.815.246,3.3Z" transform="translate(-671.562 -547.474)" fill="#cf6f80"/>
    <path id="Path_1960" data-name="Path 1960" d="M913.509,747.162c-.113.374-5.6.789-9.467.863-3.359.065-1.54-1.907-.433-2.872.167-.147.318-.268.433-.358.863-.676,1.652-3.12,1.878-3.268a9.324,9.324,0,0,0,.6-2.141c1.69-1.2,5.9,2.741,5.9,2.741l.113,3.42s.289.327.554.7S913.563,746.979,913.509,747.162Z" transform="translate(-711.252 -576.762)" fill="#3f3d56"/>
    <path id="Path_1961" data-name="Path 1961" d="M913.509,767.768c-.113.374-5.6.789-9.467.863-3.359.065-1.54-1.907-.433-2.872a4.982,4.982,0,0,1,2.123,1.706h4.319a25.22,25.22,0,0,0,3.034-.618C913.333,767.2,913.563,767.586,913.509,767.768Z" transform="translate(-711.252 -597.369)" opacity="0.1"/>
    <path id="Path_1962" data-name="Path 1962" d="M897.167,728c.025.412.047.676.047.676l-4.547.663L892.33,728Z" transform="translate(-703.674 -568.121)" opacity="0.1"/>
    <path id="Path_1963" data-name="Path 1963" d="M927.965,727.315a14.3,14.3,0,0,1-4.4-.131l.174-1.684h4.1Z" transform="translate(-727.864 -566.184)" opacity="0.1"/>
    <path id="Path_1964" data-name="Path 1964" d="M886.663,577.57a20.378,20.378,0,0,1,.451,11.309l-.264,3.42c-.94.751-5.259,0-5.259,0v-3.532a37.048,37.048,0,0,1-.9-6.424l-.264-3.794a7.393,7.393,0,0,1-1.691-4.134L878.7,567.2l-.261.264-.113,7.815c-.715,1.24.074,3.156.074,3.156,1.691,2.1,1.729,7.362,1.465,8.866a25.443,25.443,0,0,0,0,4.621l-5.146.751s-3.007-12.208-2.743-13.3a11.778,11.778,0,0,0-.187-3.456,9.4,9.4,0,0,1-.6-3.832,4.563,4.563,0,0,0-.225-2.48c-.074-.6-.6-2.856-.6-2.856-.938-4.206-.113-9.316.347-11.555.147-.719.255-1.143.255-1.143s13.976-4.057,16.343-.676a4.854,4.854,0,0,1,.64,1.332c1.156,3.654-.877,9.373-1.242,10.2-.413.938-1.276,4.432-1.276,4.432l-.077,2.969C884.859,573.7,886.663,577.57,886.663,577.57Z" transform="translate(-686.321 -431.818)" fill="#3f3d56"/>
    <circle id="Ellipse_1148" data-name="Ellipse 1148" cx="0.151" cy="0.151" r="0.151" transform="translate(196.581 151.201)" fill="#846be2"/>
    <circle id="Ellipse_1149" data-name="Ellipse 1149" cx="0.151" cy="0.151" r="0.151" transform="translate(189.102 154.97)" fill="#846be2"/>
    <circle id="Ellipse_1150" data-name="Ellipse 1150" cx="0.151" cy="0.151" r="0.151" transform="translate(188.579 152.592)" fill="#846be2"/>
    <circle id="Ellipse_1151" data-name="Ellipse 1151" cx="0.151" cy="0.151" r="0.151" transform="translate(189.612 152.779)" fill="#846be2"/>
    <circle id="Ellipse_1152" data-name="Ellipse 1152" cx="0.151" cy="0.151" r="0.151" transform="translate(189.17 154.052)" fill="#846be2"/>
    <circle id="Ellipse_1153" data-name="Ellipse 1153" cx="0.151" cy="0.151" r="0.151" transform="translate(195.944 153.681)" fill="#846be2"/>
    <circle id="Ellipse_1154" data-name="Ellipse 1154" cx="0.151" cy="0.151" r="0.151" transform="translate(199.099 154.544)" fill="#846be2"/>
    <circle id="Ellipse_1155" data-name="Ellipse 1155" cx="0.151" cy="0.151" r="0.151" transform="translate(200.114 153.53)" fill="#846be2"/>
    <circle id="Ellipse_1156" data-name="Ellipse 1156" cx="0.151" cy="0.151" r="0.151" transform="translate(196.883 152.93)" fill="#846be2"/>
    <circle id="Ellipse_1157" data-name="Ellipse 1157" cx="0.151" cy="0.151" r="0.151" transform="translate(190.754 151.9)" fill="#846be2"/>
    <circle id="Ellipse_1158" data-name="Ellipse 1158" cx="0.151" cy="0.151" r="0.151" transform="translate(192.008 152.779)" fill="#846be2"/>
    <circle id="Ellipse_1159" data-name="Ellipse 1159" cx="0.151" cy="0.151" r="0.151" transform="translate(189.853 156.593)" fill="#846be2"/>
    <circle id="Ellipse_1160" data-name="Ellipse 1160" cx="0.151" cy="0.151" r="0.151" transform="translate(190.371 158.414)" fill="#846be2"/>
    <circle id="Ellipse_1161" data-name="Ellipse 1161" cx="0.151" cy="0.151" r="0.151" transform="translate(192.073 159.05)" fill="#846be2"/>
    <circle id="Ellipse_1162" data-name="Ellipse 1162" cx="0.151" cy="0.151" r="0.151" transform="translate(191.054 159.165)" fill="#846be2"/>
    <circle id="Ellipse_1163" data-name="Ellipse 1163" cx="0.151" cy="0.151" r="0.151" transform="translate(190.153 160.024)" fill="#846be2"/>
    <circle id="Ellipse_1164" data-name="Ellipse 1164" cx="0.151" cy="0.151" r="0.151" transform="translate(190.906 153.901)" fill="#846be2"/>
    <circle id="Ellipse_1165" data-name="Ellipse 1165" cx="0.151" cy="0.151" r="0.151" transform="translate(190.906 155.748)" fill="#846be2"/>
    <circle id="Ellipse_1166" data-name="Ellipse 1166" cx="0.151" cy="0.151" r="0.151" transform="translate(191.859 156.963)" fill="#846be2"/>
    <circle id="Ellipse_1167" data-name="Ellipse 1167" cx="0.151" cy="0.151" r="0.151" transform="translate(190.993 157.51)" fill="#846be2"/>
    <circle id="Ellipse_1168" data-name="Ellipse 1168" cx="0.151" cy="0.151" r="0.151" transform="translate(189.251 160.024)" fill="#846be2"/>
    <circle id="Ellipse_1169" data-name="Ellipse 1169" cx="0.151" cy="0.151" r="0.151" transform="translate(191.924 157.828)" fill="#846be2"/>
    <circle id="Ellipse_1170" data-name="Ellipse 1170" cx="0.151" cy="0.151" r="0.151" transform="translate(199.099 152.441)" fill="#846be2"/>
    <circle id="Ellipse_1171" data-name="Ellipse 1171" cx="0.151" cy="0.151" r="0.151" transform="translate(197.616 154.544)" fill="#846be2"/>
    <circle id="Ellipse_1172" data-name="Ellipse 1172" cx="0.151" cy="0.151" r="0.151" transform="translate(196.581 157.661)" fill="#846be2"/>
    <circle id="Ellipse_1173" data-name="Ellipse 1173" cx="0.151" cy="0.151" r="0.151" transform="translate(196.243 159.728)" fill="#846be2"/>
    <circle id="Ellipse_1174" data-name="Ellipse 1174" cx="0.151" cy="0.151" r="0.151" transform="translate(198.011 153.23)" fill="#846be2"/>
    <circle id="Ellipse_1175" data-name="Ellipse 1175" cx="0.151" cy="0.151" r="0.151" transform="translate(197.465 155.446)" fill="#846be2"/>
    <circle id="Ellipse_1176" data-name="Ellipse 1176" cx="0.151" cy="0.151" r="0.151" transform="translate(197.916 157.114)" fill="#846be2"/>
    <circle id="Ellipse_1177" data-name="Ellipse 1177" cx="0.151" cy="0.151" r="0.151" transform="translate(195.549 158.811)" fill="#846be2"/>
    <circle id="Ellipse_1178" data-name="Ellipse 1178" cx="0.151" cy="0.151" r="0.151" transform="translate(196.883 158.263)" fill="#846be2"/>
    <circle id="Ellipse_1179" data-name="Ellipse 1179" cx="0.151" cy="0.151" r="0.151" transform="translate(196.433 158.714)" fill="#846be2"/>
    <circle id="Ellipse_1180" data-name="Ellipse 1180" cx="0.151" cy="0.151" r="0.151" transform="translate(199.099 158.058)" fill="#846be2"/>
    <circle id="Ellipse_1181" data-name="Ellipse 1181" cx="0.151" cy="0.151" r="0.151" transform="translate(199.099 158.565)" fill="#846be2"/>
    <circle id="Ellipse_1182" data-name="Ellipse 1182" cx="0.151" cy="0.151" r="0.151" transform="translate(197.616 159.728)" fill="#846be2"/>
    <circle id="Ellipse_1183" data-name="Ellipse 1183" cx="0.151" cy="0.151" r="0.151" transform="translate(197.183 160.175)" fill="#846be2"/>
    <circle id="Ellipse_1184" data-name="Ellipse 1184" cx="0.151" cy="0.151" r="0.151" transform="translate(198.216 158.811)" fill="#846be2"/>
    <circle id="Ellipse_1185" data-name="Ellipse 1185" cx="0.151" cy="0.151" r="0.151" transform="translate(197.032 159.58)" fill="#846be2"/>
    <circle id="Ellipse_1186" data-name="Ellipse 1186" cx="0.151" cy="0.151" r="0.151" transform="translate(199.658 157.661)" fill="#846be2"/>
    <circle id="Ellipse_1187" data-name="Ellipse 1187" cx="0.151" cy="0.151" r="0.151" transform="translate(199.963 158.565)" fill="#846be2"/>
    <circle id="Ellipse_1188" data-name="Ellipse 1188" cx="0.151" cy="0.151" r="0.151" transform="translate(197.765 158.263)" fill="#846be2"/>
    <circle id="Ellipse_1189" data-name="Ellipse 1189" cx="0.151" cy="0.151" r="0.151" transform="translate(198.216 159.798)" fill="#846be2"/>
    <circle id="Ellipse_1190" data-name="Ellipse 1190" cx="0.151" cy="0.151" r="0.151" transform="translate(199.099 159.58)" fill="#846be2"/>
    <circle id="Ellipse_1191" data-name="Ellipse 1191" cx="0.151" cy="0.151" r="0.151" transform="translate(198.948 160.175)" fill="#846be2"/>
    <circle id="Ellipse_1192" data-name="Ellipse 1192" cx="0.151" cy="0.151" r="0.151" transform="translate(198.216 160.326)" fill="#846be2"/>
    <circle id="Ellipse_1193" data-name="Ellipse 1193" cx="0.151" cy="0.151" r="0.151" transform="translate(198.948 156.503)" fill="#846be2"/>
    <circle id="Ellipse_1194" data-name="Ellipse 1194" cx="0.151" cy="0.151" r="0.151" transform="translate(188.595 157.677)" fill="#846be2"/>
    <circle id="Ellipse_1195" data-name="Ellipse 1195" cx="0.151" cy="0.151" r="0.151" transform="translate(188.595 158.184)" fill="#846be2"/>
    <circle id="Ellipse_1196" data-name="Ellipse 1196" cx="0.151" cy="0.151" r="0.151" transform="translate(189.154 157.283)" fill="#846be2"/>
    <circle id="Ellipse_1197" data-name="Ellipse 1197" cx="0.151" cy="0.151" r="0.151" transform="translate(189.609 159.05)" fill="#846be2"/>
    <circle id="Ellipse_1198" data-name="Ellipse 1198" cx="0.151" cy="0.151" r="0.151" transform="translate(189.458 158.184)" fill="#846be2"/>
    <circle id="Ellipse_1199" data-name="Ellipse 1199" cx="0.151" cy="0.151" r="0.151" transform="translate(188.595 159.199)" fill="#846be2"/>
    <circle id="Ellipse_1200" data-name="Ellipse 1200" cx="0.151" cy="0.151" r="0.151" transform="translate(188.444 156.124)" fill="#846be2"/>
    <path id="Path_1965" data-name="Path 1965" d="M850.48,541.43l.376,11.5.413-.3.3-11.834Z" transform="translate(-658.781 -418.893)" opacity="0.1"/>
    <path id="Path_1966" data-name="Path 1966" d="M860.753,488.459s-2.592-2.443-3.156-1.127-1.767,3.456-1.767,3.456l2.856,2.7s.489-.94.863-.94a12.347,12.347,0,0,0,1.465-.225Z" transform="translate(-675.402 -381.401)" fill="#cf6f80"/>
    <path id="Path_1967" data-name="Path 1967" d="M814.527,420.921l-1.729,13-.649-.994L809.98,429.6l.338-3.571.174-5.955.052-1.783Z" transform="translate(-627.41 -324.006)" fill="#cf6f80"/>
    <path id="Path_1968" data-name="Path 1968" d="M910.671,364.449a12.478,12.478,0,0,0-.586,2.757,6.972,6.972,0,0,1-5.257,2.385,7.055,7.055,0,0,1-1.578-.18,10.871,10.871,0,0,0,.023-1.88S912.7,358.1,910.671,364.449Z" transform="translate(-712.133 -284.817)" opacity="0.1"/>
    <path id="Path_1969" data-name="Path 1969" d="M893.226,337.778a6.96,6.96,0,0,1-1.673,4.538,6.988,6.988,0,0,1-12.3-4.538,7.128,7.128,0,0,1,.083-1.082,6.988,6.988,0,0,1,13.892,1.082Z" transform="translate(-693.543 -260.443)" fill="#cf6f80"/>
    <path id="Path_1970" data-name="Path 1970" d="M869.606,440.568a12.015,12.015,0,0,1-2.006-1.785l.052-1.783,3.983,2.631-1.729,13-.638-.994a5.021,5.021,0,0,1,.275-1.634,5.8,5.8,0,0,0,.113-2.743c0-.451.638-1.165.6-1.465a17.838,17.838,0,0,0-.225-1.878C869.87,443.2,870.621,441.434,869.606,440.568Z" transform="translate(-684.519 -342.716)" opacity="0.1"/>
    <path id="Path_1971" data-name="Path 1971" d="M890.607,554.709v.02s-4.923-.789-8.755.564c-3.142,1.109-7.146.248-8.482-.1.147-.719.255-1.143.255-1.143s13.976-4.057,16.343-.676A4.855,4.855,0,0,1,890.607,554.709Z" transform="translate(-688.988 -431.818)" opacity="0.1"/>
    <path id="Path_1972" data-name="Path 1972" d="M903.718,401.032l-1.616,3.607-4.621,2.7s-5.072-.489-5.221-.564-.388-4.382.924-5.288c-.37,1.041-.773,3.156,1.968,3.334a11.375,11.375,0,0,0,7.423-4.416A2.592,2.592,0,0,0,903.718,401.032Z" transform="translate(-703.528 -314.374)" opacity="0.1"/>
    <path id="Path_1973" data-name="Path 1973" d="M886.473,408.594l-.077,1.691-4.508,26.9s-4.921-.789-8.753.564-8.942-.225-8.942-.225.715-2.029.415-2.779a10.942,10.942,0,0,1-.077-3.081,3.991,3.991,0,0,0-.036-1.8c-.261-.789.525-3.983.525-3.983s-.187-3.417.264-4.319a5.8,5.8,0,0,0,.113-2.743c0-.451.638-1.165.6-1.465a17.839,17.839,0,0,0-.225-1.878c-.149-.715.6-2.48-.413-3.345s-2.18-1.614-2.067-2.065-1.163-.338-1.163-.338a2.793,2.793,0,0,1,.3-1.542,5.64,5.64,0,0,0,.225-2.441s.9-.038.789-1.165a6.586,6.586,0,0,1,.038-1.839,2.171,2.171,0,0,0,1.465.3c1.091-.038,2.29.264,2.628-.074s1.842-1.5,2.592-1.24h0c-.059.115-1.855,3.683,1.731,3.9a11.372,11.372,0,0,0,7.628-4.7s.413-.451,1.765,1.017,2.516.9,2.516.9l1.5.113s-.976.825-.376,1.389a3.911,3.911,0,0,1,.354.394,17.451,17.451,0,0,0,1.826,2.274C887.637,407.354,886.473,408.594,886.473,408.594Z" transform="translate(-680.271 -314.723)" fill="#846be2"/>
    <path id="Path_1974" data-name="Path 1974" d="M848.149,496s-5.523,2.7-4.547,5.259,2.367,2.218,3.194,1.916,2.329-2.667,2.329-2.667Z" transform="translate(-665.841 -388.417)" fill="#cf6f80"/>
    <path id="Path_1975" data-name="Path 1975" d="M931.1,428.93c0,.241-1.409,3.284,0,4.073S931.1,428.93,931.1,428.93Z" transform="translate(-733.219 -336.465)" opacity="0.1"/>
    <path id="Path_1976" data-name="Path 1976" d="M879.307,424.25s-1.99,2.141-1.165,2.367S879.307,424.25,879.307,424.25Z" transform="translate(-692.529 -332.84)" opacity="0.1"/>
    <path id="Path_1977" data-name="Path 1977" d="M931.91,432.056s.863,5.336.9,6.913.264,4.132.264,4.132.638,6.086-.338,8.566a13.958,13.958,0,0,0-.827,5.185s-2.856,5.561-3.268,6.125.338,5.9,3.343,3.645,2.631-7.177,2.631-7.177l1.053-3.381,1.465-4.319s.412-2.631.563-3.156a24.914,24.914,0,0,0,0-3.381s1.765-14.465-.6-15.968S931.91,432.056,931.91,432.056Z" transform="translate(-731.72 -336.458)" fill="#cf6f80"/>
    <path id="Path_1978" data-name="Path 1978" d="M940.946,423.607s3.532-3.87,4.621-3.532,1.391.189,1.391.189.149-2.141-1.465-2.93-3.381-3.194-4.734-.338S940.946,423.607,940.946,423.607Z" transform="translate(-740.756 -326.168)" opacity="0.1"/>
    <path id="Path_1979" data-name="Path 1979" d="M940.946,422.607s3.532-3.87,4.621-3.532,1.391.189,1.391.189.149-2.141-1.465-2.93-3.381-3.194-4.734-.338S940.946,422.607,940.946,422.607Z" transform="translate(-740.756 -325.393)" fill="#846be2"/>
    <path id="Path_1980" data-name="Path 1980" d="M898.82,350.483a7.134,7.134,0,0,1-.818.611,6.086,6.086,0,0,1-2.365.9,5.281,5.281,0,0,1-2.132-.119,5.166,5.166,0,0,1-1.722-.8,4.378,4.378,0,0,1-1.305-1.449c-.045-.081-.086-.162-.124-.243-.757-1.6-.555-3.5-.888-5.257-.025-.124-.052-.25-.081-.374a6.129,6.129,0,0,0-1.736-3.081,19.055,19.055,0,0,0-4.508-2.752,8.235,8.235,0,0,0-2.912-1.066,3.778,3.778,0,0,1-.638-.138,6.988,6.988,0,1,1,12.22,5.62c-.027.178-.045.352-.059.516a4.187,4.187,0,0,0,1.1,3.647c.068.063.138.117.205.169,0,0,.412-.451,1.765,1.017s2.516.9,2.516.9l1.5.113s-.976.825-.376,1.389A3.912,3.912,0,0,1,898.82,350.483Z" transform="translate(-693.806 -260.464)" opacity="0.1"/>
    <path id="Path_1981" data-name="Path 1981" d="M874.3,319.806a5.694,5.694,0,0,1,1.952-1.262,3.55,3.55,0,0,0,1.758-1.474c.591-1.222-.113-2.964.9-3.879a2.7,2.7,0,0,1,1.851-.494,10,10,0,0,1,3.156.419,19.819,19.819,0,0,1,4.238,2.464,6.527,6.527,0,0,0,4.623,1.283c.94-.183,1.943-.7,2.791-.255a2.051,2.051,0,0,1,.929,1.4,3.832,3.832,0,0,1-.1,2.042c-.367,1.107-1.226,2-1.6,3.1a1.5,1.5,0,0,0,.02,1.253,1.459,1.459,0,0,0,1.326.543,10.1,10.1,0,0,1,1.494-.095c1.429.162,2.254,1.792,2.254,3.23s-.5,2.84-.514,4.283a7.922,7.922,0,0,0,2.254,5.318,10.674,10.674,0,0,0,5.59,3.185,4.218,4.218,0,0,1-3.875.115c-2.9-1.427-3.345-5.669-6.086-7.367a.934.934,0,0,0-.536-.183c-.358.023-.584.383-.769.69a6.953,6.953,0,0,1-4.763,3.395,5.094,5.094,0,0,1-5.16-2.369c-.972-1.767-.622-3.924-1.093-5.874-.818-3.381-3.465-4.373-6.237-5.834a8.236,8.236,0,0,0-2.912-1.066C874.371,322.191,873.055,321.276,874.3,319.806Z" transform="translate(-689.322 -246.43)" fill="#512e4e"/>
    <g id="Group_2963" data-name="Group 2963" transform="translate(184.395 66.436)" opacity="0.1">
      <path id="Path_1982" data-name="Path 1982" d="M891.692,317.042c.532-1.1.018-2.622.645-3.582a1.5,1.5,0,0,0-.205.156c-1,.913-.3,2.655-.89,3.877a2.132,2.132,0,0,1-.241.372A2.394,2.394,0,0,0,891.692,317.042Z" transform="translate(-887.039 -313.46)"/>
      <path id="Path_1983" data-name="Path 1983" d="M981.35,409.471c-2.9-1.427-3.347-5.669-6.1-7.369a.945.945,0,0,0-.536-.183.921.921,0,0,0-.654.507.566.566,0,0,1,.2-.056.945.945,0,0,1,.536.183c2.752,1.7,3.2,5.942,6.1,7.369a4.22,4.22,0,0,0,3.873-.115c-.133-.029-.268-.061-.4-.095A4.229,4.229,0,0,1,981.35,409.471Z" transform="translate(-951.376 -381.98)"/>
      <path id="Path_1984" data-name="Path 1984" d="M891.233,359.439a5.1,5.1,0,0,1-5.157-2.369c-.969-1.765-.622-3.927-1.093-5.874-.82-3.381-3.467-4.373-6.239-5.834a8.18,8.18,0,0,0-2.91-1.066c-1.352-.178-2.653-1.066-1.519-2.5a2.737,2.737,0,0,0-.394.381c-1.235,1.47.081,2.385,1.463,2.565a8.181,8.181,0,0,1,2.91,1.066c2.773,1.461,5.41,2.444,6.24,5.834.471,1.948.126,4.118,1.093,5.874a5.108,5.108,0,0,0,5.158,2.369,6.623,6.623,0,0,0,3.814-2.123A6.47,6.47,0,0,1,891.233,359.439Z" transform="translate(-873.427 -335.412)"/>
    </g>
    <path id="Path_1985" data-name="Path 1985" d="M144.63,389.824c-1.393-.16-3.361-1.528-4.594-2.48.613-.358,1.019-.606,1.019-.606s-2.93-2.946-2.576-4.873-.7-10.709-.7-10.709-1.641-1.247-.762-4.42a20.319,20.319,0,0,0,.879-3.967s-.527-4.024-.176-4.986a12.6,12.6,0,0,0,.354-3.072l.7-7.279.379-2.723c.638,2.087,1.706,3.467,3.381,2.295,3.868-2.721,1-11.618,1-11.618s-.5-1.914-.848-3.514l.192-.509s-.117-1.981.879-2.662,0-15.358,0-15.358l-.331-8.9h0v-.264a8.246,8.246,0,0,0-4.267-6.932l-.239-.124c-.014-.081-.027-.162-.041-.248-.189-1.154-.4-2.543-.541-3.918-.016-.149-.029-.3-.043-.451a9.115,9.115,0,0,0,6.995-8.766,8.765,8.765,0,0,0-.329-2.383c-.016-.059-.034-.117-.052-.174.536-.536.976-.692,1.017-.343.059.509.5-.142.527-.651s.147-.142.451-.142.352-.539-.117-.82.088-.6.225-.651.147-.6,0-.6a.146.146,0,0,1-.052-.016h-.016a.8.8,0,0,1-.074-.038h0l-.092-.059-.025-.016-.1-.072h0c-.268-.192-.577-.451-.577-.451l.147-.113c.147-.113-.176-.4-.451-.424h-.056c-.275-.043-.715-.2-.435-.331.063-.029.09-.063.095-.1h0a.135.135,0,0,0-.05-.1h0a.6.6,0,0,0-.135-.095h0l-.083-.038h0l-.081-.027h0a.609.609,0,0,0-.088-.018h-.165a6.364,6.364,0,0,1-1.107-.392v-.6l-.494-.23h0l-.41-.18.146-.548h-1.289l.176-.482-.593-.115-.14-.027v-.225l-.791-.311v-.34h-.951l.365-.284h-.733c-1.914-1.312-7.3-1.217-9.452-.5s-2.775,1.247-5.7,7.4c-1.873,3.936.518,7.752,2.619,9.882h0c.07.072.14.14.21.207l.029.029.187.178.018.016.2.183.023.018.176.153.025.02.189.156h0l.171.133.029.023a3.6,3.6,0,0,0,.327.225l.032.02.135.088h.011c.045.029.09.054.133.079l.027.016.1.054h.023l.106.047h.018l.074.027h.02a.548.548,0,0,0,.074.016h.079a.111.111,0,0,0,.041-.018,2.811,2.811,0,0,1,.87-.28l.225.18c.108.088.225.171.334.252.027.165.05.331.07.5a9.073,9.073,0,0,1-.212,3.3c-.023.083-.047.167-.072.25a4.436,4.436,0,0,0-2.434,1.855,64.012,64.012,0,0,0-3.634,6.235s-.372,2.64-1.008,3.266,1.172,11.843,1.172,11.843-2.168,4.305-.225,5.072-.176,1.389-.176,1.389.586,1.3-.527,1.416-1.758,2.1-1.758,2.1l-3.456,3.74.87.3c-.074.117-.151.239-.225.376a14.236,14.236,0,0,0-1.751,10.594c1.641,6.8,2.11,8.273,2.051,9.467s1.873,5.895,1.4,6.97-.73,4.817.074,5.782a.94.94,0,0,1-.307,1.528s1.2,1.418.6,2.38.746,12.864.746,12.864,2.168,3.061,2.051,4.024-1.114,1.474-.225,1.871.527.963.527.963l.225.018c-.2.18-.392.37-.568.561a5.313,5.313,0,0,0-.48.6,2.808,2.808,0,0,0-.2.352c-.789,1.736,1.312,3.061,1.312,3.061h.717c2.04.081,7.806.225,10.525-.451l.05.032s10.313.555,12.362-.863S146.8,390.072,144.63,389.824Zm-10.561.5-.074-.011-.117-.02h-.083l-.131-.02h-.054c-.1-.014-.194-.027-.289-.036a4.716,4.716,0,0,1-1.334-.41c-.3-.133-.6-.293-.9-.464l.6-.014a4.178,4.178,0,0,0,.451-.016l.268-.013h0c.676,0,1.646.09,1.9.548a2.351,2.351,0,0,0-.23.455Z" transform="translate(-102.771 -214.391)" fill="url(#linear-gradient-3)"/>
    <path id="Path_1986" data-name="Path 1986" d="M182.311,353.542c-.169,0-13.469,2.536-10.144-1.972a8.086,8.086,0,0,0,1.352-2.827,9.317,9.317,0,0,0,.2-3.282,11.575,11.575,0,0,0-1.1-3.809s10.989-2.423,9.242-.564c-.762.812-.742,3.289-.489,5.82.135,1.368.338,2.75.521,3.9C182.148,352.4,182.365,353.542,182.311,353.542Z" transform="translate(-145.433 -267.88)" fill="#ffccd0"/>
    <path id="Path_1987" data-name="Path 1987" d="M152.657,783.22s3.438,3.169,5.523,3.417,5.015,1.147,3.043,2.556-11.891.859-11.891.859-2.3-1.5-1.071-3.395S152.657,783.22,152.657,783.22Z" transform="translate(-127.051 -610.893)" fill="#3f3d56"/>
    <path id="Path_1988" data-name="Path 1988" d="M161.223,789.193a3.653,3.653,0,0,1-1.235.48c-3.3.787-10.655.379-10.655.379s-2.3-1.5-1.071-3.395,4.4-3.437,4.4-3.437,3.438,3.169,5.523,3.417l.3.038C160.527,786.969,163.1,787.85,161.223,789.193Z" transform="translate(-127.051 -610.893)" opacity="0.1"/>
    <path id="Path_1989" data-name="Path 1989" d="M197.065,801.068a3.657,3.657,0,0,1-1.235.48l-.225-.011s-1.977-1.289-1.283-2.987C196.369,798.843,198.945,799.724,197.065,801.068Z" transform="translate(-162.893 -622.768)" opacity="0.1"/>
    <path id="Path_1990" data-name="Path 1990" d="M200.907,781.5s3.438,3.156,5.523,3.415,5.015,1.15,3.043,2.558-11.891.857-11.891.857-2.3-1.5-1.071-3.381S200.907,781.5,200.907,781.5Z" transform="translate(-164.424 -609.561)" fill="#3f3d56"/>
    <path id="Path_1991" data-name="Path 1991" d="M200.907,781.5s3.438,3.156,5.523,3.415,5.015,1.15,3.043,2.558-11.891.857-11.891.857-2.3-1.5-1.071-3.381S200.907,781.5,200.907,781.5Z" transform="translate(-164.424 -609.561)" opacity="0.1"/>
    <path id="Path_1992" data-name="Path 1992" d="M140.014,595.586a6.462,6.462,0,0,1-2.842.582h-.02l-.246.014c-.144,0-.293.014-.451.016-3.3.106-7.551-.273-7.551-.273s.338-.563-.507-.958.113-.9.225-1.86-1.963-4-1.963-4-1.3-11.834-.719-12.792-.577-2.367-.577-2.367a.948.948,0,0,0,.3-1.522c-.775-.958-.521-4.677-.07-5.748s-1.409-5.748-1.352-6.932-.394-2.649-1.972-9.411a14.568,14.568,0,0,1,1.684-10.545,10.672,10.672,0,0,1,.852-1.289h10.764l.273,2.534.014.14c.09.854.2,1.889.325,3.077C137.676,558.546,141.323,594.637,140.014,595.586Z" transform="translate(-106.912 -421.337)" fill="#3f3d56"/>
    <path id="Path_1993" data-name="Path 1993" d="M151.264,604.773a7.076,7.076,0,0,1-3.108.6,7.593,7.593,0,0,0-1.127.016s-.169-.385-2.2-1.8,0-4.621,0-4.621l-2.11-8.622a8.678,8.678,0,0,1-.079-3.654,1.282,1.282,0,0,0-.972-1.691,1.187,1.187,0,0,0,0-2.085c-1.422-1.183-1.621-5.523-1.621-5.523s-2.029-2.7-1.127-3.607-.564-3.043-.564-3.043-2.141-3.381-1.916-4.508,3.269-.733,2.367-4.339,4.655,1.353,4.655,1.353l3.634-12.88C148.277,561.5,152.682,603.745,151.264,604.773Z" transform="translate(-118.162 -430.523)" opacity="0.1"/>
    <path id="Path_1994" data-name="Path 1994" d="M155.491,596.519s-6.086,3.832-6.481,3.1c-.246-.451-1.168-.543-1.828-.546h-.02c-.392,0-.688.029-.688.029s-.169-.385-2.2-1.8,0-4.621,0-4.621l-2.11-8.622a8.622,8.622,0,0,1-.088-3.654,1.282,1.282,0,0,0-.972-1.691,1.187,1.187,0,0,0,0-2.085c-1.422-1.183-1.621-5.523-1.621-5.523s-2.029-2.705-1.127-3.607-.564-3.043-.564-3.043-2.141-3.381-1.916-4.508,0-.9-.9-4.508c-.676-2.719,1.073-8.83,1.979-11.674.3-.931.5-1.513.5-1.513l8.388,1.688,8.406,1.693.225,2.987-.063.473-1.127,8.34-.676,7.238a12.823,12.823,0,0,1-.338,3.043c-.338.958.169,4.959.169,4.959a20.811,20.811,0,0,1-.845,3.945c-.845,3.156.733,4.4.733,4.4s1.014,8.735.676,10.651S155.491,596.519,155.491,596.519Z" transform="translate(-116.923 -424.241)" fill="#3f3d56"/>
    <path id="Path_1995" data-name="Path 1995" d="M171.63,690c.845.142,5.212.225,4.057.762S171.63,690,171.63,690Z" transform="translate(-145.43 -538.686)" opacity="0.1"/>
    <path id="Path_1996" data-name="Path 1996" d="M169.5,700.253a18.3,18.3,0,0,1,2.311-.649,11.8,11.8,0,0,1,1.494,0c.507.12,1.456.451.924.651s-1.646.027-2.286.225A7.588,7.588,0,0,1,169.5,700.253Z" transform="translate(-143.781 -546.092)" opacity="0.1"/>
    <path id="Path_1997" data-name="Path 1997" d="M149,696.624c.225-.029,1.972-.48,1.833,0S149,696.624,149,696.624Z" transform="translate(-127.902 -543.647)" opacity="0.1"/>
    <path id="Path_1998" data-name="Path 1998" d="M136.63,634.63c.169.225,1.154,2.48,1.634,2.48S136.63,634.63,136.63,634.63Z" transform="translate(-118.32 -495.798)" opacity="0.1"/>
    <path id="Path_1999" data-name="Path 1999" d="M185.242,341.088c-.762.812-.742,3.289-.489,5.82a9.038,9.038,0,0,1-2.32.3c-2,0-2.157-2.522-3.652-3.62-.237-2.2-2.782-1.939-2.782-1.939S186.989,339.228,185.242,341.088Z" transform="translate(-148.815 -267.88)" opacity="0.1"/>
    <path id="Path_2000" data-name="Path 2000" d="M182.57,297.656a9.017,9.017,0,1,1-.316-2.369A9.017,9.017,0,0,1,182.57,297.656Z" transform="translate(-139.936 -227.794)" fill="#ffccd0"/>
    <path id="Path_2001" data-name="Path 2001" d="M182.311,381.316c-.169,0-13.469,2.536-10.144-1.972a8.086,8.086,0,0,0,1.352-2.827c2.689-.859,5.985.573,5.985.573l1.522,1.127a5.234,5.234,0,0,1,.877.363C182.148,380.178,182.365,381.316,182.311,381.316Z" transform="translate(-145.433 -295.654)" opacity="0.1"/>
    <path id="Path_2002" data-name="Path 2002" d="M151.49,545.744l-.063.473c-.358.122-2.006.579-5.946-1.037-.633-.259-1.416-.566-2.283-.9-2.8-1.071-6.512-2.419-9.226-3.381-1.3-.467-2.371-.848-3-1.069a10.676,10.676,0,0,1,.852-1.289h10.764l.273,2.534,8.406,1.684Z" transform="translate(-113.936 -421.368)" opacity="0.1"/>
    <path id="Path_2003" data-name="Path 2003" d="M145.889,378.091s-5.973-2.592-8.4,1.3a64.259,64.259,0,0,0-3.494,6.2s-.338,2.592-.958,3.212,1.127,11.778,1.127,11.778-2.085,4.283-.225,5.043-.169,1.382-.169,1.382.564,1.3-.507,1.409-1.691,2.085-1.691,2.085l-3.325,3.719s10.858,3.832,15.123,5.579,5.84,1.071,6.01,1.014,2.761-7.157,2.761-7.157-.113-1.972.845-2.649,0-15.272,0-15.272l-.329-9.114a8.239,8.239,0,0,0-4.1-6.891,5.707,5.707,0,0,0-1.145-.507Z" transform="translate(-111.829 -296.431)" fill="#846be2"/>
    <path id="Path_2004" data-name="Path 2004" d="M203,445.933l1.183,2.085s-9.467,2.705-9.839.113c-.056-.379,3.7-3.381,3.7-3.381Z" transform="translate(-163.027 -348.719)" fill="#846be2"/>
    <path id="Path_2005" data-name="Path 2005" d="M203,445.933l1.183,2.085s-9.467,2.705-9.839.113c-.056-.379,3.7-3.381,3.7-3.381Z" transform="translate(-163.027 -348.719)" opacity="0.1"/>
    <path id="Path_2006" data-name="Path 2006" d="M161.25,497.445s4.508-1.465,3.55-.282S161.25,497.445,161.25,497.445Z" transform="translate(-137.39 -388.96)" opacity="0.1"/>
    <path id="Path_2007" data-name="Path 2007" d="M184.07,501.46s2.306,2.881,2.858,1.8S184.07,501.46,184.07,501.46Z" transform="translate(-155.066 -392.646)" opacity="0.1"/>
    <path id="Path_2008" data-name="Path 2008" d="M182.253,295.311a5.831,5.831,0,0,0-.793,1.008c-.789,1.24-1.38,1.269-1.38,1.269s0,2.682-.365,2.962-2.453-1.188-2.48-1.553-2.576-4.339-3.683.7l-.207,4.087s-3.652.451-5.52.859a9.017,9.017,0,1,1,14.427-9.334Z" transform="translate(-139.934 -227.818)" opacity="0.1"/>
    <path id="Path_2009" data-name="Path 2009" d="M165.142,274.9h.706l-.354.282h.917v.338l.76.309v.225l.706.142-.169.478h1.24l-.142.543.845.388v.591a4.982,4.982,0,0,0,1.127.394c.282,0,.748.255.451.394s.225.311.471.338.564.311.422.424l-.14.113a4.944,4.944,0,0,0,.9.647c.142,0,.14.536,0,.593s-.676.365-.225.647.394.818.113.818-.394-.367-.424.14-.451,1.156-.507.649-.929.056-1.718,1.3-1.382,1.267-1.382,1.267,0,2.682-.365,2.962-2.453-1.186-2.48-1.553-2.576-4.339-3.683.706l-.205,4.085s-6.086.762-6.566,1.183-7.7-5.41-4.885-11.534,3.42-6.65,5.487-7.362S163.3,273.588,165.142,274.9Z" transform="translate(-128.603 -216.367)" fill="#3f3d56"/>
    <path id="Path_2010" data-name="Path 2010" d="M194.832,446.891a34.953,34.953,0,0,1-.451,5.692c-.394,1.127,2.7,11.665,2.7,11.665s2.48,5.556,2.029,7.27.169,12.68,3.888,9.975.958-11.552.958-11.552-1.183-4.928-1.183-5.534-1.24-9.738-1.24-9.738a13.726,13.726,0,0,1-.676-4.79c.282-1.8.394-5.128.394-5.128Z" transform="translate(-163.026 -348.719)" fill="#ffccd0"/>
    <path id="Path_2011" data-name="Path 2011" d="M196.772,416.25s-4.522,1.465-4.711,5.466,0,4.339,0,4.339,6.74-3.381,9.839-.113l-.318-8.848Z" transform="translate(-161.191 -326.644)" opacity="0.1"/>
    <path id="Path_2012" data-name="Path 2012" d="M198.772,416.25s-4.522,1.465-4.711,5.466,0,4.339,0,4.339,6.74-3.381,9.839-.113l-.318-8.848Z" transform="translate(-162.74 -326.644)" fill="#846be2"/>
    <g id="Group_2964" data-name="Group 2964" transform="translate(24.482 58.81)" opacity="0.1">
      <path id="Path_2013" data-name="Path 2013" d="M242.167,294.73c-.1.126.318.262.543.286a.367.367,0,0,1,.068.016c.016-.137-.322-.3-.548-.3Z" transform="translate(-224.537 -291.326)"/>
      <path id="Path_2014" data-name="Path 2014" d="M235.5,289.807s.207.1.451.194v-.334l-.451-.207Z" transform="translate(-219.385 -287.244)"/>
      <path id="Path_2015" data-name="Path 2015" d="M245.995,298l-.115.092s.259.225.5.406l.086-.068c.142-.113-.169-.394-.422-.424Z" transform="translate(-227.425 -293.859)"/>
      <path id="Path_2016" data-name="Path 2016" d="M176.4,267.635l.507.23.083-.325h-.566Z" transform="translate(-161.13 -266.048)"/>
      <path id="Path_2017" data-name="Path 2017" d="M172.7,325.92,172.49,330s-6.086.762-6.566,1.183c-.149.133-.958-.347-1.914-1.256,1.141,1.2,2.191,1.86,2.365,1.706.48-.422,6.566-1.183,6.566-1.183l.205-4.085c.647-2.957,1.8-2.815,2.633-2.119C174.949,323.276,173.475,322.4,172.7,325.92Z" transform="translate(-164.01 -313.523)"/>
      <path id="Path_2018" data-name="Path 2018" d="M227.836,303.785c-.451-.282.083-.591.225-.647s.14-.593,0-.593a1.048,1.048,0,0,1-.347-.205c0,.149-.029.316-.1.347-.142.056-.676.365-.225.647s.394.818.113.818-.394-.367-.424.14-.451,1.156-.507.649-.929.056-1.718,1.3-1.382,1.267-1.382,1.267,0,2.682-.365,2.962c-.255.192-1.323-.451-1.972-.978.331.491,2.087,1.684,2.423,1.429s.365-2.962.365-2.962.593-.027,1.382-1.267,1.661-1.8,1.718-1.3.48-.142.507-.649.142-.14.424-.14S228.287,304.067,227.836,303.785Z" transform="translate(-208.254 -297.221)"/>
      <path id="Path_2019" data-name="Path 2019" d="M171.52,265.052h.611l.009-.027-.568-.115Z" transform="translate(-157.35 -264.011)"/>
      <path id="Path_2020" data-name="Path 2020" d="M167.174,260.99v-.07H167Z" transform="translate(-153.849 -260.92)"/>
    </g>
    <path id="Path_2021" data-name="Path 2021" d="M248.66,529.291s18.561-28.19,40.426-12.186,27.237,26.148,45.516,20.513,17.6-16.712,32.027-12.639,19.424-9.264,19.424-9.264" transform="translate(-205.097 -400.956)" fill="none" stroke="#846be2" stroke-miterlimit="10" stroke-width="4"/>
    <rect id="Rectangle_1013" data-name="Rectangle 1013" width="3.983" height="8.902" rx="1.992" transform="translate(180.89 108.626) rotate(23.32)" fill="#846be2"/>
  </g>
</svg>
