<svg xmlns="http://www.w3.org/2000/svg" xmlns:xlink="http://www.w3.org/1999/xlink" width="250.658" height="168.673" viewBox="0 0 250.658 168.673">
  <defs>
    <linearGradient id="linear-gradient" x1="0.5" y1="1" x2="0.5" gradientUnits="objectBoundingBox">
      <stop offset="0" stop-color="gray" stop-opacity="0.251"/>
      <stop offset="0.54" stop-color="gray" stop-opacity="0.122"/>
      <stop offset="1" stop-color="gray" stop-opacity="0.102"/>
    </linearGradient>
    <radialGradient id="radial-gradient" cx="0.5" cy="0.5" r="0.526" gradientTransform="translate(0.047) scale(0.906 1)" gradientUnits="objectBoundingBox">
      <stop offset="0" stop-color="#fff"/>
      <stop offset="1"/>
    </radialGradient>
  </defs>
  <g id="undraw_messaging_fun_86y2" transform="translate(0.004)">
    <path id="Path_1638" data-name="Path 1638" d="M197.545,162.858c-15.052-.523-29.388-5.382-43.078-10.7s-27.251-11.208-41.943-14.024c-9.45-1.812-20.255-2.068-27.87,3-7.326,4.884-9.694,13.292-10.966,21.1-.958,5.875-1.521,12.057,1.1,17.557,1.821,3.819,5.056,7.028,7.294,10.687,7.784,12.727,2.282,28.421-6.154,40.847-3.954,5.831-8.545,11.4-11.6,17.6s-4.465,13.315-1.793,19.646c2.647,6.28,8.957,10.987,15.792,14.3,13.882,6.733,30.235,8.659,46.192,9.75,35.31,2.416,70.81,1.37,106.215.323,13.1-.388,26.263-.781,39.152-2.807,7.156-1.126,14.548-2.91,19.743-7.221,6.6-5.477,8.226-14.741,3.807-21.6-7.415-11.51-27.909-14.369-33.1-26.723-2.854-6.8.077-14.371,4.224-20.678,8.891-13.527,23.8-25.4,24.583-40.857.54-10.622-6.626-21.255-17.706-26.281-11.615-5.266-27.718-4.605-36.282,4.114C226.34,159.864,210.834,163.318,197.545,162.858Z" transform="translate(-61.13 -125.42)" fill="#846be2" opacity="0.1"/>
    <circle id="Ellipse_1094" data-name="Ellipse 1094" cx="5.031" cy="5.031" r="5.031" transform="translate(78.198 0)" fill="#846be2" opacity="0.1"/>
    <circle id="Ellipse_1095" data-name="Ellipse 1095" cx="5.031" cy="5.031" r="5.031" transform="translate(154.739 6.945)" fill="#846be2" opacity="0.1"/>
    <circle id="Ellipse_1096" data-name="Ellipse 1096" cx="5.031" cy="5.031" r="5.031" transform="translate(219.198 83.332)" fill="#846be2" opacity="0.1"/>
    <circle id="Ellipse_1097" data-name="Ellipse 1097" cx="8.431" cy="8.431" r="8.431" transform="translate(233.792 57.505)" fill="#846be2" opacity="0.1"/>
    <circle id="Ellipse_1098" data-name="Ellipse 1098" cx="8.431" cy="8.431" r="8.431" transform="translate(222.631 98.419)" fill="#846be2" opacity="0.1"/>
    <circle id="Ellipse_1099" data-name="Ellipse 1099" cx="8.431" cy="8.431" r="8.431" transform="translate(2.913 73.22)" fill="#846be2" opacity="0.1"/>
    <path id="Path_1639" data-name="Path 1639" d="M441.6,279.547a8.352,8.352,0,0,1-.465-1.177,11.259,11.259,0,0,1,.074-2.886,10.266,10.266,0,0,0-.233-1.991q-.684-3.763-1.363-7.533c-.209-1.163-.421-2.326-.521-3.489s-.088-2.4-.107-3.6c-.06-3.9-.744-7.78-.9-11.675-.084-2.028-.233-4.051-.4-6.075-.281-3.472-.588-6.952-1.2-10.382-.484-2.726-1.861-5.266-1.877-8.031q-.021-2.151-.042-4.3a8.351,8.351,0,0,0-.572-3.612,7.87,7.87,0,0,0-2.13-2.43q-3.663-3.163-7.582-6.014a4.567,4.567,0,0,0,2.372-.174,1.569,1.569,0,0,0,.909-1.961,2.011,2.011,0,0,0-1.207-.865,11.073,11.073,0,0,0-2.889-.465,10.545,10.545,0,0,0,.214-1.13c.509-4-1.5-7.929-1.491-11.964,0-4.151,2.107-7.968,3.326-11.936a28.865,28.865,0,0,0-.847-19.185c-1.316-3.23-3.233-6.261-3.875-9.687-.5-2.684-.191-5.463-.642-8.154-1.163-6.847-7.259-12.113-13.955-13.929-5.18-1.4-10.445-.961-15.652,0-4.475.828-8.561-1-13.024-.414a7.19,7.19,0,0,0-4.705,2.163,24.616,24.616,0,0,0-1.57,2.63c-1.991,3.119-5.952,4.161-9.238,5.863-5,2.589-8.975,7.426-9.719,13-.7,5.163,1.34,10.287,1.649,15.487.393,6.64-2.016,13.08-4.058,19.411a15.23,15.23,0,0,0-1.016,5.442,14.4,14.4,0,0,0,.84,3.7c.647,1.954,1.375,3.891,2.2,5.782a18.987,18.987,0,0,1-4.824,1.263c-1.693.191-3.489.123-4.963.984a5.888,5.888,0,0,0-1.726,1.649,9.071,9.071,0,0,0-1.57,6.828,2.1,2.1,0,0,0-.984,1.812c-.04.719.128,1.435.154,2.154a13.371,13.371,0,0,1-.751,3.991,33.956,33.956,0,0,0-.886,13.543c1,7.247,1.191,14.443,1.5,21.755.209,4.791-.184,9.631.609,14.362a6.611,6.611,0,0,0,2,4.254,7.965,7.965,0,0,1,.9.7c.7.73.726,1.861.961,2.837a6.105,6.105,0,0,0,6.3,4.493h0l.035.023h0c-.523,1.521-1.033,2.984-1.551,4.477h79.695c-.047-.186-.1-.374-.137-.561a8.649,8.649,0,0,1-.053-2.377c.665.779.551,1.923.73,2.937H442.3A13.161,13.161,0,0,0,441.6,279.547Z" transform="translate(-272.109 -117.017)" fill="url(#linear-gradient)"/>
    <path id="Path_1640" data-name="Path 1640" d="M422.131,130.365a7.159,7.159,0,0,0-4.672,2.149,24.477,24.477,0,0,0-1.556,2.612c-1.977,3.1-5.91,4.135-9.173,5.826-4.959,2.572-8.908,7.377-9.647,12.915-.686,5.131,1.33,10.219,1.628,15.387.391,6.6-2,13-4.031,19.288a15.165,15.165,0,0,0-1.009,5.405,14.417,14.417,0,0,0,.835,3.682,48.875,48.875,0,0,0,8.14,15.734A27.477,27.477,0,0,0,417.252,223a41.7,41.7,0,0,0,8.054.856q6.21.233,12.422.233a35.123,35.123,0,0,0,6.8-.465c4.738-.916,8.917-3.6,12.964-6.228,4.663-3.023,9.768-6.745,10.48-12.252.507-3.977-1.484-7.877-1.482-11.887,0-4.124,2.093-7.908,3.3-11.861a28.721,28.721,0,0,0-.842-19.071c-1.3-3.207-3.21-6.219-3.847-9.624-.5-2.665-.188-5.426-.637-8.1-1.142-6.8-7.21-12.034-13.862-13.838-5.142-1.4-10.371-.954-15.538,0C430.629,131.6,426.573,129.784,422.131,130.365Z" transform="translate(-316.323 -119.987)" fill="#3f3d56"/>
    <path id="Path_1641" data-name="Path 1641" d="M471.2,337.653a16.724,16.724,0,0,1-2.093,12.627,20.53,20.53,0,0,1-4.491,4.693,28.808,28.808,0,0,1-8.854,4.884,17.759,17.759,0,0,0,6.81,3.314,30.989,30.989,0,0,0,5.814.7,164.77,164.77,0,0,0,29.384-1.061c3.256-.412,6.652-.979,9.287-2.942a1.277,1.277,0,0,0,.519-.614c.188-.644-.579-1.133-1.214-1.349-3.142-1.074-6.526-1.693-9.243-3.6-4.163-2.919-5.9-8.28-6.268-13.35s.356-10.182-.14-15.241q-10.075-.153-20.141.584c-.747.056-4.131-.13-4.531.516-.451.733,1.426,2.51,1.891,3.214a22.432,22.432,0,0,1,3.27,7.626Z" transform="translate(-363.981 -270.262)" fill="#fbbebe"/>
    <circle id="Ellipse_1100" data-name="Ellipse 1100" cx="22.944" cy="22.944" r="22.944" transform="translate(93.576 21.658)" opacity="0.1"/>
    <circle id="Ellipse_1101" data-name="Ellipse 1101" cx="22.944" cy="22.944" r="22.944" transform="translate(93.576 20.846)" fill="#fbbebe"/>
    <rect id="Rectangle_998" data-name="Rectangle 998" width="3.954" height="44.062" transform="translate(100.44 59.728)" fill="#846be2"/>
    <path id="Path_1642" data-name="Path 1642" d="M477.635,474.436c-1.877,7.687-3.054,15.636-2.261,23.509.526,5.212,2.356,10.887,2.451,16.2H420.942c-.014-2.868-.026-5.838-.04-8.805v-3.744c-.012-2.149-.021-4.275-.03-6.338-.016-3.721-.035-7.442-.393-11.164a80.934,80.934,0,0,0-4.547-19.288c-.16-.465-.326-.912-.493-1.368h0l-.056-.149c-.167-.465-.342-.93-.516-1.4-2.768-7.354-5.931-14.99-4.419-22.637a19.583,19.583,0,0,1,9.568-13.122,10.581,10.581,0,0,1,4.884-1.5c2.961-.047,5.617,1.691,8.082,3.333,1.163.781,2.361,1.561,3.568,2.3a39.132,39.132,0,0,0,9.117,4.356c4.586,1.4,9.768,1.451,13.973-.868a15.642,15.642,0,0,0,2.326-1.6,26.455,26.455,0,0,0,3.838-4.031c1.112,2.168,3.535,3.082,5.542,4.461a17.421,17.421,0,0,1,6.047,8.126,43.968,43.968,0,0,1,2.286,10,52.214,52.214,0,0,1,.67,10.119C480.079,465.46,478.733,469.94,477.635,474.436Z" transform="translate(-328.908 -346.191)" fill="#3f3d56"/>
    <path id="Path_1643" data-name="Path 1643" d="M388.9,506.338H349.976c.514-1.484,1.021-2.935,1.54-4.447a.086.086,0,0,0,0-.021h-.047a6.056,6.056,0,0,1-6.254-4.465c-.233-.979-.254-2.093-.954-2.816a7.807,7.807,0,0,0-.891-.7,6.544,6.544,0,0,1-1.986-4.226c-.788-4.7-.4-9.508-.6-14.271-.312-7.261-.5-14.42-1.5-21.613a33.723,33.723,0,0,1,.881-13.455,13.34,13.34,0,0,0,.747-3.954c-.028-.714-.191-1.426-.154-2.14a2.09,2.09,0,0,1,.974-1.8,9.017,9.017,0,0,1,1.558-6.777,5.865,5.865,0,0,1,1.714-1.628c1.456-.856,3.256-.788,4.926-.979,7.833-.886,14.043-7.747,21.888-8.512a29.263,29.263,0,0,1,5.3.126c2.891.233,3.954,3.9,4.614,6.719.088.372.17.744.249,1.116,1.47,7.008,1.2,14.276,1.2,21.451a18.271,18.271,0,0,0,.668,4.884c1.188,4.326,1.312,8.859,1.526,13.338a303.126,303.126,0,0,0,3.154,31.3c.3,1.947.619,3.893.721,5.859A35.7,35.7,0,0,1,388.9,506.338Z" transform="translate(-274.357 -338.388)" fill="#f86d70"/>
    <path id="Path_1644" data-name="Path 1644" d="M475.315,545.248a22.326,22.326,0,0,1,2.261,3.058c.312.514.568,1.256.112,1.649a1.356,1.356,0,0,1-.84.233l-5.47.233a6.049,6.049,0,0,1-2.454-.233,6.251,6.251,0,0,1-2.54-2.277l-2.426-3.161a7.168,7.168,0,0,1-1.516-2.733,2.436,2.436,0,0,1,1.086-2.714,3.606,3.606,0,0,1,2.665.186,22.317,22.317,0,0,1,5.056,1.882A21.266,21.266,0,0,1,475.315,545.248Z" transform="translate(-369.061 -434.048)" fill="#f86d70"/>
    <path id="Path_1645" data-name="Path 1645" d="M475.315,545.248a22.326,22.326,0,0,1,2.261,3.058c.312.514.568,1.256.112,1.649a1.356,1.356,0,0,1-.84.233l-5.47.233a6.049,6.049,0,0,1-2.454-.233,6.251,6.251,0,0,1-2.54-2.277l-2.426-3.161a7.168,7.168,0,0,1-1.516-2.733,2.436,2.436,0,0,1,1.086-2.714,3.606,3.606,0,0,1,2.665.186,22.317,22.317,0,0,1,5.056,1.882A21.266,21.266,0,0,1,475.315,545.248Z" transform="translate(-369.061 -434.048)" opacity="0.1"/>
    <path id="Path_1646" data-name="Path 1646" d="M454.205,404.317a77.941,77.941,0,0,1,2.737-10.508,24.048,24.048,0,0,0,1.375-5.117c.144-1.37.016-2.758.14-4.131.107-1.186.4-2.347.572-3.524a17.675,17.675,0,0,0-.423-7.163c-.5-1.861-.021-4.11-1.212-5.617-.484-.612-1.128-1.077-1.628-1.675a2.345,2.345,0,0,1-.614-2.151,13.466,13.466,0,0,0,5.159.165,3.372,3.372,0,0,0,1.435-.5,1.368,1.368,0,0,0,.612-1.314,1.922,1.922,0,0,0-.986-1.128,12.075,12.075,0,0,0-10.266-1.144.6.6,0,0,1,.256-.73,2.259,2.259,0,0,1,.8-.258,5.335,5.335,0,0,0,3.821-3.314,1.107,1.107,0,0,0,.074-.73c-.2-.57-1-.537-1.591-.393l-3.158.777a7.323,7.323,0,0,0-1.77.6,7.526,7.526,0,0,0-1.814,1.575,20.275,20.275,0,0,0-4.261,5.9c-.412,1.026-.654,2.112-1.084,3.128a4.733,4.733,0,0,1-2.077,2.486,2.7,2.7,0,0,0-1.354,2.856,7.978,7.978,0,0,0,1.442,3.128,38.706,38.706,0,0,0,3.975,5.177,14.249,14.249,0,0,1,2.721,3.33c.449.914.64,1.933,1.035,2.87a5.965,5.965,0,0,1,.5,1.361,3.722,3.722,0,0,1-.019,1.028c-.663,5.156-4.486,9.359-5.917,14.359a1.83,1.83,0,0,0-.1.73,1.881,1.881,0,0,0,.837,1.109c2.779,2.093,6.175,3.184,9.5,4.231A35.272,35.272,0,0,0,454.205,404.317Z" transform="translate(-351.056 -292.754)" opacity="0.1"/>
    <path id="Path_1647" data-name="Path 1647" d="M452.205,403.317a77.941,77.941,0,0,1,2.737-10.508,24.048,24.048,0,0,0,1.375-5.117c.144-1.37.016-2.758.14-4.131.107-1.186.4-2.347.572-3.524a17.675,17.675,0,0,0-.423-7.163c-.5-1.861-.021-4.11-1.212-5.617-.484-.612-1.128-1.077-1.628-1.675a2.345,2.345,0,0,1-.614-2.151,13.466,13.466,0,0,0,5.159.165,3.372,3.372,0,0,0,1.435-.5,1.368,1.368,0,0,0,.612-1.314,1.922,1.922,0,0,0-.986-1.128,12.075,12.075,0,0,0-10.266-1.144.6.6,0,0,1,.256-.73,2.258,2.258,0,0,1,.8-.258,5.335,5.335,0,0,0,3.821-3.314,1.107,1.107,0,0,0,.074-.73c-.2-.57-1-.537-1.591-.393l-3.158.777a7.323,7.323,0,0,0-1.77.6,7.526,7.526,0,0,0-1.814,1.575,20.275,20.275,0,0,0-4.261,5.9c-.412,1.026-.654,2.112-1.084,3.128a4.733,4.733,0,0,1-2.077,2.486,2.7,2.7,0,0,0-1.354,2.856,7.978,7.978,0,0,0,1.442,3.128,38.706,38.706,0,0,0,3.975,5.177,14.251,14.251,0,0,1,2.721,3.33c.449.914.64,1.933,1.035,2.87a5.964,5.964,0,0,1,.5,1.361,3.722,3.722,0,0,1-.019,1.028c-.663,5.156-4.486,9.359-5.917,14.359a1.83,1.83,0,0,0-.1.73,1.881,1.881,0,0,0,.837,1.109c2.779,2.093,6.175,3.184,9.5,4.231A35.272,35.272,0,0,0,452.205,403.317Z" transform="translate(-349.521 -291.987)" fill="#fbbebe"/>
    <path id="Path_1648" data-name="Path 1648" d="M472,552.864a.442.442,0,0,1,.233.658,34.014,34.014,0,0,1-3,6.591q-3.691-2.037-7.224-4.356a3.933,3.933,0,0,1-1.449-1.365C457.131,547.7,469.7,551.526,472,552.864Z" transform="translate(-367.215 -442.834)" fill="#3f3d56"/>
    <path id="Path_1649" data-name="Path 1649" d="M384.949,552.51c-.807,1.086-1.749,2.068-2.558,3.158a48.456,48.456,0,0,0-3.533,6.368,43.29,43.29,0,0,1-5.342,7.924c-2.093,2.454-4.584,4.961-4.817,8.177a2.575,2.575,0,0,1-.286,1.323c-.233.34-.644.514-.951.8s-.484.809-.179,1.088c-1.193.128-1.689,1.568-1.919,2.744l-.528,2.716a9.952,9.952,0,0,0-.256,2.158,9.094,9.094,0,0,0,.7,2.861,46.217,46.217,0,0,0,4.9,9.461A9.065,9.065,0,0,0,373.8,604.8a10.02,10.02,0,0,0,4.624.433c2.209-.14,4.779-.493,5.877-2.414.7-1.221.591-2.791,1.351-3.977a14.8,14.8,0,0,1,1.458-1.6,10.426,10.426,0,0,0,1.8-3.537,132.46,132.46,0,0,0,4.838-17.653,28.32,28.32,0,0,1,1.591-5.921,33.281,33.281,0,0,1,2.947-4.861c1.965-2.97,2.258-5.545,3.617-8.838-2.993-.7-4.377-2.682-6.928-4.368-2.407-1.589-5.963-4.972-8.5-6.191C385.624,547.956,386.328,550.656,384.949,552.51Z" transform="translate(-294.008 -439.236)" opacity="0.1"/>
    <path id="Path_1650" data-name="Path 1650" d="M377.076,545.52c-.809,1.086-1.751,2.07-2.558,3.161a48.579,48.579,0,0,0-3.531,6.366,43.617,43.617,0,0,1-5.349,7.926c-2.093,2.454-4.586,4.961-4.817,8.175a2.571,2.571,0,0,1-.288,1.323c-.26.374-.644.516-.949.8s-.486.812-.179,1.091c-1.2.126-1.691,1.565-1.919,2.744l-.528,2.714a9.828,9.828,0,0,0-.258,2.158,9.093,9.093,0,0,0,.7,2.863,46.253,46.253,0,0,0,4.9,9.459,9.049,9.049,0,0,0,3.624,3.512,10.034,10.034,0,0,0,4.626.435c2.207-.14,4.777-.5,5.877-2.414.7-1.221.588-2.791,1.351-3.977a14.554,14.554,0,0,1,1.456-1.6,10.406,10.406,0,0,0,1.8-3.538,132.011,132.011,0,0,0,4.838-17.653,28.358,28.358,0,0,1,1.591-5.921,33.462,33.462,0,0,1,2.947-4.859c1.968-2.972,1.861-4.735,3.21-8.031-2.991-.7-3.97-3.489-6.512-5.177-2.4-1.589-5.963-4.972-8.5-6.191C377.748,540.968,378.453,543.669,377.076,545.52Z" transform="translate(-287.96 -433.872)" opacity="0.1"/>
    <path id="Path_1651" data-name="Path 1651" d="M381.421,549.041c-.807,1.088-1.749,2.07-2.558,3.161a48.842,48.842,0,0,0-3.53,6.366,43.489,43.489,0,0,1-5.356,7.935c-2.093,2.454-4.584,4.961-4.817,8.177a2.561,2.561,0,0,1-.286,1.321c-.26.374-.644.516-.951.8s-.484.809-.179,1.088c-1.193.128-1.689,1.565-1.919,2.744l-.528,2.716a9.95,9.95,0,0,0-.256,2.158,9.03,9.03,0,0,0,.7,2.861,46.33,46.33,0,0,0,4.9,9.461,9.079,9.079,0,0,0,3.626,3.51,10.021,10.021,0,0,0,4.624.435c2.21-.14,4.779-.493,5.877-2.414.7-1.221.591-2.791,1.351-3.977a14.8,14.8,0,0,1,1.458-1.6,10.394,10.394,0,0,0,1.8-3.535,132.107,132.107,0,0,0,4.835-17.653,28.528,28.528,0,0,1,1.593-5.924,33.444,33.444,0,0,1,2.944-4.859,55.039,55.039,0,0,0,5-9.431,25.939,25.939,0,0,1-8.312-3.777c-2.407-1.589-5.963-4.973-8.5-6.191C382.1,544.489,382.8,547.2,381.421,549.041Z" transform="translate(-291.291 -436.581)" fill="#f86d70"/>
    <circle id="Ellipse_1102" data-name="Ellipse 1102" cx="1.623" cy="1.623" r="1.623" transform="translate(96.216 113.23)" fill="#3f3d56"/>
    <circle id="Ellipse_1103" data-name="Ellipse 1103" cx="1.623" cy="1.623" r="1.623" transform="translate(91.139 121.149)" fill="#3f3d56"/>
    <circle id="Ellipse_1104" data-name="Ellipse 1104" cx="1.623" cy="1.623" r="1.623" transform="translate(85.859 129.271)" fill="#3f3d56"/>
    <path id="Path_1652" data-name="Path 1652" d="M664.091,524.37H649.243c-.177-1.007-.063-2.144-.723-2.917a8.533,8.533,0,0,0,.054,2.361c.04.186.091.372.137.556H629.825a29.757,29.757,0,0,1,.677-7.077,66.048,66.048,0,0,0,1.042-10.305c.1-4.27-.221-8.538-.233-12.808a92.4,92.4,0,0,1,.814-12.65c.512-3.856,1.272-7.763.64-11.6-.7-4.286-1.307-8.633-1.847-12.945a14.471,14.471,0,0,0-.547-2.821,18.772,18.772,0,0,0-.819-1.886,28.992,28.992,0,0,1-2.512-9.875c-.107-1.286-1.93-2.451-1.9-3.751,2.484-.5,6.908-1.126,9.291-.263s4.165,2.977,6.559,3.768c2.326.779,4.954.219,7.287,1a1.95,1.95,0,0,1,1.2.858,1.558,1.558,0,0,1-.9,1.947,4.532,4.532,0,0,1-2.356.174q3.886,2.83,7.529,5.975a7.923,7.923,0,0,1,2.114,2.416,8.3,8.3,0,0,1,.568,3.586l.042,4.279c.026,2.747,1.384,5.27,1.861,7.977.6,3.41.907,6.866,1.188,10.317.163,2.009.319,4.021.4,6.035.154,3.87.833,7.724.891,11.6.019,1.2,0,2.393.107,3.582s.309,2.326.516,3.465l1.354,7.494a9.98,9.98,0,0,1,.233,1.979,11.105,11.105,0,0,0-.072,2.868,8.492,8.492,0,0,0,.465,1.163A13.257,13.257,0,0,1,664.091,524.37Z" transform="translate(-493.967 -356.42)" fill="#f86d70"/>
    <ellipse id="Ellipse_1105" data-name="Ellipse 1105" cx="21.93" cy="8.529" rx="21.93" ry="8.529" transform="translate(95.502 17.29)" fill="#3f3d56"/>
    <path id="Path_1653" data-name="Path 1653" d="M599.1,237.32c-6.114-2.4-8.517,2.837-8.517,2.837-2.354,6.28,2.056,9.959,4.726,11.536a6.582,6.582,0,0,0,3.344.912,6.489,6.489,0,0,0,2.482-.493,10.712,10.712,0,0,0,6.707-8.24C608.927,235.367,599.1,237.32,599.1,237.32Zm6.373,6.68a8.92,8.92,0,0,1-5.445,6.873,5.187,5.187,0,0,1-2.016.4,5.247,5.247,0,0,1-2.717-.761c-2.17-1.314-5.754-4.382-3.84-9.608,0,0,1.951-4.365,6.919-2.365C598.375,238.544,606.362,236.906,605.473,244Z" transform="translate(-466.935 -201.964)" fill="#f86d70"/>
    <path id="Path_1654" data-name="Path 1654" d="M601.664,242.929s7.987-1.628,7.1,5.456a8.92,8.92,0,0,1-5.445,6.873,5.187,5.187,0,0,1-2.016.4h0a5.247,5.247,0,0,1-2.717-.761c-2.17-1.314-5.754-4.382-3.84-9.608C594.745,245.295,596.7,240.929,601.664,242.929Z" transform="translate(-470.224 -206.35)" fill="#3f3d56"/>
    <path id="Path_1655" data-name="Path 1655" d="M601.664,242.929s7.987-1.628,7.1,5.456a8.92,8.92,0,0,1-5.445,6.873,5.187,5.187,0,0,1-2.016.4h0a5.247,5.247,0,0,1-2.717-.761c-2.17-1.314-5.754-4.382-3.84-9.608C594.745,245.295,596.7,240.929,601.664,242.929Z" transform="translate(-470.224 -206.35)" opacity="0.1" fill="url(#radial-gradient)"/>
    <circle id="Ellipse_1106" data-name="Ellipse 1106" cx="22.051" cy="22.051" r="22.051" transform="translate(82.387 18.185)" opacity="0.1"/>
    <circle id="Ellipse_1107" data-name="Ellipse 1107" cx="21.116" cy="21.116" r="21.116" transform="translate(83.322 19.12)" fill="#846be2"/>
    <path id="Path_1656" data-name="Path 1656" d="M482.517,209.928l-22.56,12.213a.465.465,0,0,0,.033.84l3.851,1.451a.907.907,0,0,1,.507.465l2.984,6.166c.056.272.558.344.565.067l-.465-5.091a1.816,1.816,0,0,1,.412-1.028l11.7-11.464a.277.277,0,0,1,.254-.072.265.265,0,0,1,.147.428l-10.087,12.341a2.254,2.254,0,0,0-.4,1.016l-.6,4.4c.051.384.351.53.593.186l2.172-2.558a.465.465,0,0,1,.64-.107l5.6,4.082a.451.451,0,0,0,.712-.277l4.593-22.56a.465.465,0,0,0-.661-.509Z" transform="translate(-367.011 -181.379)" fill="#fff"/>
  </g>
</svg>
