<svg xmlns="http://www.w3.org/2000/svg" width="250.381" height="179.947" viewBox="0 0 250.381 179.947">
  <g id="undraw_notify_88a4" transform="translate(0 -0.035)">
    <circle id="Ellipse_1088" data-name="Ellipse 1088" cx="77.424" cy="77.424" r="77.424" transform="translate(25.581 23.098)" fill="#f2f2f2"/>
    <path id="Path_1576" data-name="Path 1576" d="M927.515,243.849l-8.077,9.577c-.436,4.125-1.054,8.734-1.93,13.569l13.271-13.729.062.24a37.263,37.263,0,0,0-3.4-9.883Z" transform="translate(-720.439 -200.338)" fill="#846be2"/>
    <path id="Path_1577" data-name="Path 1577" d="M926.365,225.976l7.824-9.276a19.628,19.628,0,0,0-6.455-7.375c-.135-.087-.27-.168-.405-.249C927.332,210.2,927.3,216.822,926.365,225.976Z" transform="translate(-727.291 -173.612)" fill="#846be2"/>
    <path id="Path_1578" data-name="Path 1578" d="M905.018,398.349l.017.278q.679-2.553,1.161-5.113L886.95,405.939l-.013-.127q-.546,1.487-1.123,2.918Z" transform="translate(-695.92 -316.296)" fill="#846be2"/>
    <path id="Path_1579" data-name="Path 1579" d="M921.189,301.947l.039.263a58.569,58.569,0,0,0-.977-13.793l-13.524,13.991q-1.263,6.792-2.973,12.929Z" transform="translate(-709.798 -234.992)" fill="#846be2"/>
    <path id="Path_1580" data-name="Path 1580" d="M812.4,244.779a48.907,48.907,0,0,0-5.163,8.4l22.29,25.444c.918-3.569,1.658-7.029,2.253-10.257l-19.5-23.333Z" transform="translate(-635.129 -201.233)" fill="#846be2"/>
    <path id="Path_1581" data-name="Path 1581" d="M800.279,286.213l.113-.255,22.89,25.4q.37-1.3.707-2.595l-22.372-25.538.115-.254Q800.973,284.535,800.279,286.213Z" transform="translate(-629.748 -230.776)" fill="#846be2"/>
    <path id="Path_1582" data-name="Path 1582" d="M910.773,359.779l.027.272a69.952,69.952,0,0,0,1.08-9.367l-17.67,13.572q-1.164,4.086-2.522,7.846Z" transform="translate(-700.464 -283.162)" fill="#846be2"/>
    <path id="Path_1583" data-name="Path 1583" d="M828.65,475.971A57.053,57.053,0,0,1,818.5,489.137c4.157-1.677,20.9-9.063,29.583-22.383Z" transform="translate(-643.848 -372.956)" fill="#846be2"/>
    <path id="Path_1584" data-name="Path 1584" d="M783.5,354.407a67.691,67.691,0,0,0-.39,9.05l.14-.271L801.2,388.37a84.12,84.12,0,0,0,4.405-9.069Z" transform="translate(-616.452 -286.043)" fill="#846be2"/>
    <path id="Path_1585" data-name="Path 1585" d="M884.8,219.622c1.007-9.9.953-16.806.952-16.905l.171-.069c-4.042-2.343-8.508-2.261-12.858-.179Z" transform="translate(-686.06 -167.286)" fill="#846be2"/>
    <path id="Path_1586" data-name="Path 1586" d="M869.63,428.086c-.121.295-.242.592-.365.883a83.6,83.6,0,0,1-3.981,8.178l19.253-9.13.01.273a33.136,33.136,0,0,0,3.582-7.558q.506-1.57.933-3.152Z" transform="translate(-680.037 -334.915)" fill="#846be2"/>
    <path id="Path_1587" data-name="Path 1587" d="M850.082,239.5c.863-4.781,1.472-9.336,1.9-13.413l-12-17.547.127-.24a28.209,28.209,0,0,0-9.363,8.057Z" transform="translate(-653.317 -173.009)" fill="#846be2"/>
    <path id="Path_1588" data-name="Path 1588" d="M801.029,421.053l-17.821-25c.429,18.122,6.617,37.461,7.016,38.691A55.219,55.219,0,0,0,801.029,421.053Z" transform="translate(-616.542 -318.261)" fill="#846be2"/>
    <path id="Path_1589" data-name="Path 1589" d="M807.487,335.488l.018-.01a113.553,113.553,0,0,0,3.986-11.554l-22.946-25.459q-.93,2.278-1.728,4.747a40.685,40.685,0,0,0-1.565,7.239Z" transform="translate(-618.124 -242.766)" fill="#846be2"/>
    <path id="Path_1590" data-name="Path 1590" d="M965.135,572.513l-12.329,2.224c-2.966,2.9-6.382,6.055-10.141,9.22l18.978-2.11-.105.224a37.26,37.26,0,0,0,3.686-9.78Z" transform="translate(-739.9 -454.601)" fill="#846be2"/>
    <path id="Path_1591" data-name="Path 1591" d="M989.756,538.465l11.943-2.154a19.63,19.63,0,0,0-.267-9.8c-.048-.153-.1-.3-.153-.451C1000.56,526.933,996.313,532.01,989.756,538.465Z" transform="translate(-776.331 -418.839)" fill="#846be2"/>
    <path id="Path_1592" data-name="Path 1592" d="M867.042,690.323l-.164.225q2.152-1.533,4.156-3.2l-22.748-2.7.071-.106q-1.369.8-2.726,1.532Z" transform="translate(-664.833 -541.439)" fill="#846be2"/>
    <path id="Path_1593" data-name="Path 1593" d="M915.476,627.53l-.138.228a58.58,58.58,0,0,0,8.045-11.246l-19.339,2.15q-5.3,4.426-10.537,8.062Z" transform="translate(-701.871 -488.811)" fill="#846be2"/>
    <path id="Path_1594" data-name="Path 1594" d="M908.521,489.409a48.913,48.913,0,0,0-9.333,3.174l.939,33.813c2.983-2.163,5.76-4.357,8.277-6.463l-.134-30.406Z" transform="translate(-706.265 -390.482)" fill="#846be2"/>
    <path id="Path_1595" data-name="Path 1595" d="M883.987,505.5l.25-.124,1.431,34.159q1.117-.769,2.2-1.547l-.942-33.938.251-.122Q885.593,504.654,883.987,505.5Z" transform="translate(-694.506 -401.717)" fill="#846be2"/>
    <path id="Path_1596" data-name="Path 1596" d="M882.56,670.688l-.152.227a69.934,69.934,0,0,0,6.807-6.526l-22.266-.818q-3.5,2.4-6.947,4.435Z" transform="translate(-675.951 -525.217)" fill="#846be2"/>
    <path id="Path_1597" data-name="Path 1597" d="M743.1,712.955a57.055,57.055,0,0,1-16.212,3.669c4.271,1.36,21.881,6.353,37.061,1.629Z" transform="translate(-572.97 -563.421)" fill="#846be2"/>
    <path id="Path_1598" data-name="Path 1598" d="M808.287,545.049a67.659,67.659,0,0,0-6.073,6.722l.28-.12L800.258,582.5a84.143,84.143,0,0,0,9.178-4.175Z" transform="translate(-629.732 -433.526)" fill="#846be2"/>
    <path id="Path_1599" data-name="Path 1599" d="M988.71,509.094c7.093-6.986,11.453-12.336,11.516-12.413l.176.056c-1.618-4.382-5.11-7.168-9.789-8.339Z" transform="translate(-775.522 -389.7)" fill="#846be2"/>
    <path id="Path_1600" data-name="Path 1600" d="M811.339,692.962c-.282.15-.564.3-.845.447a83.578,83.578,0,0,1-8.282,3.759l20.651,5.248-.167.216a33.141,33.141,0,0,0,7.579-3.536q1.391-.887,2.729-1.833Z" transform="translate(-631.244 -547.954)" fill="#846be2"/>
    <path id="Path_1601" data-name="Path 1601" d="M941.656,516.556c3.714-3.132,7.089-6.252,10.02-9.117l1.947-21.171.25-.1a28.207,28.207,0,0,0-12.35.234Z" transform="translate(-739.017 -387.526)" fill="#846be2"/>
    <path id="Path_1602" data-name="Path 1602" d="M739.772,606.668l2.22-30.621c-11.227,14.231-18.8,33.073-19.274,34.274A55.223,55.223,0,0,0,739.772,606.668Z" transform="translate(-569.745 -457.507)" fill="#846be2"/>
    <path id="Path_1603" data-name="Path 1603" d="M839.06,552.062l.021,0a113.57,113.57,0,0,0,10.439-6.356l-1.435-34.243q-2.17,1.162-4.358,2.554A40.682,40.682,0,0,0,837.9,518.6Z" transform="translate(-658.856 -407.547)" fill="#846be2"/>
    <path id="Path_1604" data-name="Path 1604" d="M742.935,390.507l-4.722,11.6c.86,4.057,1.7,8.632,2.359,13.5l8.377-17.159.133.209a37.264,37.264,0,0,0-6.288-8.349Z" transform="translate(-581.733 -313.821)" fill="#846be2"/>
    <path id="Path_1605" data-name="Path 1605" d="M722.823,383.338,727.4,372.1a19.63,19.63,0,0,0-8.418-5.019c-.155-.041-.309-.077-.462-.112C718.867,368.039,720.881,374.344,722.823,383.338Z" transform="translate(-566.495 -295.76)" fill="#846be2"/>
    <path id="Path_1606" data-name="Path 1606" d="M768.74,533.36l.1.259q-.143-2.638-.476-5.222L753.9,546.163l-.051-.116q-.06,1.583-.166,3.122Z" transform="translate(-593.704 -420.645)" fill="#846be2"/>
    <path id="Path_1607" data-name="Path 1607" d="M762.69,440.782l.119.238a58.586,58.586,0,0,0-5.192-12.815l-8.537,17.486q.9,6.85,1.169,13.215Z" transform="translate(-590.139 -343.134)" fill="#846be2"/>
    <path id="Path_1608" data-name="Path 1608" d="M625.985,432.012a48.915,48.915,0,0,0-2.315,9.582L652.733,458.9c-.23-3.678-.6-7.2-1.028-10.451l-25.754-16.164Z" transform="translate(-493.121 -346.079)" fill="#846be2"/>
    <path id="Path_1609" data-name="Path 1609" d="M621.825,479.082l.029-.278,29.619,17.077q-.052-1.355-.13-2.686l-29.17-17.372.031-.277Q621.966,477.271,621.825,479.082Z" transform="translate(-491.694 -379.758)" fill="#846be2"/>
    <path id="Path_1610" data-name="Path 1610" d="M768.749,495.1l.11.25a69.955,69.955,0,0,0-1.868-9.243l-12.61,18.369q.156,4.245.027,8.241Z" transform="translate(-594.241 -387.928)" fill="#846be2"/>
    <path id="Path_1611" data-name="Path 1611" d="M727.675,621.065a57.053,57.053,0,0,1-5.58,15.658c3.435-2.879,17.079-15.08,21.216-30.431Z" transform="translate(-569.264 -480.905)" fill="#846be2"/>
    <path id="Path_1612" data-name="Path 1612" d="M624.847,550.225a67.686,67.686,0,0,0,2.427,8.728l.049-.3,24.857,18.4a84.14,84.14,0,0,0,1.386-9.987Z" transform="translate(-494.032 -437.531)" fill="#846be2"/>
    <path id="Path_1613" data-name="Path 1613" d="M679.858,382.239c-2.1-9.731-4.288-16.278-4.32-16.372l.141-.119c-4.568-.979-8.79.479-12.284,3.8Z" transform="translate(-523.853 -294.585)" fill="#846be2"/>
    <path id="Path_1614" data-name="Path 1614" d="M748.871,568.991c-.024.318-.047.638-.074.953a83.575,83.575,0,0,1-1.258,9.008l15.488-14.634.094.256a33.134,33.134,0,0,0,1.071-8.295q0-1.65-.087-3.286Z" transform="translate(-588.947 -439.673)" fill="#846be2"/>
    <path id="Path_1615" data-name="Path 1615" d="M659.831,410.9c-.657-4.814-1.486-9.334-2.337-13.344l-16.84-12.978.046-.267a28.209,28.209,0,0,0-6.414,10.556Z" transform="translate(-501.334 -309.18)" fill="#846be2"/>
    <path id="Path_1616" data-name="Path 1616" d="M660.788,608.622l-24.675-18.267c6.01,17.1,17.872,33.582,18.632,34.628A55.223,55.223,0,0,0,660.788,608.622Z" transform="translate(-502.747 -468.576)" fill="#846be2"/>
    <path id="Path_1617" data-name="Path 1617" d="M650.581,521.773l.014-.015a113.525,113.525,0,0,0,.22-12.22l-29.691-17.119q-.18,2.454-.176,5.049a40.685,40.685,0,0,0,.75,7.368Z" transform="translate(-491.015 -392.811)" fill="#846be2"/>
    <ellipse id="Ellipse_1089" data-name="Ellipse 1089" cx="125.191" cy="7.244" rx="125.191" ry="7.244" transform="translate(0 165.494)" fill="#3f3d56"/>
    <path id="Path_1618" data-name="Path 1618" d="M494.636,716.111c0,14.08-19.626,9.725-43.655,9.725s-43.363,4.355-43.363-9.725,19.623-17.142,43.652-17.142S494.636,702.032,494.636,716.111Z" transform="translate(-325.979 -552.602)" opacity="0.1"/>
    <path id="Path_1619" data-name="Path 1619" d="M494.636,700.8c0,14.08-19.626,9.725-43.655,9.725s-43.363,4.355-43.363-9.725,19.623-17.142,43.652-17.142S494.636,686.718,494.636,700.8Z" transform="translate(-325.979 -540.755)" fill="#3f3d56"/>
    <path id="Path_1620" data-name="Path 1620" d="M812.974,487.2s0,23.632,1.263,28.864,5.773,24.173,5.773,24.173l6.134-1.263s-1.082-25.075-2.165-28.683,1.263-18.4,4.33-21.648-1.443-5.232-1.443-5.232Z" transform="translate(-639.569 -385.841)" fill="#2f2e41"/>
    <path id="Path_1621" data-name="Path 1621" d="M812.974,487.2s0,23.632,1.263,28.864,5.773,24.173,5.773,24.173l6.134-1.263s-1.082-25.075-2.165-28.683,1.263-18.4,4.33-21.648-1.443-5.232-1.443-5.232Z" transform="translate(-639.569 -385.841)" opacity="0.1"/>
    <path id="Path_1622" data-name="Path 1622" d="M808.234,714.5s-8.118,3.247-8.659,3.247-.9,9.381-.9,9.381.541,5.592-8.3,7.4,7.036,5.773,9.922,3.788a24,24,0,0,0,4.149-3.427l1.082-1.8-.361,3.067,1.263.18,2.886-5.773s.722-4.33-.18-5.412S808.234,714.5,808.234,714.5Z" transform="translate(-620.037 -564.616)" fill="#2f2e41"/>
    <path id="Path_1623" data-name="Path 1623" d="M651.225,512.144l1.263,7.036,5.953-.541-1.082-5.051Z" transform="translate(-503.798 -396.175)" fill="#a0616a"/>
    <path id="Path_1624" data-name="Path 1624" d="M710.772,409.164l-1.082,1.8s-31.209-4.329-31.209,7.216-1.443,18.4-1.8,18.942,9.381,6.314,11.545,5.953a7.521,7.521,0,0,0,1.263-4.51c-.18-2.526,1.443-11.906,0-12.447,0,0,1.8-.722,1.624-1.8,0,0,25.436,3.608,28.683,2.886a8.6,8.6,0,0,0,5.953-4.51c.541-1.443,1.7-7.073,1.7-7.073l-.257-9.524L724.3,402.67l-4.33-.541-6.675,4.149Z" transform="translate(-534.12 -322.961)" fill="#2f2e41"/>
    <path id="Path_1625" data-name="Path 1625" d="M909.087,508.909s-2.526,5.773.361,5.773,3.969-5.051,3.969-5.051Z" transform="translate(-713.132 -405.568)" fill="#a0616a"/>
    <path id="Path_1626" data-name="Path 1626" d="M800.118,177.144l-.9-1.082s-10.1-22.73-6.134-28.864,21.287-7.036,21.828-6.675,2.165,1.624,1.984,1.984-3.788,1.263-2.526,3.428c0,0-1.8.541-2.165-.18a1.031,1.031,0,0,0-1.8-.18c-.361.722-6.133,2.345-6.133,2.886s-.9,3.247-1.8,3.608.18,5.773,1.984,7.216,3.067,5.412,3.067,5.412l-.9,8.118Z" transform="translate(-623.466 -120.526)" fill="#d0cde1"/>
    <path id="Path_1627" data-name="Path 1627" d="M822.835,165.208a6.5,6.5,0,0,0-2.8,2.356c-1.332,2.263-.481,5.358-1.306,7.9a18.99,18.99,0,0,1-1.522,3.01,5.665,5.665,0,0,0-.822,3.269,20.618,20.618,0,0,0,1.108,3.15c.536,1.854,0,3.864-.607,5.691q-.5,1.5-1.058,2.974a2.641,2.641,0,0,1-.975,1.455l4.269.35a4.656,4.656,0,0,0,3.587-.7,4.141,4.141,0,0,0,.934-1.335,13.943,13.943,0,0,0,1.009-6.663c-.111-2.278-.467-4.541-.448-6.822a6.936,6.936,0,0,1,.3-2.213,12.463,12.463,0,0,1,.8-1.623,21.86,21.86,0,0,0,1.763-6.166c.266-1.456.691-3.566-.071-4.934S823.861,164.685,822.835,165.208Z" transform="translate(-641.021 -138.946)" fill="#2f2e41"/>
    <circle id="Ellipse_1090" data-name="Ellipse 1090" cx="7.396" cy="7.396" r="7.396" transform="translate(178.636 27.393)" fill="#a0616a"/>
    <path id="Path_1628" data-name="Path 1628" d="M856,227.209s1.173,4.6.451,6.945S866.287,231,866.287,231s-3.247-4.33-3.247-5.773Z" transform="translate(-672.858 -186.106)" fill="#a0616a"/>
    <path id="Path_1629" data-name="Path 1629" d="M837.466,245.958s-2.345-1.8-2.345-2.706-1.624-2.886-1.624-2.886-7.757,3.969-8.118,3.969-.541-2.345-.541-2.345l-8.3,11.365s-2.706,6.494-1.8,11.545,2.345,10.283,1.624,14.973.18,6.314,1.263,5.773,0-2.345,2.345-2.165,10.283-2.345,10.824-3.428,2.706,2.345,2.886,4.33-.361,7.4,0,7.216.9-3.247,1.083-4.69.722-6.134,0-6.855a1.473,1.473,0,0,1,.361-2.165c.541-.361,9.381-22.73,9.381-22.73s-.9-4.69-3.969-6.314S837.466,245.958,837.466,245.958Z" transform="translate(-640.789 -197.818)" fill="#d0cde1"/>
    <path id="Path_1630" data-name="Path 1630" d="M911.288,292.161l2.886,3.067v16.236s3.788,19.483,1.443,20.565-3.428.722-3.428.722.541,9.922-1.082,9.922-4.149-.722-5.592-.361c0,0,.361-3.608,1.443-5.232a9.86,9.86,0,0,0,1.083-4.51s-1.624,0-1.624-2.345a17.348,17.348,0,0,0-.361-4.33c-.18-.541-1.443-10.1-1.443-10.1Z" transform="translate(-710.463 -237.889)" fill="#d0cde1"/>
    <path id="Path_1631" data-name="Path 1631" d="M852.7,159.592c1.249-.794,2.9-.193,4.355-.485,1.577-.318,2.89-1.693,4.5-1.615,1.336.065,2.391,1.119,3.257,2.139a15.091,15.091,0,0,1,2.075,2.971,18.1,18.1,0,0,1,1.233,3.782l1.067,4.328a21.822,21.822,0,0,0,1.385,4.307,7.324,7.324,0,0,0,2.963,3.333,8.717,8.717,0,0,1-4.984.016,10.223,10.223,0,0,0,3,4.2c-1.2.367-2.5,0-3.755.077a5.329,5.329,0,0,0-4.318,2.83,21.87,21.87,0,0,0-1.148,4.143,10.332,10.332,0,0,1-9.525,7.306c1.2-1.733,2.465-3.745,2-5.8-.281-1.243-1.168-2.287-1.432-3.535a9.326,9.326,0,0,1,.5-4.019,4.723,4.723,0,0,0-.375-3.935c-.871-1.153-2.62-1.533-3.182-2.864a4.088,4.088,0,0,1-.222-1.537l-.036-2.372a5.019,5.019,0,0,1,.125-1.481,5.291,5.291,0,0,1,1.017-1.691,9.022,9.022,0,0,0,1.82-3.272c.363-1.483-.2-2.4-.923-3.6A2.372,2.372,0,0,1,852.7,159.592Z" transform="translate(-668.246 -133.704)" fill="#2f2e41"/>
    <path id="Path_1632" data-name="Path 1632" d="M886.165,146.335s8.3,7.216,6.134,9.741-5.592-4.69-5.592-4.69L883.1,148.68Z" transform="translate(-693.818 -125.075)" fill="#a0616a"/>
    <path id="Path_1633" data-name="Path 1633" d="M664.762,574.251s-9.561,2.345-10.643,4.33a66.9,66.9,0,0,0-1.263,8.659c0,2.526-.541,7.216-5.592,8.118s-8.659,2.526-1.8,3.788,8.84,1.624,10.824-1.082a15.352,15.352,0,0,1,3.067-3.428l1.443,3.608h.9l3.428-7.4s.361-3.608-.541-5.773S664.762,574.251,664.762,574.251Z" transform="translate(-507.052 -456.118)" fill="#2f2e41"/>
    <path id="Path_1634" data-name="Path 1634" d="M883.766,143.576s-.276,2.886-4.2,3.428l-.854-2.706,2.706-2.345Z" transform="translate(-690.428 -121.685)" fill="#d0cde1"/>
    <circle id="Ellipse_1091" data-name="Ellipse 1091" cx="19.469" cy="19.469" r="19.469" transform="translate(77.538 93.886)" fill="#846be2"/>
    <path id="Path_1635" data-name="Path 1635" d="M289.371,136.986h0a15.263,15.263,0,0,1-18.8-8.262L249.47,81.33a20.437,20.437,0,0,1,12.169-27.688h0a20.437,20.437,0,0,1,26.444,14.913l11.329,50.628A15.263,15.263,0,0,1,289.371,136.986Z" transform="translate(-202.266 -52.545)" fill="#846be2"/>
    <circle id="Ellipse_1092" data-name="Ellipse 1092" cx="19.469" cy="19.469" r="19.469" transform="translate(77.538 93.886)" opacity="0.1"/>
    <path id="Path_1636" data-name="Path 1636" d="M289.371,136.986h0a15.263,15.263,0,0,1-18.8-8.262L249.47,81.33a20.437,20.437,0,0,1,12.169-27.688h0a20.437,20.437,0,0,1,26.444,14.913l11.329,50.628A15.263,15.263,0,0,1,289.371,136.986Z" transform="translate(-202.266 -52.545)" opacity="0.1"/>
    <circle id="Ellipse_1093" data-name="Ellipse 1093" cx="15.621" cy="15.621" r="15.621" transform="translate(80.666 95.588)" fill="#846be2"/>
    <path id="Path_1637" data-name="Path 1637" d="M292.92,136.1h0a14,14,0,0,1-17.248-7.581L256.309,85.034a18.751,18.751,0,0,1,11.165-25.4h0a18.751,18.751,0,0,1,24.263,13.683l10.395,46.453A14,14,0,0,1,292.92,136.1Z" transform="translate(-207.671 -57.245)" fill="#846be2"/>
  </g>
</svg>
