<svg xmlns="http://www.w3.org/2000/svg" xmlns:xlink="http://www.w3.org/1999/xlink" width="319.467" height="259.465" viewBox="0 0 319.467 259.465">
  <defs>
    <linearGradient id="linear-gradient" x1="0.5" y1="1" x2="0.5" gradientUnits="objectBoundingBox">
      <stop offset="0" stop-color="gray" stop-opacity="0.251"/>
      <stop offset="0.54" stop-color="gray" stop-opacity="0.122"/>
      <stop offset="1" stop-color="gray" stop-opacity="0.102"/>
    </linearGradient>
  </defs>
  <g id="undraw_social_ideas_e8rj_1_" data-name="undraw_social_ideas_e8rj (1)" transform="translate(-0.008 -0.075)">
    <path id="Path_1710" data-name="Path 1710" d="M161.783,278.213s-17.665-34.614-9.912-63.976a58.868,58.868,0,0,0-2.131-37.179A99.027,99.027,0,0,0,141.4,161" transform="translate(-119.696 -118.18)" fill="none" stroke="#535461" stroke-miterlimit="10" stroke-width="2"/>
    <path id="Path_1711" data-name="Path 1711" d="M119.265,84.161c.843,4.491-4.843,19.035-4.843,19.035S103.851,91.7,103.008,87.213a8.271,8.271,0,0,1,16.254-3.052Z" transform="translate(-92.783 -59.89)" fill="#846be2"/>
    <path id="Path_1712" data-name="Path 1712" d="M180.492,147.119c-1.734,4.214-14.412,13.346-14.412,13.346s-2.628-15.393-.9-19.622a8.271,8.271,0,1,1,15.306,6.276Z" transform="translate(-135.906 -100.5)" fill="#846be2"/>
    <path id="Path_1713" data-name="Path 1713" d="M197.466,280.7c-3.63,2.775-19.176,4.244-19.176,4.244s5.5-14.616,9.132-17.388A8.271,8.271,0,0,1,197.466,280.7Z" transform="translate(-145.482 -191.473)" fill="#846be2"/>
    <path id="Path_1714" data-name="Path 1714" d="M194.186,394.173C191.077,397.52,176,401.6,176,401.6s2.953-15.336,6.062-18.683a8.271,8.271,0,1,1,12.121,11.257Z" transform="translate(-143.881 -271.45)" fill="#846be2"/>
    <path id="Path_1715" data-name="Path 1715" d="M104.766,196.258c3.808,2.525,19.417,2.95,19.417,2.95s-6.471-14.213-10.279-16.738a8.272,8.272,0,0,0-9.141,13.789Z" transform="translate(-91.498 -132.223)" fill="#846be2"/>
    <path id="Path_1716" data-name="Path 1716" d="M94.663,324.022c4.389,1.27,19.411-3.01,19.411-3.01s-10.426-11.624-14.815-12.895a8.271,8.271,0,1,0-4.6,15.89Z" transform="translate(-82.85 -220.786)" fill="#846be2"/>
    <path id="Path_1717" data-name="Path 1717" d="M110.362,452.442c4.112,1.993,19.637.328,19.637.328s-8.313-13.22-12.422-15.212a8.272,8.272,0,1,0-7.224,14.884Z" transform="translate(-94.735 -310.913)" fill="#846be2"/>
    <path id="Path_1718" data-name="Path 1718" d="M119.265,84.161c.843,4.491-4.843,19.035-4.843,19.035S103.851,91.7,103.008,87.213a8.271,8.271,0,0,1,16.254-3.052Z" transform="translate(-92.783 -59.89)" fill="#fc6681"/>
    <path id="Path_1719" data-name="Path 1719" d="M180.492,147.119c-1.734,4.214-14.412,13.346-14.412,13.346s-2.628-15.393-.9-19.622a8.271,8.271,0,1,1,15.306,6.276Z" transform="translate(-135.906 -100.5)" fill="#fc6681"/>
    <path id="Path_1720" data-name="Path 1720" d="M197.466,280.7c-3.63,2.775-19.176,4.244-19.176,4.244s5.5-14.616,9.132-17.388A8.271,8.271,0,0,1,197.466,280.7Z" transform="translate(-145.482 -191.473)" fill="#fc6681"/>
    <path id="Path_1721" data-name="Path 1721" d="M194.186,394.173C191.077,397.52,176,401.6,176,401.6s2.953-15.336,6.062-18.683a8.271,8.271,0,1,1,12.121,11.257Z" transform="translate(-143.881 -271.45)" fill="#fc6681"/>
    <path id="Path_1722" data-name="Path 1722" d="M104.766,196.258c3.808,2.525,19.417,2.95,19.417,2.95s-6.471-14.213-10.279-16.738a8.272,8.272,0,0,0-9.141,13.789Z" transform="translate(-91.498 -132.223)" fill="#fc6681"/>
    <path id="Path_1723" data-name="Path 1723" d="M94.663,324.022c4.389,1.27,19.411-3.01,19.411-3.01s-10.426-11.624-14.815-12.895a8.271,8.271,0,1,0-4.6,15.89Z" transform="translate(-82.85 -220.786)" fill="#fc6681"/>
    <path id="Path_1724" data-name="Path 1724" d="M110.362,452.442c4.112,1.993,19.637.328,19.637.328s-8.313-13.22-12.422-15.212a8.272,8.272,0,1,0-7.224,14.884Z" transform="translate(-94.735 -310.913)" fill="#fc6681"/>
    <path id="Path_1725" data-name="Path 1725" d="M987.94,152.186s22.421-35.24,25.13-50.29A193.756,193.756,0,0,1,1020.9,73" transform="translate(-711.432 -56.667)" fill="none" stroke="#535461" stroke-miterlimit="10" stroke-width="2"/>
    <path id="Path_1726" data-name="Path 1726" d="M1081.577,173l-14.147,1.2S1074.955,187.147,1081.577,173Z" transform="translate(-766.996 -126.568)" fill="#846be2"/>
    <path id="Path_1727" data-name="Path 1727" d="M1031.289,147l11.2,8.973S1027.979,161.749,1031.289,147Z" transform="translate(-741.39 -108.394)" fill="#846be2"/>
    <path id="Path_1728" data-name="Path 1728" d="M1090.848,132l-12.738,1.707S1089.343,142.836,1090.848,132Z" transform="translate(-774.461 -97.908)" fill="#846be2"/>
    <path id="Path_1729" data-name="Path 1729" d="M1049.933,117l8.41,5.9S1048.127,127.234,1049.933,117Z" transform="translate(-754.615 -87.423)" fill="#846be2"/>
    <path id="Path_1730" data-name="Path 1730" d="M1088.74,93.965s10.441-2.766,11.947-2.164.6,7.224-3.612,7.525S1088.74,93.965,1088.74,93.965Z" transform="translate(-781.891 -69.749)" fill="#846be2"/>
    <path id="Path_1731" data-name="Path 1731" d="M1059.532,73s6.622,6.321,6.923,7.826-5.418,5.117-8.428,0S1059.532,73,1059.532,73Z" transform="translate(-759.7 -56.667)" fill="#846be2"/>
    <circle id="Ellipse_1121" data-name="Ellipse 1121" cx="3.01" cy="3.01" r="3.01" transform="translate(309.16 13.925)" fill="#ffd037"/>
    <circle id="Ellipse_1122" data-name="Ellipse 1122" cx="3.01" cy="3.01" r="3.01" transform="translate(303.742 12.42)" fill="#ffd037"/>
    <path id="Path_1732" data-name="Path 1732" d="M382.221,98.684c-1.171-14.5-7.769-28.483-18.123-36.67-11.083-8.765-25.082-10.4-37.694-15.652C313.38,40.926,301.795,31.58,288.9,25.753a76.693,76.693,0,0,0-66.15,1.5c-14.038,7.085-28.263,23.649-43.9,24.9-11.137.888-33.447-10.27-42.139.286-1.586,1.926-2.2,4.635-2.884,7.185-5.508,20.525-19.074,37.022-34.521,48.833-6.544,5-14.508,11.7-13.078,20.651.771,4.816,4.154,8.35,6.67,12.269a38.056,38.056,0,0,1,4.467,29.172c-.051.2-.105.391-.16.6l-6.574,3.341c-3.479,1.767-7.224,3.835-8.654,7.468-1.469,3.768.075,8.034,2.143,11.513,1.481,2.489,3.251,4.867,4.494,7.459a20.085,20.085,0,0,0,.379,2.528,19.5,19.5,0,0,0,1.2,3.654,21.826,21.826,0,0,1-3.612,11.739c-2.709,4.4-6.321,8.148-9.364,12.311-4.229,5.746-7.4,12.488-7.853,19.628S71.456,265.462,76.985,270c5.075,4.166,11.931,5.418,18.487,5.719q2.492.123,4.981.105c11.691,0,23.321-2.149,34.84-4.3l12.464-2.324a102.517,102.517,0,0,0,17.157-4.328,27.489,27.489,0,0,1-.665,3.4,32.507,32.507,0,0,0-1.174,10.02H224.43a.7.7,0,0,0,.033.154h38.022l-.066-.154h.066s-.581-1.83-1.357-5.162a11.318,11.318,0,0,0,2.471-1.625,12.04,12.04,0,0,0,4.136-4.635s1.83-32.76.042-51.365c19.706-13.111,36.625-32.321,57.318-43.527,10.758-5.806,22.466-9.418,32.432-16.925a60.59,60.59,0,0,0,14.255-15.429A66.687,66.687,0,0,0,382.221,98.684Z" transform="translate(-69.31 -18.91)" fill="url(#linear-gradient)"/>
    <path id="Path_1733" data-name="Path 1733" d="M185.919,62.255c-1.547,1.878-2.143,4.515-2.811,7-5.37,20.013-18.6,36.119-33.66,47.611-6.378,4.87-14.147,11.4-12.75,20.134.749,4.69,4.048,8.127,6.5,11.962a37.1,37.1,0,0,1,4.355,28.444c-2.787,10.893-10.571,21.07-8.16,32.074,1.487,6.79,6.532,11.606,11.384,15.754q11.351,9.7,23.426,18.171c5.4,3.787,11.137,7.471,17.425,7.949,5.538.424,10.962-1.68,16.218-3.759,4.593-1.806,9.3-3.705,13.012-7.344,2.408-2.375,4.352-5.442,7.04-7.383,6.321-4.566,14.43-1.671,21.672.274a75.465,75.465,0,0,0,51.651-4.729c24.949-11.739,43.966-36.345,68.362-49.556,10.493-5.683,21.906-9.207,31.622-16.525a59.072,59.072,0,0,0,13.9-15.05,65.04,65.04,0,0,0,10.18-39.921c-1.141-14.141-7.576-27.773-17.668-35.755-10.806-8.545-24.453-10.14-36.751-15.272-12.7-5.3-23.992-14.412-36.568-20.094A74.776,74.776,0,0,0,269.8,37.7c-13.686,6.908-27.556,23.059-42.8,24.272C216.136,62.857,194.4,51.976,185.919,62.255Z" transform="translate(-116.294 -26.358)" fill="#846be2"/>
    <path id="Path_1734" data-name="Path 1734" d="M657.94,380.06v.6A13.343,13.343,0,0,1,637.4,391.9a9.71,9.71,0,0,0,1.132.057,9.391,9.391,0,0,0,5.821-2,4.7,4.7,0,0,1-4.364-3.242,5.919,5.919,0,0,0,.885.072,4.959,4.959,0,0,0,1.234-.16,4.69,4.69,0,0,1-3.759-4.6v-.057a4.721,4.721,0,0,0,2.107.6,4.7,4.7,0,0,1-1.451-6.27,13.328,13.328,0,0,0,9.668,4.906,5.3,5.3,0,0,1-.117-1.075,4.693,4.693,0,0,1,8.127-3.209,9.23,9.23,0,0,0,2.977-1.132,4.675,4.675,0,0,1-2.062,2.583,9.4,9.4,0,0,0,2.709-.725,10.076,10.076,0,0,1-2.351,2.423Z" transform="translate(-466.402 -268.062)" opacity="0.2"/>
    <path id="Path_1735" data-name="Path 1735" d="M483.307,355.856c-9.806,28.676-8.693,38.347-8.693,38.347l2.107,16.254s-42.44,6.02-35.818-13.846c3.8-11.39,2.944-29.708,1.523-43.262C441.37,343.26,440,335.81,440,335.81l48.761,5.117C486.654,346.4,484.848,351.359,483.307,355.856Z" transform="translate(-328.419 -240.373)" fill="#ffd5d8"/>
    <path id="Path_1736" data-name="Path 1736" d="M488.761,340.927c-2.107,5.469-3.913,10.432-5.466,14.929a32.207,32.207,0,0,1-40.869-2.507C441.37,343.26,440,335.81,440,335.81Z" transform="translate(-328.419 -240.373)" opacity="0.1"/>
    <circle id="Ellipse_1123" data-name="Ellipse 1123" cx="32.206" cy="32.206" r="32.206" transform="translate(103.768 56.609)" fill="#ffd5d8"/>
    <path id="Path_1737" data-name="Path 1737" d="M548.963,512.22,530,504.094l3.311-25.284a40.936,40.936,0,0,1,8.148,1.806c7.3,2.366,17.157,7.708,19.231,19.513a.431.431,0,0,1,0,.06C564.012,519.444,548.963,512.22,548.963,512.22Z" transform="translate(-391.329 -340.331)" fill="#ffd5d8"/>
    <path id="Path_1738" data-name="Path 1738" d="M583.447,503.266l-2.546,3.823-10.2.68v-6.854s-2.444-7.973-2.444-8.575-4.075-7.751-4.075-7.751l-1.643-1.279,1.677.442C571.519,486.118,581.388,491.461,583.447,503.266Z" transform="translate(-414.075 -343.476)" opacity="0.05"/>
    <path id="Path_1739" data-name="Path 1739" d="M562.54,483.31l5.869,10.986v13.545l8.127,2.107L571.419,495.8S565.55,484.514,562.54,483.31Z" transform="translate(-414.075 -343.476)" fill="#846be2"/>
    <path id="Path_1740" data-name="Path 1740" d="M382.5,599.131h0a31.711,31.711,0,0,1,1.144-9.77c3.841-14.114-2.649-60.048-2.649-60.048s1.806-39.129,25.886-45.751c22.993-6.321,39.129,19.736,40.532,22.1.069.111.1.172.1.172l9.572-4.187.06-.027v.15c.075,2.14,1.722,6.36,4,11.239a142.669,142.669,0,0,1,8.994,25.208,145.839,145.839,0,0,1,4.337,29.046c.936,19.219,4.942,31.866,4.942,31.866Z" transform="translate(-287.177 -342.963)" fill="#846be2"/>
    <path id="Path_1741" data-name="Path 1741" d="M624.319,582.058l1.3,8.7-24.08-41.236.048-.021,9.584-4.193.09.178.063.123c.075,2.14,1.722,6.36,4,11.239A142.675,142.675,0,0,1,624.319,582.058Z" transform="translate(-441.336 -386.814)" opacity="0.1"/>
    <path id="Path_1742" data-name="Path 1742" d="M200.874,164.977c-12.69-1.433-26.117,1.68-36,9.773s-15.652,21.407-13.433,33.982c1.857,10.463,8.87,20.5,6.369,30.825-2.375,9.806-12.311,15.519-21.3,20.091L105.089,275.62c-3.392,1.725-7.055,3.738-8.428,7.281-1.433,3.675.072,7.826,2.089,11.224s4.59,6.565,5.532,10.4c1.2,4.885-.5,10.071-3.127,14.357s-6.158,7.946-9.129,12c-4.133,5.629-7.212,12.211-7.669,19.17s2.035,14.3,7.423,18.731c4.945,4.063,11.63,5.27,18.027,5.586,12.828.632,25.585-1.734,38.226-4.088l12.151-2.266c11.188-2.086,23.315-4.7,30.593-13.457,8.428-10.119,7.456-24.826,5.8-37.883S193.35,289.135,201,278.413c5-7.022,13.37-11.378,17.346-19.026,7.278-13.987-3.311-31.216.105-46.606.969-4.358,3.04-8.389,4.331-12.663,2.3-7.606,2.54-18.571-1.4-25.813C217.763,167.668,207.7,165.745,200.874,164.977Z" transform="translate(-79.785 -120.724)" opacity="0.1"/>
    <path id="Path_1743" data-name="Path 1743" d="M198.874,164.977c-12.69-1.433-26.117,1.68-36,9.773s-15.652,21.407-13.433,33.982c1.857,10.463,8.87,20.5,6.369,30.825-2.375,9.806-12.311,15.519-21.3,20.091L103.089,275.62c-3.392,1.725-7.055,3.738-8.428,7.281-1.433,3.675.072,7.826,2.089,11.224s4.59,6.565,5.532,10.4c1.2,4.885-.5,10.071-3.127,14.357s-6.158,7.946-9.129,12c-4.133,5.629-7.212,12.211-7.669,19.17s2.035,14.3,7.423,18.731c4.945,4.063,11.63,5.27,18.027,5.586,12.828.632,25.585-1.734,38.226-4.088l12.151-2.266c11.188-2.086,23.315-4.7,30.593-13.457,8.428-10.119,7.456-24.826,5.8-37.883S191.35,289.135,199,278.413c5-7.022,13.37-11.378,17.346-19.026,7.278-13.987-3.311-31.216.105-46.606.969-4.358,3.04-8.389,4.331-12.663,2.3-7.606,2.54-18.571-1.4-25.813C215.763,167.668,205.7,165.745,198.874,164.977Z" transform="translate(-78.387 -120.724)" fill="#846be2"/>
    <path id="Path_1744" data-name="Path 1744" d="M198.874,164.977c-12.69-1.433-26.117,1.68-36,9.773s-15.652,21.407-13.433,33.982c1.857,10.463,8.87,20.5,6.369,30.825-2.375,9.806-12.311,15.519-21.3,20.091L103.089,275.62c-3.392,1.725-7.055,3.738-8.428,7.281-1.433,3.675.072,7.826,2.089,11.224s4.59,6.565,5.532,10.4c1.2,4.885-.5,10.071-3.127,14.357s-6.158,7.946-9.129,12c-4.133,5.629-7.212,12.211-7.669,19.17s2.035,14.3,7.423,18.731c4.945,4.063,11.63,5.27,18.027,5.586,12.828.632,25.585-1.734,38.226-4.088l12.151-2.266c11.188-2.086,23.315-4.7,30.593-13.457,8.428-10.119,7.456-24.826,5.8-37.883S191.35,289.135,199,278.413c5-7.022,13.37-11.378,17.346-19.026,7.278-13.987-3.311-31.216.105-46.606.969-4.358,3.04-8.389,4.331-12.663,2.3-7.606,2.54-18.571-1.4-25.813C215.763,167.668,205.7,165.745,198.874,164.977Z" transform="translate(-78.387 -120.724)" opacity="0.1"/>
    <path id="Path_1745" data-name="Path 1745" d="M562.54,474.206l22.575,41.444,15.652-8.034s-27.992-37.925-31.6-37.323S562.54,474.206,562.54,474.206Z" transform="translate(-414.075 -334.373)" fill="#846be2"/>
    <path id="Path_1746" data-name="Path 1746" d="M635.171,456.025l-5.117-15.05s-3.612-37.022-17.759-38.226,3.612,39.43,3.612,39.43,6.321,11.739,3.913,20.468S635.171,456.025,635.171,456.025Z" transform="translate(-445.03 -287.145)" fill="#ffd5d8"/>
    <path id="Path_1747" data-name="Path 1747" d="M444.72,562.053,479.909,604.6s33.711,24.08,43.042,6.321c0,0,3.913-48.46-.6-59.9a127.455,127.455,0,0,1-6.02-18.662s-18.662,7.224-19.866,2.107l.451,48.912S475.7,505.267,455.227,514.9q-.427.2-.843.406C436.867,524.016,432.237,546.967,444.72,562.053Z" transform="translate(-326.79 -364.982)" opacity="0.1"/>
    <path id="Path_1748" data-name="Path 1748" d="M448.72,559.286l35.189,42.543s33.711,24.08,43.042,6.321c0,0,2.709-48.46-1.806-59.9s-4.816-18.662-4.816-18.662-18.662,7.224-19.866,2.107l.753,60.65S479.7,502.5,459.227,512.132q-.427.2-.843.406C440.867,521.249,436.237,544.2,448.72,559.286Z" transform="translate(-329.586 -363.118)" fill="#846be2"/>
    <circle id="Ellipse_1124" data-name="Ellipse 1124" cx="2.408" cy="2.408" r="2.408" transform="translate(205.955 32.379)" fill="#fff"/>
    <circle id="Ellipse_1125" data-name="Ellipse 1125" cx="1.204" cy="1.204" r="1.204" transform="translate(199.333 66.993)" fill="#fff"/>
    <circle id="Ellipse_1126" data-name="Ellipse 1126" cx="1.204" cy="1.204" r="1.204" transform="translate(154.184 33.583)" fill="#fff"/>
    <circle id="Ellipse_1127" data-name="Ellipse 1127" cx="1.204" cy="1.204" r="1.204" transform="translate(54.091 82.552)" fill="#fff"/>
    <circle id="Ellipse_1128" data-name="Ellipse 1128" cx="1.204" cy="1.204" r="1.204" transform="translate(123.784 169.632)" fill="#fff"/>
    <circle id="Ellipse_1129" data-name="Ellipse 1129" cx="1.204" cy="1.204" r="1.204" transform="translate(42.214 114.249)" fill="#fff"/>
    <circle id="Ellipse_1130" data-name="Ellipse 1130" cx="1.204" cy="1.204" r="1.204" transform="translate(251.405 42.613)" fill="#fff"/>
    <circle id="Ellipse_1131" data-name="Ellipse 1131" cx="1.204" cy="1.204" r="1.204" transform="translate(183.08 91.374)" fill="#fff"/>
    <circle id="Ellipse_1132" data-name="Ellipse 1132" cx="1.204" cy="1.204" r="1.204" transform="translate(286.02 75.722)" fill="#fff"/>
    <circle id="Ellipse_1133" data-name="Ellipse 1133" cx="1.204" cy="1.204" r="1.204" transform="translate(207.298 165.325)" fill="#fff"/>
    <path id="Path_1749" data-name="Path 1749" d="M826.648,258.4h-2.5v-2.5h-.418v2.5h-2.5v.418h2.5v2.5h.418v-2.5h2.5Z" transform="translate(-574.039 -178.823)" fill="#fff"/>
    <path id="Path_1750" data-name="Path 1750" d="M417.638,758.014h-1.111V756.9h-.187v1.114H415.23v.184h1.111v1.111h.187V758.2h1.111Z" transform="translate(-290.242 -529.025)" fill="#fff"/>
    <path id="Path_1751" data-name="Path 1751" d="M582.638,645.014h-1.114V643.9h-.184v1.114H580.23v.184h1.111v1.111h.184V645.2h1.114Z" transform="translate(-405.578 -450.038)" fill="#fff"/>
    <path id="Path_1752" data-name="Path 1752" d="M828.638,415.014h-1.114V413.9h-.184v1.114H826.23v.184h1.111v1.111h.184V415.2h1.114Z" transform="translate(-577.534 -289.266)" fill="#fff"/>
    <path id="Path_1753" data-name="Path 1753" d="M660.638,473.014h-1.114V471.9h-.184v1.114H658.23v.184h1.111v1.111h.184V473.2h1.114Z" transform="translate(-460.101 -329.809)" fill="#fff"/>
    <path id="Path_1754" data-name="Path 1754" d="M185.638,411.014h-1.114V409.9h-.184v1.114H183.23v.184h1.111v1.111h.184V411.2h1.114Z" transform="translate(-128.073 -286.47)" fill="#fff"/>
    <path id="Path_1755" data-name="Path 1755" d="M586.638,176.014h-1.114V174.9h-.184v1.114H584.23v.184h1.111v1.111h.184V176.2h1.114Z" transform="translate(-408.374 -122.204)" fill="#fff"/>
    <path id="Path_1756" data-name="Path 1756" d="M263.638,141.014h-1.111V139.9h-.187v1.114H261.23v.184h1.111v1.111h.187V141.2h1.111Z" transform="translate(-182.596 -97.739)" fill="#fff"/>
    <path id="Path_1757" data-name="Path 1757" d="M786.277,172.4l-1.737,4.434V194.96H790.7v3.275h3.471l3.275-3.275h5.018l6.748-6.748V172.4Zm20.633,14.652-3.871,3.859h-6.17l-3.275,3.275v-3.275h-5.207v-16.2H806.9Zm-3.871-7.907v6.742h-2.312v-6.742Zm-6.17,0v6.742h-2.312v-6.742Z" transform="translate(-569.254 -126.148)" opacity="0.2"/>
    <path id="Path_1758" data-name="Path 1758" d="M916.711,304.468,911.76,302.4l6.622-15.938,4.951,2.056Zm5.054-19.14a3.118,3.118,0,1,1,4.07-1.7A3.118,3.118,0,0,1,921.765,285.328Zm13.479,26.84-4.939-2.053,3.224-7.757c.768-1.848,1.716-4.235-.819-5.288s-3.8.777-4.665,2.853l-3.287,7.9-4.945-2.056,6.622-15.938,4.747,1.971-.9,2.173.069.03a5.626,5.626,0,0,1,5.752-.626c5.009,2.08,4.56,5.761,2.781,10.047l-3.639,8.753Z" transform="translate(-658.181 -200.889)" opacity="0.2"/>
    <path id="Path_1759" data-name="Path 1759" d="M619.291,75a4.915,4.915,0,1,0,3.491,1.434A4.924,4.924,0,0,0,619.291,75Zm0,8.127a3.2,3.2,0,1,1,3.2-3.2A3.2,3.2,0,0,1,619.291,83.128Zm6.273-8.326a1.147,1.147,0,1,1-.337-.815,1.15,1.15,0,0,1,.337.815Zm3.26,1.165a5.315,5.315,0,0,0-5.574-5.574c-1.586-.09-6.339-.09-7.922,0a5.311,5.311,0,0,0-5.574,5.571c-.09,1.586-.09,6.339,0,7.922a5.315,5.315,0,0,0,5.574,5.574c1.586.09,6.339.09,7.922,0a5.315,5.315,0,0,0,5.574-5.574C628.914,82.3,628.914,77.565,628.824,75.967ZM626.777,85.6a3.242,3.242,0,0,1-1.824,1.824c-1.264.5-4.265.385-5.662.385s-4.4.111-5.662-.385a3.242,3.242,0,0,1-1.824-1.824c-.5-1.264-.385-4.265-.385-5.662s-.111-4.4.385-5.662a3.242,3.242,0,0,1,1.824-1.824c1.264-.5,4.265-.385,5.662-.385s4.4-.111,5.662.385a3.242,3.242,0,0,1,1.824,1.824c.5,1.264.385,4.265.385,5.662s.114,4.388-.385,5.641Z" transform="translate(-447.029 -54.797)" opacity="0.2"/>
    <path id="Path_1760" data-name="Path 1760" d="M812.406,451.456v17.671a1.1,1.1,0,0,1-1.1,1.1h-5.063v-7.705h2.579l.385-3.01h-2.971v-1.914c0-.87.241-1.46,1.487-1.46h1.586v-2.682a21.34,21.34,0,0,0-2.315-.12,3.615,3.615,0,0,0-3.859,3.964v2.212h-2.589v3.01h2.589v7.693h-9.505a1.1,1.1,0,0,1-1.1-1.1V451.456a1.1,1.1,0,0,1,1.1-1.1h17.671A1.1,1.1,0,0,1,812.406,451.456Z" transform="translate(-574.846 -320.444)" opacity="0.2"/>
    <path id="Path_1761" data-name="Path 1761" d="M962.238,179.137a3.157,3.157,0,0,0-1.637-2.694c-1.782-.972-9.418-2.811-9.418-2.811s-7.639-1.839-9.668-1.785a3.158,3.158,0,0,0-2.682,1.652,33.431,33.431,0,0,0-1.935,5.794,32.4,32.4,0,0,0-.9,6.041,3.109,3.109,0,0,0,1.643,2.658c1.782.972,9.418,2.811,9.418,2.811s7.639,1.839,9.668,1.785a3.109,3.109,0,0,0,2.676-1.619,35.155,35.155,0,0,0,2.838-11.832Zm-16.5,6.131,1.749-7.263L953,183.174l-7.257,2.107Z" transform="translate(-675.119 -125.761)" opacity="0.2"/>
  </g>
</svg>
