<svg xmlns="http://www.w3.org/2000/svg" xmlns:xlink="http://www.w3.org/1999/xlink" width="229.554" height="174.004" viewBox="0 0 229.554 174.004">
  <defs>
    <linearGradient id="linear-gradient" x1="0.5" y1="1" x2="0.5" gradientUnits="objectBoundingBox">
      <stop offset="0" stop-color="gray" stop-opacity="0.251"/>
      <stop offset="0.54" stop-color="gray" stop-opacity="0.122"/>
      <stop offset="1" stop-color="gray" stop-opacity="0.102"/>
    </linearGradient>
    <linearGradient id="linear-gradient-2" y1="1" y2="0" xlink:href="#linear-gradient"/>
    <linearGradient id="linear-gradient-3" x1="0" y1="0.5" x2="1" y2="0.5" xlink:href="#linear-gradient"/>
    <linearGradient id="linear-gradient-4" x1="2.581" y1="1" x2="2.581" y2="0" xlink:href="#linear-gradient"/>
    <linearGradient id="linear-gradient-5" y1="1" y2="0" xlink:href="#linear-gradient"/>
    <linearGradient id="linear-gradient-6" x1="-25.357" y1="1.001" x2="-25.357" y2="0" xlink:href="#linear-gradient"/>
  </defs>
  <g id="undraw_people_search_wctu_1_" data-name="undraw_people_search_wctu (1)" transform="translate(0 0.006)">
    <path id="Path_1763" data-name="Path 1763" d="M259.033,118.315c-8.071,11.074-5.407,26.881-.742,39.475,1.563,4.216,3.337,8.675,2.527,13.261-.99,5.607-5.64,9.808-10.474,12.1a27.756,27.756,0,0,1-27.106-1.75c-6.8-4.535-11.592-12.072-18.526-16.391-11.606-7.225-26.673-4-39.59,1.519-9.138,3.9-19.149,8.928-28.054,5.325-6.267-2.536-10.487-8.99-12.707-15.89-1.072-3.331-1.822-6.947-3.958-9.555a14.611,14.611,0,0,0-4.673-3.533c-15.747-8.246-36-3.092-51.27-12.292-10.307-6.213-16.722-18.271-19.388-30.946s-2.006-26.057-.944-39.209c.754-9.347,1.948-19.334,7.568-26.679,5.943-7.765,15.9-10.851,24.812-9.635s16.894,6.164,23.88,12.07c8.738,7.368,16.778,16.617,27.646,19.415,7.4,1.9,15.267.557,22.962-.039,12.863-.994,25.682.15,38.421,1.443,12.2,1.237,24.476,2.618,36.026,6.673,8.174,2.87,14.653,8.293,22.348,12,5.015,2.416,10.534,2.977,15.255,6.1,5.826,3.845,11.091,10.656,9.382,18.829C270.812,108.368,263.321,112.438,259.033,118.315Z" transform="translate(-43.2 -23.86)" fill="#846be2" opacity="0.1"/>
    <g id="Group_2957" data-name="Group 2957" transform="translate(162.807 73.755)" opacity="0.5">
      <path id="Path_1764" data-name="Path 1764" d="M898.19,502.4s.68-20.153,11.583-31.54a30.548,30.548,0,0,0,8.378-17.415,51.387,51.387,0,0,0,.256-9.394" transform="translate(-884.745 -431.19)" fill="none" stroke="#535461" stroke-miterlimit="10" stroke-width="2"/>
      <path id="Path_1765" data-name="Path 1765" d="M997.343,387.313c-.746,2.251-6.984,7.421-6.984,7.421s-1.911-7.877-1.165-10.126a4.293,4.293,0,1,1,8.149,2.7Z" transform="translate(-956.852 -381.666)" fill="#846be2"/>
      <path id="Path_1766" data-name="Path 1766" d="M1003.895,450.514C1002.04,452,994,452.951,994,452.951s2.68-7.65,4.535-9.132a4.292,4.292,0,1,1,5.36,6.7Z" transform="translate(-960.805 -430.169)" fill="#846be2"/>
      <path id="Path_1767" data-name="Path 1767" d="M968.683,550.345c-2.346.346-9.773-2.886-9.773-2.886s6.172-5.253,8.518-5.6a4.293,4.293,0,0,1,1.255,8.493Z" transform="translate(-932.948 -508.8)" fill="#846be2"/>
      <path id="Path_1768" data-name="Path 1768" d="M922.812,622.7c-2.253.738-10.122-1.2-10.122-1.2s5.2-6.219,7.45-6.957a4.293,4.293,0,0,1,2.68,8.157Z" transform="translate(-896.256 -566.363)" fill="#846be2"/>
      <path id="Path_1769" data-name="Path 1769" d="M949.952,456.361c1.095,2.1,8.083,6.219,8.083,6.219s.635-8.079-.46-10.184a4.292,4.292,0,0,0-7.615,3.962Z" transform="translate(-925.458 -435.981)" fill="#846be2"/>
      <path id="Path_1770" data-name="Path 1770" d="M895.961,536.878c1.674,1.68,9.565,3.519,9.565,3.519s-1.812-7.9-3.484-9.58a4.292,4.292,0,1,0-6.081,6.059Z" transform="translate(-881.982 -499.068)" fill="#846be2"/>
      <path id="Path_1771" data-name="Path 1771" d="M859.164,627.578c1.365,1.938,8.833,5.086,8.833,5.086s-.449-8.091-1.816-10.031a4.292,4.292,0,1,0-7.009,4.948Z" transform="translate(-853.081 -571.423)" fill="#846be2"/>
      <path id="Path_1772" data-name="Path 1772" d="M871.435,563.751s-6.184-9-5.1-17.46a16.541,16.541,0,0,0-1.954-10.278,27.835,27.835,0,0,0-2.911-4.172" transform="translate(-855.595 -500.882)" fill="none" stroke="#535461" stroke-miterlimit="10" stroke-width="2"/>
      <path id="Path_1773" data-name="Path 1773" d="M847.183,499.776c.4,1.22-.654,5.479-.654,5.479s-3.366-2.816-3.764-4.034a2.324,2.324,0,0,1,4.418-1.443Z" transform="translate(-840.654 -474.157)" fill="#846be2"/>
      <path id="Path_1774" data-name="Path 1774" d="M875.559,521.687c-.328,1.237-3.527,4.245-3.527,4.245s-1.295-4.193-.967-5.434a2.324,2.324,0,0,1,4.494,1.189Z" transform="translate(-863.17 -490.504)" fill="#846be2"/>
      <path id="Path_1775" data-name="Path 1775" d="M890.637,573.9c-.909.9-5.187,1.884-5.187,1.884s1-4.273,1.909-5.178a2.325,2.325,0,0,1,3.278,3.3Z" transform="translate(-874.632 -531.122)" fill="#846be2"/>
      <path id="Path_1776" data-name="Path 1776" d="M895.8,620.61c-.744,1.045-4.8,2.729-4.8,2.729s.262-4.381,1.006-5.426a2.324,2.324,0,0,1,3.789,2.692Z" transform="translate(-879.037 -568.436)" fill="#846be2"/>
      <path id="Path_1777" data-name="Path 1777" d="M848.821,545.013c1.152.565,5.516.111,5.516.111s-2.323-3.723-3.476-4.286a2.323,2.323,0,1,0-2.041,4.174Z" transform="translate(-844.518 -507.838)" fill="#846be2"/>
      <path id="Path_1778" data-name="Path 1778" d="M851.225,597.484c1.27.194,5.3-1.544,5.3-1.544s-3.331-2.857-4.6-3.043a2.324,2.324,0,1,0-.7,4.595Z" transform="translate(-845.894 -549.332)" fill="#846be2"/>
      <path id="Path_1779" data-name="Path 1779" d="M864.639,648.9c1.218.412,5.483-.618,5.483-.618s-2.8-3.379-4.018-3.785a2.324,2.324,0,1,0-1.466,4.411Z" transform="translate(-856.847 -590.224)" fill="#846be2"/>
      <path id="Path_1780" data-name="Path 1780" d="M847.183,499.776c.4,1.22-.654,5.479-.654,5.479s-3.366-2.816-3.764-4.034a2.324,2.324,0,0,1,4.418-1.443Z" transform="translate(-840.654 -474.157)" fill="#fff" opacity="0.5"/>
      <path id="Path_1781" data-name="Path 1781" d="M875.559,521.687c-.328,1.237-3.527,4.245-3.527,4.245s-1.295-4.193-.967-5.434a2.324,2.324,0,0,1,4.494,1.189Z" transform="translate(-863.17 -490.504)" fill="#fff" opacity="0.5"/>
      <path id="Path_1782" data-name="Path 1782" d="M890.637,573.9c-.909.9-5.187,1.884-5.187,1.884s1-4.273,1.909-5.178a2.325,2.325,0,0,1,3.278,3.3Z" transform="translate(-874.632 -531.122)" fill="#fff" opacity="0.5"/>
      <path id="Path_1783" data-name="Path 1783" d="M895.8,620.61c-.744,1.045-4.8,2.729-4.8,2.729s.262-4.381,1.006-5.426a2.324,2.324,0,0,1,3.789,2.692Z" transform="translate(-879.037 -568.436)" fill="#fff" opacity="0.5"/>
      <path id="Path_1784" data-name="Path 1784" d="M848.821,545.013c1.152.565,5.516.111,5.516.111s-2.323-3.723-3.476-4.286a2.323,2.323,0,1,0-2.041,4.174Z" transform="translate(-844.518 -507.838)" fill="#fff" opacity="0.5"/>
      <path id="Path_1785" data-name="Path 1785" d="M851.225,597.484c1.27.194,5.3-1.544,5.3-1.544s-3.331-2.857-4.6-3.043a2.324,2.324,0,1,0-.7,4.595Z" transform="translate(-845.894 -549.332)" fill="#fff" opacity="0.5"/>
      <path id="Path_1786" data-name="Path 1786" d="M864.639,648.9c1.218.412,5.483-.618,5.483-.618s-2.8-3.379-4.018-3.785a2.324,2.324,0,1,0-1.466,4.411Z" transform="translate(-856.847 -590.224)" fill="#fff" opacity="0.5"/>
      <path id="Path_1787" data-name="Path 1787" d="M794.167,677.806h17.59l4.4-26.826H789.77Z" transform="translate(-789.77 -590.544)" fill="#474059"/>
      <path id="Path_1788" data-name="Path 1788" d="M793.136,650.98l4.108,25.067h14.8l-.289,1.758h-17.59l-4.4-26.826Z" transform="translate(-789.77 -590.544)" opacity="0.1"/>
    </g>
    <rect id="Rectangle_1000" data-name="Rectangle 1000" width="129.047" height="155.701" transform="translate(41.493 8.095)" fill="url(#linear-gradient)"/>
    <rect id="Rectangle_1001" data-name="Rectangle 1001" width="125.748" height="151.722" transform="translate(43.142 10.086)" fill="#fff"/>
    <rect id="Rectangle_1002" data-name="Rectangle 1002" width="50.712" height="2.474" transform="translate(91.998 27.196)" fill="#c0bccf"/>
    <rect id="Rectangle_1003" data-name="Rectangle 1003" width="50.712" height="2.474" transform="translate(91.998 35.03)" fill="#c0bccf"/>
    <rect id="Rectangle_1004" data-name="Rectangle 1004" width="26.387" height="2.474" transform="translate(104.161 42.863)" fill="#846be2"/>
    <rect id="Rectangle_1005" data-name="Rectangle 1005" width="50.712" height="2.474" transform="translate(91.998 76.877)" fill="#c0bccf" opacity="0.5"/>
    <rect id="Rectangle_1006" data-name="Rectangle 1006" width="50.712" height="2.474" transform="translate(91.998 84.71)" fill="#c0bccf" opacity="0.5"/>
    <rect id="Rectangle_1007" data-name="Rectangle 1007" width="26.387" height="2.474" transform="translate(104.161 92.544)" fill="#846be2" opacity="0.5"/>
    <rect id="Rectangle_1008" data-name="Rectangle 1008" width="50.712" height="2.474" transform="translate(91.998 126.558)" fill="#c0bccf" opacity="0.5"/>
    <rect id="Rectangle_1009" data-name="Rectangle 1009" width="50.712" height="2.474" transform="translate(91.998 134.391)" fill="#c0bccf" opacity="0.5"/>
    <rect id="Rectangle_1010" data-name="Rectangle 1010" width="26.387" height="2.474" transform="translate(104.161 142.225)" fill="#846be2" opacity="0.5"/>
    <g id="Group_2958" data-name="Group 2958" transform="translate(49.945 71.927)" opacity="0.5">
      <path id="Path_1789" data-name="Path 1789" d="M313.516,386.816a13.952,13.952,0,0,1-3.375,9.122c-.107.126-.219.249-.332.371q-.085.095-.173.186a13.757,13.757,0,0,1-1.5,1.358l-.037.027a13.7,13.7,0,0,1-2.659,1.633h0a13.81,13.81,0,0,1-1.492.6l-.188.06c-.115.039-.235.074-.352.107l-.047.014a14.086,14.086,0,0,1-7.741,0H295.6c-.206-.06-.412-.122-.6-.19l-.175-.062a13.592,13.592,0,0,1-1.938-.858l-.039-.021a14.072,14.072,0,0,1-2.746-1.944l-.068-.064a13.1,13.1,0,0,1-1.2-1.237c-.049-.056-.1-.113-.144-.171-.091-.107-.177-.219-.264-.33a14.018,14.018,0,1,1,25.088-8.6Z" transform="translate(-285.48 -372.798)" fill="#c0bccf"/>
      <path id="Path_1790" data-name="Path 1790" d="M321.031,403.437l-1.064-.478a4.217,4.217,0,0,0,.021-.486,3.823,3.823,0,0,0,0-.412,9.3,9.3,0,0,0-1.284-3.02,8.578,8.578,0,0,1-.839-2.886,13.949,13.949,0,0,0-.454-3.682,6.644,6.644,0,0,0-1.88-2.414,9.543,9.543,0,0,0-3.02-1.915,5.341,5.341,0,0,0-3.6-.1,7.762,7.762,0,0,0-2.591,1.872,8.71,8.71,0,0,0-1.464,1.666,7.2,7.2,0,0,0-.825,2.519,38.534,38.534,0,0,0-.507,4.209c-.08,1.177-.206,2.513-1.212,3.234-.491.353-1.181.55-1.406,1.084a1.109,1.109,0,0,0-.074.505,1.854,1.854,0,0,0,.031.427c.014.082.031.163.052.245a18.088,18.088,0,0,0-.726,2.2c-.15.557-.289,1.1-.412,1.633h.511l1.921.045h.027l2.061.047h.01l1.921.045h.047l.555.039h.181L314.7,408h.041l.511.012h.179l1.538.035h0l2.268.052h.016l1.707.041h.532l-.091-1.789C321.776,403.608,321.031,403.437,321.031,403.437Zm-8.631-.219c0,1.517-1.624,3.375-1.624,3.375l-1.635-2.226.06-.087,1.575,2.144s1.624-1.855,1.624-3.375a1.782,1.782,0,0,1,.13-.223l.037.115A2.191,2.191,0,0,0,312.4,403.219Zm2.5,5.953a1.241,1.241,0,0,0-.014-.231c-.014-.076-.012-.144-.023-.219s-.019-.146-.029-.221-.025-.146-.039-.221-.029-.146-.045-.221a.345.345,0,0,0-.017-.074q-.034-.145-.074-.291c-.027-.1-.043-.157-.068-.233a.317.317,0,0,0-.033-.1c-.012-.033-.035-.111-.054-.167l-.037-.107c-.017-.047-.033-.1-.052-.144-.031-.087-.064-.171-.1-.258s-.068-.171-.1-.256c-.07-.173-.146-.344-.223-.517-.3-.668-.635-1.326-.944-1.977a10.512,10.512,0,0,1-.441-1.047l-.039.052a2.19,2.19,0,0,0-.167.278c0,1.517-1.624,3.375-1.624,3.375l-1.635-2.226-1.431,2.061a1.668,1.668,0,0,0-.573.952c-.045.134-.089.282-.13.437-.029.105-.056.206-.08.324-.014.056-.027.111-.039.169l-.037.175v.027c-.025.12-.049.243-.072.369s-.049.27-.072.412q-.025.134-.043.266c-.029.171-.054.344-.078.517-.014.1-.029.206-.041.3l-.049.383c.105.315.223.618.344.936a1.471,1.471,0,0,1,.134.53,15.024,15.024,0,0,0,7.741,0,.073.073,0,0,1,0-.019,2.152,2.152,0,0,1-.049-.526h0a13.585,13.585,0,0,1,.206-1.476,5.046,5.046,0,0,0,.039-.726v-.087c-.006-.078-.008-.148-.01-.216Zm0,0a1.241,1.241,0,0,0-.014-.231c-.014-.076-.012-.144-.023-.219s-.019-.146-.029-.221-.025-.146-.039-.221-.029-.146-.045-.221a.345.345,0,0,0-.017-.074q-.034-.145-.074-.291c-.027-.1-.043-.157-.068-.233a.317.317,0,0,0-.033-.1c-.012-.033-.035-.111-.054-.167l-.037-.107c-.017-.047-.033-.1-.052-.144-.031-.087-.064-.171-.1-.258s-.068-.171-.1-.256c-.07-.173-.146-.344-.223-.517-.3-.668-.635-1.326-.944-1.977a10.512,10.512,0,0,1-.441-1.047l-.039.052a2.19,2.19,0,0,0-.167.278c0,1.517-1.624,3.375-1.624,3.375l-1.635-2.226-1.431,2.061a1.668,1.668,0,0,0-.573.952c-.045.134-.089.282-.13.437-.029.105-.056.206-.08.324-.014.056-.027.111-.039.169l-.037.175v.027c-.025.12-.049.243-.072.369s-.049.27-.072.412q-.025.134-.043.266c-.029.171-.054.344-.078.517-.014.1-.029.206-.041.3l-.049.383c.105.315.223.618.344.936a1.471,1.471,0,0,1,.134.53,15.024,15.024,0,0,0,7.741,0,.073.073,0,0,1,0-.019,2.152,2.152,0,0,1-.049-.526h0a13.585,13.585,0,0,1,.206-1.476,5.046,5.046,0,0,0,.039-.726v-.087c-.006-.078-.008-.148-.01-.216Zm0,0a1.241,1.241,0,0,0-.014-.231c-.014-.076-.012-.144-.023-.219s-.019-.146-.029-.221-.025-.146-.039-.221-.029-.146-.045-.221a.345.345,0,0,0-.017-.074q-.034-.145-.074-.291c-.027-.1-.043-.157-.068-.233a.317.317,0,0,0-.033-.1c-.012-.033-.035-.111-.054-.167l-.037-.107c-.017-.047-.033-.1-.052-.144-.031-.087-.064-.171-.1-.258s-.068-.171-.1-.256c-.07-.173-.146-.344-.223-.517-.3-.668-.635-1.326-.944-1.977a10.512,10.512,0,0,1-.441-1.047l-.039.052a2.19,2.19,0,0,0-.167.278c0,1.517-1.624,3.375-1.624,3.375l-1.635-2.226-1.431,2.061a1.668,1.668,0,0,0-.573.952c-.045.134-.089.282-.13.437-.029.105-.056.206-.08.324-.014.056-.027.111-.039.169l-.037.175v.027c-.025.12-.049.243-.072.369s-.049.27-.072.412q-.025.134-.043.266c-.029.171-.054.344-.078.517-.014.1-.029.206-.041.3l-.049.383c.105.315.223.618.344.936a1.471,1.471,0,0,1,.134.53,15.024,15.024,0,0,0,7.741,0,.073.073,0,0,1,0-.019,2.152,2.152,0,0,1-.049-.526h0a13.585,13.585,0,0,1,.206-1.476,5.046,5.046,0,0,0,.039-.726v-.087c-.006-.078-.008-.148-.01-.216Zm0,0a1.241,1.241,0,0,0-.014-.231c-.014-.076-.012-.144-.023-.219s-.019-.146-.029-.221-.025-.146-.039-.221-.029-.146-.045-.221a.345.345,0,0,0-.017-.074q-.034-.145-.074-.291c-.027-.1-.043-.157-.068-.233a.317.317,0,0,0-.033-.1c-.012-.033-.035-.111-.054-.167l-.037-.107c-.017-.047-.033-.1-.052-.144-.031-.087-.064-.171-.1-.258s-.068-.171-.1-.256c-.07-.173-.146-.344-.223-.517-.3-.668-.635-1.326-.944-1.977a10.512,10.512,0,0,1-.441-1.047l-.039.052a2.19,2.19,0,0,0-.167.278c0,1.517-1.624,3.375-1.624,3.375l-1.635-2.226-1.431,2.061a1.668,1.668,0,0,0-.573.952c-.045.134-.089.282-.13.437-.029.105-.056.206-.08.324-.014.056-.027.111-.039.169l-.037.175v.027c-.025.12-.049.243-.072.369s-.049.27-.072.412q-.025.134-.043.266c-.029.171-.054.344-.078.517-.014.1-.029.206-.041.3l-.049.383c.105.315.223.618.344.936a1.471,1.471,0,0,1,.134.53,15.024,15.024,0,0,0,7.741,0,.073.073,0,0,1,0-.019,2.152,2.152,0,0,1-.049-.526h0a13.585,13.585,0,0,1,.206-1.476,5.046,5.046,0,0,0,.039-.726v-.087c-.006-.078-.008-.148-.01-.216Z" transform="translate(-296.832 -384.69)" fill="url(#linear-gradient-2)"/>
      <rect id="Rectangle_1011" data-name="Rectangle 1011" width="9.483" height="6.39" transform="translate(8.658 10.104)" fill="#493545"/>
      <path id="Path_1791" data-name="Path 1791" d="M338.144,433.089l-3.968,5.591-4.148-.361s-5.411.359-1.8-3.787a8.9,8.9,0,0,0,2.422-4.84,3.748,3.748,0,0,0-.258-2.012l4.508-.54a3.364,3.364,0,0,0-.074,1.882C335.388,431.364,338.144,433.089,338.144,433.089Z" transform="translate(-318.428 -415.938)" fill="#c77485"/>
      <path id="Path_1792" data-name="Path 1792" d="M347.924,429a4.506,4.506,0,0,1-4.177.672,3.748,3.748,0,0,0-.258-2.012l4.508-.54a3.364,3.364,0,0,0-.074,1.88Z" transform="translate(-331.532 -415.922)" opacity="0.1"/>
      <circle id="Ellipse_1134" data-name="Ellipse 1134" cx="4.508" cy="4.508" r="4.508" transform="translate(9.165 4.795)" fill="#c77485"/>
      <path id="Path_1793" data-name="Path 1793" d="M333.4,450.45l-.105-.412-.091-.363-.134-.536-.025-.1-.021-.082s.107-.324-.6-.219l-.132.023c-.111.023-.241.054-.39.095l-.134.041-.177.056h0a3.865,3.865,0,0,0-1.5.9,3.369,3.369,0,0,0-.5.606c-.014.021-.025.039-.037.056a1.946,1.946,0,0,0-.13.239c0,1.624-1.624,3.608-1.624,3.608l-1.585-2.29-.031-.045-.377-.548-.134-.177-.045-.062-.825-1.107-.206-.276-.068-.093-.1-.134-.237-.315-.928.542-1.237.721-.721,4.69v.13l.023.388.15,2.548v.035l-.264,1.055.039.021a13.591,13.591,0,0,0,1.938.858l.175.062c.206.068.4.13.6.19a.729.729,0,0,1,.016.093v-.089a14.086,14.086,0,0,0,7.741,0l.047-.014c.118-.033.237-.068.353-.107l.188-.06a13.819,13.819,0,0,0,1.492-.6l.173-3.69.124-2.661v-.153Z" transform="translate(-313.852 -433.068)" opacity="0.1"/>
      <path id="Path_1794" data-name="Path 1794" d="M332.094,458.008a1.423,1.423,0,0,0-.014-.247c-.014-.082-.012-.155-.023-.233s-.019-.157-.029-.235-.025-.157-.039-.235-.029-.157-.045-.235a.353.353,0,0,0-.016-.078c-.023-.1-.047-.206-.074-.311s-.043-.167-.068-.249a.351.351,0,0,0-.033-.109c-.012-.035-.035-.12-.054-.179l-.037-.115c-.016-.052-.033-.1-.052-.155-.031-.093-.064-.183-.1-.276s-.068-.183-.1-.274c-.07-.186-.146-.369-.223-.552-.3-.713-.635-1.416-.944-2.113a11.682,11.682,0,0,1-.441-1.119l-.039.056a2.383,2.383,0,0,0-.167.3c0,1.622-1.624,3.608-1.624,3.608l-1.635-2.381-1.431,2.2a1.8,1.8,0,0,0-.573,1.018c-.045.144-.089.3-.13.468-.029.111-.056.229-.08.346-.014.06-.027.12-.039.181l-.037.188v.029c-.025.128-.049.26-.072.394s-.049.289-.072.435q-.025.142-.043.284c-.029.183-.054.369-.078.552-.014.107-.029.206-.041.32l-.049.412c.105.338.223.672.344,1a1.661,1.661,0,0,1,.134.567,14.086,14.086,0,0,0,7.741,0,.078.078,0,0,1,0-.021,2.455,2.455,0,0,1-.049-.563h0a15.469,15.469,0,0,1,.206-1.577,5.775,5.775,0,0,0,.039-.775v-.093C332.1,458.156,332.1,458.082,332.094,458.008Zm0,0a1.423,1.423,0,0,0-.014-.247c-.014-.082-.012-.155-.023-.233s-.019-.157-.029-.235-.025-.157-.039-.235-.029-.157-.045-.235a.353.353,0,0,0-.016-.078c-.023-.1-.047-.206-.074-.311s-.043-.167-.068-.249a.351.351,0,0,0-.033-.109c-.012-.035-.035-.12-.054-.179l-.037-.115c-.016-.052-.033-.1-.052-.155-.031-.093-.064-.183-.1-.276s-.068-.183-.1-.274c-.07-.186-.146-.369-.223-.552-.3-.713-.635-1.416-.944-2.113a11.682,11.682,0,0,1-.441-1.119l-.039.056a2.383,2.383,0,0,0-.167.3c0,1.622-1.624,3.608-1.624,3.608l-1.635-2.381-1.431,2.2a1.8,1.8,0,0,0-.573,1.018c-.045.144-.089.3-.13.468-.029.111-.056.229-.08.346-.014.06-.027.12-.039.181l-.037.188v.029c-.025.128-.049.26-.072.394s-.049.289-.072.435q-.025.142-.043.284c-.029.183-.054.369-.078.552-.014.107-.029.206-.041.32l-.049.412c.105.338.223.672.344,1a1.661,1.661,0,0,1,.134.567,14.086,14.086,0,0,0,7.741,0,.078.078,0,0,1,0-.021,2.455,2.455,0,0,1-.049-.563h0a15.469,15.469,0,0,1,.206-1.577,5.775,5.775,0,0,0,.039-.775v-.093C332.1,458.156,332.1,458.082,332.094,458.008Zm0,0a1.423,1.423,0,0,0-.014-.247c-.014-.082-.012-.155-.023-.233s-.019-.157-.029-.235-.025-.157-.039-.235-.029-.157-.045-.235a.353.353,0,0,0-.016-.078c-.023-.1-.047-.206-.074-.311s-.043-.167-.068-.249a.351.351,0,0,0-.033-.109c-.012-.035-.035-.12-.054-.179l-.037-.115c-.016-.052-.033-.1-.052-.155-.031-.093-.064-.183-.1-.276s-.068-.183-.1-.274c-.07-.186-.146-.369-.223-.552-.3-.713-.635-1.416-.944-2.113a11.682,11.682,0,0,1-.441-1.119l-.039.056a2.383,2.383,0,0,0-.167.3c0,1.622-1.624,3.608-1.624,3.608l-1.635-2.381-1.431,2.2a1.8,1.8,0,0,0-.573,1.018c-.045.144-.089.3-.13.468-.029.111-.056.229-.08.346-.014.06-.027.12-.039.181l-.037.188v.029c-.025.128-.049.26-.072.394s-.049.289-.072.435q-.025.142-.043.284c-.029.183-.054.369-.078.552-.014.107-.029.206-.041.32l-.049.412c.105.338.223.672.344,1a1.661,1.661,0,0,1,.134.567,14.086,14.086,0,0,0,7.741,0,.078.078,0,0,1,0-.021,2.455,2.455,0,0,1-.049-.563h0a15.469,15.469,0,0,1,.206-1.577,5.775,5.775,0,0,0,.039-.775v-.093C332.1,458.156,332.1,458.082,332.094,458.008Zm2.185-3.869-.736-2.938-.126-.5-.035-.138h0l-.179-.717a.139.139,0,0,0,0-.019h0a.165.165,0,0,0-.014-.093c-.027-.054-.095-.109-.254-.124a1.286,1.286,0,0,0-.181,0h0a3.14,3.14,0,0,0-.53.1c-.085.023-.175.047-.272.078l-.177.056h-.016a3.932,3.932,0,0,0-1.3.721,3.5,3.5,0,0,0-.66.73l-.039.056a2.379,2.379,0,0,0-.167.3c0,1.622-1.624,3.608-1.624,3.608l-1.635-2.381-.093-.134-.016-.023-.237-.348-.179-.239-.047-.062-.845-1.128h0l-.268-.365v-.012l-.093-.126-.177-.235-.618.361-1.546.9-.713,4.64v.049l.021.338.153,2.583v.146l-.233.93a13.6,13.6,0,0,0,1.938.858l.175.062c.206.068.4.13.6.19a.734.734,0,0,1,.016.093v-.089a14.086,14.086,0,0,0,7.741,0l.047-.014c.117-.033.237-.068.353-.107l.188-.06a13.81,13.81,0,0,0,1.492-.6h0l.171-3.686.124-2.632Zm-10.138,7.118a.729.729,0,0,1,.016.093v-.089Zm7.953-3.249a1.423,1.423,0,0,0-.014-.247c-.014-.082-.012-.155-.023-.233s-.019-.157-.029-.235-.025-.157-.039-.235-.029-.157-.045-.235a.353.353,0,0,0-.016-.078c-.023-.1-.047-.206-.074-.311s-.043-.167-.068-.249a.351.351,0,0,0-.033-.109c-.012-.035-.035-.12-.054-.179l-.037-.115c-.016-.052-.033-.1-.052-.155-.031-.093-.064-.183-.1-.276s-.068-.183-.1-.274c-.07-.186-.146-.369-.223-.552-.3-.713-.635-1.416-.944-2.113a11.682,11.682,0,0,1-.441-1.119l-.039.056a2.383,2.383,0,0,0-.167.3c0,1.622-1.624,3.608-1.624,3.608l-1.635-2.381-1.431,2.2a1.8,1.8,0,0,0-.573,1.018c-.045.144-.089.3-.13.468-.029.111-.056.229-.08.346-.014.06-.027.12-.039.181l-.037.188v.029c-.025.128-.049.26-.072.394s-.049.289-.072.435q-.025.142-.043.284c-.029.183-.054.369-.078.552-.014.107-.029.206-.041.32l-.049.412c.105.338.223.672.344,1a1.661,1.661,0,0,1,.134.567,14.086,14.086,0,0,0,7.741,0,.078.078,0,0,1,0-.021,2.455,2.455,0,0,1-.049-.563h0a15.469,15.469,0,0,1,.206-1.577,5.775,5.775,0,0,0,.039-.775v-.093C332.1,458.156,332.1,458.082,332.094,458.008Zm0,0a1.423,1.423,0,0,0-.014-.247c-.014-.082-.012-.155-.023-.233s-.019-.157-.029-.235-.025-.157-.039-.235-.029-.157-.045-.235a.353.353,0,0,0-.016-.078c-.023-.1-.047-.206-.074-.311s-.043-.167-.068-.249a.351.351,0,0,0-.033-.109c-.012-.035-.035-.12-.054-.179l-.037-.115c-.016-.052-.033-.1-.052-.155-.031-.093-.064-.183-.1-.276s-.068-.183-.1-.274c-.07-.186-.146-.369-.223-.552-.3-.713-.635-1.416-.944-2.113a11.682,11.682,0,0,1-.441-1.119l-.039.056a2.383,2.383,0,0,0-.167.3c0,1.622-1.624,3.608-1.624,3.608l-1.635-2.381-1.431,2.2a1.8,1.8,0,0,0-.573,1.018c-.045.144-.089.3-.13.468-.029.111-.056.229-.08.346-.014.06-.027.12-.039.181l-.037.188v.029c-.025.128-.049.26-.072.394s-.049.289-.072.435q-.025.142-.043.284c-.029.183-.054.369-.078.552-.014.107-.029.206-.041.32l-.049.412c.105.338.223.672.344,1a1.661,1.661,0,0,1,.134.567,14.086,14.086,0,0,0,7.741,0,.078.078,0,0,1,0-.021,2.455,2.455,0,0,1-.049-.563h0a15.469,15.469,0,0,1,.206-1.577,5.775,5.775,0,0,0,.039-.775v-.093C332.1,458.156,332.1,458.082,332.094,458.008Zm0,0a1.423,1.423,0,0,0-.014-.247c-.014-.082-.012-.155-.023-.233s-.019-.157-.029-.235-.025-.157-.039-.235-.029-.157-.045-.235a.353.353,0,0,0-.016-.078c-.023-.1-.047-.206-.074-.311s-.043-.167-.068-.249a.351.351,0,0,0-.033-.109c-.012-.035-.035-.12-.054-.179l-.037-.115c-.016-.052-.033-.1-.052-.155-.031-.093-.064-.183-.1-.276s-.068-.183-.1-.274c-.07-.186-.146-.369-.223-.552-.3-.713-.635-1.416-.944-2.113a11.682,11.682,0,0,1-.441-1.119l-.039.056a2.383,2.383,0,0,0-.167.3c0,1.622-1.624,3.608-1.624,3.608l-1.635-2.381-1.431,2.2a1.8,1.8,0,0,0-.573,1.018c-.045.144-.089.3-.13.468-.029.111-.056.229-.08.346-.014.06-.027.12-.039.181l-.037.188v.029c-.025.128-.049.26-.072.394s-.049.289-.072.435q-.025.142-.043.284c-.029.183-.054.369-.078.552-.014.107-.029.206-.041.32l-.049.412c.105.338.223.672.344,1a1.661,1.661,0,0,1,.134.567,14.086,14.086,0,0,0,7.741,0,.078.078,0,0,1,0-.021,2.455,2.455,0,0,1-.049-.563h0a15.469,15.469,0,0,1,.206-1.577,5.775,5.775,0,0,0,.039-.775v-.093C332.1,458.156,332.1,458.082,332.094,458.008Zm0,0a1.423,1.423,0,0,0-.014-.247c-.014-.082-.012-.155-.023-.233s-.019-.157-.029-.235-.025-.157-.039-.235-.029-.157-.045-.235a.353.353,0,0,0-.016-.078c-.023-.1-.047-.206-.074-.311s-.043-.167-.068-.249a.351.351,0,0,0-.033-.109c-.012-.035-.035-.12-.054-.179l-.037-.115c-.016-.052-.033-.1-.052-.155-.031-.093-.064-.183-.1-.276s-.068-.183-.1-.274c-.07-.186-.146-.369-.223-.552-.3-.713-.635-1.416-.944-2.113a11.682,11.682,0,0,1-.441-1.119l-.039.056a2.383,2.383,0,0,0-.167.3c0,1.622-1.624,3.608-1.624,3.608l-1.635-2.381-1.431,2.2a1.8,1.8,0,0,0-.573,1.018c-.045.144-.089.3-.13.468-.029.111-.056.229-.08.346-.014.06-.027.12-.039.181l-.037.188v.029c-.025.128-.049.26-.072.394s-.049.289-.072.435q-.025.142-.043.284c-.029.183-.054.369-.078.552-.014.107-.029.206-.041.32l-.049.412c.105.338.223.672.344,1a1.661,1.661,0,0,1,.134.567,14.086,14.086,0,0,0,7.741,0,.078.078,0,0,1,0-.021,2.455,2.455,0,0,1-.049-.563h0a15.469,15.469,0,0,1,.206-1.577,5.775,5.775,0,0,0,.039-.775v-.093C332.1,458.156,332.1,458.082,332.094,458.008Zm0,0a1.423,1.423,0,0,0-.014-.247c-.014-.082-.012-.155-.023-.233s-.019-.157-.029-.235-.025-.157-.039-.235-.029-.157-.045-.235a.353.353,0,0,0-.016-.078c-.023-.1-.047-.206-.074-.311s-.043-.167-.068-.249a.351.351,0,0,0-.033-.109c-.012-.035-.035-.12-.054-.179l-.037-.115c-.016-.052-.033-.1-.052-.155-.031-.093-.064-.183-.1-.276s-.068-.183-.1-.274c-.07-.186-.146-.369-.223-.552-.3-.713-.635-1.416-.944-2.113a11.682,11.682,0,0,1-.441-1.119l-.039.056a2.383,2.383,0,0,0-.167.3c0,1.622-1.624,3.608-1.624,3.608l-1.635-2.381-1.431,2.2a1.8,1.8,0,0,0-.573,1.018c-.045.144-.089.3-.13.468-.029.111-.056.229-.08.346-.014.06-.027.12-.039.181l-.037.188v.029c-.025.128-.049.26-.072.394s-.049.289-.072.435q-.025.142-.043.284c-.029.183-.054.369-.078.552-.014.107-.029.206-.041.32l-.049.412c.105.338.223.672.344,1a1.661,1.661,0,0,1,.134.567,14.086,14.086,0,0,0,7.741,0,.078.078,0,0,1,0-.021,2.455,2.455,0,0,1-.049-.563h0a15.469,15.469,0,0,1,.206-1.577,5.775,5.775,0,0,0,.039-.775v-.093C332.1,458.156,332.1,458.082,332.094,458.008Zm0,0a1.423,1.423,0,0,0-.014-.247c-.014-.082-.012-.155-.023-.233s-.019-.157-.029-.235-.025-.157-.039-.235-.029-.157-.045-.235a.353.353,0,0,0-.016-.078c-.023-.1-.047-.206-.074-.311s-.043-.167-.068-.249a.351.351,0,0,0-.033-.109c-.012-.035-.035-.12-.054-.179l-.037-.115c-.016-.052-.033-.1-.052-.155-.031-.093-.064-.183-.1-.276s-.068-.183-.1-.274c-.07-.186-.146-.369-.223-.552-.3-.713-.635-1.416-.944-2.113a11.682,11.682,0,0,1-.441-1.119l-.039.056a2.383,2.383,0,0,0-.167.3c0,1.622-1.624,3.608-1.624,3.608l-1.635-2.381-1.431,2.2a1.8,1.8,0,0,0-.573,1.018c-.045.144-.089.3-.13.468-.029.111-.056.229-.08.346-.014.06-.027.12-.039.181l-.037.188v.029c-.025.128-.049.26-.072.394s-.049.289-.072.435q-.025.142-.043.284c-.029.183-.054.369-.078.552-.014.107-.029.206-.041.32l-.049.412c.105.338.223.672.344,1a1.661,1.661,0,0,1,.134.567,14.086,14.086,0,0,0,7.741,0,.078.078,0,0,1,0-.021,2.455,2.455,0,0,1-.049-.563h0a15.469,15.469,0,0,1,.206-1.577,5.775,5.775,0,0,0,.039-.775v-.093C332.1,458.156,332.1,458.082,332.094,458.008Zm0,0a1.423,1.423,0,0,0-.014-.247c-.014-.082-.012-.155-.023-.233s-.019-.157-.029-.235-.025-.157-.039-.235-.029-.157-.045-.235a.353.353,0,0,0-.016-.078c-.023-.1-.047-.206-.074-.311s-.043-.167-.068-.249a.351.351,0,0,0-.033-.109c-.012-.035-.035-.12-.054-.179l-.037-.115c-.016-.052-.033-.1-.052-.155-.031-.093-.064-.183-.1-.276s-.068-.183-.1-.274c-.07-.186-.146-.369-.223-.552-.3-.713-.635-1.416-.944-2.113a11.682,11.682,0,0,1-.441-1.119l-.039.056a2.383,2.383,0,0,0-.167.3c0,1.622-1.624,3.608-1.624,3.608l-1.635-2.381-1.431,2.2a1.8,1.8,0,0,0-.573,1.018c-.045.144-.089.3-.13.468-.029.111-.056.229-.08.346-.014.06-.027.12-.039.181l-.037.188v.029c-.025.128-.049.26-.072.394s-.049.289-.072.435q-.025.142-.043.284c-.029.183-.054.369-.078.552-.014.107-.029.206-.041.32l-.049.412c.105.338.223.672.344,1a1.661,1.661,0,0,1,.134.567,14.086,14.086,0,0,0,7.741,0,.078.078,0,0,1,0-.021,2.455,2.455,0,0,1-.049-.563h0a15.469,15.469,0,0,1,.206-1.577,5.775,5.775,0,0,0,.039-.775v-.093C332.1,458.156,332.1,458.082,332.094,458.008Zm0,0a1.423,1.423,0,0,0-.014-.247c-.014-.082-.012-.155-.023-.233s-.019-.157-.029-.235-.025-.157-.039-.235-.029-.157-.045-.235a.353.353,0,0,0-.016-.078c-.023-.1-.047-.206-.074-.311s-.043-.167-.068-.249a.351.351,0,0,0-.033-.109c-.012-.035-.035-.12-.054-.179l-.037-.115c-.016-.052-.033-.1-.052-.155-.031-.093-.064-.183-.1-.276s-.068-.183-.1-.274c-.07-.186-.146-.369-.223-.552-.3-.713-.635-1.416-.944-2.113a11.682,11.682,0,0,1-.441-1.119l-.039.056a2.383,2.383,0,0,0-.167.3c0,1.622-1.624,3.608-1.624,3.608l-1.635-2.381-1.431,2.2a1.8,1.8,0,0,0-.573,1.018c-.045.144-.089.3-.13.468-.029.111-.056.229-.08.346-.014.06-.027.12-.039.181l-.037.188v.029c-.025.128-.049.26-.072.394s-.049.289-.072.435q-.025.142-.043.284c-.029.183-.054.369-.078.552-.014.107-.029.206-.041.32l-.049.412c.105.338.223.672.344,1a1.661,1.661,0,0,1,.134.567,14.086,14.086,0,0,0,7.741,0,.078.078,0,0,1,0-.021,2.455,2.455,0,0,1-.049-.563h0a15.469,15.469,0,0,1,.206-1.577,5.775,5.775,0,0,0,.039-.775v-.093C332.1,458.156,332.1,458.082,332.094,458.008Z" transform="translate(-314.027 -433.771)" fill="#fff"/>
      <path id="Path_1795" data-name="Path 1795" d="M310.71,452.934l-.138-.019a5.022,5.022,0,0,1-.618-.124l-.076-.021c-.5-.142-1.053-.4-1.177-.847a.8.8,0,0,1,.012-.439,3.763,3.763,0,0,1,.28-.709v-.012a.979.979,0,0,1,.052-.093,2.062,2.062,0,0,1,.744-.81l-.247.039-2.094.34-3.247.524s-.577-.115-1.363,2.049a.335.335,0,0,1-.027.08c-.19.53-.39,1.191-.6,2.018-.142.573-.272,1.136-.392,1.682-.035.165-.07.328-.1.489a13.1,13.1,0,0,0,1.2,1.237l.068.064a14.072,14.072,0,0,0,2.746,1.944l.039.021a13.592,13.592,0,0,0,1.938.858l.175.062c.037-.381.078-.8.128-1.237a.353.353,0,0,1,.016-.13l.049-.412c.012-.105.027-.206.041-.32.025-.183.049-.369.078-.552q.019-.142.043-.284c.023-.146.047-.293.072-.435s.047-.266.072-.394v-.029l.037-.188c.012-.062.025-.122.039-.181.025-.117.052-.235.08-.346.041-.167.085-.324.13-.468a1.762,1.762,0,0,1,.573-1.018l1.431-2.2.06-.093.027-.041Z" transform="translate(-298.372 -433.974)" opacity="0.1"/>
      <path id="Path_1796" data-name="Path 1796" d="M310.033,452.954l-1.519,2.334a1.743,1.743,0,0,0-.563.987c-.047.153-.095.32-.14.495a24.654,24.654,0,0,0-.466,2.7.321.321,0,0,1-.016.124c-.07.573-.128,1.136-.175,1.633a13.592,13.592,0,0,1-1.938-.858l-.039-.021a14.071,14.071,0,0,1-2.746-1.944l-.068-.064a13.1,13.1,0,0,1-1.2-1.237c-.049-.056-.1-.113-.144-.171.023-.107.045-.206.07-.322.117-.546.247-1.107.39-1.678a20.313,20.313,0,0,1,.7-2.309.631.631,0,0,1,.027-.066c.73-1.878,1.255-1.773,1.255-1.773l3.428-.552,2.165-.35-.068.039a2.2,2.2,0,0,0-.6.635l-.06.1c-.025.039-.047.082-.072.126a3.654,3.654,0,0,0-.284.722.758.758,0,0,0,.049.59,1.963,1.963,0,0,0,1.272.738l.08.021A5.165,5.165,0,0,0,310.033,452.954Z" transform="translate(-297.816 -433.99)" fill="#444176"/>
      <path id="Path_1797" data-name="Path 1797" d="M377.9,455.1l-.085-1.831c.361-2.886-.361-3.065-.361-3.065l-.858-.412h-.023l-3.449-1.672-.134-.066-.041-.019h0l-.449-.219h0l-.284-.138-.532-.258-.179-.087v.715c0,.206.019.447.035.728.037.705.105,1.649.227,2.762.068.645.155,1.35.262,2.107.064.447.109.893.138,1.328a23.366,23.366,0,0,1-.136,4.391l.188-.06a13.812,13.812,0,0,0,1.492-.6h0a13.7,13.7,0,0,0,2.659-1.633l.037-.027a13.754,13.754,0,0,0,1.5-1.359Z" transform="translate(-353.775 -431.966)" opacity="0.1"/>
      <path id="Path_1798" data-name="Path 1798" d="M378.769,455.056l-.085-1.835c.361-2.886-.361-3.065-.361-3.065l-1.031-.5h-.021l-3.459-1.678-.159-.076-.031-.014-.254-.124-.336-.163-.664-.322v.293h0v.363c0,.206.019.476.037.783.035.658.1,1.519.206,2.544.074.7.167,1.484.289,2.325q.095.674.136,1.334a23.329,23.329,0,0,1-.128,4.329,13.813,13.813,0,0,0,1.492-.6h0a13.7,13.7,0,0,0,2.659-1.633l.037-.027a13.754,13.754,0,0,0,1.5-1.358q.091-.091.173-.186Z" transform="translate(-354.458 -431.926)" fill="#444176"/>
      <path id="Path_1799" data-name="Path 1799" d="M319.386,391.16a3,3,0,0,0-.282,1.031c-.221.806-1.095,1.311-1.295,2.123-.117.474.019.977-.062,1.46-.146.888-.959,1.49-1.412,2.268a3.059,3.059,0,0,0-.188,2.659,4.26,4.26,0,0,1,.262.672,2.456,2.456,0,0,1-.064,1.031,3.267,3.267,0,0,0,.041,2.2,2.109,2.109,0,0,0,1.544.99,6,6,0,0,0,1.89-.087,5.469,5.469,0,0,0,1.975-.577l-2.233-5.389a4.5,4.5,0,0,1-.453-1.7,3.729,3.729,0,0,1,.278-1.266,10.968,10.968,0,0,1,1.855-3.206c.324.375.3.946.569,1.363a2.15,2.15,0,0,0,.919.686,30.461,30.461,0,0,0,3.255,1.361.427.427,0,0,1,.317.635l-.841,3.471a2.693,2.693,0,0,0,.128,2.268c.476.618,1.55.911,1.556,1.709a2.732,2.732,0,0,0,0,.379c.056.373.5.552.876.571a2.612,2.612,0,0,0,2.62-2.138c.206-1.365-.7-2.622-1.074-3.952-.635-2.237.206-4.861-1.041-6.825-1.01-1.594-2.851-2.026-4.6-2.224C322.7,390.536,320.25,390.02,319.386,391.16Z" transform="translate(-309.652 -386.802)" opacity="0.1"/>
      <path id="Path_1800" data-name="Path 1800" d="M319.386,390.16a3,3,0,0,0-.282,1.031c-.221.806-1.095,1.311-1.295,2.123-.117.474.019.977-.062,1.46-.146.888-.959,1.49-1.412,2.268a3.059,3.059,0,0,0-.188,2.659,4.263,4.263,0,0,1,.262.672,2.456,2.456,0,0,1-.064,1.031,3.267,3.267,0,0,0,.041,2.2,2.109,2.109,0,0,0,1.544.989,6,6,0,0,0,1.89-.087,5.469,5.469,0,0,0,1.975-.577l-2.233-5.389a4.5,4.5,0,0,1-.453-1.7,3.729,3.729,0,0,1,.278-1.266,10.968,10.968,0,0,1,1.855-3.206c.324.375.3.946.569,1.363a2.15,2.15,0,0,0,.919.686,30.461,30.461,0,0,0,3.255,1.361.427.427,0,0,1,.317.635l-.841,3.471a2.693,2.693,0,0,0,.128,2.268c.476.618,1.55.911,1.556,1.709a2.732,2.732,0,0,0,0,.379c.056.373.5.552.876.571a2.612,2.612,0,0,0,2.62-2.138c.206-1.365-.7-2.622-1.074-3.952-.635-2.237.206-4.861-1.041-6.825-1.01-1.594-2.851-2.026-4.6-2.224C322.7,389.536,320.25,389.02,319.386,390.16Z" transform="translate(-309.652 -386.008)" fill="#493545"/>
    </g>
    <g id="Group_2959" data-name="Group 2959" transform="translate(49.945 121.608)" opacity="0.5">
      <path id="Path_1801" data-name="Path 1801" d="M313.516,627.816a13.952,13.952,0,0,1-3.375,9.122c-.107.126-.219.249-.332.371q-.085.095-.173.186a13.751,13.751,0,0,1-1.5,1.358l-.037.027a13.7,13.7,0,0,1-2.659,1.633h0a13.8,13.8,0,0,1-1.492.6l-.188.06c-.115.039-.235.074-.352.107l-.047.014a14.087,14.087,0,0,1-7.741,0H295.6c-.206-.06-.412-.122-.6-.19l-.175-.062a13.6,13.6,0,0,1-1.938-.858l-.039-.021a14.067,14.067,0,0,1-2.746-1.944l-.068-.064a13.1,13.1,0,0,1-1.2-1.237c-.049-.056-.1-.113-.144-.171-.091-.107-.177-.219-.264-.33a14.018,14.018,0,1,1,25.088-8.6Z" transform="translate(-285.48 -613.798)" fill="#c0bccf"/>
      <path id="Path_1802" data-name="Path 1802" d="M322.111,647.2l-.085-1.855c.361-2.933-.361-3.117-.361-3.117l-1.031-.507-.021-.01-3.459-1.7-.159-.078-.021-.084s.068-.206-.274-.241a1.255,1.255,0,0,1-.087-.526,2.254,2.254,0,0,1,.567-1.031,4.234,4.234,0,0,0,.678-3,7.065,7.065,0,0,0-1.15-2.9l-.066-.1a3.493,3.493,0,0,0,.122-.911c0-2.373-2.4-4.3-5.36-4.3-2.68,0-4.912,1.585-5.3,3.653a1.875,1.875,0,0,0-.163.256c-.544,1.018.3,1.779.324,2.8a3.614,3.614,0,0,1-.825,1.894,1.9,1.9,0,0,0-.266,1.969c.126.194.315.34.429.542.4.7-.264,1.509-.505,2.28a2.183,2.183,0,0,0-.066.274l-1.591.26s-.526-.107-1.255,1.8a.649.649,0,0,0-.027.068,20.9,20.9,0,0,0-.7,2.348q-.213.872-.39,1.7c-.025.109-.047.219-.07.328.047.058.095.117.144.173a13.225,13.225,0,0,0,1.2,1.262l.068.066a14.077,14.077,0,0,0,2.746,1.977l.039.021a13.48,13.48,0,0,0,1.938.872l.175.062c.206.07.4.132.6.194a.746.746,0,0,1,.016.095v-.091a13.865,13.865,0,0,0,7.741,0l.047-.014c.118-.033.237-.07.353-.109l.188-.06a13.9,13.9,0,0,0,4.152-2.268l.037-.027a13.836,13.836,0,0,0,1.5-1.381q.091-.091.173-.188Z" transform="translate(-297.801 -624.144)" fill="url(#linear-gradient-3)"/>
      <path id="Path_1803" data-name="Path 1803" d="M321.64,647.234a3.469,3.469,0,0,1-.825,1.855,1.836,1.836,0,0,0-.266,1.936c.126.19.315.336.429.534.4.691-.264,1.484-.505,2.243a2.816,2.816,0,0,0,.631,2.566,6.829,6.829,0,0,0,2.21,1.614,19.724,19.724,0,0,0,5.467,1.946,5.234,5.234,0,0,0,3-.134,3.187,3.187,0,0,0,1.8-3.5,19.929,19.929,0,0,0-1.443-2.981,1.4,1.4,0,0,1-.136-.645,2.179,2.179,0,0,1,.567-1.01,4.123,4.123,0,0,0,.668-2.933,6.886,6.886,0,0,0-1.15-2.857,3.13,3.13,0,0,0-.825-.907,3.618,3.618,0,0,0-1.542-.466c-2.239-.313-4.558-.656-6.815-.771a1.462,1.462,0,0,0-1.589.771C320.774,645.486,321.613,646.234,321.64,647.234Z" transform="translate(-313.174 -637.547)" fill="#444176"/>
      <path id="Path_1804" data-name="Path 1804" d="M342.218,673.62l-4.249,6.042-4.148-.361s-.136,1.443-1.8-3.787c-.932-2.925.963-1.909,1.336-2.719s1.031-1.526,1.086-2.123a3.748,3.748,0,0,0-.258-2.012l4.508-.54a3.364,3.364,0,0,0-.074,1.882C339.182,672.348,342.218,673.62,342.218,673.62Z" transform="translate(-322.222 -656.922)" fill="#c77485"/>
      <ellipse id="Ellipse_1135" data-name="Ellipse 1135" cx="5.36" cy="4.226" rx="5.36" ry="4.226" transform="translate(8.246 3.095)" fill="#444176"/>
      <path id="Path_1805" data-name="Path 1805" d="M347.924,670a4.507,4.507,0,0,1-4.177.672,3.748,3.748,0,0,0-.258-2.012l4.508-.54A3.364,3.364,0,0,0,347.924,670Z" transform="translate(-331.532 -656.922)" opacity="0.1"/>
      <circle id="Ellipse_1136" data-name="Ellipse 1136" cx="4.508" cy="4.508" r="4.508" transform="translate(9.165 4.795)" fill="#c77485"/>
      <path id="Path_1806" data-name="Path 1806" d="M333.4,691.45l-.105-.412-.091-.363-.134-.536-.025-.1-.021-.082s.107-.324-.6-.219l-.132.023c-.111.023-.241.054-.39.095l-.134.041-.177.056h0a3.865,3.865,0,0,0-1.5.9,3.368,3.368,0,0,0-.5.606c-.014.021-.025.039-.037.056a1.946,1.946,0,0,0-.13.239c0,1.624-1.624,3.608-1.624,3.608l-1.585-2.29-.031-.045-.377-.548-.134-.177-.045-.062-.825-1.107-.206-.276-.068-.093-.1-.134-.237-.315-.928.542-1.237.721-.721,4.69v.13l.023.388.15,2.548v.035l-.264,1.055.039.021a13.594,13.594,0,0,0,1.938.858l.175.062c.206.068.4.13.6.19a.729.729,0,0,1,.016.093v-.089a14.087,14.087,0,0,0,7.741,0l.047-.014c.118-.033.237-.068.353-.107l.188-.06a13.8,13.8,0,0,0,1.492-.6l.173-3.69.124-2.661v-.153Z" transform="translate(-313.852 -674.068)" opacity="0.1"/>
      <path id="Path_1807" data-name="Path 1807" d="M332.094,699.008a1.424,1.424,0,0,0-.014-.247c-.014-.082-.012-.155-.023-.233s-.019-.157-.029-.235-.025-.157-.039-.235-.029-.157-.045-.235a.352.352,0,0,0-.016-.078c-.023-.1-.047-.206-.074-.311s-.043-.167-.068-.249a.352.352,0,0,0-.033-.109c-.012-.035-.035-.12-.054-.179l-.037-.115c-.016-.052-.033-.1-.052-.155-.031-.093-.064-.183-.1-.276s-.068-.183-.1-.274c-.07-.186-.146-.369-.223-.552-.3-.713-.635-1.416-.944-2.113a11.685,11.685,0,0,1-.441-1.119l-.039.056a2.381,2.381,0,0,0-.167.3c0,1.622-1.624,3.607-1.624,3.607l-1.635-2.381-1.431,2.2a1.8,1.8,0,0,0-.573,1.018c-.045.144-.089.3-.13.468-.029.111-.056.229-.08.346-.014.06-.027.12-.039.181l-.037.188v.029c-.025.128-.049.26-.072.394s-.049.289-.072.435q-.025.142-.043.284c-.029.183-.054.369-.078.552-.014.107-.029.206-.041.32l-.049.412c.105.338.223.672.344,1a1.661,1.661,0,0,1,.134.567,14.086,14.086,0,0,0,7.741,0,.078.078,0,0,1,0-.021,2.455,2.455,0,0,1-.049-.563h0a15.462,15.462,0,0,1,.206-1.577,5.775,5.775,0,0,0,.039-.775v-.093C332.1,699.156,332.1,699.082,332.094,699.008Zm0,0a1.424,1.424,0,0,0-.014-.247c-.014-.082-.012-.155-.023-.233s-.019-.157-.029-.235-.025-.157-.039-.235-.029-.157-.045-.235a.352.352,0,0,0-.016-.078c-.023-.1-.047-.206-.074-.311s-.043-.167-.068-.249a.352.352,0,0,0-.033-.109c-.012-.035-.035-.12-.054-.179l-.037-.115c-.016-.052-.033-.1-.052-.155-.031-.093-.064-.183-.1-.276s-.068-.183-.1-.274c-.07-.186-.146-.369-.223-.552-.3-.713-.635-1.416-.944-2.113a11.685,11.685,0,0,1-.441-1.119l-.039.056a2.381,2.381,0,0,0-.167.3c0,1.622-1.624,3.607-1.624,3.607l-1.635-2.381-1.431,2.2a1.8,1.8,0,0,0-.573,1.018c-.045.144-.089.3-.13.468-.029.111-.056.229-.08.346-.014.06-.027.12-.039.181l-.037.188v.029c-.025.128-.049.26-.072.394s-.049.289-.072.435q-.025.142-.043.284c-.029.183-.054.369-.078.552-.014.107-.029.206-.041.32l-.049.412c.105.338.223.672.344,1a1.661,1.661,0,0,1,.134.567,14.086,14.086,0,0,0,7.741,0,.078.078,0,0,1,0-.021,2.455,2.455,0,0,1-.049-.563h0a15.462,15.462,0,0,1,.206-1.577,5.775,5.775,0,0,0,.039-.775v-.093C332.1,699.156,332.1,699.082,332.094,699.008Zm0,0a1.424,1.424,0,0,0-.014-.247c-.014-.082-.012-.155-.023-.233s-.019-.157-.029-.235-.025-.157-.039-.235-.029-.157-.045-.235a.352.352,0,0,0-.016-.078c-.023-.1-.047-.206-.074-.311s-.043-.167-.068-.249a.352.352,0,0,0-.033-.109c-.012-.035-.035-.12-.054-.179l-.037-.115c-.016-.052-.033-.1-.052-.155-.031-.093-.064-.183-.1-.276s-.068-.183-.1-.274c-.07-.186-.146-.369-.223-.552-.3-.713-.635-1.416-.944-2.113a11.685,11.685,0,0,1-.441-1.119l-.039.056a2.381,2.381,0,0,0-.167.3c0,1.622-1.624,3.607-1.624,3.607l-1.635-2.381-1.431,2.2a1.8,1.8,0,0,0-.573,1.018c-.045.144-.089.3-.13.468-.029.111-.056.229-.08.346-.014.06-.027.12-.039.181l-.037.188v.029c-.025.128-.049.26-.072.394s-.049.289-.072.435q-.025.142-.043.284c-.029.183-.054.369-.078.552-.014.107-.029.206-.041.32l-.049.412c.105.338.223.672.344,1a1.661,1.661,0,0,1,.134.567,14.086,14.086,0,0,0,7.741,0,.078.078,0,0,1,0-.021,2.455,2.455,0,0,1-.049-.563h0a15.462,15.462,0,0,1,.206-1.577,5.775,5.775,0,0,0,.039-.775v-.093C332.1,699.156,332.1,699.082,332.094,699.008Zm2.185-3.869-.736-2.938-.126-.5-.035-.138h0l-.179-.717a.139.139,0,0,0,0-.019h0a.165.165,0,0,0-.014-.093c-.027-.054-.095-.109-.254-.124a1.286,1.286,0,0,0-.181,0h0a3.137,3.137,0,0,0-.53.1c-.085.023-.175.047-.272.078l-.177.056h-.016a3.934,3.934,0,0,0-1.3.721,3.5,3.5,0,0,0-.66.73l-.039.056a2.377,2.377,0,0,0-.167.3c0,1.622-1.624,3.608-1.624,3.608l-1.635-2.381-.093-.134-.016-.023-.237-.348-.179-.239-.047-.062-.845-1.128h0l-.268-.365v-.012l-.093-.126-.177-.235-.618.361-1.546.9-.713,4.64v.049l.021.338.153,2.583v.146l-.233.93a13.6,13.6,0,0,0,1.938.858l.175.062c.206.068.4.13.6.19a.736.736,0,0,1,.016.093v-.089a14.086,14.086,0,0,0,7.741,0l.047-.014c.117-.033.237-.068.353-.107l.188-.06a13.819,13.819,0,0,0,1.492-.6h0l.171-3.686.124-2.632Zm-10.138,7.118a.731.731,0,0,1,.016.093v-.089Zm7.953-3.249a1.424,1.424,0,0,0-.014-.247c-.014-.082-.012-.155-.023-.233s-.019-.157-.029-.235-.025-.157-.039-.235-.029-.157-.045-.235a.352.352,0,0,0-.016-.078c-.023-.1-.047-.206-.074-.311s-.043-.167-.068-.249a.352.352,0,0,0-.033-.109c-.012-.035-.035-.12-.054-.179l-.037-.115c-.016-.052-.033-.1-.052-.155-.031-.093-.064-.183-.1-.276s-.068-.183-.1-.274c-.07-.186-.146-.369-.223-.552-.3-.713-.635-1.416-.944-2.113a11.685,11.685,0,0,1-.441-1.119l-.039.056a2.381,2.381,0,0,0-.167.3c0,1.622-1.624,3.607-1.624,3.607l-1.635-2.381-1.431,2.2a1.8,1.8,0,0,0-.573,1.018c-.045.144-.089.3-.13.468-.029.111-.056.229-.08.346-.014.06-.027.12-.039.181l-.037.188v.029c-.025.128-.049.26-.072.394s-.049.289-.072.435q-.025.142-.043.284c-.029.183-.054.369-.078.552-.014.107-.029.206-.041.32l-.049.412c.105.338.223.672.344,1a1.661,1.661,0,0,1,.134.567,14.086,14.086,0,0,0,7.741,0,.078.078,0,0,1,0-.021,2.455,2.455,0,0,1-.049-.563h0a15.462,15.462,0,0,1,.206-1.577,5.775,5.775,0,0,0,.039-.775v-.093C332.1,699.156,332.1,699.082,332.094,699.008Zm0,0a1.424,1.424,0,0,0-.014-.247c-.014-.082-.012-.155-.023-.233s-.019-.157-.029-.235-.025-.157-.039-.235-.029-.157-.045-.235a.352.352,0,0,0-.016-.078c-.023-.1-.047-.206-.074-.311s-.043-.167-.068-.249a.352.352,0,0,0-.033-.109c-.012-.035-.035-.12-.054-.179l-.037-.115c-.016-.052-.033-.1-.052-.155-.031-.093-.064-.183-.1-.276s-.068-.183-.1-.274c-.07-.186-.146-.369-.223-.552-.3-.713-.635-1.416-.944-2.113a11.685,11.685,0,0,1-.441-1.119l-.039.056a2.381,2.381,0,0,0-.167.3c0,1.622-1.624,3.607-1.624,3.607l-1.635-2.381-1.431,2.2a1.8,1.8,0,0,0-.573,1.018c-.045.144-.089.3-.13.468-.029.111-.056.229-.08.346-.014.06-.027.12-.039.181l-.037.188v.029c-.025.128-.049.26-.072.394s-.049.289-.072.435q-.025.142-.043.284c-.029.183-.054.369-.078.552-.014.107-.029.206-.041.32l-.049.412c.105.338.223.672.344,1a1.661,1.661,0,0,1,.134.567,14.086,14.086,0,0,0,7.741,0,.078.078,0,0,1,0-.021,2.455,2.455,0,0,1-.049-.563h0a15.462,15.462,0,0,1,.206-1.577,5.775,5.775,0,0,0,.039-.775v-.093C332.1,699.156,332.1,699.082,332.094,699.008Zm0,0a1.424,1.424,0,0,0-.014-.247c-.014-.082-.012-.155-.023-.233s-.019-.157-.029-.235-.025-.157-.039-.235-.029-.157-.045-.235a.352.352,0,0,0-.016-.078c-.023-.1-.047-.206-.074-.311s-.043-.167-.068-.249a.352.352,0,0,0-.033-.109c-.012-.035-.035-.12-.054-.179l-.037-.115c-.016-.052-.033-.1-.052-.155-.031-.093-.064-.183-.1-.276s-.068-.183-.1-.274c-.07-.186-.146-.369-.223-.552-.3-.713-.635-1.416-.944-2.113a11.685,11.685,0,0,1-.441-1.119l-.039.056a2.381,2.381,0,0,0-.167.3c0,1.622-1.624,3.607-1.624,3.607l-1.635-2.381-1.431,2.2a1.8,1.8,0,0,0-.573,1.018c-.045.144-.089.3-.13.468-.029.111-.056.229-.08.346-.014.06-.027.12-.039.181l-.037.188v.029c-.025.128-.049.26-.072.394s-.049.289-.072.435q-.025.142-.043.284c-.029.183-.054.369-.078.552-.014.107-.029.206-.041.32l-.049.412c.105.338.223.672.344,1a1.661,1.661,0,0,1,.134.567,14.086,14.086,0,0,0,7.741,0,.078.078,0,0,1,0-.021,2.455,2.455,0,0,1-.049-.563h0a15.462,15.462,0,0,1,.206-1.577,5.775,5.775,0,0,0,.039-.775v-.093C332.1,699.156,332.1,699.082,332.094,699.008Zm0,0a1.424,1.424,0,0,0-.014-.247c-.014-.082-.012-.155-.023-.233s-.019-.157-.029-.235-.025-.157-.039-.235-.029-.157-.045-.235a.352.352,0,0,0-.016-.078c-.023-.1-.047-.206-.074-.311s-.043-.167-.068-.249a.352.352,0,0,0-.033-.109c-.012-.035-.035-.12-.054-.179l-.037-.115c-.016-.052-.033-.1-.052-.155-.031-.093-.064-.183-.1-.276s-.068-.183-.1-.274c-.07-.186-.146-.369-.223-.552-.3-.713-.635-1.416-.944-2.113a11.685,11.685,0,0,1-.441-1.119l-.039.056a2.381,2.381,0,0,0-.167.3c0,1.622-1.624,3.607-1.624,3.607l-1.635-2.381-1.431,2.2a1.8,1.8,0,0,0-.573,1.018c-.045.144-.089.3-.13.468-.029.111-.056.229-.08.346-.014.06-.027.12-.039.181l-.037.188v.029c-.025.128-.049.26-.072.394s-.049.289-.072.435q-.025.142-.043.284c-.029.183-.054.369-.078.552-.014.107-.029.206-.041.32l-.049.412c.105.338.223.672.344,1a1.661,1.661,0,0,1,.134.567,14.086,14.086,0,0,0,7.741,0,.078.078,0,0,1,0-.021,2.455,2.455,0,0,1-.049-.563h0a15.462,15.462,0,0,1,.206-1.577,5.775,5.775,0,0,0,.039-.775v-.093C332.1,699.156,332.1,699.082,332.094,699.008Zm0,0a1.424,1.424,0,0,0-.014-.247c-.014-.082-.012-.155-.023-.233s-.019-.157-.029-.235-.025-.157-.039-.235-.029-.157-.045-.235a.352.352,0,0,0-.016-.078c-.023-.1-.047-.206-.074-.311s-.043-.167-.068-.249a.352.352,0,0,0-.033-.109c-.012-.035-.035-.12-.054-.179l-.037-.115c-.016-.052-.033-.1-.052-.155-.031-.093-.064-.183-.1-.276s-.068-.183-.1-.274c-.07-.186-.146-.369-.223-.552-.3-.713-.635-1.416-.944-2.113a11.685,11.685,0,0,1-.441-1.119l-.039.056a2.381,2.381,0,0,0-.167.3c0,1.622-1.624,3.607-1.624,3.607l-1.635-2.381-1.431,2.2a1.8,1.8,0,0,0-.573,1.018c-.045.144-.089.3-.13.468-.029.111-.056.229-.08.346-.014.06-.027.12-.039.181l-.037.188v.029c-.025.128-.049.26-.072.394s-.049.289-.072.435q-.025.142-.043.284c-.029.183-.054.369-.078.552-.014.107-.029.206-.041.32l-.049.412c.105.338.223.672.344,1a1.661,1.661,0,0,1,.134.567,14.086,14.086,0,0,0,7.741,0,.078.078,0,0,1,0-.021,2.455,2.455,0,0,1-.049-.563h0a15.462,15.462,0,0,1,.206-1.577,5.775,5.775,0,0,0,.039-.775v-.093C332.1,699.156,332.1,699.082,332.094,699.008Zm0,0a1.424,1.424,0,0,0-.014-.247c-.014-.082-.012-.155-.023-.233s-.019-.157-.029-.235-.025-.157-.039-.235-.029-.157-.045-.235a.352.352,0,0,0-.016-.078c-.023-.1-.047-.206-.074-.311s-.043-.167-.068-.249a.352.352,0,0,0-.033-.109c-.012-.035-.035-.12-.054-.179l-.037-.115c-.016-.052-.033-.1-.052-.155-.031-.093-.064-.183-.1-.276s-.068-.183-.1-.274c-.07-.186-.146-.369-.223-.552-.3-.713-.635-1.416-.944-2.113a11.685,11.685,0,0,1-.441-1.119l-.039.056a2.381,2.381,0,0,0-.167.3c0,1.622-1.624,3.607-1.624,3.607l-1.635-2.381-1.431,2.2a1.8,1.8,0,0,0-.573,1.018c-.045.144-.089.3-.13.468-.029.111-.056.229-.08.346-.014.06-.027.12-.039.181l-.037.188v.029c-.025.128-.049.26-.072.394s-.049.289-.072.435q-.025.142-.043.284c-.029.183-.054.369-.078.552-.014.107-.029.206-.041.32l-.049.412c.105.338.223.672.344,1a1.661,1.661,0,0,1,.134.567,14.086,14.086,0,0,0,7.741,0,.078.078,0,0,1,0-.021,2.455,2.455,0,0,1-.049-.563h0a15.462,15.462,0,0,1,.206-1.577,5.775,5.775,0,0,0,.039-.775v-.093C332.1,699.156,332.1,699.082,332.094,699.008Zm0,0a1.424,1.424,0,0,0-.014-.247c-.014-.082-.012-.155-.023-.233s-.019-.157-.029-.235-.025-.157-.039-.235-.029-.157-.045-.235a.352.352,0,0,0-.016-.078c-.023-.1-.047-.206-.074-.311s-.043-.167-.068-.249a.352.352,0,0,0-.033-.109c-.012-.035-.035-.12-.054-.179l-.037-.115c-.016-.052-.033-.1-.052-.155-.031-.093-.064-.183-.1-.276s-.068-.183-.1-.274c-.07-.186-.146-.369-.223-.552-.3-.713-.635-1.416-.944-2.113a11.685,11.685,0,0,1-.441-1.119l-.039.056a2.381,2.381,0,0,0-.167.3c0,1.622-1.624,3.607-1.624,3.607l-1.635-2.381-1.431,2.2a1.8,1.8,0,0,0-.573,1.018c-.045.144-.089.3-.13.468-.029.111-.056.229-.08.346-.014.06-.027.12-.039.181l-.037.188v.029c-.025.128-.049.26-.072.394s-.049.289-.072.435q-.025.142-.043.284c-.029.183-.054.369-.078.552-.014.107-.029.206-.041.32l-.049.412c.105.338.223.672.344,1a1.661,1.661,0,0,1,.134.567,14.086,14.086,0,0,0,7.741,0,.078.078,0,0,1,0-.021,2.455,2.455,0,0,1-.049-.563h0a15.462,15.462,0,0,1,.206-1.577,5.775,5.775,0,0,0,.039-.775v-.093C332.1,699.156,332.1,699.082,332.094,699.008Zm0,0a1.424,1.424,0,0,0-.014-.247c-.014-.082-.012-.155-.023-.233s-.019-.157-.029-.235-.025-.157-.039-.235-.029-.157-.045-.235a.352.352,0,0,0-.016-.078c-.023-.1-.047-.206-.074-.311s-.043-.167-.068-.249a.352.352,0,0,0-.033-.109c-.012-.035-.035-.12-.054-.179l-.037-.115c-.016-.052-.033-.1-.052-.155-.031-.093-.064-.183-.1-.276s-.068-.183-.1-.274c-.07-.186-.146-.369-.223-.552-.3-.713-.635-1.416-.944-2.113a11.685,11.685,0,0,1-.441-1.119l-.039.056a2.381,2.381,0,0,0-.167.3c0,1.622-1.624,3.607-1.624,3.607l-1.635-2.381-1.431,2.2a1.8,1.8,0,0,0-.573,1.018c-.045.144-.089.3-.13.468-.029.111-.056.229-.08.346-.014.06-.027.12-.039.181l-.037.188v.029c-.025.128-.049.26-.072.394s-.049.289-.072.435q-.025.142-.043.284c-.029.183-.054.369-.078.552-.014.107-.029.206-.041.32l-.049.412c.105.338.223.672.344,1a1.661,1.661,0,0,1,.134.567,14.086,14.086,0,0,0,7.741,0,.078.078,0,0,1,0-.021,2.455,2.455,0,0,1-.049-.563h0a15.462,15.462,0,0,1,.206-1.577,5.775,5.775,0,0,0,.039-.775v-.093C332.1,699.156,332.1,699.082,332.094,699.008Z" transform="translate(-314.027 -674.771)" fill="#444176"/>
      <path id="Path_1808" data-name="Path 1808" d="M310.71,693.934l-.138-.019a5.016,5.016,0,0,1-.618-.124l-.076-.021c-.5-.142-1.053-.4-1.177-.847a.8.8,0,0,1,.012-.439,3.765,3.765,0,0,1,.28-.709v-.012a.967.967,0,0,1,.052-.093,2.061,2.061,0,0,1,.744-.81l-.247.039-2.094.34-3.247.524s-.577-.115-1.363,2.049a.336.336,0,0,1-.027.08c-.19.53-.39,1.192-.6,2.018-.142.573-.272,1.136-.392,1.682-.035.165-.07.328-.1.489a13.1,13.1,0,0,0,1.2,1.237l.068.064a14.073,14.073,0,0,0,2.746,1.944l.039.021a13.6,13.6,0,0,0,1.938.858l.175.062c.037-.381.078-.8.128-1.237a.353.353,0,0,1,.016-.13l.049-.412c.012-.105.027-.206.041-.32.025-.183.049-.369.078-.552q.019-.142.043-.284c.023-.146.047-.293.072-.435s.047-.266.072-.394v-.029l.037-.188c.012-.062.025-.122.039-.181.025-.117.052-.235.08-.346.041-.167.085-.324.13-.468a1.762,1.762,0,0,1,.573-1.018l1.431-2.2.06-.093.027-.041Z" transform="translate(-298.372 -674.974)" opacity="0.1"/>
      <path id="Path_1809" data-name="Path 1809" d="M310.033,693.954l-1.519,2.334a1.743,1.743,0,0,0-.563.987c-.047.153-.095.32-.14.495a24.653,24.653,0,0,0-.466,2.7.32.32,0,0,1-.016.124c-.07.573-.128,1.136-.175,1.633a13.6,13.6,0,0,1-1.938-.858l-.039-.021a14.072,14.072,0,0,1-2.746-1.944l-.068-.064a13.1,13.1,0,0,1-1.2-1.237c-.049-.056-.1-.113-.144-.171.023-.107.045-.206.07-.322.117-.546.247-1.107.39-1.678a20.305,20.305,0,0,1,.7-2.309.63.63,0,0,1,.027-.066c.73-1.878,1.255-1.773,1.255-1.773l3.428-.552,2.165-.35-.068.039a2.2,2.2,0,0,0-.6.635l-.06.1c-.025.039-.047.082-.072.126a3.656,3.656,0,0,0-.284.721.759.759,0,0,0,.049.59,1.963,1.963,0,0,0,1.272.738l.08.021A5.171,5.171,0,0,0,310.033,693.954Z" transform="translate(-297.816 -674.99)" fill="#f1d2d7"/>
      <path id="Path_1810" data-name="Path 1810" d="M377.9,696.1l-.085-1.831c.361-2.886-.361-3.065-.361-3.065l-.858-.412h-.023l-3.449-1.672-.134-.066-.041-.019h0l-.449-.219h0l-.284-.138-.532-.258-.179-.087v.715c0,.206.019.447.035.728.037.7.105,1.649.227,2.762.068.645.155,1.35.262,2.107.064.447.109.893.138,1.328a23.365,23.365,0,0,1-.136,4.391l.188-.06a13.807,13.807,0,0,0,1.492-.6h0a13.7,13.7,0,0,0,2.659-1.633l.037-.027a13.761,13.761,0,0,0,1.5-1.359Z" transform="translate(-353.775 -672.966)" opacity="0.1"/>
      <path id="Path_1811" data-name="Path 1811" d="M378.769,696.056l-.085-1.835c.361-2.886-.361-3.065-.361-3.065l-1.031-.5h-.021l-3.459-1.678-.159-.076-.031-.014-.254-.124-.336-.163-.664-.322v.293h0v.363c0,.206.019.476.037.783.035.658.1,1.519.206,2.544.074.7.167,1.484.289,2.325q.095.674.136,1.334a23.329,23.329,0,0,1-.128,4.329,13.956,13.956,0,0,0,4.152-2.23l.037-.027a13.755,13.755,0,0,0,1.5-1.359q.091-.091.173-.185Z" transform="translate(-354.458 -672.926)" fill="#f1d2d7"/>
      <path id="Path_1812" data-name="Path 1812" d="M333.207,638.065a5.157,5.157,0,0,1,1.93-.206,6.315,6.315,0,0,1,1.474.715,3.817,3.817,0,0,0,1.521.4.9.9,0,0,0,.559-.109.866.866,0,0,0,.249-.849A4.876,4.876,0,0,0,337.7,635.7a4.534,4.534,0,0,0-.775-.785,4.094,4.094,0,0,0-2.637-.6,6.605,6.605,0,0,0-3.02.775c-.618.355-2.037,1.472-1.544,2.28C330.244,638.217,332.4,638.2,333.207,638.065Z" transform="translate(-320.525 -630.08)" opacity="0.1"/>
      <path id="Path_1813" data-name="Path 1813" d="M333.207,637.065a5.157,5.157,0,0,1,1.93-.206,6.317,6.317,0,0,1,1.474.715,3.816,3.816,0,0,0,1.521.4.9.9,0,0,0,.559-.109.866.866,0,0,0,.249-.849A4.876,4.876,0,0,0,337.7,634.7a4.536,4.536,0,0,0-.775-.785,4.094,4.094,0,0,0-2.637-.6,6.605,6.605,0,0,0-3.02.775c-.618.355-2.037,1.472-1.544,2.28C330.244,637.217,332.4,637.2,333.207,637.065Z" transform="translate(-320.525 -629.286)" fill="#444176"/>
    </g>
    <path id="Path_1814" data-name="Path 1814" d="M619.649,382.137h.031a5.553,5.553,0,0,0,.618,2.977c.9.825,4.626-.825,4.37-1.822-.052-.206-.138-.544-.247-.971a2.9,2.9,0,0,0,2.208-1l.647,2,.045.142h.049c.427,4.045,1.393,12.443,2.167,13.568,1.031,1.49,2.216,7.949,2.216,7.949l2.216,13.249s.853,7.627,1.365,8.452a.959.959,0,0,0,.561.291,8.12,8.12,0,0,1-1.237,2.523c-1.031,1.159-2.387,3.478-3.581,3.313s-1.534,2.319.682,2.649a18.319,18.319,0,0,0,4.686-.274,1.677,1.677,0,0,0,1.622,1.6c2.216.332,6.819-.662,6.819-.662s3.917-1.649,4.092-2.816a36.865,36.865,0,0,0-.81-6.017c.618-.992-.041-9.549-.041-9.549l-1.194-16.395s.682-9.107,0-10.765c-.427-1.031-.585-5.772-.645-9.163l.825.054a1.522,1.522,0,0,0,.128-.179l.206.014a2.739,2.739,0,0,0,.171-2.981c-.633-1.354-.513-7.469-.412-10.513h0l.122-1.443a.413.413,0,0,0,.1-.157,15.121,15.121,0,0,0,4.6-1.394,4.673,4.673,0,0,0,1.208-.734c.853-.825.34-5.8-1.365-13.249s-3.239-6.79-3.239-6.79-4.092-.332-5.968-2.816-3.135-2.451-3.135-2.451h0c-.047-.326-.08-.633-.1-.919,0-.107-.017-.206-.023-.313a5.451,5.451,0,0,0,1.418-2.15,10.659,10.659,0,0,0,1.222-.534,1.456,1.456,0,0,0,.254-.235,2.084,2.084,0,0,0,.658-1.3,5.3,5.3,0,0,0-.076-1.626,3.942,3.942,0,0,0-2.6-3.57q-2.7-1.42-5.424-2.812a2.993,2.993,0,0,0-1.161-.412,3.093,3.093,0,0,0-1.962.928,8.356,8.356,0,0,0-.67.588,3.76,3.76,0,0,0-.493.53,5.081,5.081,0,0,0-.674,3.791.519.519,0,0,0,.55.464,5.315,5.315,0,0,0-.567,2.391,5.422,5.422,0,0,0,2.517,4.554c0,.115,0,.229.01.338a12.106,12.106,0,0,1-.041,1.268s-4.535,2.451-5.044,3.61a5.393,5.393,0,0,1-2.387,1.987s-3.581,1.822-3.581,8.281l-1.876,9.107-.34,17.388s.235-.206.618-.5c-.012.115-.023.235-.033.357a19.616,19.616,0,0,0-.052,2Zm22.9,45c-.07.266-.173.618-.3,1.031-.058-.342-.115-.68-.173-1C642.224,427.155,642.383,427.146,642.552,427.14Z" transform="translate(-500.413 -262.845)" fill="url(#linear-gradient-4)"/>
    <path id="Path_1815" data-name="Path 1815" d="M679.6,808.613s-.658,2.956-1.649,4.1-2.29,3.449-3.436,3.284-1.478,2.3.658,2.626,6.557-.656,6.557-.656,3.777-1.649,3.939-2.791-.985-7.06-.985-7.06Z" transform="translate(-543.655 -646.454)" fill="#53526b"/>
    <path id="Path_1816" data-name="Path 1816" d="M679.6,808.613s-.658,2.956-1.649,4.1-2.29,3.449-3.436,3.284-1.478,2.3.658,2.626,6.557-.656,6.557-.656,3.777-1.649,3.939-2.791-.985-7.06-.985-7.06Z" transform="translate(-543.655 -646.454)" opacity="0.05"/>
    <path id="Path_1817" data-name="Path 1817" d="M709.058,814.975s-.658,2.956-1.649,4.1-2.3,3.449-3.441,3.284-1.478,2.3.658,2.626,6.568-.658,6.568-.658,3.777-1.649,3.939-2.791-.985-7.06-.985-7.06Z" transform="translate(-567.037 -651.503)" fill="#53526b"/>
    <path id="Path_1818" data-name="Path 1818" d="M659.66,598.67s1.313,14.119,2.3,15.6,2.134,7.881,2.134,7.881l2.134,13.133s.825,7.553,1.313,8.374,6.582.468,6.582.468l-3.789-43.484Z" transform="translate(-532.58 -480.181)" fill="#5f5d7e"/>
    <path id="Path_1819" data-name="Path 1819" d="M659.66,598.67s1.313,14.119,2.3,15.6,2.134,7.881,2.134,7.881l2.134,13.133s.825,7.553,1.313,8.374,6.582.468,6.582.468l-3.789-43.484Z" transform="translate(-532.58 -480.181)" opacity="0.05"/>
    <path id="Path_1820" data-name="Path 1820" d="M646.92,566l.429,1.363,2.319,7.361.045.14h.012c.311.07,6.883,1.581,8.3,2.045a2.007,2.007,0,0,1,.225.084c.658.328,1.478,12.148,1.478,12.148s.493,11.165.825,11.985,1.649,17.728,2.463,17.238,6.731,0,6.731,0c.658-.658,0-9.522,0-9.522l-1.167-16.25s.658-9.029,0-10.672-.658-12.641-.658-12.641l-13.439-2.1-1.3-.206Z" transform="translate(-522.466 -454.245)" fill="#5f5d7e"/>
    <path id="Path_1821" data-name="Path 1821" d="M649,570.834l2.319,7.361.056.144c.311.07,6.883,1.581,8.3,2.045h.142l-3.671-9.734-.105-.28-1.194.076Z" transform="translate(-524.118 -457.715)" opacity="0.02"/>
    <path id="Path_1822" data-name="Path 1822" d="M665.841,406.73s-6.075,6.568-9.852,1.148l-3.612,2.463.658,3.777L650.9,442.684a33.311,33.311,0,0,1,9.522,1.148,6.11,6.11,0,0,0,6.4-1.478l-.649-25.117,1.478-7.716Z" transform="translate(-525.626 -327.808)" opacity="0.1"/>
    <path id="Path_1823" data-name="Path 1823" d="M665.841,404.34s-6.075,6.568-9.852,1.148l-3.612,2.463.658,3.777L650.9,440.294a33.311,33.311,0,0,1,9.522,1.148,6.11,6.11,0,0,0,6.4-1.478l-.649-25.117,1.478-7.716Z" transform="translate(-525.626 -325.911)" fill="#53526b"/>
    <g id="TESLA" transform="translate(126.173 107.001)">
      <g id="g8">
        <path id="polyline10" d="M614.158,522.36v1.035h-.33v-.689h-1.206v.689h-.332v-1.033l1.868,0" transform="translate(-612.243 -521.684)" fill="#e82127"/>
        <path id="path12" d="M656.88,543.282h-1.274a.47.47,0,0,1-.346-.342h1.965a.472.472,0,0,1-.346.342" transform="translate(-655.26 -542.94)" fill="#e82127"/>
      </g>
      <g id="g30" transform="translate(10.992 0.012)">
        <path id="path32" d="M710.728,543a.476.476,0,0,1-.344.34h-.536l-.027.01V544.7h-.33V543.35l-.031-.01h-.536a.482.482,0,0,1-.344-.34h2.148" transform="translate(-708.58 -543)" fill="#e82127"/>
      </g>
    </g>
    <path id="Path_1824" data-name="Path 1824" d="M632.336,569.2s0,4.269-.985,6.075-6.731.825-6.731.825l1.148-6.075Z" transform="translate(-504.763 -456.786)" fill="#d6dbe6"/>
    <path id="Path_1825" data-name="Path 1825" d="M625.324,587.423c.866.825,4.455-.825,4.207-1.806-.173-.695-.779-3.181-1.123-4.591l-.239-.992s-2.1-.658-2.845,0a4.681,4.681,0,0,0-.548,2.319C624.623,584.331,624.778,586.9,625.324,587.423Z" transform="translate(-504.843 -465.155)" fill="#fdc2cc"/>
    <path id="Path_1826" data-name="Path 1826" d="M666,375.754l5.745,4.432s8.536-.493,6.4-4.6a15.3,15.3,0,0,1-1.649-5.8,12.13,12.13,0,0,1,0-2.245s-7.881-7.215-6.9.985a18.608,18.608,0,0,1,.136,1.9C669.857,376.581,666,375.754,666,375.754Z" transform="translate(-537.613 -294.371)" fill="#fdc2cc"/>
    <path id="Path_1827" data-name="Path 1827" d="M683.232,368.524a18.592,18.592,0,0,1,.136,1.9,5.381,5.381,0,0,0,2.983.895c1.47,0,2.552-1.431,3.529-2.381-.109-1.363.245-1.4.245-1.4S682.246,360.316,683.232,368.524Z" transform="translate(-551.225 -294.364)" opacity="0.1"/>
    <circle id="Ellipse_1137" data-name="Ellipse 1137" cx="5.417" cy="5.417" r="5.417" transform="translate(129.708 65.788)" fill="#fdc2cc"/>
    <path id="Path_1828" data-name="Path 1828" d="M700.4,394.38s.9.082,2.709,2.544,5.745,2.791,5.745,2.791,1.478-.658,3.119,6.731,2.134,12.313,1.313,13.133a11.951,11.951,0,0,1-5.753,1.973s-.493,10.342.328,12.148a2.8,2.8,0,0,1-.165,2.956l-7.215-.493a17.171,17.171,0,0,1-2.956-8.536c-.493-5.417-2.134-20.852-1.313-22.657s4.432-6.4,4.269-6.9A29.649,29.649,0,0,1,700.4,394.38Z" transform="translate(-561.416 -318.004)" opacity="0.1"/>
    <path id="Path_1829" data-name="Path 1829" d="M701.7,394.14s1.214-.033,3.02,2.43,5.743,2.791,5.743,2.791,1.478-.658,3.119,6.731,2.134,12.313,1.313,13.133a11.948,11.948,0,0,1-5.745,1.971s-.493,10.342.328,12.148a2.8,2.8,0,0,1-.165,2.956l-7.215-.493a17.17,17.17,0,0,1-2.956-8.536c-.493-5.417-2.138-20.849-1.317-22.647s4.432-6.4,4.269-6.9S701.7,394.14,701.7,394.14Z" transform="translate(-562.696 -317.813)" fill="#d6dbe6"/>
    <path id="Path_1830" data-name="Path 1830" d="M625,582.344a5.382,5.382,0,0,1,3.632-1.328l-.239-.992s-2.1-.658-2.845,0A4.605,4.605,0,0,0,625,582.344Z" transform="translate(-505.065 -465.147)" opacity="0.1"/>
    <path id="Path_1831" data-name="Path 1831" d="M636.9,399.16s-4.187,2.709-4.68,3.859a5.223,5.223,0,0,1-2.3,1.971s-3.447,1.806-3.447,8.209l-1.806,9.029,8.209,11.493s.985-11.493,1.478-14.284,1.148-8.04,1.148-8.04,2.463-3.119,2.134-3.939S636.9,399.16,636.9,399.16Z" transform="translate(-504.803 -321.799)" opacity="0.1"/>
    <path id="Path_1832" data-name="Path 1832" d="M634.956,398.92s-4.366,2.43-4.857,3.579a5.227,5.227,0,0,1-2.3,1.971s-3.447,1.806-3.447,8.209l-1.806,9.029-.328,17.238s2.956-2.791,5.09-1.478,3.447-4.269,3.447-4.269.985-11.493,1.478-14.284,1.148-8.04,1.148-8.04,2.463-3.119,2.134-3.939S634.956,398.92,634.956,398.92Z" transform="translate(-502.858 -321.608)" fill="#d6dbe6"/>
    <path id="Path_1833" data-name="Path 1833" d="M672.7,330.144a5.359,5.359,0,0,1,.957-.944,2.93,2.93,0,0,1,1.89-.919,2.828,2.828,0,0,1,1.117.4q2.618,1.379,5.222,2.787a4.856,4.856,0,0,1,1.75,1.336,5.15,5.15,0,0,1,.755,2.206,5.406,5.406,0,0,1,.074,1.612,2.022,2.022,0,0,1-.713,1.354c-.468.34-1.109.342-1.5.787a4.386,4.386,0,0,0-.486.932c-.161.313-.439.618-.757.563a.794.794,0,0,1-.555-.732,4.445,4.445,0,0,1,.06-1.031,2.44,2.44,0,0,0-.375-1.734c-.247-.313-.6-.5-.841-.825-.573-.775-.311-2.061-.94-2.789a1.49,1.49,0,0,0-1.443-.412,6.169,6.169,0,0,0-1.443.618,10.718,10.718,0,0,1-1.977.763c-.573.157-1.237.532-1.433-.231A5.083,5.083,0,0,1,672.7,330.144Z" transform="translate(-542.328 -265.529)" opacity="0.1"/>
    <path id="Path_1834" data-name="Path 1834" d="M673.494,329.354a5.36,5.36,0,0,1,.957-.944,2.93,2.93,0,0,1,1.89-.919,2.828,2.828,0,0,1,1.117.4c1.744.919,3.193.049,5.222,2.787.433.585,1.3.713,1.75,1.336a5.15,5.15,0,0,1,.755,2.206,5.406,5.406,0,0,1,.074,1.612,2.022,2.022,0,0,1-.713,1.354c-.468.34-1.109.342-1.5.787a4.386,4.386,0,0,0-.486.932c-.161.313-.439.618-.757.563a.794.794,0,0,1-.555-.732,4.442,4.442,0,0,1,.06-1.031,2.44,2.44,0,0,0-.375-1.734c-.247-.313-.6-.5-.841-.825-.573-.775-.311-2.061-.94-2.789a1.49,1.49,0,0,0-1.443-.412,6.168,6.168,0,0,0-1.443.618,10.718,10.718,0,0,1-1.977.763c-.573.157-1.237.532-1.433-.231A5.071,5.071,0,0,1,673.494,329.354Z" transform="translate(-542.96 -264.902)" fill="#865a61"/>
    <path id="Path_1835" data-name="Path 1835" d="M736.4,458.09s2.189,5.582.546,7.881l-3.612-.825s3.284.985,2.791-.985S736.4,458.09,736.4,458.09Z" transform="translate(-591.064 -368.58)" opacity="0.1"/>
    <path id="Path_1836" data-name="Path 1836" d="M730.605,522.468s-4.762.328-6.075-.658a12.574,12.574,0,0,0,5.927,2.463Z" transform="translate(-584.078 -419.165)" opacity="0.1"/>
    <path id="Path_1837" data-name="Path 1837" d="M645.608,474s-2.463,7.553-2.3,8.7.493,13.791.493,13.791l.493-.165-.165-13.791Z" transform="translate(-519.594 -381.211)" opacity="0.1"/>
    <path id="Path_1838" data-name="Path 1838" d="M311.156,150.392,254.878,105.04a3.521,3.521,0,0,0-2.494-1.031h-2.391a30.509,30.509,0,1,0-5.284,5.283v2.389a3.521,3.521,0,0,0,1.031,2.494l56.277,45.352a3.5,3.5,0,0,0,4.976,0l4.148-4.143A3.539,3.539,0,0,0,311.156,150.392Zm-85.235-46.383a18.771,18.771,0,1,1,13.29-5.5,18.788,18.788,0,0,1-13.29,5.5Z" transform="translate(-164.049 -48.371)" fill="url(#linear-gradient-5)"/>
    <path id="Path_1839" data-name="Path 1839" d="M313.156,148.392,256.878,103.04a3.521,3.521,0,0,0-2.494-1.031h-2.391a30.509,30.509,0,1,0-5.283,5.283v2.389a3.521,3.521,0,0,0,1.031,2.494l56.277,45.352a3.5,3.5,0,0,0,4.976,0l4.148-4.144a3.54,3.54,0,0,0,.014-4.993Zm-85.235-46.383a18.771,18.771,0,1,1,13.29-5.5,18.788,18.788,0,0,1-13.29,5.5Z" transform="translate(-165.637 -46.784)" fill="#846be2"/>
    <path id="Path_1840" data-name="Path 1840" d="M710.892,476.609s-8.215-9.421-7.06-2.956c.825,4.6,3.939,7.06,5.417,7.553S710.892,476.609,710.892,476.609Z" transform="translate(-567.558 -379.136)" fill="#fdc2cc"/>
    <path id="Path_1841" data-name="Path 1841" d="M727.208,454.51s.165,6.075.985,6.9-.493,1.806-.493,1.806l-3.284-.825s.825,5.417-2.626,4.762a10.465,10.465,0,0,0,4.6,2.463c2.3.33,2.134-.493,2.134-.493l3.447-4.1Z" transform="translate(-581.902 -365.738)" fill="#d6dbe6"/>
    <path id="Path_1842" data-name="Path 1842" d="M702.135,490.042l3.331-.732-.445-1.536-2.061-.825-2.68,1.237Z" transform="translate(-555.921 -386.573)" fill="#d6dbe6"/>
    <path id="Path_1843" data-name="Path 1843" d="M280.78,145.829a13.952,13.952,0,0,0,2.8,8.407c.183.245.375.482.575.715.107.126.219.249.332.371q.085.095.173.186a13.753,13.753,0,0,0,1.5,1.358l.037.027a13.958,13.958,0,0,0,4.152,2.23l.188.06c.115.039.235.074.353.107l.047.014c.06.016.12.035.181.049a13.958,13.958,0,0,0,3.676.489c.206,0,.423,0,.633-.014a13.861,13.861,0,0,0,3.251-.532h.021c.2-.058.39-.118.581-.183h.021l.175-.062a13.592,13.592,0,0,0,1.938-.858l.039-.021.206-.113a13.982,13.982,0,0,0,2.544-1.831l.068-.064a13.107,13.107,0,0,0,1.2-1.237l.043-.052c.035-.039.068-.078.1-.12.091-.107.177-.219.264-.33a14.018,14.018,0,1,0-25.092-8.6Z" transform="translate(-231.804 -109.564)" fill="#c0bccf"/>
    <path id="Path_1844" data-name="Path 1844" d="M296.459,162.385s3.041-.258,4.434-2.191c1.358-1.882,2.282-1.9,2.327-1.9h0c.035-.251.06-.491.076-.713v-.031a.413.413,0,0,1-.192.085c-.272.041-.511-.216-.647-.491a3.828,3.828,0,0,0-.412-.812c-.336-.388-.886-.39-1.286-.684a1.769,1.769,0,0,1-.618-1.179,3.247,3.247,0,0,1-.025-.515,5.707,5.707,0,0,1,.087-1.1,4.526,4.526,0,0,1,.647-1.919c.381-.538,1.128-.653,1.5-1.163,1.738-2.383,2.977-1.626,4.471-2.426a2.4,2.4,0,0,1,.957-.348,2.5,2.5,0,0,1,1.618.8,4.621,4.621,0,0,1,.825.825,4.474,4.474,0,0,1,.651,2.5,3.749,3.749,0,0,1-.095.979c-.12.474-.443.443-.8.336a4.284,4.284,0,0,1-1.455,5.376v.216a.372.372,0,0,0,0,.047,9.759,9.759,0,0,0,.033.985c.035.019,3.368,1.909,3.746,2.806a4.071,4.071,0,0,0,1.775,1.546,5.546,5.546,0,0,1,2.268,3.414l-.043.052a13.226,13.226,0,0,1-1.2,1.262l-.068.066a13.991,13.991,0,0,1-2.544,1.855c-.066.039-.134.078-.206.115l-.039.021a13.477,13.477,0,0,1-1.938.872l-.175.064h-.021c-.192.068-.385.128-.581.186h-.021a13.65,13.65,0,0,1-3.251.54c-.206.01-.412.014-.633.014a13.74,13.74,0,0,1-3.665-.476c-.062-.014-.122-.033-.181-.049l-.047-.014c-.117-.033-.237-.07-.352-.109l-.188-.06a13.9,13.9,0,0,1-4.158-2.27l-.037-.027a13.836,13.836,0,0,1-1.5-1.381q-.089-.091-.173-.19c-.113-.124-.225-.249-.332-.377-.206-.237-.392-.478-.575-.728C295.523,161.96,296.459,162.385,296.459,162.385Z" transform="translate(-242.632 -121.612)" fill="url(#linear-gradient-6)"/>
    <path id="Path_1845" data-name="Path 1845" d="M335.282,192.117l4.434-3.42s-2.971.637-2.886-4.111a.361.361,0,0,1,0-.047,12.15,12.15,0,0,1,.1-1.416c.761-6.335-5.321-.761-5.321-.761a9.069,9.069,0,0,1,0,1.686v.045a11.779,11.779,0,0,1-1.266,4.475C328.7,191.735,335.282,192.117,335.282,192.117Z" transform="translate(-270.942 -147.893)" fill="#fdc2cc"/>
    <path id="Path_1846" data-name="Path 1846" d="M338.061,183.168c.752.732,1.212,2.061,2.344,2.061a4.154,4.154,0,0,0,2.3-.691,12.149,12.149,0,0,1,.1-1.416c.761-6.335-5.321-.761-5.321-.761S338.141,182.137,338.061,183.168Z" transform="translate(-276.824 -147.893)" opacity="0.1"/>
    <circle id="Ellipse_1138" data-name="Ellipse 1138" cx="4.181" cy="4.181" r="4.181" transform="translate(59.401 28.769)" fill="#fdc2cc"/>
    <path id="Path_1847" data-name="Path 1847" d="M332.165,151.6a4.587,4.587,0,0,0-.825-.808,2.5,2.5,0,0,0-1.618-.787,2.422,2.422,0,0,0-.957.342c-1.495.787-2.733.043-4.471,2.385-.371.5-1.115.618-1.5,1.144a4.385,4.385,0,0,0-.647,1.888,4.63,4.63,0,0,0-.064,1.381,1.73,1.73,0,0,0,.618,1.159c.4.291.95.293,1.286.674a3.74,3.74,0,0,1,.412.8c.136.268.375.522.647.482a.667.667,0,0,0,.474-.618,3.8,3.8,0,0,0-.052-.88,2.106,2.106,0,0,1,.322-1.484c.206-.27.515-.431.719-.705.491-.662.268-1.773.806-2.387a1.276,1.276,0,0,1,1.237-.344,5.271,5.271,0,0,1,1.237.532,9.177,9.177,0,0,0,1.692.653c.491.134,1.06.456,1.227-.206A4.357,4.357,0,0,0,332.165,151.6Z" transform="translate(-264.574 -124.001)" opacity="0.1"/>
    <path id="Path_1848" data-name="Path 1848" d="M332.165,150.6a4.587,4.587,0,0,0-.825-.808,2.5,2.5,0,0,0-1.618-.787,2.422,2.422,0,0,0-.957.342c-1.495.787-2.733.043-4.471,2.385-.371.5-1.115.618-1.5,1.144a4.385,4.385,0,0,0-.647,1.888,4.631,4.631,0,0,0-.064,1.381,1.729,1.729,0,0,0,.618,1.159c.4.291.95.293,1.286.674a3.74,3.74,0,0,1,.412.8c.136.268.375.522.647.482a.667.667,0,0,0,.474-.618,3.8,3.8,0,0,0-.052-.88,2.106,2.106,0,0,1,.322-1.484c.206-.27.515-.431.719-.705.491-.662.268-1.773.806-2.387a1.276,1.276,0,0,1,1.237-.344,5.271,5.271,0,0,1,1.237.532,9.179,9.179,0,0,0,1.692.653c.491.134,1.06.456,1.227-.206A4.357,4.357,0,0,0,332.165,150.6Z" transform="translate(-264.574 -123.207)" fill="#865a61"/>
    <path id="Path_1849" data-name="Path 1849" d="M326.984,217.866l-.082,3.164a13.959,13.959,0,0,0,3.676.489c.206,0,.423,0,.633-.014a13.861,13.861,0,0,0,3.251-.532h.021c.2-.058.39-.118.581-.183h.021l.175-.062a13.589,13.589,0,0,0,1.938-.858l.039-.021.206-.113-.32-4.265.509-2.925-2.787-1.9a4.908,4.908,0,0,1-.524.635,3.5,3.5,0,0,1-.952.705c-2,.985-4.275-.581-5.407-1.55l-.258-.229c-.293-.266-.46-.447-.46-.447l-1.394,2.152Z" transform="translate(-267.583 -171.442)" opacity="0.1"/>
    <path id="Path_1850" data-name="Path 1850" d="M326.984,218.866l-.082,3.164a13.959,13.959,0,0,0,3.676.489c.206,0,.423,0,.633-.014a13.861,13.861,0,0,0,3.251-.532h.021c.2-.058.39-.118.581-.183h.021l.175-.062a13.589,13.589,0,0,0,1.938-.858l.039-.021.206-.113-.32-4.265.509-2.925-2.787-1.9a4.908,4.908,0,0,1-.524.635,3.5,3.5,0,0,1-.952.705c-2,.985-4.275-.581-5.407-1.55l-.258-.229c-.293-.266-.46-.447-.46-.447l-1.394,2.152Z" transform="translate(-267.583 -172.236)" fill="#53526b"/>
    <path id="Path_1851" data-name="Path 1851" d="M294.36,210.644c.183.245.375.482.575.715.107.126.219.249.332.371q.085.095.173.186a13.755,13.755,0,0,0,1.5,1.358l.037.027a13.958,13.958,0,0,0,4.152,2.23l.188.06c.115.039.235.074.353.107l.047.014c.06.016.12.035.181.049a13.959,13.959,0,0,0,3.676.489c.206,0,.423,0,.633-.014.161-2.63.206-4.741-.045-5.283a8.508,8.508,0,0,0-.509-.911c-1.018-1.637-2.886-4.1-2.785-4.409a3.228,3.228,0,0,0,.085-.464c.109-.812.219-2.3.219-2.3h0c-.045,0-.969.023-2.327,1.874-1.394,1.9-4.434,2.154-4.434,2.154S295.475,206.486,294.36,210.644Z" transform="translate(-242.585 -165.973)" fill="#555388"/>
    <path id="Path_1852" data-name="Path 1852" d="M362.431,215.841s.153,1.214.353,2.665h.021l.175-.062a13.591,13.591,0,0,0,1.938-.858l.039-.021.206-.113a13.982,13.982,0,0,0,2.544-1.831l.068-.064a13.1,13.1,0,0,0,1.2-1.237l.043-.052a5.453,5.453,0,0,0-2.268-3.358,4.049,4.049,0,0,1-1.775-1.521c-.381-.886-3.748-2.76-3.748-2.76v.014c0,.159-.054,1.612-.134,3.074-.052.95-.115,1.9-.19,2.511a2.933,2.933,0,0,1-.107.581C360.533,213.435,362.431,215.841,362.431,215.841Z" transform="translate(-295.305 -168.958)" fill="#555388"/>
  </g>
</svg>
