<svg xmlns="http://www.w3.org/2000/svg" width="249.191" height="189.279" viewBox="0 0 249.191 189.279">
  <g id="undraw_google_docs_jf93" transform="translate(0)">
    <rect id="Rectangle_1" data-name="Rectangle 1" width="117.299" height="150.851" transform="translate(71.839 5.753)" fill="#e6e8ec"/>
    <rect id="Rectangle_2" data-name="Rectangle 2" width="59.885" height="0.673" transform="translate(99.365 33.06)" fill="#3f3d56"/>
    <rect id="Rectangle_3" data-name="Rectangle 3" width="59.885" height="0.673" transform="translate(99.365 37.77)" fill="#3f3d56"/>
    <rect id="Rectangle_4" data-name="Rectangle 4" width="59.885" height="0.673" transform="translate(99.365 42.48)" fill="#3f3d56"/>
    <rect id="Rectangle_5" data-name="Rectangle 5" width="59.885" height="0.673" transform="translate(99.365 68.137)" fill="#6c63ff"/>
    <rect id="Rectangle_6" data-name="Rectangle 6" width="59.885" height="0.673" transform="translate(99.365 72.847)" fill="#6c63ff"/>
    <rect id="Rectangle_7" data-name="Rectangle 7" width="59.885" height="0.673" transform="translate(99.365 77.557)" fill="#3f3d56"/>
    <rect id="Rectangle_8" data-name="Rectangle 8" width="59.885" height="0.673" transform="translate(99.365 89.464)" fill="#3f3d56"/>
    <rect id="Rectangle_9" data-name="Rectangle 9" width="59.885" height="0.673" transform="translate(99.365 94.174)" fill="#3f3d56"/>
    <rect id="Rectangle_10" data-name="Rectangle 10" width="59.885" height="0.673" transform="translate(99.365 98.885)" fill="#3f3d56"/>
    <rect id="Rectangle_11" data-name="Rectangle 11" width="59.885" height="0.673" transform="translate(99.365 110.791)" fill="#3f3d56"/>
    <rect id="Rectangle_12" data-name="Rectangle 12" width="59.885" height="0.673" transform="translate(99.365 115.502)" fill="#6c63ff"/>
    <rect id="Rectangle_13" data-name="Rectangle 13" width="59.885" height="0.673" transform="translate(99.365 120.212)" fill="#3f3d56"/>
    <rect id="Rectangle_14" data-name="Rectangle 14" width="59.885" height="0.673" transform="translate(99.365 132.119)" fill="#3f3d56"/>
    <rect id="Rectangle_15" data-name="Rectangle 15" width="59.885" height="0.673" transform="translate(99.365 136.829)" fill="#3f3d56"/>
    <rect id="Rectangle_16" data-name="Rectangle 16" width="59.885" height="0.673" transform="translate(99.365 141.539)" fill="#3f3d56"/>
    <path id="Path_1" data-name="Path 1" d="M536.5,280.28h-126V112.75h126Zm-125.437-.561H535.937V113.311H411.061Z" transform="translate(-339.082 -112.75)" fill="#3f3d56"/>
    <path id="Path_2" data-name="Path 2" d="M750.632,149.9a3.643,3.643,0,0,1,1.823-3.156,3.648,3.648,0,1,0,0,6.312A3.643,3.643,0,0,1,750.632,149.9Z" transform="translate(-581.137 -136.85)" fill="#3f3d56"/>
    <path id="Path_3" data-name="Path 3" d="M767.632,149.9a3.643,3.643,0,0,1,1.823-3.156,3.648,3.648,0,1,0,0,6.312A3.644,3.644,0,0,1,767.632,149.9Z" transform="translate(-593.367 -136.85)" fill="#6c63ff"/>
    <circle id="Ellipse_1" data-name="Ellipse 1" cx="3.648" cy="3.648" r="3.648" transform="translate(175.388 9.401)" fill="#3f3d56"/>
    <path id="Path_4" data-name="Path 4" d="M751.086,655.993l-.3-.113c-.066-.025-6.653-2.549-9.739-8.271s-1.575-12.613-1.559-12.681l.071-.314.3.113c.066.025,6.653,2.549,9.739,8.271s1.575,12.613,1.559,12.681Zm-9.546-8.65c2.609,4.838,7.814,7.318,9.133,7.884.251-1.414,1.037-7.13-1.569-11.963s-7.813-7.317-9.133-7.885C739.72,636.794,738.934,642.51,741.54,647.343Z" transform="translate(-575.473 -488.168)" fill="#3f3d56"/>
    <path id="Path_5" data-name="Path 5" d="M722.641,667.783c5.545,3.336,7.681,9.963,7.681,9.963s-6.855,1.218-12.4-2.119-7.681-9.963-7.681-9.963S717.1,664.447,722.641,667.783Z" transform="translate(-554.71 -510.349)" fill="#6c63ff"/>
    <path id="Path_6" data-name="Path 6" d="M339.613,195.557a30.324,30.324,0,0,1-15.964,26.7c-.368.2-.736.388-1.109.567a30.353,30.353,0,0,1-26.564-.048q-1.069-.522-2.088-1.128c-.69-.4-1.361-.839-2.012-1.3a30.312,30.312,0,0,1,3.752-51.845,29.8,29.8,0,0,1,5.781-2.217q1.322-.358,2.688-.595a30.338,30.338,0,0,1,5.208-.446c.359,0,.716.006,1.072.022q.391.008.783.034a30.141,30.141,0,0,1,8.006,1.586c.222.076.443.154.662.236q1.145.421,2.239.937A30.3,30.3,0,0,1,339.613,195.557Z" transform="translate(-244.483 -150.517)" fill="#3f3d56"/>
    <path id="Path_7" data-name="Path 7" d="M352.955,142.578c-2.757-6.506-9.776-7.735-9.776-7.735s-6.758-1.8-12.4,6.784c-5.261,8-12.045,15.5-3.441,18.7l2.273-4.773.273,5.493a35.022,35.022,0,0,0,3.787.575c9.543.969,18.539,2.581,18.705-.867C352.595,156.166,355.608,148.838,352.955,142.578Z" transform="translate(-276.302 -128.53)" fill="#2f2e41"/>
    <path id="Path_8" data-name="Path 8" d="M329.641,349.393l-.225,1.8-.427,3.39q-1.069-.522-2.088-1.128c-.69-.4-1.361-.839-2.012-1.3l.067-1.748.076-1.939,3.115.626Z" transform="translate(-277.496 -282.322)" fill="#ffb8b8"/>
    <path id="Path_9" data-name="Path 9" d="M436.925,344.155a30.335,30.335,0,0,1-4.338,2.834l-1.47-5.093-.194-.671-.483-1.675.519-.081,5.315-.839.171,1.445Z" transform="translate(-353.427 -275.243)" fill="#ffb8b8"/>
    <circle id="Ellipse_2" data-name="Ellipse 2" cx="8.29" cy="8.29" r="8.29" transform="translate(58.591 10.884)" fill="#ffb8b8"/>
    <path id="Path_10" data-name="Path 10" d="M370.426,192.564S371.04,203,369.2,203.617s9.518,0,9.518,0-1.535-6.448,0-8.29S370.426,192.564,370.426,192.564Z" transform="translate(-309.225 -170.167)" fill="#ffb8b8"/>
    <path id="Path_11" data-name="Path 11" d="M364.826,225.234s-7.983-.614-9.518,0a51.2,51.2,0,0,0-5.834,3.684l2.149,19.343,17.5,3.684,2.763-3.991,2.763-5.833-1.228-7.369-.307-4.3Z" transform="translate(-295.182 -193.473)" fill="#d0cde1"/>
    <path id="Path_12" data-name="Path 12" d="M329.05,243.44s-3.991.921-4.3,3.991a76.918,76.918,0,0,0,0,11.974c.307,1.228,0,1.842-.307,2.149s-.921-.307-.307.614.614.921.307,1.842-1.228-.307-.614,1.228.921,1.842.614,2.149-1.228,7.369-1.228,7.369l5.219.921,5.219-18.115Z" transform="translate(-276.292 -206.765)" fill="#d0cde1"/>
    <path id="Path_13" data-name="Path 13" d="M423.835,243.44a3.272,3.272,0,0,1,2.763,1.842c.921,1.842,3.377,13.816,3.07,14.737s-.921-.307-.307,1.535,0,1.535.307,2.763-1.228,0,0,1.228,1.842,1.535,1.228,2.149-1.535-.614-.614.614a5.859,5.859,0,0,1,.921,3.07l-7.369,1.535-2.149-17.194Z" transform="translate(-347.129 -206.765)" fill="#d0cde1"/>
    <path id="Path_14" data-name="Path 14" d="M360.344,269.886l.368,5.657a30.353,30.353,0,0,1-26.564-.048q-1.069-.522-2.088-1.128c.236-.867.474-1.731.718-2.579q.261-.9.528-1.782c1.378-4.51,2.862-8.346,4.254-9.836,0,0,0-3.376.615-3.685a2.028,2.028,0,0,0,.651-.892,11.971,11.971,0,0,0,.578-1.563l-1.016-2.363-4.546-10.585a1.293,1.293,0,0,1,.609-1.664l1.507-.755a1.294,1.294,0,0,1,1.737.589l6.929,14.163,7.675,4.914,5.382-2.394.143-.065s3.993-6.14,2.764-9.21c-.525-1.31-1.1-3.062-1.6-4.641-.289-.932-.547-1.8-.749-2.489a.552.552,0,0,1,.836-.615l1.047.7a1.522,1.522,0,0,1,.542.643,1.383,1.383,0,0,1,.107.32l2.273,11-3.07,6.446v6.14l.213,3.3.112,1.726Z" transform="translate(-282.654 -203.233)" fill="#2f2e41"/>
    <path id="Path_15" data-name="Path 15" d="M219.512,32.192l-7.034-3.685-9.714,1.507-2.01,8.877,5-.192,1.4-3.261v3.207l2.308-.089,1.34-5.192.837,5.527,8.207-.167Z" transform="translate(-144.418 -20.507)" fill="#2f2e41"/>
    <ellipse id="Ellipse_3" data-name="Ellipse 3" cx="0.921" cy="1.612" rx="0.921" ry="1.612" transform="translate(57.517 17.562)" fill="#ffb8b8"/>
    <path id="Path_16" data-name="Path 16" d="M860.62,375.386a30.118,30.118,0,0,1-21.607,28.644,30.791,30.791,0,0,1-5.668,1.167,31.6,31.6,0,0,1-3.535.2c-.439,0-.876-.008-1.309-.031h-.006a31.22,31.22,0,0,1-12.672-3.234,30.863,30.863,0,0,1-7.566-5.3A29.528,29.528,0,0,1,799,375.386a30.044,30.044,0,0,1,19.59-27.955,30.658,30.658,0,0,1,4.214-1.273,31.751,31.751,0,0,1,15.973.514c.394.111.785.236,1.17.37l.009,0a29.115,29.115,0,0,1,2.727,1.073c.305.133.61.275.91.425q.9.433,1.763.931c.223.125.442.253.659.386a30.61,30.61,0,0,1,9.029,8.3,29.472,29.472,0,0,1,4.707,10.125,29.16,29.16,0,0,1,.87,7.1Z" transform="translate(-618.561 -280.097)" fill="#6c63ff"/>
    <path id="Path_17" data-name="Path 17" d="M954.928,263.551l4.218-1.281.364-3.618s-10.258-3.774-13.538,2.9a10.682,10.682,0,0,1-4.021,4.618,7.589,7.589,0,0,1-6.452.541c-7.11-2.529-8.784,4.663-8.784,4.663s.615,1.024,5,1.275c2.181.125,3.966,1.724,5.208,3.3a5.5,5.5,0,0,0,9.468-1.649q.032-.1.064-.2c2.1-6.689,11.641-1.363,11.641-1.363l.609-6.059Z" transform="translate(-710.436 -216.945)" fill="#2f2e41"/>
    <ellipse id="Ellipse_4" data-name="Ellipse 4" cx="5.166" cy="5.031" rx="5.166" ry="5.031" transform="translate(210.587 52.917)" fill="#2f2e41"/>
    <ellipse id="Ellipse_5" data-name="Ellipse 5" cx="13.776" cy="13.417" rx="13.776" ry="13.417" transform="translate(199.395 57.949)" fill="#2f2e41"/>
    <ellipse id="Ellipse_6" data-name="Ellipse 6" cx="9.471" cy="9.224" rx="9.471" ry="9.224" transform="translate(203.269 67.033)" fill="#a0616a"/>
    <path id="Path_18" data-name="Path 18" d="M900.81,406.532l1.722,8.945,8.61-1.118s-1.435-6.988-.574-8.945Z" transform="translate(-691.801 -323.286)" fill="#a0616a"/>
    <path id="Path_19" data-name="Path 19" d="M934.878,330.631s-6.888-5.031-9.758-3.075,7.749,8.386,8.9,7.827S934.878,330.631,934.878,330.631Z" transform="translate(-708.937 -266.952)" fill="#a0616a"/>
    <path id="Path_20" data-name="Path 20" d="M882.206,435.725a1.16,1.16,0,0,1-.006.139v0c-.177,4-7.728,16.224-12.084,22.1a30.788,30.788,0,0,1-5.668,1.167,31.589,31.589,0,0,1-3.535.2c-.439,0-.876-.008-1.309-.031H859.6c-4.011-1.261-8.775-2.918-12.25-4.223-1.637-.62-2.99-1.159-3.84-1.542a5.5,5.5,0,0,1-.907-.475c-1.435-1.12,1.723-1.959,3.158-2.237s-.573-3.354-.573-3.354c-5.166-5.313,1.147-9.783,1.147-9.783s2.582-5.313,2.582-6.71a.5.5,0,0,1,.111-.284c1.081-1.489,9.648-4.187,9.648-4.187V422.03l.887-.144,8.73-1.417.713-.117,1.435,2.237,6.316.839S882.206,430.7,882.206,435.725Z" transform="translate(-649.664 -334.032)" fill="#d0cde1"/>
    <path id="Path_21" data-name="Path 21" d="M847.57,462.189s-3.783,10.214-7.238,18.491c-.12.289-.24.575-.357.859-.143.333-.282.664-.422.989a30.862,30.862,0,0,1-7.566-5.3c1.552-4.915,4.014-12.726,4.964-15.874,1.047-3.47,3.469-4.107,4.7-4.2a3.777,3.777,0,0,1,.75.006Z" transform="translate(-642.292 -360.496)" fill="#d0cde1"/>
    <path id="Path_22" data-name="Path 22" d="M955.918,364.057l.861-.839s10.906-11.461,10.619-14.256c0,0-5.74-6.988-12.915-5.031,0,0-3.157-7.547,1.722-7.268s22.959-.839,22.672,7.268-17.506,32.984-17.506,32.984Z" transform="translate(-729.69 -273.823)" fill="#d0cde1"/>
    <path id="Path_23" data-name="Path 23" d="M867.175,542.976a31.615,31.615,0,0,1-3.535.2c-.439,0-.876-.008-1.309-.031h-.006a31.219,31.219,0,0,1-12.672-3.234,30.748,30.748,0,0,1-3.626-2.12l.208-.411v0l.243-.472,3.954,1.159Z" transform="translate(-652.392 -417.876)" fill="#2f2e41"/>
    <ellipse id="Ellipse_7" data-name="Ellipse 7" cx="5.885" cy="9.446" rx="5.885" ry="9.446" transform="matrix(0.305, -0.952, 0.952, 0.305, 202.38, 71.854)" fill="#2f2e41"/>
    <path id="Path_24" data-name="Path 24" d="M156,601.557a30.218,30.218,0,0,0,10.877,23.261c.154.129.311.258.471.384q.5.4,1.01.777.741.547,1.515,1.047a30.356,30.356,0,0,0,27.633,2.7c.213-.084.427-.171.637-.261.337-.143.668-.292,1-.449q1.259-.585,2.455-1.288,1.233-.72,2.385-1.549c.351-.253.69-.508,1.03-.775l.006,0a30.389,30.389,0,0,0,9.827-13.619v0a30.347,30.347,0,0,0-12.213-35.762c-.267-.168-.536-.337-.808-.494-.281-.174-.567-.337-.856-.494a30.051,30.051,0,0,0-12.65-3.713q-1-.067-2.012-.067c-.034,0-.067,0-.1,0q-1.364,0-2.694.126A30.306,30.306,0,0,0,156,601.557Z" transform="translate(-156 -442.585)" fill="#3f3d56"/>
    <path id="Path_25" data-name="Path 25" d="M375.312,702.6s8.851-9.146,11.212-3.541-8.851,8.556-8.851,8.556Z" transform="translate(-313.768 -533.222)" fill="#ffb8b8"/>
    <path id="Path_26" data-name="Path 26" d="M196.44,760.387q.5.4,1.01.777.741.547,1.515,1.047a30.356,30.356,0,0,0,27.633,2.7c.213-.084.427-.171.637-.261.337-.143.668-.292,1-.449l-.777-1.117a8.7,8.7,0,0,0-1.877-1.339c-5.318-2.888-15.333-2.8-22.11-2.324-.965.067-1.863.143-2.672.219-.505.045-.977.093-1.406.138l-.5.053c-1.513.168-2.419.3-2.419.3Z" transform="translate(-185.092 -577.77)" fill="#2f2e41"/>
    <circle id="Ellipse_8" data-name="Ellipse 8" cx="8.479" cy="8.479" r="8.479" transform="translate(28.877 124.746)" fill="#ffb8b8"/>
    <path id="Path_27" data-name="Path 27" d="M248.7,597.529l-6.2,6.491-1.77,10.032,15.638,2.655-1.18-9.146s.3-4.426,1.475-5.311S248.7,597.529,248.7,597.529Z" transform="translate(-216.953 -461.49)" fill="#ffb8b8"/>
    <path id="Path_28" data-name="Path 28" d="M329.049,662.716" transform="translate(-280.488 -508.384)" fill="none" stroke="lime" stroke-miterlimit="10" stroke-width="1"/>
    <path id="Path_29" data-name="Path 29" d="M203.93,661.378a15.924,15.924,0,0,1,1.574-.418,23.555,23.555,0,0,1,4.066-.519,19.838,19.838,0,0,1,9.406,1.821,33.346,33.346,0,0,0,12.909,2.73c.255.008.5.014.738.017.337-.143.668-.292,1-.449q1.259-.585,2.455-1.288l-.011-1.038-.185-20.541v0l-.087-9.819-5.6-6.491-1.44-1.622-.685.615-4.072,3.665-5.935-5.5-2.032-1.88-9.746,32.807-1.257,4.232-.741,2.492-.115.382v0Z" transform="translate(-190.48 -478.13)" fill="#575a89"/>
    <path id="Path_30" data-name="Path 30" d="M284.617,638.336a29.71,29.71,0,0,0,.37,4.4c1.01,6.451,1.877,17.177,4.024,24.922.281,1.021.586,1.987.918,2.888l.1.278c.213-.084.427-.171.637-.261.337-.143.668-.292,1-.449q1.259-.585,2.455-1.288,1.233-.72,2.385-1.549l-.09-.354v0l-1.4-5.6s.9-4.684,1.616-9.923v0c.825-6,1.414-12.715.154-13.975L286.9,628.38l0,0a9.993,9.993,0,0,0-.791,1.543A21.185,21.185,0,0,0,284.617,638.336Z" transform="translate(-248.524 -483.684)" fill="#d0cde1"/>
    <path id="Path_31" data-name="Path 31" d="M175.01,644.9a30.311,30.311,0,0,0,5.542,6.087c.154.129.311.258.471.384q.5.4,1.01.777.741.547,1.515,1.047c.382-.53.766-1.069,1.151-1.611q.341-.476.682-.96c.359-.511.718-1.024,1.072-1.541.045-.062.087-.124.129-.185.449-.648.892-1.3,1.325-1.948,3.188-4.762,5.831-9.333,6.134-12.064.365-3.269,1.1-8.326,1.852-13.156.483-3.137.971-6.179,1.361-8.567.471-2.9.8-4.844.8-4.844s-15.462-1.546-17.629-.028h0a.507.507,0,0,0-.244.337c-.236,1.644,1.027,16.927,1.549,23.1v0c.135,1.583.222,2.565.222,2.565s-.884,1.181-2.18,3.076C178.445,639.3,176.691,641.977,175.01,644.9Z" transform="translate(-169.675 -468.75)" fill="#d0cde1"/>
    <path id="Path_32" data-name="Path 32" d="M315.151,690.053l1.475,11.507,12.982-5.606,4.131,8.556L312.5,712.477S308.66,692.119,315.151,690.053Z" transform="translate(-267.77 -528.05)" fill="#d0cde1"/>
    <path id="Path_33" data-name="Path 33" d="M272.344,555.716a4.154,4.154,0,0,0,1.036-2.8,8.881,8.881,0,0,1,.168-2.648,26.146,26.146,0,0,0-.893-4.027c-.532-1.478-.084-1.992-2.372-2.8s-.832-3.724-7.58-1.4a1.846,1.846,0,0,1-2.008.411c-1.246-.456-2,1.255-2,1.255s-.777-.638-1.213.025-2.545-.848-3.318,3.975a14.869,14.869,0,0,0,1.882,9.123s.373-7.717,4.755-7.857,9.339-1.8,9.954,1.45A23.719,23.719,0,0,0,272.344,555.716Z" transform="translate(-226.517 -420.939)" fill="#2f2e41"/>
    <path id="Path_34" data-name="Path 34" d="M194.76,754.212c.154.129.311.258.471.384q.5.4,1.01.777.741.547,1.515,1.047a30.109,30.109,0,0,0,8.043,3.659c.7-1.785-.971-4-2.826-5.789-.236-.227-.477-.449-.713-.659-.561-.5-1.114-.946-1.6-1.322-.022-.017-.042-.031-.062-.048-.918-.707-1.583-1.142-1.583-1.142l-.589.429Z" transform="translate(-183.883 -571.98)" fill="#ffb8b8"/>
    <path id="Path_35" data-name="Path 35" d="M157.26,634.032a30.341,30.341,0,0,0,10.523,18.608c.154.129.311.258.471.384q.5.4,1.01.777l1.33-.949v0l.612-.435,2.416-1.726.191-.138,1.855-1.325-.53-.623-2.43-2.86L167,639.027l-1.361-1.6,3.32-4.041v0l3.466-4.218-2.949-18.883a3.137,3.137,0,0,0-1.818-.337h0a2.233,2.233,0,0,0-1.72,1.81C165.26,613.992,159.845,627.583,157.26,634.032Z" transform="translate(-156.906 -470.407)" fill="#d0cde1"/>
  </g>
</svg>
