<svg xmlns="http://www.w3.org/2000/svg" xmlns:xlink="http://www.w3.org/1999/xlink" width="250.381" height="172.305" viewBox="0 0 250.381 172.305">
  <defs>
    <linearGradient id="linear-gradient" x1="0.5" y1="1.001" x2="0.5" gradientUnits="objectBoundingBox">
      <stop offset="0" stop-color="gray" stop-opacity="0.251"/>
      <stop offset="0.54" stop-color="gray" stop-opacity="0.122"/>
      <stop offset="1" stop-color="gray" stop-opacity="0.102"/>
    </linearGradient>
    <linearGradient id="linear-gradient-2" x1="0.141" y1="0.451" x2="1.272" y2="0.451" xlink:href="#linear-gradient"/>
  </defs>
  <g id="undraw_going_up_ttm5" transform="translate(0.002 -0.03)">
    <path id="Path_1509" data-name="Path 1509" d="M728.326,277.5a1.659,1.659,0,0,0,.3-.923c0-2-4.084-3.627-9.122-3.627s-9.122,1.622-9.122,3.627a1.711,1.711,0,0,0,.376,1.029c-5.61.626-9.388,1.8-9.388,3.148,0,2,8.353,3.627,18.684,3.627s18.684-1.624,18.684-3.627C738.727,279.336,734.48,278.094,728.326,277.5Z" transform="translate(-553.899 -225.689)" fill="#846be2" opacity="0.1"/>
    <g id="Group_2950" data-name="Group 2950" transform="translate(184.817 12.864)" opacity="0.2">
      <path id="Path_1510" data-name="Path 1510" d="M940.2,747.873a10.518,10.518,0,0,0-.095,1.728q5.746.092,11.542.387c.026-.149.053-.306.075-.462a9.178,9.178,0,0,0-.539-4.774,5.058,5.058,0,0,0-9.113-1.319,9.157,9.157,0,0,0-1.871,4.44Z" transform="translate(-924.972 -603.806)" fill="#3f3d56"/>
      <ellipse id="Ellipse_1075" data-name="Ellipse 1075" cx="7.619" cy="5.821" rx="7.619" ry="5.821" transform="translate(15.481 142.395) rotate(-81.82)" fill="#3f3d56"/>
      <ellipse id="Ellipse_1076" data-name="Ellipse 1076" cx="7.619" cy="5.821" rx="7.619" ry="5.821" transform="translate(16.804 133.179) rotate(-81.82)" fill="#3f3d56"/>
      <ellipse id="Ellipse_1077" data-name="Ellipse 1077" cx="7.619" cy="5.821" rx="7.619" ry="5.821" transform="translate(18.129 123.961) rotate(-81.82)" fill="#3f3d56"/>
      <ellipse id="Ellipse_1078" data-name="Ellipse 1078" cx="7.619" cy="5.821" rx="7.619" ry="5.821" transform="translate(19.453 114.744) rotate(-81.82)" fill="#3f3d56"/>
      <path id="Path_1511" data-name="Path 1511" d="M928.2,164.516a28.285,28.285,0,0,0,2.6-2.858l-14.78-4.653,16.354,2.475a27.934,27.934,0,0,0,3.669-21.8l-23.6,8.236,22.392-11.973a27.879,27.879,0,1,0-50.012,24.335,27.919,27.919,0,0,0-3.869,4.581l18.183,13.031L879.2,165.853a27.888,27.888,0,0,0,.725,26.549,27.877,27.877,0,1,0,43.376,6.234,27.881,27.881,0,0,0,4.9-34.119Z" transform="translate(-871.278 -116.464)" fill="#846be2"/>
      <path id="Path_1512" data-name="Path 1512" d="M876.458,379.448a27.747,27.747,0,0,0,3.453,17.908,27.877,27.877,0,1,0,43.376,6.234C927.659,399.427,876.9,376.351,876.458,379.448Z" transform="translate(-871.27 -321.419)" opacity="0.1"/>
    </g>
    <g id="Group_2951" data-name="Group 2951" transform="translate(-0.002 21.741)" opacity="0.2">
      <path id="Path_1513" data-name="Path 1513" d="M196.456,708.1a8.929,8.929,0,0,0,.385,1.46q4.684-1.508,9.465-2.858c-.018-.132-.037-.268-.062-.4a8.089,8.089,0,0,0-1.71-3.816,4.6,4.6,0,0,0-4.315-1.842,4.722,4.722,0,0,0-3.431,3.262A8.2,8.2,0,0,0,196.456,708.1Z" transform="translate(-159.865 -581.056)" fill="#3f3d56"/>
      <ellipse id="Ellipse_1079" data-name="Ellipse 1079" cx="4.977" cy="6.658" rx="4.977" ry="6.658" transform="translate(34.157 112.319) rotate(-8.99)" fill="#3f3d56"/>
      <ellipse id="Ellipse_1080" data-name="Ellipse 1080" cx="4.991" cy="6.677" rx="4.991" ry="6.677" transform="matrix(0.987, -0.16, 0.16, 0.987, 33.38, 104.464)" fill="#3f3d56"/>
      <ellipse id="Ellipse_1081" data-name="Ellipse 1081" cx="4.977" cy="6.658" rx="4.977" ry="6.658" transform="translate(31.386 96.285) rotate(-8.99)" fill="#3f3d56"/>
      <ellipse id="Ellipse_1082" data-name="Ellipse 1082" cx="4.977" cy="6.658" rx="4.977" ry="6.658" transform="translate(30.003 88.266) rotate(-8.99)" fill="#3f3d56"/>
      <path id="Path_1514" data-name="Path 1514" d="M75.27,192.681a24.84,24.84,0,0,0,1.347-3.077l-13.233.207,13.927-2.455a24.889,24.889,0,0,0,.413-10.432,24.6,24.6,0,0,0-3.249-8.667L57.527,181.6,72.5,165.482a23.428,23.428,0,0,0-22.364-8.243c-12.958,2.378-21.59,15.057-19.3,28.312a24.338,24.338,0,0,0,7.579,13.916,24.683,24.683,0,0,0-1.919,4.869l18.227,5.805L35.86,207.3a24.887,24.887,0,0,0,.092,7.926,24.338,24.338,0,0,0,7.579,13.916,24.826,24.826,0,0,0-2.455,15.763,23.778,23.778,0,0,0,27.589,19.684c12.949-2.385,21.59-15.062,19.3-28.318a24.344,24.344,0,0,0-7.579-13.914A24.839,24.839,0,0,0,82.843,206.6,24.344,24.344,0,0,0,75.27,192.681Z" transform="translate(-30.468 -156.85)" fill="#846be2"/>
      <path id="Path_1515" data-name="Path 1515" d="M55.438,419.807a24.338,24.338,0,0,0,7.579,13.916,24.826,24.826,0,0,0-2.455,15.763A23.778,23.778,0,0,0,88.15,469.171c12.949-2.385,21.59-15.062,19.3-28.318a24.344,24.344,0,0,0-7.579-13.914C102.311,422.274,54.972,417.115,55.438,419.807Z" transform="translate(-49.946 -361.427)" opacity="0.1"/>
    </g>
    <path id="Path_1516" data-name="Path 1516" d="M144.32,651.45c0,11.5,7.212,20.8,16.125,20.8" transform="translate(-119.296 -520.99)" fill="#46455b"/>
    <path id="Path_1517" data-name="Path 1517" d="M217.68,671.424c0-11.626,8.05-21.034,18-21.034" transform="translate(-176.531 -520.163)" fill="#846be2"/>
    <path id="Path_1518" data-name="Path 1518" d="M170.9,656.19c0,10.922,4.6,19.759,10.283,19.759" transform="translate(-140.033 -524.688)" fill="#846be2"/>
    <path id="Path_1519" data-name="Path 1519" d="M217.68,650.687c0-14.855,9.3-26.877,20.8-26.877" transform="translate(-176.531 -499.425)" fill="#46455b"/>
    <ellipse id="Ellipse_1083" data-name="Ellipse 1083" cx="112.324" cy="3.735" rx="112.324" ry="3.735" transform="translate(3.702 156.216)" fill="#846be2" opacity="0.1"/>
    <ellipse id="Ellipse_1084" data-name="Ellipse 1084" cx="4.106" cy="0.695" rx="4.106" ry="0.695" transform="translate(35.181 152.824)" fill="#846be2" opacity="0.1"/>
    <path id="Path_1520" data-name="Path 1520" d="M196.66,737.187a8.564,8.564,0,0,0,3.049-.574c.706-.5,3.6-1.1,3.776-.3s3.517,4.009.879,4.029-6.142-.411-6.847-.84S196.66,737.187,196.66,737.187Z" transform="translate(-160.131 -586.895)" fill="#a8a8a8"/>
    <path id="Path_1521" data-name="Path 1521" d="M204.408,744.542c-2.638.02-6.144-.413-6.847-.842-.536-.325-.752-1.5-.822-2.04h-.079s.149,1.89.853,2.319,4.205.862,6.847.84c.763,0,1.027-.277,1.013-.679C205.268,744.386,204.976,744.537,204.408,744.542Z" transform="translate(-160.131 -591.37)" opacity="0.2"/>
    <path id="Path_1522" data-name="Path 1522" d="M408.523,160.257a33.743,33.743,0,0,0-63.086-9.012,27.005,27.005,0,0,0,2.93,53.854h58.58a22.6,22.6,0,0,0,22.531-22.531A22.256,22.256,0,0,0,408.523,160.257Zm-25.912,13.288v17.123h-14.42V173.544H352.871l22.531-22.52,22.531,22.531Z" transform="translate(-257.397 -116.502)" fill="#846be2"/>
    <path id="Path_1523" data-name="Path 1523" d="M366.163,112.521c-.22-1.255-.112-2.607-.688-3.737a.813.813,0,0,0-.262-.336.9.9,0,0,0-.468-.108c-.521-.02-1.04-.026-1.561-.013a.432.432,0,0,0-.391.149.158.158,0,0,0-.02.044c-.6-.659-1.046-1.493-1.688-2.108.092-.031.182-.059.277-.084a.882.882,0,0,0-.035-.185.226.226,0,0,0-.015-.055c0-.018-.02-.084-.033-.125a.41.41,0,0,0-.022-.062,1.214,1.214,0,0,0-.04-.117.169.169,0,0,0-.024-.059l-.046-.116-.026-.055c-.018-.04-.035-.079-.055-.117l-.026-.048c-.02-.042-.042-.084-.064-.125l-.022-.04c-.024-.044-.051-.088-.075-.134a.09.09,0,0,1-.015-.024c-.029-.051-.059-.1-.09-.149h0c-.251-.409-.528-.811-.732-1.231a15.9,15.9,0,0,1-.717-2.359,3.185,3.185,0,0,0-1.372-1.963c-.345-.176-.807-.332-.84-.721a.859.859,0,0,1,.077-.363,4.858,4.858,0,0,1,.358-.728c.053-.084.108-.167.163-.251l.044-.059c.044-.062.09-.123.136-.18l.057-.073c.046-.057.094-.11.143-.165l.059-.064.209-.22a.508.508,0,0,0,.154-.2.594.594,0,0,0,.011-.233,2.789,2.789,0,0,1,.659-1.721,6.585,6.585,0,0,0,1-1.576c.024-.068.044-.136.062-.207a.62.62,0,0,0,.015-.068c.011-.046.02-.092.029-.141l.013-.079a1.231,1.231,0,0,1,.015-.13v-.514a.668.668,0,0,0-.011-.138v-.075a1.34,1.34,0,0,0-.022-.16v-.053q-.015-.108-.04-.22h0a10.988,10.988,0,0,0-.4-1.376,4.917,4.917,0,0,0-.334-.8c.081-.015.165-.033.246-.055a3.587,3.587,0,0,1-.178-.312,8.187,8.187,0,0,0,1.123-2.438,11.282,11.282,0,0,0,.22-1.884,39.078,39.078,0,0,0,.086-5.715v-.075a4.616,4.616,0,0,0,.013-1.231,5.17,5.17,0,0,0-.69-2.271,2.769,2.769,0,0,0-1.912-1.345,3.025,3.025,0,0,1-.426.4,1.677,1.677,0,0,1-.5-.776,4.223,4.223,0,0,0,3.541-3.7c0-.068.015-.138.02-.207v-.6a.62.62,0,0,0-.013-.143.4.4,0,0,0,0-.051l-.02-.154v-.033a.864.864,0,0,0-.029-.165v-.018c-.011-.059-.024-.117-.04-.176h0a4.233,4.233,0,0,0-.464-1.139,4.24,4.24,0,0,0,.334-1.222c0-.077.015-.152.02-.22s0-.1,0-.145v-.259a.061.061,0,0,1,0-.02,4.273,4.273,0,0,0-1.185-2.827,2.471,2.471,0,0,0,.209-.44h0c.018-.046.033-.092.046-.141h0c.013-.046.026-.09.037-.136v-.011l.026-.125a.066.066,0,0,1,0-.022A1.228,1.228,0,0,1,360,61.05a1.212,1.212,0,0,1,.013-.154v-.363a2.6,2.6,0,0,0-5.183-.117,2.684,2.684,0,0,0,.024.8,4.253,4.253,0,0,0-2.359,3.317,4.315,4.315,0,0,0-.024.712,4.289,4.289,0,0,0-.659,1.978h0V67.3c0,.088-.011.178-.011.266a4.271,4.271,0,0,0,1.642,3.379,3,3,0,0,0,.831.879,3.309,3.309,0,0,1,.134.55,1.666,1.666,0,0,1-.506,1.365c-.095.079-.2.145-.3.22a.556.556,0,0,0-.306,0,4.433,4.433,0,0,0-2.741,2.141,4.177,4.177,0,0,0-.273.765l-.062.095a10.99,10.99,0,0,0-1.464,3.517,7.753,7.753,0,0,1-.532,1.886,1.946,1.946,0,0,0-.174.385,3.836,3.836,0,0,0-.026.618,9.991,9.991,0,0,1-.321,1.073c-.044.22-.035.44-.073.659a6.727,6.727,0,0,1-.411,1.1c-.233.646-.231,1.356-.4,2.022a.71.71,0,0,1-.136.3,1.549,1.549,0,0,1-.457.246,1.009,1.009,0,0,0-.459.688,3.027,3.027,0,0,0-.015.857l.086,1.114-1.249.378-2.049.626a6.1,6.1,0,0,0-1.7.719,3.128,3.128,0,0,0-1.073,1.3,6.555,6.555,0,0,0-.4,1.7,25.81,25.81,0,0,1-1.053,4.792c-.042.119-.086.24-.13.358h0l-.138.35c-.011.024-.022.048-.031.073l-.119.279c-.053.119-.108.235-.165.352l4.8,1.6a1.544,1.544,0,0,0,.02.187c.167,1.178.086,2.374.24,3.554a2.3,2.3,0,0,0,.134.574.818.818,0,0,0-.253.4,2.128,2.128,0,0,0-.024.765c.055.6.108,1.2.163,1.807a2.8,2.8,0,0,1,0,.659,7.086,7.086,0,0,1-.413,1.128.989.989,0,0,0,.2,1.1.778.778,0,0,0,.756.068,1.776,1.776,0,0,0,.626-.481,23.286,23.286,0,0,0,2.148-3.759,7.088,7.088,0,0,0,.514-.895c.1-.24.169-.495.253-.743a7.629,7.629,0,0,1,.413-.965c.09-.178.44-.607.36-.8-.123-.341-1.44-.64-1.759-.745a.879.879,0,0,0-.644-.029.405.405,0,0,0-.088.057l-.112-1.453c.2-.018.389-.042.58-.075q0-.409-.02-.824c0-.251-.011-.5-.018-.756-.013-.615-.026-1.231-.042-1.835a10.162,10.162,0,0,0-.068-1.066c-.075-.539-.24-1.066-.292-1.609a.613.613,0,0,1,.273-.123h0a1.93,1.93,0,0,1,.466-.018h.123A3.992,3.992,0,0,0,348,97.534c.6-.314,1.165-.708,1.758-1.031l.22-.117.084-.042.141-.07.117-.055.026-.013c.349-.167.7-.33,1.042-.512a1.184,1.184,0,0,0,.075.108.7.7,0,0,0,.732.266,11.441,11.441,0,0,0-1.027,3.049,9.158,9.158,0,0,0,1.057,4.533l1.954,4.616c.22.51.5,1.081,1.038,1.2a1.539,1.539,0,0,0,.98-.2,18.358,18.358,0,0,0,2.519-1.609l.033.026a8.6,8.6,0,0,1,1.717,2.181l1.369,2.251a.679.679,0,0,0,.055.33,1.919,1.919,0,0,0,.385.5,6.482,6.482,0,0,1,1.649,3.374,2.073,2.073,0,0,0,.273.919,1.349,1.349,0,0,0,1.7.187,1.073,1.073,0,0,0,.426-.352,1.39,1.39,0,0,0,.171-.532,7.338,7.338,0,0,0,.165-1.416A16.509,16.509,0,0,0,366.163,112.521ZM358.3,71.1a3.217,3.217,0,0,0,.277-.2,4.251,4.251,0,0,1-.879,1.508h0c-.092.1-.191.2-.292.288v-.07c-.011-.22,0-.464,0-.7a2.941,2.941,0,0,0,.895-.824Zm-7.762,17.345.013-.042a.84.84,0,0,1,.2.2.831.831,0,0,0,.031.745c.114.193.321.374.277.6s-.325.31-.554.347c-.3.048-.6.1-.895.163v-.015a2.308,2.308,0,0,0-.1-.732A2.116,2.116,0,0,0,350.539,88.449Z" transform="translate(-270.192 -58.05)" fill="url(#linear-gradient)"/>
    <path id="Path_1524" data-name="Path 1524" d="M409.7,65.847a2.609,2.609,0,1,0-4.836-1.646,2.556,2.556,0,0,0,.024.789,4.176,4.176,0,0,0-2.383,3.985,4.194,4.194,0,1,0,7.718,2.288v-.2a4.2,4.2,0,0,0-.512-5.216Z" transform="translate(-320.21 -61.039)" fill="#46455b"/>
    <g id="Group_2952" data-name="Group 2952" transform="translate(81.619 3.132)" opacity="0.1">
      <path id="Path_1525" data-name="Path 1525" d="M415.59,72.356l.035-.02a1.349,1.349,0,0,1-.02-.136.132.132,0,0,0,0,.029A1.193,1.193,0,0,0,415.59,72.356Z" transform="translate(-412.557 -72.198)"/>
      <path id="Path_1526" data-name="Path 1526" d="M410.826,91.737a4.176,4.176,0,0,1-.648,1.787v.2a4.194,4.194,0,0,1-8.373.339c0,.114-.015.22-.015.343a4.194,4.194,0,0,0,8.388,0v-.2a4.152,4.152,0,0,0,.648-1.787,4.048,4.048,0,0,0,.015-.846A.614.614,0,0,1,410.826,91.737Z" transform="translate(-401.79 -87.31)"/>
      <path id="Path_1527" data-name="Path 1527" d="M437.965,72.19a2.618,2.618,0,0,1-.345,1c.075.075.143.154.22.233a2.6,2.6,0,0,0,.136-.574A2.527,2.527,0,0,0,437.965,72.19Z" transform="translate(-429.744 -72.19)"/>
    </g>
    <path id="Path_1528" data-name="Path 1528" d="M359.8,269.3a1.9,1.9,0,0,0,.191.686.752.752,0,0,0,.556.407,1.121,1.121,0,0,0,.613-.178,2.1,2.1,0,0,0,.954-.8,2.16,2.16,0,0,0,.13-1.2l-.251-3.2c-.6-.018-1.209-.018-1.813.015s-.7.174-.62.758C359.724,266.953,359.636,268.133,359.8,269.3Z" transform="translate(-287.203 -219.492)" fill="#fbbebe"/>
    <path id="Path_1529" data-name="Path 1529" d="M433.624,280.626l1.435,2.321a.572.572,0,0,0,.314.295.477.477,0,0,0,.3-.053,3.737,3.737,0,0,0,1.2-.994,2.2,2.2,0,0,0,.576-.879,1.123,1.123,0,0,0-.286-1.057,3.377,3.377,0,0,0-.539-.391c-1.136-.767-1.649-2.222-2.77-3.009a.44.44,0,0,0-.22-.1.484.484,0,0,0-.233.079l-1.539.84c-.659.363-.455.407.051.8A8.714,8.714,0,0,1,433.624,280.626Z" transform="translate(-343.307 -228.661)" fill="#fbbebe"/>
    <path id="Path_1530" data-name="Path 1530" d="M362.191,275.842a.879.879,0,0,0-.644-.022.708.708,0,0,0-.336.53,6.483,6.483,0,0,1-.095.644,2.2,2.2,0,0,1-.626.879.936.936,0,0,1-.393.275c-.209.053-.429-.044-.64,0a.7.7,0,0,0-.5.514,2.018,2.018,0,0,0-.024.754l.163,1.78a2.721,2.721,0,0,1,0,.659,6.916,6.916,0,0,1-.413,1.112.992.992,0,0,0,.2,1.1.794.794,0,0,0,.758.066,1.759,1.759,0,0,0,.626-.475c.967-1.055,1.4-2.486,2.152-3.7a7.113,7.113,0,0,0,.514-.879c.1-.237.169-.488.253-.732a7.294,7.294,0,0,1,.415-.952c.088-.176.44-.6.361-.794C363.837,276.242,362.516,275.945,362.191,275.842Z" transform="translate(-286.476 -227.889)" fill="#46455b"/>
    <path id="Path_1531" data-name="Path 1531" d="M449.063,289.7a1.851,1.851,0,0,1-1.02.879.938.938,0,0,0-.345.178.536.536,0,0,0-.062.587,1.9,1.9,0,0,0,.387.492,6.359,6.359,0,0,1,1.649,3.326,2.069,2.069,0,0,0,.275.908,1.365,1.365,0,0,0,1.706.182,1.1,1.1,0,0,0,.426-.345,1.358,1.358,0,0,0,.171-.525,7.139,7.139,0,0,0,.165-1.4,14.961,14.961,0,0,0-.5-2.6c-.22-1.238-.114-2.572-.69-3.688a.813.813,0,0,0-.257-.339.925.925,0,0,0-.47-.106c-.519-.02-1.042-.024-1.563-.013a.436.436,0,0,0-.391.147.453.453,0,0,0,.057.424C448.918,288.441,449.441,288.94,449.063,289.7Z" transform="translate(-355.893 -236.832)" fill="#46455b"/>
    <path id="Path_1532" data-name="Path 1532" d="M350.98,194.532a.807.807,0,0,0-.189,1.016c.116.191.323.369.277.589s-.325.3-.554.341a45.289,45.289,0,0,0-5.935,1.5l-2.053.618a6.126,6.126,0,0,0-1.706.708,3.078,3.078,0,0,0-1.073,1.282,6.375,6.375,0,0,0-.4,1.675,20.457,20.457,0,0,1-1.638,6.12l4.974,1.633a7.312,7.312,0,0,0,1.493.374,5.465,5.465,0,0,0,1.453-.07c-.031-1.11-.051-2.255-.081-3.368a9.3,9.3,0,0,0-.068-1.051c-.075-.532-.24-1.051-.292-1.587a1.272,1.272,0,0,1,.862-.134,4.078,4.078,0,0,0,1.948-.525c.6-.312,1.165-.7,1.758-1.018a9.85,9.85,0,0,0,2.9-1.721c-.389,1.484-1.319,2.776-1.488,4.3a9,9,0,0,0,1.062,4.467l1.959,4.546c.22.5.5,1.066,1.038,1.185a1.572,1.572,0,0,0,.983-.193c1.8-.844,3.244-2.433,5.17-2.939a9.938,9.938,0,0,0-1.319-2.607,15.237,15.237,0,0,1-.717-2.326,3.125,3.125,0,0,0-1.376-1.934c-.345-.174-.809-.328-.84-.712a.787.787,0,0,1,.077-.358,4.631,4.631,0,0,1,1.172-1.7.547.547,0,0,0,.154-.193.614.614,0,0,0,.011-.22,2.716,2.716,0,0,1,.659-1.7,6.511,6.511,0,0,0,1.007-1.554,4.766,4.766,0,0,0-.352-3.113,3.135,3.135,0,0,0-.589-1.141,2.9,2.9,0,0,0-1.851-.71C355.253,193.762,352.706,193.193,350.98,194.532Z" transform="translate(-270.176 -163.84)" fill="#46455b"/>
    <g id="Group_2953" data-name="Group 2953" transform="translate(67.529 30.624)" opacity="0.1">
      <path id="Path_1533" data-name="Path 1533" d="M428.162,211.456a2.668,2.668,0,0,0-.659,1.7.614.614,0,0,1-.011.22.548.548,0,0,1-.154.193,4.631,4.631,0,0,0-1.172,1.7.791.791,0,0,0-.077.358.688.688,0,0,0,.44.514,4.616,4.616,0,0,1,.813-.989.547.547,0,0,0,.154-.193.614.614,0,0,0,.011-.22,2.717,2.717,0,0,1,.659-1.7,6.511,6.511,0,0,0,1.007-1.554,3.227,3.227,0,0,0,.053-1.758q-.022.086-.053.171A6.42,6.42,0,0,1,428.162,211.456Z" transform="translate(-406.658 -206.989)"/>
      <path id="Path_1534" data-name="Path 1534" d="M397.05,197.629a.415.415,0,0,0,.314-.284.284.284,0,0,0,0-.086l-.095.068A.764.764,0,0,0,397.05,197.629Z" transform="translate(-384.002 -197.26)"/>
      <path id="Path_1535" data-name="Path 1535" d="M344.161,256.036a7.311,7.311,0,0,1-1.493-.374l-4.4-1.442a12.647,12.647,0,0,1-.583,1.4l4.979,1.633a7.312,7.312,0,0,0,1.493.374,5.466,5.466,0,0,0,1.453-.07c-.015-.521-.026-1.051-.04-1.58A5.44,5.44,0,0,1,344.161,256.036Z" transform="translate(-337.69 -241.699)"/>
      <path id="Path_1536" data-name="Path 1536" d="M403.91,253.773a1.572,1.572,0,0,1-.983.193c-.534-.119-.822-.684-1.038-1.185l-1.959-4.546a12.445,12.445,0,0,1-1.027-3.106c-.013.075-.024.149-.035.22a8.874,8.874,0,0,0,1.062,4.467l1.959,4.546c.22.5.5,1.066,1.038,1.185a1.571,1.571,0,0,0,.983-.193c1.8-.844,3.244-2.433,5.17-2.939a3.736,3.736,0,0,0-.591-1.391C406.849,251.667,405.523,253.015,403.91,253.773Z" transform="translate(-385.397 -234.608)"/>
      <path id="Path_1537" data-name="Path 1537" d="M379.231,219.38a9.993,9.993,0,0,1-2.9,1.721c-.6.319-1.163.706-1.758,1.018a4.08,4.08,0,0,1-1.948.528c-.3,0-.631-.057-.862.132.048.495.191.976.273,1.466a2.638,2.638,0,0,1,.589-.013,4.078,4.078,0,0,0,1.948-.525c.6-.312,1.165-.7,1.758-1.018.659-.35,1.378-.622,2.011-1.009a17.339,17.339,0,0,0,.892-2.3Z" transform="translate(-364.271 -214.518)"/>
    </g>
    <path id="Path_1538" data-name="Path 1538" d="M409.5,119.7a1.624,1.624,0,0,1-.506,1.343c-.121.1-.264.18-.38.288a1.031,1.031,0,0,0,.149,1.567,1.959,1.959,0,0,0,1.356.1,7.834,7.834,0,0,0,1.78-.464,2.943,2.943,0,0,0,1.4-1.15,1.728,1.728,0,0,1-.8-1.429c-.031-.569.125-1.216-.235-1.657a1.45,1.45,0,0,0-1.539-.277c-.266.075-.523.176-.789.248-.136.035-.58.037-.659.136C409.133,118.586,409.489,119.415,409.5,119.7Z" transform="translate(-325.269 -104.743)" fill="#fbbebe"/>
    <path id="Path_1539" data-name="Path 1539" d="M409.5,119.7a1.624,1.624,0,0,1-.506,1.343c-.121.1-.264.18-.38.288a1.031,1.031,0,0,0,.149,1.567,1.959,1.959,0,0,0,1.356.1,7.834,7.834,0,0,0,1.78-.464,2.943,2.943,0,0,0,1.4-1.15,1.728,1.728,0,0,1-.8-1.429c-.031-.569.125-1.216-.235-1.657a1.45,1.45,0,0,0-1.539-.277c-.266.075-.523.176-.789.248-.136.035-.58.037-.659.136C409.133,118.586,409.489,119.415,409.5,119.7Z" transform="translate(-325.269 -104.743)" opacity="0.1"/>
    <circle id="Ellipse_1085" data-name="Ellipse 1085" cx="2.948" cy="2.948" r="2.948" transform="translate(82.815 9.034)" fill="#fbbebe"/>
    <path id="Path_1540" data-name="Path 1540" d="M375.916,210.882a2,2,0,0,1-.277.659,3.051,3.051,0,0,0-.352,2.011,2.117,2.117,0,0,0,1.238,1.565.846.846,0,0,0,.846-.053,2.834,2.834,0,0,1-.391-1.857.622.622,0,0,1,.081-.345.22.22,0,0,1,.312-.055,2.774,2.774,0,0,0,.231,1.185c.062.143.167.3.325.3.22,0,.284-.31.275-.534a5.92,5.92,0,0,0-.519-2.666,3.155,3.155,0,0,1-.44-.9.532.532,0,0,0-.114-.314.394.394,0,0,0-.165-.077c-.253-.073-.855-.295-1.064-.057S375.956,210.578,375.916,210.882Z" transform="translate(-299.46 -176.29)" fill="#fbbebe"/>
    <path id="Path_1541" data-name="Path 1541" d="M379.418,144.068c-.339-.04-.6.27-.789.556a10.749,10.749,0,0,0-1.468,3.477,7.461,7.461,0,0,1-.532,1.86,1.894,1.894,0,0,0-.174.378,4.024,4.024,0,0,0-.026.611,9.865,9.865,0,0,1-.321,1.057c-.044.22-.035.44-.075.659a6.431,6.431,0,0,1-.409,1.079c-.235.637-.233,1.336-.407,1.994a.683.683,0,0,1-.136.295c-.117.13-.306.16-.457.244a.994.994,0,0,0-.462.679,2.93,2.93,0,0,0-.015.844l.136,1.743c.138-.059.22-.22.347-.314a.982.982,0,0,1,.8-.088l.4.073a1.714,1.714,0,0,1,1.1.488c.207-.325.09-.8.407-1.018.1-.07.233-.092.341-.154a.763.763,0,0,0,.347-.611,2.255,2.255,0,0,0-.1-.723,2.115,2.115,0,0,0,1.027-1.249,10.446,10.446,0,0,0,.475-1.926,49.767,49.767,0,0,0,.923-7.832,3.766,3.766,0,0,0-.143-1.3C380.067,144.47,379.856,144.116,379.418,144.068Z" transform="translate(-298.586 -125.134)" fill="#846be2"/>
    <path id="Path_1542" data-name="Path 1542" d="M379.418,144.068c-.339-.04-.6.27-.789.556a10.749,10.749,0,0,0-1.468,3.477,7.461,7.461,0,0,1-.532,1.86,1.894,1.894,0,0,0-.174.378,4.024,4.024,0,0,0-.026.611,9.865,9.865,0,0,1-.321,1.057c-.044.22-.035.44-.075.659a6.431,6.431,0,0,1-.409,1.079c-.235.637-.233,1.336-.407,1.994a.683.683,0,0,1-.136.295c-.117.13-.306.16-.457.244a.994.994,0,0,0-.462.679,2.93,2.93,0,0,0-.015.844l.136,1.743c.138-.059.22-.22.347-.314a.982.982,0,0,1,.8-.088l.4.073a1.714,1.714,0,0,1,1.1.488c.207-.325.09-.8.407-1.018.1-.07.233-.092.341-.154a.763.763,0,0,0,.347-.611,2.255,2.255,0,0,0-.1-.723,2.115,2.115,0,0,0,1.027-1.249,10.446,10.446,0,0,0,.475-1.926,49.767,49.767,0,0,0,.923-7.832,3.766,3.766,0,0,0-.143-1.3C380.067,144.47,379.856,144.116,379.418,144.068Z" transform="translate(-298.586 -125.134)" opacity="0.1"/>
    <path id="Path_1543" data-name="Path 1543" d="M401.14,131.24a3.719,3.719,0,0,1-1.791,1.042,10.992,10.992,0,0,1-2.077.306,1.319,1.319,0,0,1-.642-.055.44.44,0,0,1-.266-.525.629.629,0,0,0,.077-.2c0-.18-.268-.2-.44-.143a4.436,4.436,0,0,0-2.745,2.112,6.375,6.375,0,0,0-.488,1.943,16.253,16.253,0,0,0-.163,5.276,16.737,16.737,0,0,1,.536,2.765c.013.528-.077,1.053-.073,1.58a.8.8,0,0,0,.141.521c.081.095.2.154.262.266.094.185-.033.44.092.609.156.207.477.057.69-.088a5.482,5.482,0,0,1,3.647-.917c1.539.165,3.077.989,4.577.576a2.093,2.093,0,0,1-.2-.356,10.419,10.419,0,0,1,.422-7.507,9.621,9.621,0,0,0,1.033-2.4,4.615,4.615,0,0,0,.015-1.22,5.056,5.056,0,0,0-.692-2.24A2.745,2.745,0,0,0,401.14,131.24Z" transform="translate(-312.88 -115.128)" fill="#846be2"/>
    <path id="Path_1544" data-name="Path 1544" d="M398.959,215.5a2.719,2.719,0,0,0-.169,1,6.062,6.062,0,0,0,.048.978,1.565,1.565,0,0,0,.288.769.7.7,0,0,0,.734.262.769.769,0,0,0,.44-.492,4.686,4.686,0,0,0,.141-.673,11.3,11.3,0,0,0,.486-1.978.573.573,0,0,0-.037-.237,1.348,1.348,0,0,0-1.06-.547C399.451,214.643,399.1,215.175,398.959,215.5Z" transform="translate(-317.827 -180.149)" fill="#fbbebe"/>
    <path id="Path_1545" data-name="Path 1545" d="M407.941,142.56c-.057.587.51,1.029.734,1.572a2.689,2.689,0,0,1,.154.791,37.668,37.668,0,0,1-.088,5.634,10.518,10.518,0,0,1-.22,1.857,10.719,10.719,0,0,1-1.857,3.471,2.944,2.944,0,0,1-.4.488,2.982,2.982,0,0,1-.739.44l-2.616,1.268a5.057,5.057,0,0,0-.93.534,2.537,2.537,0,0,0-.769,1c-.508-.259-1.035-.492-1.539-.752-.119-.062-.253-.141-.273-.273-.026-.176.158-.3.286-.44a2.588,2.588,0,0,0,.44-.892c.422-1.011,1.479-1.657,1.862-2.682a4.069,4.069,0,0,1,.453-1.169,2.9,2.9,0,0,1,.5-.44,8.411,8.411,0,0,0,1.1-1.132,1.923,1.923,0,0,0,.363-.53,2.62,2.62,0,0,0,.086-.928,11.821,11.821,0,0,1,.767-2.963c.266-.925.378-1.9.728-2.8A3.233,3.233,0,0,1,407.941,142.56Z" transform="translate(-318.305 -123.96)" opacity="0.1"/>
    <path id="Path_1546" data-name="Path 1546" d="M409.442,142.56c-.057.587.508,1.029.732,1.572a2.69,2.69,0,0,1,.156.791,37.967,37.967,0,0,1-.088,5.634,10.52,10.52,0,0,1-.231,1.857,10.719,10.719,0,0,1-1.857,3.471,2.945,2.945,0,0,1-.4.488,2.983,2.983,0,0,1-.739.44l-2.618,1.268a5.2,5.2,0,0,0-.93.534,2.556,2.556,0,0,0-.769,1c-.508-.259-1.033-.492-1.539-.752-.119-.062-.253-.141-.273-.273-.029-.176.156-.3.284-.44a2.512,2.512,0,0,0,.44-.892c.42-1.011,1.479-1.657,1.862-2.682a4.068,4.068,0,0,1,.453-1.169,2.741,2.741,0,0,1,.5-.44,8.413,8.413,0,0,0,1.1-1.132,1.923,1.923,0,0,0,.363-.53,2.673,2.673,0,0,0,.086-.928,11.815,11.815,0,0,1,.765-2.963c.268-.925.378-1.9.728-2.8A3.269,3.269,0,0,1,409.442,142.56Z" transform="translate(-319.466 -123.96)" fill="#846be2"/>
    <path id="Path_1547" data-name="Path 1547" d="M418,91.612a4.176,4.176,0,0,0-2.616.543,1.562,1.562,0,0,1,.349.026,4.194,4.194,0,0,1,1.611,7.786A4.194,4.194,0,0,0,418,91.614Z" transform="translate(-330.774 -84.187)" fill="#46455b"/>
    <path id="Path_1548" data-name="Path 1548" d="M413.921,97.7a1.91,1.91,0,0,1,.033,1.468c-.02-.059-.042-.119-.068-.178a2.761,2.761,0,0,0-3.568-1.066,2.912,2.912,0,0,0-1.721,1.642,2.493,2.493,0,0,1,1.758-2.932A2.759,2.759,0,0,1,413.921,97.7Z" transform="translate(-325.409 -87.946)" fill="#46455b"/>
    <g id="Group_2954" data-name="Group 2954" transform="translate(84.606 1.331)" opacity="0.1">
      <path id="Path_1549" data-name="Path 1549" d="M419.295,95.758a2.626,2.626,0,0,0-3.915-3.178,1.562,1.562,0,0,1,.349.026,4.192,4.192,0,0,1,3.565,3.152Z" transform="translate(-415.38 -85.954)"/>
      <path id="Path_1550" data-name="Path 1550" d="M422.385,81.828a2.614,2.614,0,0,0-3.915-3.165,1.591,1.591,0,0,1,.352.026A4.19,4.19,0,0,1,422.385,81.828Z" transform="translate(-417.791 -75.086)"/>
      <path id="Path_1551" data-name="Path 1551" d="M427.973,66.172a1.578,1.578,0,0,0-2.363-1.9.965.965,0,0,1,.22.018A2.528,2.528,0,0,1,427.973,66.172Z" transform="translate(-423.361 -64)"/>
      <path id="Path_1552" data-name="Path 1552" d="M428.52,106a4.2,4.2,0,0,1-3.249,4.431,4.22,4.22,0,0,1-.972.783A4.194,4.194,0,0,0,428.52,106Z" transform="translate(-422.339 -96.768)"/>
    </g>
    <path id="Path_1553" data-name="Path 1553" d="M526.05,304.4a1.616,1.616,0,0,0-1.932-.095,2.74,2.74,0,0,0-.811,1.376,9.822,9.822,0,0,0-.761,2.284c-.2,2.2-1.737,4.047-2.2,6.2a11.811,11.811,0,0,1-.521,2.3,6.922,6.922,0,0,1-.528.908,24.025,24.025,0,0,0-1.978,3.831,2.91,2.91,0,0,0-1,.776,3.736,3.736,0,0,1-1.374.835,1.356,1.356,0,0,0-.569.279c-.22.233-.22.609-.4.879a1.3,1.3,0,0,1-.5.411,1.866,1.866,0,0,1-.031-.189c-.046-.336-.084-.673-.119-1.009a3.807,3.807,0,0,0-.519-4.913,7.388,7.388,0,0,1,.046-1.574.692.692,0,0,0-.22-.7c-.108-.068-.24-.084-.354-.141a1.436,1.436,0,0,1-.413-.424,1.978,1.978,0,0,0-2.523-.374c-.615.411-.941,1.141-1.466,1.666-.273.27-.6.484-.866.754A3.9,3.9,0,0,0,506,319.571a11.406,11.406,0,0,0-.095,2.356,2.154,2.154,0,0,0,.1.7,1.848,1.848,0,0,0,.321.51,6.106,6.106,0,0,0,2.471,1.91,1.069,1.069,0,0,1,.011.141.936.936,0,0,1-.018.22l-.108-.018a4.469,4.469,0,0,1-1.18-.152c-.626-.27-.879-1.066-1.5-1.378a.915.915,0,0,0-.16-.066,10.189,10.189,0,0,0-.895-2.954,3.657,3.657,0,0,1-.495-1.394,3.545,3.545,0,0,1,.306-1.339,34.589,34.589,0,0,0,1.174-4.616q.3-1.471.6-2.941a4.418,4.418,0,0,0,.717-.837,4.079,4.079,0,0,0,.717-2.073,2.811,2.811,0,0,0-.725-2.038,1.2,1.2,0,0,0-.9-.44,1.1,1.1,0,0,0-.756.44,3.615,3.615,0,0,0-.572,1.249,5.452,5.452,0,0,0-.341,2.246c.09.626.4,1.306.084,1.855a44.453,44.453,0,0,0-2.5,5.755,9.654,9.654,0,0,0-.479,1.429,7.559,7.559,0,0,0-.079,2.387,31.531,31.531,0,0,0,.859,4.416,5.675,5.675,0,0,0,.728,1.9,8.19,8.19,0,0,0-.1,2.233,1.236,1.236,0,0,0,.132.495,2.107,2.107,0,0,0,.453.464,2.258,2.258,0,0,1,.719,1.723,5.113,5.113,0,0,0,.345,1.758c.525,1.567,1.053,3.135,1.512,4.724a3.1,3.1,0,0,1,.163.912,6.079,6.079,0,0,0-.112,1.319,4.694,4.694,0,0,1,.18.609,1.578,1.578,0,0,1-.062.473c-.286,1.242-1.112,4.106-.969,5.374l.284-.1c-.121,1.679-.64,3.324-.829,5a16.44,16.44,0,0,0,.04,3.675,12.932,12.932,0,0,1,.141,1.646c0,.495-.079.983-.1,1.475a13.438,13.438,0,0,0,.116,1.978,20.441,20.441,0,0,0,.49,3.053c.457,1.706.149,3.482.2,5.249a31.956,31.956,0,0,1-.037,3.7c-.046.521-.119,1.04-.134,1.563-.046,1.552.413,3.1.251,4.64-.077.723-.262,1.539.193,2.108.145.178.341.306.495.475a.659.659,0,0,1,.191.626c-.059.174-.22.3-.257.484-.042.286.273.484.545.576l.077.022a.679.679,0,0,0,.2.519,1.165,1.165,0,0,0,.587.233l3.517.681a4.582,4.582,0,0,0,2.374.029.6.6,0,0,0,.165.279,1.165,1.165,0,0,0,.585.233l3.517.681a3.981,3.981,0,0,0,2.682-.11,1.508,1.508,0,0,0,.565-.525,1.629,1.629,0,0,0,.077-1.374,1.123,1.123,0,0,0-.391-.569,1.459,1.459,0,0,0-.818-.176,1.613,1.613,0,0,1-.708-.108.525.525,0,0,1-.176-.149c.176-.22.345-.44.506-.659-.152-.035-.22-.244-.257-.4-.453-2.282.182-4.616.275-6.946a14.8,14.8,0,0,0-.273-3.48c-.086-.44-.189-.857-.251-1.292-.323-2.271.541-4.577.266-6.854a12.375,12.375,0,0,1,.49-3.236,11.631,11.631,0,0,0-.042-2.858l-.728-7.474a8.961,8.961,0,0,0-.633-2.961,3.878,3.878,0,0,1-.3-1.624,5.794,5.794,0,0,1,2.682-1.2,9.256,9.256,0,0,0-.679-3.691,16.1,16.1,0,0,1-1.431-8.562c.117-1.053-.3-2.115-.163-3.165a1.906,1.906,0,0,1,.2-.706.728.728,0,0,1,.585-.389c-.062-.631-.143-1.266-.251-1.9a4.616,4.616,0,0,0,.879-1.264,16.593,16.593,0,0,0,.925-3.036c.484-1.8,1.222-3.528,1.807-5.3s.47-3.645.89-5.465a4.009,4.009,0,0,1,1.715-2.438,3.222,3.222,0,0,0,.945-.714,1.631,1.631,0,0,0,.264-.9A2.3,2.3,0,0,0,526.05,304.4ZM512.615,381.3c.066-.09.13-.18.189-.275-.233-.013-.528-.149-.556-.382a2.481,2.481,0,0,1,.077-.692,2.752,2.752,0,0,0-.073-1.211c-.081-.273-.2-.534-.29-.807a8.16,8.16,0,0,1-.2-.925,15.807,15.807,0,0,0-1-3.251c-.44-1.013-.1-2.119-.095-3.225a6.149,6.149,0,0,1,.053-1.558c.077-.3.22-.576.3-.879a3.846,3.846,0,0,0-.268-2.112,21.372,21.372,0,0,0,1.163-6.63q.15-1.873.3-3.737a3.552,3.552,0,0,1,.387-1.609,19.181,19.181,0,0,1,.921,4.9,7.443,7.443,0,0,0,.167,1.433c.138.521.409.994.589,1.5a18.515,18.515,0,0,1,.539,3.5c.073.473.182.939.253,1.411a16.807,16.807,0,0,1-.675,6.249,22.411,22.411,0,0,0-.319,3.939c-.064,1.238-.13,2.475-.1,3.715,0,.378.024.765.02,1.15a2.807,2.807,0,0,0-.361-.02,1.614,1.614,0,0,1-.708-.108.807.807,0,0,1-.31-.374Z" transform="translate(-398.072 -249.933)" fill="url(#linear-gradient-2)"/>
    <path id="Path_1554" data-name="Path 1554" d="M563.668,660.6a1.482,1.482,0,0,1,.818.174,1.139,1.139,0,0,1,.391.567,1.612,1.612,0,0,1-.079,1.365,1.5,1.5,0,0,1-.565.521,4.021,4.021,0,0,1-2.682.112l-3.517-.675a1.17,1.17,0,0,1-.587-.22.761.761,0,0,1-.1-.879A1.684,1.684,0,0,1,558,660.9a8.038,8.038,0,0,1,3.359-1.013c.44-.053.851-.193,1.18.112.176.16.167.36.413.49A1.644,1.644,0,0,0,563.668,660.6Z" transform="translate(-441.458 -527.514)" fill="#3f3d56"/>
    <path id="Path_1555" data-name="Path 1555" d="M533.425,655.1a1.472,1.472,0,0,1,.816.174,1.112,1.112,0,0,1,.391.567,1.6,1.6,0,0,1-.077,1.365,1.515,1.515,0,0,1-.565.521,4.027,4.027,0,0,1-2.684.112l-3.517-.677a1.167,1.167,0,0,1-.587-.22.761.761,0,0,1-.105-.879,1.725,1.725,0,0,1,.67-.659,8.189,8.189,0,0,1,3.359-1.011c.44-.055.851-.193,1.18.11.174.16.167.361.411.49A1.627,1.627,0,0,0,533.425,655.1Z" transform="translate(-417.86 -523.219)" fill="#3f3d56"/>
    <path id="Path_1556" data-name="Path 1556" d="M524.489,483.365a42.251,42.251,0,0,0-6.073.464,1.214,1.214,0,0,0-.385.1c-.426.22-.44.818-.429,1.3.029,1.95-.637,3.838-.857,5.772a16.092,16.092,0,0,0,.037,3.651,13.649,13.649,0,0,1,.141,1.638c0,.488-.081.974-.1,1.464a13.262,13.262,0,0,0,.114,1.956,20.182,20.182,0,0,0,.49,3.033c.455,1.695.147,3.46.2,5.214a31.05,31.05,0,0,1-.042,3.675c-.046.519-.119,1.033-.134,1.554-.046,1.539.411,3.077.248,4.616-.077.717-.264,1.539.191,2.093.145.176.341.3.492.473a.659.659,0,0,1,.193.62c-.062.174-.231.3-.257.481-.044.284.27.481.543.571A5.025,5.025,0,0,0,524.526,520c-.233-.013-.528-.149-.556-.38a2.448,2.448,0,0,1,.077-.688,2.679,2.679,0,0,0-.073-1.2c-.079-.273-.2-.532-.288-.8a8.154,8.154,0,0,1-.2-.919,15.534,15.534,0,0,0-1-3.231c-.44-1.007-.1-2.106-.092-3.2a6.179,6.179,0,0,1,.053-1.55c.077-.3.22-.574.3-.879a3.792,3.792,0,0,0-.268-2.1,20.866,20.866,0,0,0,1.167-6.594l.3-3.737a3.535,3.535,0,0,1,.387-1.6,18.932,18.932,0,0,1,.921,4.871,7.208,7.208,0,0,0,.165,1.427c.138.514.407.985.589,1.488a18.36,18.36,0,0,1,.536,3.471c.073.47.18.932.251,1.4a16.548,16.548,0,0,1-.679,6.21,22.18,22.18,0,0,0-.321,3.915c-.066,1.229-.132,2.457-.1,3.688a5.775,5.775,0,0,1-.495,3.3,5.988,5.988,0,0,0,2.145.767,3.792,3.792,0,0,0,2.469-.747,8.024,8.024,0,0,0,1.809-1.9c-.154-.035-.22-.244-.257-.4-.453-2.266.185-4.594.279-6.9a14.684,14.684,0,0,0-.27-3.455c-.086-.44-.191-.855-.253-1.286-.319-2.255.545-4.548.273-6.814a12.344,12.344,0,0,1,.492-3.218,11.372,11.372,0,0,0-.04-2.827l-.723-7.419a8.8,8.8,0,0,0-.631-2.943c-.514-1.1-.2-2.453-.251-3.664A15.084,15.084,0,0,1,524.489,483.365Z" transform="translate(-409.79 -388.857)" fill="#46455b"/>
    <path id="Path_1557" data-name="Path 1557" d="M571.34,324.368a23.621,23.621,0,0,1,2.317-4.66,6.868,6.868,0,0,0,.528-.9,11.468,11.468,0,0,0,.523-2.282c.473-2.141,2.016-3.979,2.214-6.155a9.63,9.63,0,0,1,.763-2.271,2.762,2.762,0,0,1,.811-1.367,1.627,1.627,0,0,1,1.93.092,2.271,2.271,0,0,1,.78,1.849,1.627,1.627,0,0,1-.264.892,3.162,3.162,0,0,1-.945.71,3.99,3.99,0,0,0-1.717,2.418c-.422,1.809-.308,3.666-.895,5.427s-1.319,3.475-1.809,5.276a16.931,16.931,0,0,1-.93,3.016,3.615,3.615,0,0,1-2.266,2.051,6.136,6.136,0,0,0-.5-1.893C571.571,325.873,571.081,325.073,571.34,324.368Z" transform="translate(-452.395 -251.83)" fill="#a0616a"/>
    <path id="Path_1558" data-name="Path 1558" d="M506.113,330.935a10.028,10.028,0,0,0-.976-3.7,3.565,3.565,0,0,1-.492-1.383,3.493,3.493,0,0,1,.306-1.33,34.278,34.278,0,0,0,1.176-4.6l.607-2.924a4.446,4.446,0,0,0,.714-.831,4.032,4.032,0,0,0,.719-2.06,2.778,2.778,0,0,0-.723-2.027,1.207,1.207,0,0,0-.9-.426,1.1,1.1,0,0,0-.756.44,3.543,3.543,0,0,0-.561,1.231,5.419,5.419,0,0,0-.343,2.231c.088.622.4,1.3.081,1.842a44.356,44.356,0,0,0-2.506,5.715,9.622,9.622,0,0,0-.477,1.42,7.473,7.473,0,0,0-.084,2.374,31.158,31.158,0,0,0,.857,4.4,3.983,3.983,0,0,0,1.255,2.433A14.506,14.506,0,0,1,506.113,330.935Z" transform="translate(-398.226 -255.89)" fill="#a0616a"/>
    <circle id="Ellipse_1086" data-name="Ellipse 1086" cx="3.774" cy="3.774" r="3.774" transform="translate(108.401 67.75)" fill="#a0616a"/>
    <path id="Path_1559" data-name="Path 1559" d="M529.3,391.94a5.074,5.074,0,0,1-.615,1.956c-.178.376-.411.8-.818.879a18.3,18.3,0,0,0,3.546,1.018,3.9,3.9,0,0,0,1.266.073,3.041,3.041,0,0,0,1.009-.374,5.175,5.175,0,0,0,2.565-3.737,6.814,6.814,0,0,1-1.4.037,1.029,1.029,0,0,1-.719-.266,1.079,1.079,0,0,1-.2-.589q-.125-.936-.2-1.877a7.438,7.438,0,0,0-2.693.618c-.352.154-.695.332-1.057.464-.22.079-.855.095-1.009.237C528.734,390.605,529.316,391.465,529.3,391.94Z" transform="translate(-418.537 -316.276)" fill="#a0616a"/>
    <path id="Path_1560" data-name="Path 1560" d="M516.251,389.978a2.374,2.374,0,0,0-2.009-1.91,4.559,4.559,0,0,1-1.18-.147c-.626-.27-.89-1.06-1.5-1.369a1.6,1.6,0,0,0-1.842.5,4.1,4.1,0,0,0-.774,1.884,9.122,9.122,0,0,0-.2,2.792,1.253,1.253,0,0,0,.134.492,2.135,2.135,0,0,0,.451.462,2.229,2.229,0,0,1,.719,1.71,5.012,5.012,0,0,0,.343,1.758c.525,1.556,1.053,3.115,1.51,4.693a3.046,3.046,0,0,1,.163.906,4.914,4.914,0,0,0-.112,1.308,5.115,5.115,0,0,1,.178.6,1.558,1.558,0,0,1-.062.47c-.288,1.235-1.114,4.08-.972,5.339a32.176,32.176,0,0,1,6.691-1.319,14.724,14.724,0,0,1,1.646-.1,10.692,10.692,0,0,0,3.932-.235c1.141-.44,2.088-1.5,3.315-1.5a9.172,9.172,0,0,0-.677-3.664,15.875,15.875,0,0,1-1.424-8.5c.114-1.046-.3-2.1-.16-3.146a1.882,1.882,0,0,1,.2-.7.739.739,0,0,1,.587-.389,23.079,23.079,0,0,0-.956-4.823c-.178-.558-.5-1.2-1.084-1.242-.528-.035-.917.44-1.3.811a3.737,3.737,0,0,1-1.374.829,1.352,1.352,0,0,0-.572.279c-.22.231-.22.607-.4.879-.317.488-1.125.534-1.319,1.079a3.339,3.339,0,0,0-.086.488,1.741,1.741,0,0,1-.519.831,3.35,3.35,0,0,1-1.347.939Z" transform="translate(-403.592 -312.205)" fill="#2f2e41"/>
    <path id="Path_1561" data-name="Path 1561" d="M528.055,356.9a.681.681,0,0,0-.22-.692,3.339,3.339,0,0,0-.356-.143,1.449,1.449,0,0,1-.411-.426,1.978,1.978,0,0,0-2.521-.369c-.618.409-.941,1.134-1.468,1.655-.27.27-.594.481-.866.752a3.879,3.879,0,0,0-1.009,2.079,11.283,11.283,0,0,0-.094,2.343,2.073,2.073,0,0,0,.1.7,1.859,1.859,0,0,0,.321.506,6,6,0,0,0,2.6,1.948,3.672,3.672,0,0,0,3.163-.27.563.563,0,0,0,.22-.22.692.692,0,0,0,0-.422,2.858,2.858,0,0,1,.152-1.633,10.818,10.818,0,0,0,.488-1.11,3.714,3.714,0,0,0,.035-1.319A13.582,13.582,0,0,1,528.055,356.9Z" transform="translate(-413.244 -289.681)" fill="#46455b"/>
    <path id="Path_1562" data-name="Path 1562" d="M843.32,630c0,21.625,13.567,39.127,30.334,39.127" transform="translate(-664.647 -504.255)" fill="#46455b"/>
    <path id="Path_1563" data-name="Path 1563" d="M981.32,667.566c0-21.871,15.138-39.566,33.851-39.566" transform="translate(-772.313 -502.694)" fill="#846be2"/>
    <path id="Path_1564" data-name="Path 1564" d="M893.32,638.86c0,20.544,8.65,37.168,19.344,37.168" transform="translate(-703.656 -511.167)" fill="#846be2"/>
    <path id="Path_1565" data-name="Path 1565" d="M981.32,628.557c0-27.945,17.5-50.557,39.127-50.557" transform="translate(-772.313 -463.685)" fill="#46455b"/>
    <ellipse id="Ellipse_1087" data-name="Ellipse 1087" cx="7.542" cy="1.275" rx="7.542" ry="1.275" transform="translate(200.149 169.785)" fill="#846be2" opacity="0.1"/>
    <path id="Path_1566" data-name="Path 1566" d="M952.28,800.95s4.3-.132,5.6-1.055,6.619-2.027,6.939-.545,6.465,7.364,1.609,7.4-11.285-.756-12.58-1.539S952.28,800.95,952.28,800.95Z" transform="translate(-749.656 -635.814)" fill="#a8a8a8"/>
    <path id="Path_1567" data-name="Path 1567" d="M966.483,814.479c-4.856.04-11.285-.756-12.58-1.539-.985-.6-1.378-2.754-1.508-3.75h-.145s.273,3.469,1.567,4.258,7.722,1.585,12.58,1.539c1.4-.011,1.886-.51,1.86-1.249C968.068,814.2,967.534,814.47,966.483,814.479Z" transform="translate(-749.633 -644.056)" opacity="0.2"/>
    <path id="Path_1568" data-name="Path 1568" d="M750.263,78.5a1.66,1.66,0,0,0,.3-.923c0-2-4.084-3.627-9.122-3.627s-9.122,1.622-9.122,3.627a1.71,1.71,0,0,0,.358,1.029c-5.61.626-9.388,1.8-9.388,3.148,0,2,8.353,3.627,18.684,3.627s18.684-1.624,18.684-3.627C760.665,80.336,756.418,79.094,750.263,78.5Z" transform="translate(-571.001 -70.432)" fill="#846be2" opacity="0.1"/>
    <path id="Path_1569" data-name="Path 1569" d="M241.326,96.5a1.66,1.66,0,0,0,.3-.923c0-2-4.084-3.627-9.122-3.627s-9.122,1.622-9.122,3.627a1.71,1.71,0,0,0,.376,1.029c-5.61.626-9.388,1.8-9.388,3.148,0,2,8.364,3.627,18.684,3.627s18.684-1.624,18.684-3.627C251.727,98.336,247.48,97.094,241.326,96.5Z" transform="translate(-173.948 -84.475)" fill="#846be2" opacity="0.1"/>
    <path id="Path_1570" data-name="Path 1570" d="M628.74,90.816a1.262,1.262,0,0,1,1.556.466,3.868,3.868,0,0,1,.539,1.675c.2,1.3.339,2.794-.539,3.772a12.264,12.264,0,0,1,10.111-8.159" transform="translate(-497.234 -81.838)" fill="none" stroke="#846be2" stroke-miterlimit="10" stroke-width="3" opacity="0.1"/>
    <path id="Path_1571" data-name="Path 1571" d="M295.21,194.613a.821.821,0,0,1,1,.3,2.354,2.354,0,0,1,.347,1.077,2.917,2.917,0,0,1-.345,2.418,7.876,7.876,0,0,1,6.5-5.247" transform="translate(-237.019 -163.438)" fill="none" stroke="#846be2" stroke-miterlimit="10" stroke-width="3" opacity="0.1"/>
    <path id="Path_1572" data-name="Path 1572" d="M745.21,224.613a.821.821,0,0,1,1,.3,2.354,2.354,0,0,1,.347,1.077,2.917,2.917,0,0,1-.345,2.418,7.876,7.876,0,0,1,6.5-5.247" transform="translate(-588.103 -186.843)" fill="none" stroke="#846be2" stroke-miterlimit="10" stroke-width="3" opacity="0.1"/>
    <path id="Path_1573" data-name="Path 1573" d="M694.277,541.034v-5.341l2.462,2.462.615-.637L693.837,534l-3.517,3.517.615.613,2.462-2.438v5.341Z" transform="translate(-545.278 -429.357)" fill="#846be2" opacity="0.1"/>
    <path id="Path_1574" data-name="Path 1574" d="M452.277,621.034v-5.341l2.462,2.462.615-.638L451.837,614l-3.517,3.517.615.613,2.462-2.438v5.341Z" transform="translate(-356.473 -491.772)" fill="#846be2" opacity="0.1"/>
    <path id="Path_1575" data-name="Path 1575" d="M630.277,692.034v-5.341l2.462,2.462.615-.637L629.837,685l-3.517,3.517.615.613,2.462-2.438v5.341Z" transform="translate(-495.346 -547.165)" fill="#846be2" opacity="0.1"/>
  </g>
</svg>
